g Exported Mesh Combined Mesh 
v 2.318515 0.3357057 -1.261929
v 2.318515 0.7037421 -1.497467
v 2.318515 0.3357057 -1.497467
v 2.318515 0.7037421 -1.261929
v 2.318515 0.3357057 -2.26193
v 2.318515 0.7037421 -2.497467
v 2.318515 0.3357057 -2.497467
v 2.318515 0.7037421 -2.26193
v 1.849424 0.3357057 -3.006679
v 1.613886 0.7037421 -3.00668
v 1.613886 0.3357057 -3.00668
v 1.849424 0.7037421 -3.006679
v 0.6906914 0.5167139 -3.011688
v 0.455154 0.7354972 -3.011689
v 0.455154 0.5167139 -3.011689
v 0.6906914 0.7354972 -3.011688
v 0.4751878 0.4946597 -1.837587
v 0.7107252 0.713443 -1.837587
v 0.7107252 0.4946597 -1.837587
v 0.4751878 0.713443 -1.837587
v -0.00287718 0.5775556 -2.665635
v -0.002880128 0.6895447 -2.22404
v -0.002880128 0.5775556 -2.22404
v -0.00287718 0.6895447 -2.665635
v -0.00287718 0.3949742 -2.665635
v -0.002880128 0.5069633 -2.22404
v -0.002880128 0.3949742 -2.22404
v -0.00287718 0.5069633 -2.665635
v -0.00287718 0.1960148 -2.665635
v -0.002880128 0.3080039 -2.22404
v -0.002880128 0.1960148 -2.22404
v -0.00287718 0.3080039 -2.665635

vn 1 7.549791E-08 2.205372E-06
vn 1 7.549791E-08 2.205372E-06
vn 1 7.549791E-08 2.205372E-06
vn 1 7.549791E-08 2.205372E-06
vn 1 7.549791E-08 2.205372E-06
vn 1 7.549791E-08 2.205372E-06
vn 1 7.549791E-08 2.205372E-06
vn 1 7.549791E-08 2.205372E-06
vn 4.509904E-06 7.549791E-08 -1
vn 4.509904E-06 7.549791E-08 -1
vn 4.509904E-06 7.549791E-08 -1
vn 4.509904E-06 7.549791E-08 -1
vn 4.509904E-06 7.549792E-08 -1
vn 4.509904E-06 7.549792E-08 -1
vn 4.509904E-06 7.549792E-08 -1
vn 4.509904E-06 7.549792E-08 -1
vn 0 7.549789E-08 1
vn 0 7.549789E-08 1
vn 0 7.549789E-08 1
vn 0 7.549789E-08 1
vn -1 0 -6.67572E-06
vn -1 0 -6.67572E-06
vn -1 0 -6.67572E-06
vn -1 0 -6.67572E-06
vn -1 0 -6.67572E-06
vn -1 0 -6.67572E-06
vn -1 0 -6.67572E-06
vn -1 0 -6.67572E-06
vn -1 0 -6.67572E-06
vn -1 0 -6.67572E-06
vn -1 0 -6.67572E-06
vn -1 0 -6.67572E-06

vt 0 1
vt 1 0
vt 0 0
vt 1 1
vt 0 1
vt 1 0
vt 0 0
vt 1 1
vt 0 1
vt 1 0
vt 0 0
vt 1 1
vt 0 1
vt 1 0
vt 0 0
vt 1 1
vt 0 1
vt 1 0
vt 0 0
vt 1 1
vt 0 1
vt 1 0
vt 0 0
vt 1 1
vt 0 1
vt 1 0
vt 0 0
vt 1 1
vt 0 1
vt 1 0
vt 0 0
vt 1 1

vt1 0 0
vt1 0 0
vt1 0 0
vt1 0 0
vt1 0 0
vt1 0 0
vt1 0 0
vt1 0 0
vt1 0 0
vt1 0 0
vt1 0 0
vt1 0 0
vt1 0 0
vt1 0 0
vt1 0 0
vt1 0 0
vt1 0 0
vt1 0 0
vt1 0 0
vt1 0 0
vt1 0 0
vt1 0 0
vt1 0 0
vt1 0 0
vt1 0 0
vt1 0 0
vt1 0 0
vt1 0 0
vt1 0 0
vt1 0 0
vt1 0 0
vt1 0 0

vt2 0 0
vt2 0 0
vt2 0 0
vt2 0 0
vt2 0 0
vt2 0 0
vt2 0 0
vt2 0 0
vt2 0 0
vt2 0 0
vt2 0 0
vt2 0 0
vt2 0 0
vt2 0 0
vt2 0 0
vt2 0 0
vt2 0 0
vt2 0 0
vt2 0 0
vt2 0 0
vt2 0 0
vt2 0 0
vt2 0 0
vt2 0 0
vt2 0 0
vt2 0 0
vt2 0 0
vt2 0 0
vt2 0 0
vt2 0 0
vt2 0 0
vt2 0 0

vc 1 1 1 1
vc 1 1 1 1
vc 1 1 1 1
vc 1 1 1 1
vc 1 1 1 1
vc 1 1 1 1
vc 1 1 1 1
vc 1 1 1 1
vc 1 1 1 1
vc 1 1 1 1
vc 1 1 1 1
vc 1 1 1 1
vc 1 1 1 1
vc 1 1 1 1
vc 1 1 1 1
vc 1 1 1 1
vc 1 1 1 1
vc 1 1 1 1
vc 1 1 1 1
vc 1 1 1 1
vc 1 1 1 1
vc 1 1 1 1
vc 1 1 1 1
vc 1 1 1 1
vc 1 1 1 1
vc 1 1 1 1
vc 1 1 1 1
vc 1 1 1 1
vc 1 1 1 1
vc 1 1 1 1
vc 1 1 1 1
vc 1 1 1 1
f 1/1/1 3/3/3 2/2/2
f 1/1/1 2/2/2 4/4/4
f 5/5/5 7/7/7 6/6/6
f 5/5/5 6/6/6 8/8/8
f 9/9/9 11/11/11 10/10/10
f 9/9/9 10/10/10 12/12/12
f 13/13/13 15/15/15 14/14/14
f 13/13/13 14/14/14 16/16/16
f 17/17/17 19/19/19 18/18/18
f 17/17/17 18/18/18 20/20/20
f 21/21/21 23/23/23 22/22/22
f 21/21/21 22/22/22 24/24/24
f 25/25/25 27/27/27 26/26/26
f 25/25/25 26/26/26 28/28/28
f 29/29/29 31/31/31 30/30/30
f 29/29/29 30/30/30 32/32/32

