g Exported Mesh Combined Mesh 
v -0.5 1 0.5500003
v -0.5 2.710149E-07 0.4500006
v -0.5 1 0.4500003
v -0.5 3.069872E-07 0.5500007
v -0.5 1 0.4500003
v 0.5 2.710149E-07 0.4500006
v 0.5 1 0.4500003
v -0.5 2.710149E-07 0.4500006
v 0.5 1 0.4500003
v 0.5 3.069872E-07 0.5500007
v 0.5 1 0.5500003
v 0.5 2.710149E-07 0.4500006
v 0.5 1 0.5500003
v -0.5 3.069872E-07 0.5500007
v -0.5 1 0.5500003
v 0.5 3.069872E-07 0.5500007
v -0.5 3.069872E-07 0.5500007
v 0.5 2.710149E-07 0.4500006
v -0.5 2.710149E-07 0.4500006
v 0.5 3.069872E-07 0.5500007
v 0.5 1 0.5500003
v -0.5 1 0.4500003
v 0.5 1 0.4500003
v -0.5 1 0.5500003
v -0.5000052 1 0.450001
v -0.600005 1.280569E-07 0.4499996
v -0.6000052 1 0.45
v -0.5000051 1.520384E-07 0.4500006
v -0.6000052 1 0.45
v -0.5999949 5.459879E-07 -0.5500005
v -0.5999951 1 -0.5500005
v -0.600005 1.280569E-07 0.4499996
v -0.5999951 1 -0.5500005
v -0.4999949 5.690381E-07 -0.5499995
v -0.4999951 1 -0.5499985
v -0.5999949 5.459879E-07 -0.5500005
v -0.4999951 1 -0.5499985
v -0.5000051 1.520384E-07 0.4500006
v -0.5000052 1 0.450001
v -0.4999949 5.690381E-07 -0.5499995
v -0.5000051 1.520384E-07 0.4500006
v -0.5999949 5.459879E-07 -0.5500005
v -0.600005 1.280569E-07 0.4499996
v -0.4999949 5.690381E-07 -0.5499995
v -0.4999951 1 -0.5499985
v -0.6000052 1 0.45
v -0.5999951 1 -0.5500005
v -0.5000052 1 0.450001
v 0.5999943 1 0.4500011
v 0.4999946 0 0.4499995
v 0.4999943 1 0.45
v 0.5999946 4.202593E-08 0.4500006
v 0.4999943 1 0.45
v 0.5000056 5.370239E-07 -0.5500005
v 0.5000053 1.000001 -0.5500005
v 0.4999946 0 0.4499995
v 0.5000053 1.000001 -0.5500005
v 0.6000056 5.780021E-07 -0.5499995
v 0.6000053 1.000001 -0.5499985
v 0.5000056 5.370239E-07 -0.5500005
v 0.6000053 1.000001 -0.5499985
v 0.5999946 4.202593E-08 0.4500006
v 0.5999943 1 0.4500011
v 0.6000056 5.780021E-07 -0.5499995
v 0.5999946 4.202593E-08 0.4500006
v 0.5000056 5.370239E-07 -0.5500005
v 0.4999946 0 0.4499995
v 0.6000056 5.780021E-07 -0.5499995
v 0.6000053 1.000001 -0.5499985
v 0.4999943 1 0.45
v 0.5000053 1.000001 -0.5500005
v 0.5999943 1 0.4500011
v 0.4863335 0.9760275 0.2808588
v 0.4863325 0.9172589 0.4380304
v 0.4863326 0.9760275 0.4380304
v 0.4863333 0.9172589 0.2808588
v 0.4863326 0.9760275 0.4380304
v -0.5132789 0.9172591 0.4380266
v -0.5132788 0.9760277 0.4380266
v 0.4863325 0.9172589 0.4380304
v -0.5132788 0.9760277 0.4380266
v -0.5132781 0.9172591 0.280855
v -0.5132779 0.9760277 0.280855
v -0.5132789 0.9172591 0.4380266
v -0.5132779 0.9760277 0.280855
v 0.4863333 0.9172589 0.2808588
v 0.4863335 0.9760275 0.2808588
v -0.5132781 0.9172591 0.280855
v 0.4863333 0.9172589 0.2808588
v -0.5132789 0.9172591 0.4380266
v 0.4863325 0.9172589 0.4380304
v -0.5132781 0.9172591 0.280855
v -0.5132779 0.9760277 0.280855
v 0.4863326 0.9760275 0.4380304
v -0.5132788 0.9760277 0.4380266
v 0.4863335 0.9760275 0.2808588
v -0.5132802 0.9760272 0.1202593
v -0.5132802 0.9172584 0.2774306
v -0.5132802 0.9172586 0.120259
v -0.5132802 0.9760271 0.2774309
v -0.5132802 0.9172586 0.120259
v 0.4863312 0.9172584 0.2774306
v 0.4863312 0.9172586 0.120259
v -0.5132802 0.9172584 0.2774306
v 0.4863312 0.9172586 0.120259
v 0.4863312 0.9760271 0.2774309
v 0.4863312 0.9760272 0.1202593
v 0.4863312 0.9172584 0.2774306
v 0.4863312 0.9760272 0.1202593
v -0.5132802 0.9760271 0.2774309
v -0.5132802 0.9760272 0.1202593
v 0.4863312 0.9760271 0.2774309
v -0.5132802 0.9760271 0.2774309
v 0.4863312 0.9172584 0.2774306
v -0.5132802 0.9172584 0.2774306
v 0.4863312 0.9760271 0.2774309
v 0.4863312 0.9760272 0.1202593
v -0.5132802 0.9172586 0.120259
v 0.4863312 0.9172586 0.120259
v -0.5132802 0.9760272 0.1202593
v -0.5132802 0.9760276 0.1112277
v -0.5132802 0.917259 -0.04594392
v -0.5132802 0.9760276 -0.04594392
v -0.5132802 0.917259 0.1112277
v -0.5132802 0.9760276 -0.04594392
v 0.4863312 0.917259 -0.04594392
v 0.4863312 0.9760276 -0.04594392
v -0.5132802 0.917259 -0.04594392
v 0.4863312 0.9760276 -0.04594392
v 0.4863312 0.917259 0.1112277
v 0.4863312 0.9760276 0.1112277
v 0.4863312 0.917259 -0.04594392
v 0.4863312 0.9760276 0.1112277
v -0.5132802 0.917259 0.1112277
v -0.5132802 0.9760276 0.1112277
v 0.4863312 0.917259 0.1112277
v -0.5132802 0.917259 0.1112277
v 0.4863312 0.917259 -0.04594392
v -0.5132802 0.917259 -0.04594392
v 0.4863312 0.917259 0.1112277
v 0.4863312 0.9760276 0.1112277
v -0.5132802 0.9760276 -0.04594392
v 0.4863312 0.9760276 -0.04594392
v -0.5132802 0.9760276 0.1112277
v -0.5132802 0.917259 -0.05217208
v -0.5132802 0.9760275 -0.209344
v -0.5132802 0.9760277 -0.05217244
v -0.5132802 0.9172589 -0.2093437
v -0.5132802 0.9760277 -0.05217244
v 0.4863312 0.9760275 -0.209344
v 0.4863312 0.9760277 -0.05217244
v -0.5132802 0.9760275 -0.209344
v 0.4863312 0.9760277 -0.05217244
v 0.4863312 0.9172589 -0.2093437
v 0.4863312 0.917259 -0.05217208
v 0.4863312 0.9760275 -0.209344
v 0.4863312 0.917259 -0.05217208
v -0.5132802 0.9172589 -0.2093437
v -0.5132802 0.917259 -0.05217208
v 0.4863312 0.9172589 -0.2093437
v -0.5132802 0.9172589 -0.2093437
v 0.4863312 0.9760275 -0.209344
v -0.5132802 0.9760275 -0.209344
v 0.4863312 0.9172589 -0.2093437
v 0.4863312 0.917259 -0.05217208
v -0.5132802 0.9760277 -0.05217244
v 0.4863312 0.9760277 -0.05217244
v -0.5132802 0.917259 -0.05217208
v -0.5132802 0.9760275 -0.2183724
v -0.5132802 0.9172589 -0.375544
v -0.5132802 0.9760275 -0.375544
v -0.5132802 0.917259 -0.2183724
v -0.5132802 0.9760275 -0.375544
v 0.4863312 0.9172589 -0.375544
v 0.4863312 0.9760275 -0.375544
v -0.5132802 0.9172589 -0.375544
v 0.4863312 0.9760275 -0.375544
v 0.4863312 0.917259 -0.2183724
v 0.4863312 0.9760275 -0.2183724
v 0.4863312 0.9172589 -0.375544
v 0.4863312 0.9760275 -0.2183724
v -0.5132802 0.917259 -0.2183724
v -0.5132802 0.9760275 -0.2183724
v 0.4863312 0.917259 -0.2183724
v -0.5132802 0.917259 -0.2183724
v 0.4863312 0.9172589 -0.375544
v -0.5132802 0.9172589 -0.375544
v 0.4863312 0.917259 -0.2183724
v 0.4863312 0.9760275 -0.2183724
v -0.5132802 0.9760275 -0.375544
v 0.4863312 0.9760275 -0.375544
v -0.5132802 0.9760275 -0.2183724
v 0.4863296 0.9760331 -0.3817814
v 0.4863308 0.9172642 -0.5389524
v 0.4863296 0.9172645 -0.3817808
v 0.4863308 0.9760329 -0.538953
v 0.4863296 0.9172645 -0.3817808
v -0.5132809 0.9172642 -0.5389576
v -0.5132821 0.9172645 -0.381786
v 0.4863308 0.9172642 -0.5389524
v -0.5132821 0.9172645 -0.381786
v -0.5132809 0.9760329 -0.5389582
v -0.5132821 0.9760331 -0.3817866
v -0.5132809 0.9172642 -0.5389576
v -0.5132821 0.9760331 -0.3817866
v 0.4863308 0.9760329 -0.538953
v 0.4863296 0.9760331 -0.3817814
v -0.5132809 0.9760329 -0.5389582
v 0.4863308 0.9760329 -0.538953
v -0.5132809 0.9172642 -0.5389576
v 0.4863308 0.9172642 -0.5389524
v -0.5132809 0.9760329 -0.5389582
v -0.5132821 0.9760331 -0.3817866
v 0.4863296 0.9172645 -0.3817808
v -0.5132821 0.9172645 -0.381786
v 0.4863296 0.9760331 -0.3817814

vn -1 0 0
vn -1 0 0
vn -1 0 0
vn -1 0 0
vn 0 0 -1
vn 0 0 -1
vn 0 0 -1
vn 0 0 -1
vn 1 0 0
vn 1 0 0
vn 1 0 0
vn 1 0 0
vn 0 0 1
vn 0 0 1
vn 0 0 1
vn 0 0 1
vn 0 -1 0
vn 0 -1 0
vn 0 -1 0
vn 0 -1 0
vn 0 1 0
vn 0 1 0
vn 0 1 0
vn 0 1 0
vn -1.019239E-05 0 1
vn -1.019239E-05 0 1
vn -1.019239E-05 0 1
vn -1.019239E-05 0 1
vn -1 0 -1.013279E-05
vn -1 0 -1.013279E-05
vn -1 0 -1.013279E-05
vn -1 0 -1.013279E-05
vn 1.019239E-05 0 -1
vn 1.019239E-05 0 -1
vn 1.019239E-05 0 -1
vn 1.019239E-05 0 -1
vn 1 0 1.013279E-05
vn 1 0 1.013279E-05
vn 1 0 1.013279E-05
vn 1 0 1.013279E-05
vn 0 -1 0
vn 0 -1 0
vn 0 -1 0
vn 0 -1 0
vn 0 1 0
vn 0 1 0
vn 0 1 0
vn 0 1 0
vn -1.111627E-05 0 1
vn -1.111627E-05 0 1
vn -1.111627E-05 0 1
vn -1.111627E-05 0 1
vn -1 0 -1.102686E-05
vn -1 0 -1.102686E-05
vn -1 0 -1.102686E-05
vn -1 0 -1.102686E-05
vn 1.111627E-05 0 -1
vn 1.111627E-05 0 -1
vn 1.111627E-05 0 -1
vn 1.111627E-05 0 -1
vn 1 0 1.102686E-05
vn 1 0 1.102686E-05
vn 1 0 1.102686E-05
vn 1 0 1.102686E-05
vn 0 -1 0
vn 0 -1 0
vn 0 -1 0
vn 0 -1 0
vn 0 1 0
vn 0 1 0
vn 0 1 0
vn 0 1 0
vn 1 0 0
vn 1 0 0
vn 1 0 0
vn 1 0 0
vn 0 0 1
vn 0 0 1
vn 0 0 1
vn 0 0 1
vn -1 0 0
vn -1 0 0
vn -1 0 0
vn -1 0 0
vn 0 0 -1
vn 0 0 -1
vn 0 0 -1
vn 0 0 -1
vn 0 -1 0
vn 0 -1 0
vn 0 -1 0
vn 0 -1 0
vn 0 1 0
vn 0 1 0
vn 0 1 0
vn 0 1 0
vn -1 0 0
vn -1 0 0
vn -1 0 0
vn -1 0 0
vn 0 -1 0
vn 0 -1 0
vn 0 -1 0
vn 0 -1 0
vn 1 0 0
vn 1 0 0
vn 1 0 0
vn 1 0 0
vn 0 1 0
vn 0 1 0
vn 0 1 0
vn 0 1 0
vn 0 0 1
vn 0 0 1
vn 0 0 1
vn 0 0 1
vn 0 0 -1
vn 0 0 -1
vn 0 0 -1
vn 0 0 -1
vn -1 0 0
vn -1 0 0
vn -1 0 0
vn -1 0 0
vn 0 0 -1
vn 0 0 -1
vn 0 0 -1
vn 0 0 -1
vn 1 0 0
vn 1 0 0
vn 1 0 0
vn 1 0 0
vn 0 0 1
vn 0 0 1
vn 0 0 1
vn 0 0 1
vn 0 -1 0
vn 0 -1 0
vn 0 -1 0
vn 0 -1 0
vn 0 1 0
vn 0 1 0
vn 0 1 0
vn 0 1 0
vn -1 0 0
vn -1 0 0
vn -1 0 0
vn -1 0 0
vn 0 1 0
vn 0 1 0
vn 0 1 0
vn 0 1 0
vn 1 0 0
vn 1 0 0
vn 1 0 0
vn 1 0 0
vn 0 -1 0
vn 0 -1 0
vn 0 -1 0
vn 0 -1 0
vn 0 0 -1
vn 0 0 -1
vn 0 0 -1
vn 0 0 -1
vn 0 0 1
vn 0 0 1
vn 0 0 1
vn 0 0 1
vn -1 0 0
vn -1 0 0
vn -1 0 0
vn -1 0 0
vn 0 0 -1
vn 0 0 -1
vn 0 0 -1
vn 0 0 -1
vn 1 0 0
vn 1 0 0
vn 1 0 0
vn 1 0 0
vn 0 0 1
vn 0 0 1
vn 0 0 1
vn 0 0 1
vn 0 -1 0
vn 0 -1 0
vn 0 -1 0
vn 0 -1 0
vn 0 1 0
vn 0 1 0
vn 0 1 0
vn 0 1 0
vn 1 0 0
vn 1 0 0
vn 1 0 0
vn 1 0 0
vn 0 -1 0
vn 0 -1 0
vn 0 -1 0
vn 0 -1 0
vn -1 0 0
vn -1 0 0
vn -1 0 0
vn -1 0 0
vn 0 1 0
vn 0 1 0
vn 0 1 0
vn 0 1 0
vn 0 -1.00025E-05 -1
vn 0 -1.00025E-05 -1
vn 0 -1.00025E-05 -1
vn 0 -1.00025E-05 -1
vn 0 1.00025E-05 1
vn 0 1.00025E-05 1
vn 0 1.00025E-05 1
vn 0 1.00025E-05 1

vt 0.2500815 0.000163
vt 0.2750655 0.499837
vt 0.275065 0.000163
vt 0.2500815 0.499837
vt 0.0008235 0.499174
vt 0.2491765 1.001798
vt -0.000656 0.998839
vt 0.250656 0.502133
vt 0.3269455 0.000163
vt 0.301962 0.499837
vt 0.301962 0.000163
vt 0.326946 0.499837
vt 8.15E-05 0.999837
vt 0.2499185 0.500163
vt 8.15E-05 0.500163
vt 0.2499185 0.999837
vt 0.4999185 0.500163
vt 0.2500815 0.550131
vt 0.4999185 0.550131
vt 0.2500815 0.500163
vt 0.301212 0.499337
vt 0.2762285 -0.000337
vt 0.2762285 0.499337
vt 0.301212 -0.000337
vt 0.2500815 0.000163
vt 0.2750655 0.499837
vt 0.275065 0.000163
vt 0.2500815 0.499837
vt 0.0008235 0.499174
vt 0.2491765 1.001798
vt -0.000656 0.998839
vt 0.250656 0.502133
vt 0.3269455 0.000163
vt 0.301962 0.499837
vt 0.301962 0.000163
vt 0.326946 0.499837
vt 8.15E-05 0.999837
vt 0.2499185 0.500163
vt 8.15E-05 0.500163
vt 0.2499185 0.999837
vt 0.4999185 0.500163
vt 0.2500815 0.550131
vt 0.4999185 0.550131
vt 0.2500815 0.500163
vt 0.301212 0.499337
vt 0.2762285 -0.000337
vt 0.2762285 0.499337
vt 0.301212 -0.000337
vt 0.2500815 0.000163
vt 0.2750655 0.499837
vt 0.275065 0.000163
vt 0.2500815 0.499837
vt 0.0008235 0.499174
vt 0.2491765 1.001798
vt -0.000656 0.998839
vt 0.250656 0.502133
vt 0.3269455 0.000163
vt 0.301962 0.499837
vt 0.301962 0.000163
vt 0.326946 0.499837
vt 8.15E-05 0.999837
vt 0.2499185 0.500163
vt 8.15E-05 0.500163
vt 0.2499185 0.999837
vt 0.4999185 0.500163
vt 0.2500815 0.550131
vt 0.4999185 0.550131
vt 0.2500815 0.500163
vt 0.301212 0.499337
vt 0.2762285 -0.000337
vt 0.2762285 0.499337
vt 0.301212 -0.000337
vt 0.820813 0.407566
vt 0.730831 0.58753
vt 0.820813 0.58753
vt 0.730831 0.407566
vt 0.5992455 0.008232
vt 0.5064015 0.992381
vt 0.5992455 0.992381
vt 0.5064015 0.008232
vt 0.8206845 0.407566
vt 0.730703 0.58753
vt 0.8206845 0.58753
vt 0.730703 0.407566
vt 0.5992335 0.00824
vt 0.506389 0.992389
vt 0.5992335 0.992389
vt 0.506389 0.00824
vt 0.7149865 0.992559
vt 0.622142 0.00841
vt 0.622142 0.992559
vt 0.7149865 0.00841
vt 0.6221585 0.008423
vt 0.7150025 0.992572
vt 0.7150025 0.008423
vt 0.6221585 0.992572
vt 0.820813 0.407566
vt 0.730831 0.58753
vt 0.820813 0.58753
vt 0.730831 0.407566
vt 0.5992455 0.008232
vt 0.5064015 0.992381
vt 0.5992455 0.992381
vt 0.5064015 0.008232
vt 0.8206845 0.407566
vt 0.730703 0.58753
vt 0.8206845 0.58753
vt 0.730703 0.407566
vt 0.5992335 0.00824
vt 0.506389 0.992389
vt 0.5992335 0.992389
vt 0.506389 0.00824
vt 0.7149865 0.992559
vt 0.622142 0.00841
vt 0.622142 0.992559
vt 0.7149865 0.00841
vt 0.6221585 0.008423
vt 0.7150025 0.992572
vt 0.7150025 0.008423
vt 0.6221585 0.992572
vt 0.820813 0.407566
vt 0.730831 0.58753
vt 0.820813 0.58753
vt 0.730831 0.407566
vt 0.5992455 0.008232
vt 0.5064015 0.992381
vt 0.5992455 0.992381
vt 0.5064015 0.008232
vt 0.8206845 0.407566
vt 0.730703 0.58753
vt 0.8206845 0.58753
vt 0.730703 0.407566
vt 0.5992335 0.00824
vt 0.506389 0.992389
vt 0.5992335 0.992389
vt 0.506389 0.00824
vt 0.7149865 0.992559
vt 0.622142 0.00841
vt 0.622142 0.992559
vt 0.7149865 0.00841
vt 0.6221585 0.008423
vt 0.7150025 0.992572
vt 0.7150025 0.008423
vt 0.6221585 0.992572
vt 0.820813 0.407566
vt 0.730831 0.58753
vt 0.820813 0.58753
vt 0.730831 0.407566
vt 0.5992455 0.008232
vt 0.5064015 0.992381
vt 0.5992455 0.992381
vt 0.5064015 0.008232
vt 0.8206845 0.407566
vt 0.730703 0.58753
vt 0.8206845 0.58753
vt 0.730703 0.407566
vt 0.5992335 0.00824
vt 0.506389 0.992389
vt 0.5992335 0.992389
vt 0.506389 0.00824
vt 0.7149865 0.992559
vt 0.622142 0.00841
vt 0.622142 0.992559
vt 0.7149865 0.00841
vt 0.6221585 0.008423
vt 0.7150025 0.992572
vt 0.7150025 0.008423
vt 0.6221585 0.992572
vt 0.820813 0.407566
vt 0.730831 0.58753
vt 0.820813 0.58753
vt 0.730831 0.407566
vt 0.5992455 0.008232
vt 0.5064015 0.992381
vt 0.5992455 0.992381
vt 0.5064015 0.008232
vt 0.8206845 0.407566
vt 0.730703 0.58753
vt 0.8206845 0.58753
vt 0.730703 0.407566
vt 0.5992335 0.00824
vt 0.506389 0.992389
vt 0.5992335 0.992389
vt 0.506389 0.00824
vt 0.7149865 0.992559
vt 0.622142 0.00841
vt 0.622142 0.992559
vt 0.7149865 0.00841
vt 0.6221585 0.008423
vt 0.7150025 0.992572
vt 0.7150025 0.008423
vt 0.6221585 0.992572
vt 0.820813 0.407566
vt 0.730831 0.58753
vt 0.820813 0.58753
vt 0.730831 0.407566
vt 0.5992455 0.008232
vt 0.5064015 0.992381
vt 0.5992455 0.992381
vt 0.5064015 0.008232
vt 0.8206845 0.407566
vt 0.730703 0.58753
vt 0.8206845 0.58753
vt 0.730703 0.407566
vt 0.5992335 0.00824
vt 0.506389 0.992389
vt 0.5992335 0.992389
vt 0.506389 0.00824
vt 0.7149865 0.992559
vt 0.622142 0.00841
vt 0.622142 0.992559
vt 0.7149865 0.00841
vt 0.6221585 0.008423
vt 0.7150025 0.992572
vt 0.7150025 0.008423
vt 0.6221585 0.992572

vt1 0 0
vt1 0 0
vt1 0 0
vt1 0 0
vt1 0 0
vt1 0 0
vt1 0 0
vt1 0 0
vt1 0 0
vt1 0 0
vt1 0 0
vt1 0 0
vt1 0 0
vt1 0 0
vt1 0 0
vt1 0 0
vt1 0 0
vt1 0 0
vt1 0 0
vt1 0 0
vt1 0 0
vt1 0 0
vt1 0 0
vt1 0 0
vt1 0 0
vt1 0 0
vt1 0 0
vt1 0 0
vt1 0 0
vt1 0 0
vt1 0 0
vt1 0 0
vt1 0 0
vt1 0 0
vt1 0 0
vt1 0 0
vt1 0 0
vt1 0 0
vt1 0 0
vt1 0 0
vt1 0 0
vt1 0 0
vt1 0 0
vt1 0 0
vt1 0 0
vt1 0 0
vt1 0 0
vt1 0 0
vt1 0 0
vt1 0 0
vt1 0 0
vt1 0 0
vt1 0 0
vt1 0 0
vt1 0 0
vt1 0 0
vt1 0 0
vt1 0 0
vt1 0 0
vt1 0 0
vt1 0 0
vt1 0 0
vt1 0 0
vt1 0 0
vt1 0 0
vt1 0 0
vt1 0 0
vt1 0 0
vt1 0 0
vt1 0 0
vt1 0 0
vt1 0 0
vt1 0 0
vt1 0 0
vt1 0 0
vt1 0 0
vt1 0 0
vt1 0 0
vt1 0 0
vt1 0 0
vt1 0 0
vt1 0 0
vt1 0 0
vt1 0 0
vt1 0 0
vt1 0 0
vt1 0 0
vt1 0 0
vt1 0 0
vt1 0 0
vt1 0 0
vt1 0 0
vt1 0 0
vt1 0 0
vt1 0 0
vt1 0 0
vt1 0 0
vt1 0 0
vt1 0 0
vt1 0 0
vt1 0 0
vt1 0 0
vt1 0 0
vt1 0 0
vt1 0 0
vt1 0 0
vt1 0 0
vt1 0 0
vt1 0 0
vt1 0 0
vt1 0 0
vt1 0 0
vt1 0 0
vt1 0 0
vt1 0 0
vt1 0 0
vt1 0 0
vt1 0 0
vt1 0 0
vt1 0 0
vt1 0 0
vt1 0 0
vt1 0 0
vt1 0 0
vt1 0 0
vt1 0 0
vt1 0 0
vt1 0 0
vt1 0 0
vt1 0 0
vt1 0 0
vt1 0 0
vt1 0 0
vt1 0 0
vt1 0 0
vt1 0 0
vt1 0 0
vt1 0 0
vt1 0 0
vt1 0 0
vt1 0 0
vt1 0 0
vt1 0 0
vt1 0 0
vt1 0 0
vt1 0 0
vt1 0 0
vt1 0 0
vt1 0 0
vt1 0 0
vt1 0 0
vt1 0 0
vt1 0 0
vt1 0 0
vt1 0 0
vt1 0 0
vt1 0 0
vt1 0 0
vt1 0 0
vt1 0 0
vt1 0 0
vt1 0 0
vt1 0 0
vt1 0 0
vt1 0 0
vt1 0 0
vt1 0 0
vt1 0 0
vt1 0 0
vt1 0 0
vt1 0 0
vt1 0 0
vt1 0 0
vt1 0 0
vt1 0 0
vt1 0 0
vt1 0 0
vt1 0 0
vt1 0 0
vt1 0 0
vt1 0 0
vt1 0 0
vt1 0 0
vt1 0 0
vt1 0 0
vt1 0 0
vt1 0 0
vt1 0 0
vt1 0 0
vt1 0 0
vt1 0 0
vt1 0 0
vt1 0 0
vt1 0 0
vt1 0 0
vt1 0 0
vt1 0 0
vt1 0 0
vt1 0 0
vt1 0 0
vt1 0 0
vt1 0 0
vt1 0 0
vt1 0 0
vt1 0 0
vt1 0 0
vt1 0 0
vt1 0 0
vt1 0 0
vt1 0 0
vt1 0 0
vt1 0 0
vt1 0 0
vt1 0 0
vt1 0 0
vt1 0 0

vt2 0 0
vt2 0 0
vt2 0 0
vt2 0 0
vt2 0 0
vt2 0 0
vt2 0 0
vt2 0 0
vt2 0 0
vt2 0 0
vt2 0 0
vt2 0 0
vt2 0 0
vt2 0 0
vt2 0 0
vt2 0 0
vt2 0 0
vt2 0 0
vt2 0 0
vt2 0 0
vt2 0 0
vt2 0 0
vt2 0 0
vt2 0 0
vt2 0 0
vt2 0 0
vt2 0 0
vt2 0 0
vt2 0 0
vt2 0 0
vt2 0 0
vt2 0 0
vt2 0 0
vt2 0 0
vt2 0 0
vt2 0 0
vt2 0 0
vt2 0 0
vt2 0 0
vt2 0 0
vt2 0 0
vt2 0 0
vt2 0 0
vt2 0 0
vt2 0 0
vt2 0 0
vt2 0 0
vt2 0 0
vt2 0 0
vt2 0 0
vt2 0 0
vt2 0 0
vt2 0 0
vt2 0 0
vt2 0 0
vt2 0 0
vt2 0 0
vt2 0 0
vt2 0 0
vt2 0 0
vt2 0 0
vt2 0 0
vt2 0 0
vt2 0 0
vt2 0 0
vt2 0 0
vt2 0 0
vt2 0 0
vt2 0 0
vt2 0 0
vt2 0 0
vt2 0 0
vt2 0 0
vt2 0 0
vt2 0 0
vt2 0 0
vt2 0 0
vt2 0 0
vt2 0 0
vt2 0 0
vt2 0 0
vt2 0 0
vt2 0 0
vt2 0 0
vt2 0 0
vt2 0 0
vt2 0 0
vt2 0 0
vt2 0 0
vt2 0 0
vt2 0 0
vt2 0 0
vt2 0 0
vt2 0 0
vt2 0 0
vt2 0 0
vt2 0 0
vt2 0 0
vt2 0 0
vt2 0 0
vt2 0 0
vt2 0 0
vt2 0 0
vt2 0 0
vt2 0 0
vt2 0 0
vt2 0 0
vt2 0 0
vt2 0 0
vt2 0 0
vt2 0 0
vt2 0 0
vt2 0 0
vt2 0 0
vt2 0 0
vt2 0 0
vt2 0 0
vt2 0 0
vt2 0 0
vt2 0 0
vt2 0 0
vt2 0 0
vt2 0 0
vt2 0 0
vt2 0 0
vt2 0 0
vt2 0 0
vt2 0 0
vt2 0 0
vt2 0 0
vt2 0 0
vt2 0 0
vt2 0 0
vt2 0 0
vt2 0 0
vt2 0 0
vt2 0 0
vt2 0 0
vt2 0 0
vt2 0 0
vt2 0 0
vt2 0 0
vt2 0 0
vt2 0 0
vt2 0 0
vt2 0 0
vt2 0 0
vt2 0 0
vt2 0 0
vt2 0 0
vt2 0 0
vt2 0 0
vt2 0 0
vt2 0 0
vt2 0 0
vt2 0 0
vt2 0 0
vt2 0 0
vt2 0 0
vt2 0 0
vt2 0 0
vt2 0 0
vt2 0 0
vt2 0 0
vt2 0 0
vt2 0 0
vt2 0 0
vt2 0 0
vt2 0 0
vt2 0 0
vt2 0 0
vt2 0 0
vt2 0 0
vt2 0 0
vt2 0 0
vt2 0 0
vt2 0 0
vt2 0 0
vt2 0 0
vt2 0 0
vt2 0 0
vt2 0 0
vt2 0 0
vt2 0 0
vt2 0 0
vt2 0 0
vt2 0 0
vt2 0 0
vt2 0 0
vt2 0 0
vt2 0 0
vt2 0 0
vt2 0 0
vt2 0 0
vt2 0 0
vt2 0 0
vt2 0 0
vt2 0 0
vt2 0 0
vt2 0 0
vt2 0 0
vt2 0 0
vt2 0 0
vt2 0 0
vt2 0 0
vt2 0 0
vt2 0 0
vt2 0 0
vt2 0 0
vt2 0 0
vt2 0 0
vt2 0 0
vt2 0 0
vt2 0 0
vt2 0 0
vt2 0 0

vc 1 1 1 1
vc 1 1 1 1
vc 1 1 1 1
vc 1 1 1 1
vc 1 1 1 1
vc 1 1 1 1
vc 1 1 1 1
vc 1 1 1 1
vc 1 1 1 1
vc 1 1 1 1
vc 1 1 1 1
vc 1 1 1 1
vc 1 1 1 1
vc 1 1 1 1
vc 1 1 1 1
vc 1 1 1 1
vc 1 1 1 1
vc 1 1 1 1
vc 1 1 1 1
vc 1 1 1 1
vc 1 1 1 1
vc 1 1 1 1
vc 1 1 1 1
vc 1 1 1 1
vc 1 1 1 1
vc 1 1 1 1
vc 1 1 1 1
vc 1 1 1 1
vc 1 1 1 1
vc 1 1 1 1
vc 1 1 1 1
vc 1 1 1 1
vc 1 1 1 1
vc 1 1 1 1
vc 1 1 1 1
vc 1 1 1 1
vc 1 1 1 1
vc 1 1 1 1
vc 1 1 1 1
vc 1 1 1 1
vc 1 1 1 1
vc 1 1 1 1
vc 1 1 1 1
vc 1 1 1 1
vc 1 1 1 1
vc 1 1 1 1
vc 1 1 1 1
vc 1 1 1 1
vc 1 1 1 1
vc 1 1 1 1
vc 1 1 1 1
vc 1 1 1 1
vc 1 1 1 1
vc 1 1 1 1
vc 1 1 1 1
vc 1 1 1 1
vc 1 1 1 1
vc 1 1 1 1
vc 1 1 1 1
vc 1 1 1 1
vc 1 1 1 1
vc 1 1 1 1
vc 1 1 1 1
vc 1 1 1 1
vc 1 1 1 1
vc 1 1 1 1
vc 1 1 1 1
vc 1 1 1 1
vc 1 1 1 1
vc 1 1 1 1
vc 1 1 1 1
vc 1 1 1 1
vc 1 1 1 1
vc 1 1 1 1
vc 1 1 1 1
vc 1 1 1 1
vc 1 1 1 1
vc 1 1 1 1
vc 1 1 1 1
vc 1 1 1 1
vc 1 1 1 1
vc 1 1 1 1
vc 1 1 1 1
vc 1 1 1 1
vc 1 1 1 1
vc 1 1 1 1
vc 1 1 1 1
vc 1 1 1 1
vc 1 1 1 1
vc 1 1 1 1
vc 1 1 1 1
vc 1 1 1 1
vc 1 1 1 1
vc 1 1 1 1
vc 1 1 1 1
vc 1 1 1 1
vc 1 1 1 1
vc 1 1 1 1
vc 1 1 1 1
vc 1 1 1 1
vc 1 1 1 1
vc 1 1 1 1
vc 1 1 1 1
vc 1 1 1 1
vc 1 1 1 1
vc 1 1 1 1
vc 1 1 1 1
vc 1 1 1 1
vc 1 1 1 1
vc 1 1 1 1
vc 1 1 1 1
vc 1 1 1 1
vc 1 1 1 1
vc 1 1 1 1
vc 1 1 1 1
vc 1 1 1 1
vc 1 1 1 1
vc 1 1 1 1
vc 1 1 1 1
vc 1 1 1 1
vc 1 1 1 1
vc 1 1 1 1
vc 1 1 1 1
vc 1 1 1 1
vc 1 1 1 1
vc 1 1 1 1
vc 1 1 1 1
vc 1 1 1 1
vc 1 1 1 1
vc 1 1 1 1
vc 1 1 1 1
vc 1 1 1 1
vc 1 1 1 1
vc 1 1 1 1
vc 1 1 1 1
vc 1 1 1 1
vc 1 1 1 1
vc 1 1 1 1
vc 1 1 1 1
vc 1 1 1 1
vc 1 1 1 1
vc 1 1 1 1
vc 1 1 1 1
vc 1 1 1 1
vc 1 1 1 1
vc 1 1 1 1
vc 1 1 1 1
vc 1 1 1 1
vc 1 1 1 1
vc 1 1 1 1
vc 1 1 1 1
vc 1 1 1 1
vc 1 1 1 1
vc 1 1 1 1
vc 1 1 1 1
vc 1 1 1 1
vc 1 1 1 1
vc 1 1 1 1
vc 1 1 1 1
vc 1 1 1 1
vc 1 1 1 1
vc 1 1 1 1
vc 1 1 1 1
vc 1 1 1 1
vc 1 1 1 1
vc 1 1 1 1
vc 1 1 1 1
vc 1 1 1 1
vc 1 1 1 1
vc 1 1 1 1
vc 1 1 1 1
vc 1 1 1 1
vc 1 1 1 1
vc 1 1 1 1
vc 1 1 1 1
vc 1 1 1 1
vc 1 1 1 1
vc 1 1 1 1
vc 1 1 1 1
vc 1 1 1 1
vc 1 1 1 1
vc 1 1 1 1
vc 1 1 1 1
vc 1 1 1 1
vc 1 1 1 1
vc 1 1 1 1
vc 1 1 1 1
vc 1 1 1 1
vc 1 1 1 1
vc 1 1 1 1
vc 1 1 1 1
vc 1 1 1 1
vc 1 1 1 1
vc 1 1 1 1
vc 1 1 1 1
vc 1 1 1 1
vc 1 1 1 1
vc 1 1 1 1
vc 1 1 1 1
vc 1 1 1 1
vc 1 1 1 1
vc 1 1 1 1
vc 1 1 1 1
vc 1 1 1 1
vc 1 1 1 1
vc 1 1 1 1
vc 1 1 1 1
vc 1 1 1 1
vc 1 1 1 1
vc 1 1 1 1
vc 1 1 1 1
vc 1 1 1 1
vc 1 1 1 1
vc 1 1 1 1
vc 1 1 1 1
vc 1 1 1 1
f 1/1/1 3/3/3 2/2/2
f 1/1/1 2/2/2 4/4/4
f 5/5/5 7/7/7 6/6/6
f 5/5/5 6/6/6 8/8/8
f 9/9/9 11/11/11 10/10/10
f 9/9/9 10/10/10 12/12/12
f 13/13/13 15/15/15 14/14/14
f 13/13/13 14/14/14 16/16/16
f 17/17/17 19/19/19 18/18/18
f 17/17/17 18/18/18 20/20/20
f 21/21/21 23/23/23 22/22/22
f 21/21/21 22/22/22 24/24/24
f 25/25/25 27/27/27 26/26/26
f 25/25/25 26/26/26 28/28/28
f 29/29/29 31/31/31 30/30/30
f 29/29/29 30/30/30 32/32/32
f 33/33/33 35/35/35 34/34/34
f 33/33/33 34/34/34 36/36/36
f 37/37/37 39/39/39 38/38/38
f 37/37/37 38/38/38 40/40/40
f 41/41/41 43/43/43 42/42/42
f 41/41/41 42/42/42 44/44/44
f 45/45/45 47/47/47 46/46/46
f 45/45/45 46/46/46 48/48/48
f 49/49/49 51/51/51 50/50/50
f 49/49/49 50/50/50 52/52/52
f 53/53/53 55/55/55 54/54/54
f 53/53/53 54/54/54 56/56/56
f 57/57/57 59/59/59 58/58/58
f 57/57/57 58/58/58 60/60/60
f 61/61/61 63/63/63 62/62/62
f 61/61/61 62/62/62 64/64/64
f 65/65/65 67/67/67 66/66/66
f 65/65/65 66/66/66 68/68/68
f 69/69/69 71/71/71 70/70/70
f 69/69/69 70/70/70 72/72/72
f 73/73/73 75/75/75 74/74/74
f 73/73/73 74/74/74 76/76/76
f 77/77/77 79/79/79 78/78/78
f 77/77/77 78/78/78 80/80/80
f 81/81/81 83/83/83 82/82/82
f 81/81/81 82/82/82 84/84/84
f 85/85/85 87/87/87 86/86/86
f 85/85/85 86/86/86 88/88/88
f 89/89/89 91/91/91 90/90/90
f 89/89/89 90/90/90 92/92/92
f 93/93/93 95/95/95 94/94/94
f 93/93/93 94/94/94 96/96/96
f 97/97/97 99/99/99 98/98/98
f 97/97/97 98/98/98 100/100/100
f 101/101/101 103/103/103 102/102/102
f 101/101/101 102/102/102 104/104/104
f 105/105/105 107/107/107 106/106/106
f 105/105/105 106/106/106 108/108/108
f 109/109/109 111/111/111 110/110/110
f 109/109/109 110/110/110 112/112/112
f 113/113/113 115/115/115 114/114/114
f 113/113/113 114/114/114 116/116/116
f 117/117/117 119/119/119 118/118/118
f 117/117/117 118/118/118 120/120/120
f 121/121/121 123/123/123 122/122/122
f 121/121/121 122/122/122 124/124/124
f 125/125/125 127/127/127 126/126/126
f 125/125/125 126/126/126 128/128/128
f 129/129/129 131/131/131 130/130/130
f 129/129/129 130/130/130 132/132/132
f 133/133/133 135/135/135 134/134/134
f 133/133/133 134/134/134 136/136/136
f 137/137/137 139/139/139 138/138/138
f 137/137/137 138/138/138 140/140/140
f 141/141/141 143/143/143 142/142/142
f 141/141/141 142/142/142 144/144/144
f 145/145/145 147/147/147 146/146/146
f 145/145/145 146/146/146 148/148/148
f 149/149/149 151/151/151 150/150/150
f 149/149/149 150/150/150 152/152/152
f 153/153/153 155/155/155 154/154/154
f 153/153/153 154/154/154 156/156/156
f 157/157/157 159/159/159 158/158/158
f 157/157/157 158/158/158 160/160/160
f 161/161/161 163/163/163 162/162/162
f 161/161/161 162/162/162 164/164/164
f 165/165/165 167/167/167 166/166/166
f 165/165/165 166/166/166 168/168/168
f 169/169/169 171/171/171 170/170/170
f 169/169/169 170/170/170 172/172/172
f 173/173/173 175/175/175 174/174/174
f 173/173/173 174/174/174 176/176/176
f 177/177/177 179/179/179 178/178/178
f 177/177/177 178/178/178 180/180/180
f 181/181/181 183/183/183 182/182/182
f 181/181/181 182/182/182 184/184/184
f 185/185/185 187/187/187 186/186/186
f 185/185/185 186/186/186 188/188/188
f 189/189/189 191/191/191 190/190/190
f 189/189/189 190/190/190 192/192/192
f 193/193/193 195/195/195 194/194/194
f 193/193/193 194/194/194 196/196/196
f 197/197/197 199/199/199 198/198/198
f 197/197/197 198/198/198 200/200/200
f 201/201/201 203/203/203 202/202/202
f 201/201/201 202/202/202 204/204/204
f 205/205/205 207/207/207 206/206/206
f 205/205/205 206/206/206 208/208/208
f 209/209/209 211/211/211 210/210/210
f 209/209/209 210/210/210 212/212/212
f 213/213/213 215/215/215 214/214/214
f 213/213/213 214/214/214 216/216/216

