g Exported Mesh Combined Mesh 
v 0.1205835 0.7736047 0.0219
v 0.1643835 0.7736047 -0.0219
v 0.1643835 0.7736047 0.0219
v 0.1205835 0.7736047 -0.0219
v 0.1643835 0.7736047 0.0219
v 0.1643834 -0.0001954134 -0.0219
v 0.1643834 -0.0001954134 0.0219
v 0.1643835 0.7736047 -0.0219
v 0.1643834 -0.0001954134 0.0219
v 0.1205834 -0.0001954082 -0.0219
v 0.1205834 -0.0001954082 0.0219
v 0.1643834 -0.0001954134 -0.0219
v 0.1205834 -0.0001954082 0.0219
v 0.1205835 0.7736047 -0.0219
v 0.1205835 0.7736047 0.0219
v 0.1205834 -0.0001954082 -0.0219
v 0.1205835 0.7736047 -0.0219
v 0.1643834 -0.0001954134 -0.0219
v 0.1643835 0.7736047 -0.0219
v 0.1205834 -0.0001954082 -0.0219
v 0.1205834 -0.0001954082 0.0219
v 0.1643835 0.7736047 0.0219
v 0.1643834 -0.0001954134 0.0219
v 0.1205835 0.7736047 0.0219
v -0.1643841 0.7736047 0.0219
v -0.1205841 0.7736047 -0.0219
v -0.1205841 0.7736047 0.0219
v -0.1643841 0.7736047 -0.0219
v -0.1205841 0.7736047 0.0219
v -0.1205842 -0.0001954134 -0.0219
v -0.1205842 -0.0001954134 0.0219
v -0.1205841 0.7736047 -0.0219
v -0.1205842 -0.0001954134 0.0219
v -0.1643842 -0.0001954082 -0.0219
v -0.1643842 -0.0001954082 0.0219
v -0.1205842 -0.0001954134 -0.0219
v -0.1643842 -0.0001954082 0.0219
v -0.1643841 0.7736047 -0.0219
v -0.1643841 0.7736047 0.0219
v -0.1643842 -0.0001954082 -0.0219
v -0.1643841 0.7736047 -0.0219
v -0.1205842 -0.0001954134 -0.0219
v -0.1205841 0.7736047 -0.0219
v -0.1643842 -0.0001954082 -0.0219
v -0.1643842 -0.0001954082 0.0219
v -0.1205841 0.7736047 0.0219
v -0.1205842 -0.0001954134 0.0219
v -0.1643841 0.7736047 0.0219
v 0.1317853 0.3815329 0.01530082
v 0.1317854 0.3377329 -0.01530082
v 0.1317854 0.3377329 0.01530082
v 0.1317853 0.3815329 -0.01530082
v 0.1317854 0.3377329 0.01530082
v -0.1379939 0.3377323 -0.01530082
v -0.1379939 0.3377323 0.01530082
v 0.1317854 0.3377329 -0.01530082
v -0.1379939 0.3377323 0.01530082
v -0.137994 0.3815323 -0.01530082
v -0.137994 0.3815323 0.01530082
v -0.1379939 0.3377323 -0.01530082
v -0.137994 0.3815323 0.01530082
v 0.1317853 0.3815329 -0.01530082
v 0.1317853 0.3815329 0.01530082
v -0.137994 0.3815323 -0.01530082
v 0.1317853 0.3815329 -0.01530082
v -0.1379939 0.3377323 -0.01530082
v 0.1317854 0.3377329 -0.01530082
v -0.137994 0.3815323 -0.01530082
v -0.137994 0.3815323 0.01530082
v 0.1317854 0.3377329 0.01530082
v -0.1379939 0.3377323 0.01530082
v 0.1317853 0.3815329 0.01530082
v 0.1317853 0.6942937 0.01530082
v 0.1317854 0.6504937 -0.01530082
v 0.1317854 0.6504937 0.01530082
v 0.1317853 0.6942937 -0.01530082
v 0.1317854 0.6504937 0.01530082
v -0.1379939 0.6504931 -0.01530082
v -0.1379939 0.6504931 0.01530082
v 0.1317854 0.6504937 -0.01530082
v -0.1379939 0.6504931 0.01530082
v -0.137994 0.6942931 -0.01530082
v -0.137994 0.6942931 0.01530082
v -0.1379939 0.6504931 -0.01530082
v -0.137994 0.6942931 0.01530082
v 0.1317853 0.6942937 -0.01530082
v 0.1317853 0.6942937 0.01530082
v -0.137994 0.6942931 -0.01530082
v 0.1317853 0.6942937 -0.01530082
v -0.1379939 0.6504931 -0.01530082
v 0.1317854 0.6504937 -0.01530082
v -0.137994 0.6942931 -0.01530082
v -0.137994 0.6942931 0.01530082
v 0.1317854 0.6504937 0.01530082
v -0.1379939 0.6504931 0.01530082
v 0.1317853 0.6942937 0.01530082
v 0.1317853 0.04058726 0.01530082
v 0.1317854 -0.003212743 -0.01530082
v 0.1317854 -0.003212743 0.01530082
v 0.1317853 0.04058726 -0.01530082
v 0.1317854 -0.003212743 0.01530082
v -0.1379939 -0.003213345 -0.01530082
v -0.1379939 -0.003213345 0.01530082
v 0.1317854 -0.003212743 -0.01530082
v -0.1379939 -0.003213345 0.01530082
v -0.137994 0.04058666 -0.01530082
v -0.137994 0.04058666 0.01530082
v -0.1379939 -0.003213345 -0.01530082
v -0.137994 0.04058666 0.01530082
v 0.1317853 0.04058726 -0.01530082
v 0.1317853 0.04058726 0.01530082
v -0.137994 0.04058666 -0.01530082
v 0.1317853 0.04058726 -0.01530082
v -0.1379939 -0.003213345 -0.01530082
v 0.1317854 -0.003212743 -0.01530082
v -0.137994 0.04058666 -0.01530082
v -0.137994 0.04058666 0.01530082
v 0.1317854 -0.003212743 0.01530082
v -0.1379939 -0.003213345 0.01530082
v 0.1317853 0.04058726 0.01530082
v 0.1317853 0.219664 0.01530082
v 0.1317854 0.175864 -0.01530082
v 0.1317854 0.175864 0.01530082
v 0.1317853 0.219664 -0.01530082
v 0.1317854 0.175864 0.01530082
v -0.1379939 0.1758634 -0.01530082
v -0.1379939 0.1758634 0.01530082
v 0.1317854 0.175864 -0.01530082
v -0.1379939 0.1758634 0.01530082
v -0.137994 0.2196634 -0.01530082
v -0.137994 0.2196634 0.01530082
v -0.1379939 0.1758634 -0.01530082
v -0.137994 0.2196634 0.01530082
v 0.1317853 0.219664 -0.01530082
v 0.1317853 0.219664 0.01530082
v -0.137994 0.2196634 -0.01530082
v 0.1317853 0.219664 -0.01530082
v -0.1379939 0.1758634 -0.01530082
v 0.1317854 0.175864 -0.01530082
v -0.137994 0.2196634 -0.01530082
v -0.137994 0.2196634 0.01530082
v 0.1317854 0.175864 0.01530082
v -0.1379939 0.1758634 0.01530082
v 0.1317853 0.219664 0.01530082
v 0.1317853 0.5513459 0.01530082
v 0.1317854 0.5075459 -0.01530082
v 0.1317854 0.5075459 0.01530082
v 0.1317853 0.5513459 -0.01530082
v 0.1317854 0.5075459 0.01530082
v -0.1379939 0.5075453 -0.01530082
v -0.1379939 0.5075453 0.01530082
v 0.1317854 0.5075459 -0.01530082
v -0.1379939 0.5075453 0.01530082
v -0.137994 0.5513453 -0.01530082
v -0.137994 0.5513453 0.01530082
v -0.1379939 0.5075453 -0.01530082
v -0.137994 0.5513453 0.01530082
v 0.1317853 0.5513459 -0.01530082
v 0.1317853 0.5513459 0.01530082
v -0.137994 0.5513453 -0.01530082
v 0.1317853 0.5513459 -0.01530082
v -0.1379939 0.5075453 -0.01530082
v 0.1317854 0.5075459 -0.01530082
v -0.137994 0.5513453 -0.01530082
v -0.137994 0.5513453 0.01530082
v 0.1317854 0.5075459 0.01530082
v -0.1379939 0.5075453 0.01530082
v 0.1317853 0.5513459 0.01530082

vn 1.192093E-07 1 0
vn 1.192093E-07 1 0
vn 1.192093E-07 1 0
vn 1.192093E-07 1 0
vn 1 -1.192093E-07 0
vn 1 -1.192093E-07 0
vn 1 -1.192093E-07 0
vn 1 -1.192093E-07 0
vn -1.192093E-07 -1 0
vn -1.192093E-07 -1 0
vn -1.192093E-07 -1 0
vn -1.192093E-07 -1 0
vn -1 1.192093E-07 0
vn -1 1.192093E-07 0
vn -1 1.192093E-07 0
vn -1 1.192093E-07 0
vn 0 0 -1
vn 0 0 -1
vn 0 0 -1
vn 0 0 -1
vn 0 0 1
vn 0 0 1
vn 0 0 1
vn 0 0 1
vn 1.192093E-07 1 0
vn 1.192093E-07 1 0
vn 1.192093E-07 1 0
vn 1.192093E-07 1 0
vn 1 -1.192093E-07 0
vn 1 -1.192093E-07 0
vn 1 -1.192093E-07 0
vn 1 -1.192093E-07 0
vn -1.192093E-07 -1 0
vn -1.192093E-07 -1 0
vn -1.192093E-07 -1 0
vn -1.192093E-07 -1 0
vn -1 1.192093E-07 0
vn -1 1.192093E-07 0
vn -1 1.192093E-07 0
vn -1 1.192093E-07 0
vn 0 0 -1
vn 0 0 -1
vn 0 0 -1
vn 0 0 -1
vn 0 0 1
vn 0 0 1
vn 0 0 1
vn 0 0 1
vn 1 2.233184E-06 0
vn 1 2.233184E-06 0
vn 1 2.233184E-06 0
vn 1 2.233184E-06 0
vn 2.233184E-06 -1 0
vn 2.233184E-06 -1 0
vn 2.233184E-06 -1 0
vn 2.233184E-06 -1 0
vn -1 -2.233184E-06 0
vn -1 -2.233184E-06 0
vn -1 -2.233184E-06 0
vn -1 -2.233184E-06 0
vn -2.233184E-06 1 0
vn -2.233184E-06 1 0
vn -2.233184E-06 1 0
vn -2.233184E-06 1 0
vn 0 0 -1
vn 0 0 -1
vn 0 0 -1
vn 0 0 -1
vn 0 0 1
vn 0 0 1
vn 0 0 1
vn 0 0 1
vn 1 2.233184E-06 0
vn 1 2.233184E-06 0
vn 1 2.233184E-06 0
vn 1 2.233184E-06 0
vn 2.233184E-06 -1 0
vn 2.233184E-06 -1 0
vn 2.233184E-06 -1 0
vn 2.233184E-06 -1 0
vn -1 -2.233184E-06 0
vn -1 -2.233184E-06 0
vn -1 -2.233184E-06 0
vn -1 -2.233184E-06 0
vn -2.233184E-06 1 0
vn -2.233184E-06 1 0
vn -2.233184E-06 1 0
vn -2.233184E-06 1 0
vn 0 0 -1
vn 0 0 -1
vn 0 0 -1
vn 0 0 -1
vn 0 0 1
vn 0 0 1
vn 0 0 1
vn 0 0 1
vn 1 2.233184E-06 0
vn 1 2.233184E-06 0
vn 1 2.233184E-06 0
vn 1 2.233184E-06 0
vn 2.233184E-06 -1 0
vn 2.233184E-06 -1 0
vn 2.233184E-06 -1 0
vn 2.233184E-06 -1 0
vn -1 -2.233184E-06 0
vn -1 -2.233184E-06 0
vn -1 -2.233184E-06 0
vn -1 -2.233184E-06 0
vn -2.233184E-06 1 0
vn -2.233184E-06 1 0
vn -2.233184E-06 1 0
vn -2.233184E-06 1 0
vn 0 0 -1
vn 0 0 -1
vn 0 0 -1
vn 0 0 -1
vn 0 0 1
vn 0 0 1
vn 0 0 1
vn 0 0 1
vn 1 2.233184E-06 0
vn 1 2.233184E-06 0
vn 1 2.233184E-06 0
vn 1 2.233184E-06 0
vn 2.233184E-06 -1 0
vn 2.233184E-06 -1 0
vn 2.233184E-06 -1 0
vn 2.233184E-06 -1 0
vn -1 -2.233184E-06 0
vn -1 -2.233184E-06 0
vn -1 -2.233184E-06 0
vn -1 -2.233184E-06 0
vn -2.233184E-06 1 0
vn -2.233184E-06 1 0
vn -2.233184E-06 1 0
vn -2.233184E-06 1 0
vn 0 0 -1
vn 0 0 -1
vn 0 0 -1
vn 0 0 -1
vn 0 0 1
vn 0 0 1
vn 0 0 1
vn 0 0 1
vn 1 2.233184E-06 0
vn 1 2.233184E-06 0
vn 1 2.233184E-06 0
vn 1 2.233184E-06 0
vn 2.233184E-06 -1 0
vn 2.233184E-06 -1 0
vn 2.233184E-06 -1 0
vn 2.233184E-06 -1 0
vn -1 -2.233184E-06 0
vn -1 -2.233184E-06 0
vn -1 -2.233184E-06 0
vn -1 -2.233184E-06 0
vn -2.233184E-06 1 0
vn -2.233184E-06 1 0
vn -2.233184E-06 1 0
vn -2.233184E-06 1 0
vn 0 0 -1
vn 0 0 -1
vn 0 0 -1
vn 0 0 -1
vn 0 0 1
vn 0 0 1
vn 0 0 1
vn 0 0 1

vt 0.641626 0.407566
vt 0.461662 0.58753
vt 0.641626 0.58753
vt 0.461662 0.407566
vt 0.198491 0.008232
vt 0.012803 0.992381
vt 0.198491 0.992381
vt 0.012803 0.008232
vt 0.641369 0.407566
vt 0.461406 0.58753
vt 0.641369 0.58753
vt 0.461406 0.407566
vt 0.198467 0.00824
vt 0.012778 0.992389
vt 0.198467 0.992389
vt 0.012778 0.00824
vt 0.429973 0.992559
vt 0.244284 0.00841
vt 0.244284 0.992559
vt 0.429973 0.00841
vt 0.244317 0.008423
vt 0.430005 0.992572
vt 0.430005 0.008423
vt 0.244317 0.992572
vt 0.641626 0.407566
vt 0.461662 0.58753
vt 0.641626 0.58753
vt 0.461662 0.407566
vt 0.198491 0.008232
vt 0.012803 0.992381
vt 0.198491 0.992381
vt 0.012803 0.008232
vt 0.641369 0.407566
vt 0.461406 0.58753
vt 0.641369 0.58753
vt 0.461406 0.407566
vt 0.198467 0.00824
vt 0.012778 0.992389
vt 0.198467 0.992389
vt 0.012778 0.00824
vt 0.429973 0.992559
vt 0.244284 0.00841
vt 0.244284 0.992559
vt 0.429973 0.00841
vt 0.244317 0.008423
vt 0.430005 0.992572
vt 0.430005 0.008423
vt 0.244317 0.992572
vt 0.641626 0.407566
vt 0.461662 0.58753
vt 0.641626 0.58753
vt 0.461662 0.407566
vt 0.198491 0.008232
vt 0.012803 0.992381
vt 0.198491 0.992381
vt 0.012803 0.008232
vt 0.641369 0.407566
vt 0.461406 0.58753
vt 0.641369 0.58753
vt 0.461406 0.407566
vt 0.198467 0.00824
vt 0.012778 0.992389
vt 0.198467 0.992389
vt 0.012778 0.00824
vt 0.429973 0.992559
vt 0.244284 0.00841
vt 0.244284 0.992559
vt 0.429973 0.00841
vt 0.244317 0.008423
vt 0.430005 0.992572
vt 0.430005 0.008423
vt 0.244317 0.992572
vt 0.641626 0.407566
vt 0.461662 0.58753
vt 0.641626 0.58753
vt 0.461662 0.407566
vt 0.198491 0.008232
vt 0.012803 0.992381
vt 0.198491 0.992381
vt 0.012803 0.008232
vt 0.641369 0.407566
vt 0.461406 0.58753
vt 0.641369 0.58753
vt 0.461406 0.407566
vt 0.198467 0.00824
vt 0.012778 0.992389
vt 0.198467 0.992389
vt 0.012778 0.00824
vt 0.429973 0.992559
vt 0.244284 0.00841
vt 0.244284 0.992559
vt 0.429973 0.00841
vt 0.244317 0.008423
vt 0.430005 0.992572
vt 0.430005 0.008423
vt 0.244317 0.992572
vt 0.641626 0.407566
vt 0.461662 0.58753
vt 0.641626 0.58753
vt 0.461662 0.407566
vt 0.198491 0.008232
vt 0.012803 0.992381
vt 0.198491 0.992381
vt 0.012803 0.008232
vt 0.641369 0.407566
vt 0.461406 0.58753
vt 0.641369 0.58753
vt 0.461406 0.407566
vt 0.198467 0.00824
vt 0.012778 0.992389
vt 0.198467 0.992389
vt 0.012778 0.00824
vt 0.429973 0.992559
vt 0.244284 0.00841
vt 0.244284 0.992559
vt 0.429973 0.00841
vt 0.244317 0.008423
vt 0.430005 0.992572
vt 0.430005 0.008423
vt 0.244317 0.992572
vt 0.641626 0.407566
vt 0.461662 0.58753
vt 0.641626 0.58753
vt 0.461662 0.407566
vt 0.198491 0.008232
vt 0.012803 0.992381
vt 0.198491 0.992381
vt 0.012803 0.008232
vt 0.641369 0.407566
vt 0.461406 0.58753
vt 0.641369 0.58753
vt 0.461406 0.407566
vt 0.198467 0.00824
vt 0.012778 0.992389
vt 0.198467 0.992389
vt 0.012778 0.00824
vt 0.429973 0.992559
vt 0.244284 0.00841
vt 0.244284 0.992559
vt 0.429973 0.00841
vt 0.244317 0.008423
vt 0.430005 0.992572
vt 0.430005 0.008423
vt 0.244317 0.992572
vt 0.641626 0.407566
vt 0.461662 0.58753
vt 0.641626 0.58753
vt 0.461662 0.407566
vt 0.198491 0.008232
vt 0.012803 0.992381
vt 0.198491 0.992381
vt 0.012803 0.008232
vt 0.641369 0.407566
vt 0.461406 0.58753
vt 0.641369 0.58753
vt 0.461406 0.407566
vt 0.198467 0.00824
vt 0.012778 0.992389
vt 0.198467 0.992389
vt 0.012778 0.00824
vt 0.429973 0.992559
vt 0.244284 0.00841
vt 0.244284 0.992559
vt 0.429973 0.00841
vt 0.244317 0.008423
vt 0.430005 0.992572
vt 0.430005 0.008423
vt 0.244317 0.992572

vt1 0 0
vt1 0 0
vt1 0 0
vt1 0 0
vt1 0 0
vt1 0 0
vt1 0 0
vt1 0 0
vt1 0 0
vt1 0 0
vt1 0 0
vt1 0 0
vt1 0 0
vt1 0 0
vt1 0 0
vt1 0 0
vt1 0 0
vt1 0 0
vt1 0 0
vt1 0 0
vt1 0 0
vt1 0 0
vt1 0 0
vt1 0 0
vt1 0 0
vt1 0 0
vt1 0 0
vt1 0 0
vt1 0 0
vt1 0 0
vt1 0 0
vt1 0 0
vt1 0 0
vt1 0 0
vt1 0 0
vt1 0 0
vt1 0 0
vt1 0 0
vt1 0 0
vt1 0 0
vt1 0 0
vt1 0 0
vt1 0 0
vt1 0 0
vt1 0 0
vt1 0 0
vt1 0 0
vt1 0 0
vt1 0 0
vt1 0 0
vt1 0 0
vt1 0 0
vt1 0 0
vt1 0 0
vt1 0 0
vt1 0 0
vt1 0 0
vt1 0 0
vt1 0 0
vt1 0 0
vt1 0 0
vt1 0 0
vt1 0 0
vt1 0 0
vt1 0 0
vt1 0 0
vt1 0 0
vt1 0 0
vt1 0 0
vt1 0 0
vt1 0 0
vt1 0 0
vt1 0 0
vt1 0 0
vt1 0 0
vt1 0 0
vt1 0 0
vt1 0 0
vt1 0 0
vt1 0 0
vt1 0 0
vt1 0 0
vt1 0 0
vt1 0 0
vt1 0 0
vt1 0 0
vt1 0 0
vt1 0 0
vt1 0 0
vt1 0 0
vt1 0 0
vt1 0 0
vt1 0 0
vt1 0 0
vt1 0 0
vt1 0 0
vt1 0 0
vt1 0 0
vt1 0 0
vt1 0 0
vt1 0 0
vt1 0 0
vt1 0 0
vt1 0 0
vt1 0 0
vt1 0 0
vt1 0 0
vt1 0 0
vt1 0 0
vt1 0 0
vt1 0 0
vt1 0 0
vt1 0 0
vt1 0 0
vt1 0 0
vt1 0 0
vt1 0 0
vt1 0 0
vt1 0 0
vt1 0 0
vt1 0 0
vt1 0 0
vt1 0 0
vt1 0 0
vt1 0 0
vt1 0 0
vt1 0 0
vt1 0 0
vt1 0 0
vt1 0 0
vt1 0 0
vt1 0 0
vt1 0 0
vt1 0 0
vt1 0 0
vt1 0 0
vt1 0 0
vt1 0 0
vt1 0 0
vt1 0 0
vt1 0 0
vt1 0 0
vt1 0 0
vt1 0 0
vt1 0 0
vt1 0 0
vt1 0 0
vt1 0 0
vt1 0 0
vt1 0 0
vt1 0 0
vt1 0 0
vt1 0 0
vt1 0 0
vt1 0 0
vt1 0 0
vt1 0 0
vt1 0 0
vt1 0 0
vt1 0 0
vt1 0 0
vt1 0 0
vt1 0 0
vt1 0 0
vt1 0 0
vt1 0 0
vt1 0 0
vt1 0 0

vt2 0 0
vt2 0 0
vt2 0 0
vt2 0 0
vt2 0 0
vt2 0 0
vt2 0 0
vt2 0 0
vt2 0 0
vt2 0 0
vt2 0 0
vt2 0 0
vt2 0 0
vt2 0 0
vt2 0 0
vt2 0 0
vt2 0 0
vt2 0 0
vt2 0 0
vt2 0 0
vt2 0 0
vt2 0 0
vt2 0 0
vt2 0 0
vt2 0 0
vt2 0 0
vt2 0 0
vt2 0 0
vt2 0 0
vt2 0 0
vt2 0 0
vt2 0 0
vt2 0 0
vt2 0 0
vt2 0 0
vt2 0 0
vt2 0 0
vt2 0 0
vt2 0 0
vt2 0 0
vt2 0 0
vt2 0 0
vt2 0 0
vt2 0 0
vt2 0 0
vt2 0 0
vt2 0 0
vt2 0 0
vt2 0 0
vt2 0 0
vt2 0 0
vt2 0 0
vt2 0 0
vt2 0 0
vt2 0 0
vt2 0 0
vt2 0 0
vt2 0 0
vt2 0 0
vt2 0 0
vt2 0 0
vt2 0 0
vt2 0 0
vt2 0 0
vt2 0 0
vt2 0 0
vt2 0 0
vt2 0 0
vt2 0 0
vt2 0 0
vt2 0 0
vt2 0 0
vt2 0 0
vt2 0 0
vt2 0 0
vt2 0 0
vt2 0 0
vt2 0 0
vt2 0 0
vt2 0 0
vt2 0 0
vt2 0 0
vt2 0 0
vt2 0 0
vt2 0 0
vt2 0 0
vt2 0 0
vt2 0 0
vt2 0 0
vt2 0 0
vt2 0 0
vt2 0 0
vt2 0 0
vt2 0 0
vt2 0 0
vt2 0 0
vt2 0 0
vt2 0 0
vt2 0 0
vt2 0 0
vt2 0 0
vt2 0 0
vt2 0 0
vt2 0 0
vt2 0 0
vt2 0 0
vt2 0 0
vt2 0 0
vt2 0 0
vt2 0 0
vt2 0 0
vt2 0 0
vt2 0 0
vt2 0 0
vt2 0 0
vt2 0 0
vt2 0 0
vt2 0 0
vt2 0 0
vt2 0 0
vt2 0 0
vt2 0 0
vt2 0 0
vt2 0 0
vt2 0 0
vt2 0 0
vt2 0 0
vt2 0 0
vt2 0 0
vt2 0 0
vt2 0 0
vt2 0 0
vt2 0 0
vt2 0 0
vt2 0 0
vt2 0 0
vt2 0 0
vt2 0 0
vt2 0 0
vt2 0 0
vt2 0 0
vt2 0 0
vt2 0 0
vt2 0 0
vt2 0 0
vt2 0 0
vt2 0 0
vt2 0 0
vt2 0 0
vt2 0 0
vt2 0 0
vt2 0 0
vt2 0 0
vt2 0 0
vt2 0 0
vt2 0 0
vt2 0 0
vt2 0 0
vt2 0 0
vt2 0 0
vt2 0 0
vt2 0 0
vt2 0 0
vt2 0 0
vt2 0 0
vt2 0 0
vt2 0 0
vt2 0 0

vc 1 1 1 1
vc 1 1 1 1
vc 1 1 1 1
vc 1 1 1 1
vc 1 1 1 1
vc 1 1 1 1
vc 1 1 1 1
vc 1 1 1 1
vc 1 1 1 1
vc 1 1 1 1
vc 1 1 1 1
vc 1 1 1 1
vc 1 1 1 1
vc 1 1 1 1
vc 1 1 1 1
vc 1 1 1 1
vc 1 1 1 1
vc 1 1 1 1
vc 1 1 1 1
vc 1 1 1 1
vc 1 1 1 1
vc 1 1 1 1
vc 1 1 1 1
vc 1 1 1 1
vc 1 1 1 1
vc 1 1 1 1
vc 1 1 1 1
vc 1 1 1 1
vc 1 1 1 1
vc 1 1 1 1
vc 1 1 1 1
vc 1 1 1 1
vc 1 1 1 1
vc 1 1 1 1
vc 1 1 1 1
vc 1 1 1 1
vc 1 1 1 1
vc 1 1 1 1
vc 1 1 1 1
vc 1 1 1 1
vc 1 1 1 1
vc 1 1 1 1
vc 1 1 1 1
vc 1 1 1 1
vc 1 1 1 1
vc 1 1 1 1
vc 1 1 1 1
vc 1 1 1 1
vc 1 1 1 1
vc 1 1 1 1
vc 1 1 1 1
vc 1 1 1 1
vc 1 1 1 1
vc 1 1 1 1
vc 1 1 1 1
vc 1 1 1 1
vc 1 1 1 1
vc 1 1 1 1
vc 1 1 1 1
vc 1 1 1 1
vc 1 1 1 1
vc 1 1 1 1
vc 1 1 1 1
vc 1 1 1 1
vc 1 1 1 1
vc 1 1 1 1
vc 1 1 1 1
vc 1 1 1 1
vc 1 1 1 1
vc 1 1 1 1
vc 1 1 1 1
vc 1 1 1 1
vc 1 1 1 1
vc 1 1 1 1
vc 1 1 1 1
vc 1 1 1 1
vc 1 1 1 1
vc 1 1 1 1
vc 1 1 1 1
vc 1 1 1 1
vc 1 1 1 1
vc 1 1 1 1
vc 1 1 1 1
vc 1 1 1 1
vc 1 1 1 1
vc 1 1 1 1
vc 1 1 1 1
vc 1 1 1 1
vc 1 1 1 1
vc 1 1 1 1
vc 1 1 1 1
vc 1 1 1 1
vc 1 1 1 1
vc 1 1 1 1
vc 1 1 1 1
vc 1 1 1 1
vc 1 1 1 1
vc 1 1 1 1
vc 1 1 1 1
vc 1 1 1 1
vc 1 1 1 1
vc 1 1 1 1
vc 1 1 1 1
vc 1 1 1 1
vc 1 1 1 1
vc 1 1 1 1
vc 1 1 1 1
vc 1 1 1 1
vc 1 1 1 1
vc 1 1 1 1
vc 1 1 1 1
vc 1 1 1 1
vc 1 1 1 1
vc 1 1 1 1
vc 1 1 1 1
vc 1 1 1 1
vc 1 1 1 1
vc 1 1 1 1
vc 1 1 1 1
vc 1 1 1 1
vc 1 1 1 1
vc 1 1 1 1
vc 1 1 1 1
vc 1 1 1 1
vc 1 1 1 1
vc 1 1 1 1
vc 1 1 1 1
vc 1 1 1 1
vc 1 1 1 1
vc 1 1 1 1
vc 1 1 1 1
vc 1 1 1 1
vc 1 1 1 1
vc 1 1 1 1
vc 1 1 1 1
vc 1 1 1 1
vc 1 1 1 1
vc 1 1 1 1
vc 1 1 1 1
vc 1 1 1 1
vc 1 1 1 1
vc 1 1 1 1
vc 1 1 1 1
vc 1 1 1 1
vc 1 1 1 1
vc 1 1 1 1
vc 1 1 1 1
vc 1 1 1 1
vc 1 1 1 1
vc 1 1 1 1
vc 1 1 1 1
vc 1 1 1 1
vc 1 1 1 1
vc 1 1 1 1
vc 1 1 1 1
vc 1 1 1 1
vc 1 1 1 1
vc 1 1 1 1
vc 1 1 1 1
vc 1 1 1 1
vc 1 1 1 1
vc 1 1 1 1
vc 1 1 1 1
vc 1 1 1 1
vc 1 1 1 1
vc 1 1 1 1
vc 1 1 1 1
vc 1 1 1 1
f 1/1/1 3/3/3 2/2/2
f 1/1/1 2/2/2 4/4/4
f 5/5/5 7/7/7 6/6/6
f 5/5/5 6/6/6 8/8/8
f 9/9/9 11/11/11 10/10/10
f 9/9/9 10/10/10 12/12/12
f 13/13/13 15/15/15 14/14/14
f 13/13/13 14/14/14 16/16/16
f 17/17/17 19/19/19 18/18/18
f 17/17/17 18/18/18 20/20/20
f 21/21/21 23/23/23 22/22/22
f 21/21/21 22/22/22 24/24/24
f 25/25/25 27/27/27 26/26/26
f 25/25/25 26/26/26 28/28/28
f 29/29/29 31/31/31 30/30/30
f 29/29/29 30/30/30 32/32/32
f 33/33/33 35/35/35 34/34/34
f 33/33/33 34/34/34 36/36/36
f 37/37/37 39/39/39 38/38/38
f 37/37/37 38/38/38 40/40/40
f 41/41/41 43/43/43 42/42/42
f 41/41/41 42/42/42 44/44/44
f 45/45/45 47/47/47 46/46/46
f 45/45/45 46/46/46 48/48/48
f 49/49/49 51/51/51 50/50/50
f 49/49/49 50/50/50 52/52/52
f 53/53/53 55/55/55 54/54/54
f 53/53/53 54/54/54 56/56/56
f 57/57/57 59/59/59 58/58/58
f 57/57/57 58/58/58 60/60/60
f 61/61/61 63/63/63 62/62/62
f 61/61/61 62/62/62 64/64/64
f 65/65/65 67/67/67 66/66/66
f 65/65/65 66/66/66 68/68/68
f 69/69/69 71/71/71 70/70/70
f 69/69/69 70/70/70 72/72/72
f 73/73/73 75/75/75 74/74/74
f 73/73/73 74/74/74 76/76/76
f 77/77/77 79/79/79 78/78/78
f 77/77/77 78/78/78 80/80/80
f 81/81/81 83/83/83 82/82/82
f 81/81/81 82/82/82 84/84/84
f 85/85/85 87/87/87 86/86/86
f 85/85/85 86/86/86 88/88/88
f 89/89/89 91/91/91 90/90/90
f 89/89/89 90/90/90 92/92/92
f 93/93/93 95/95/95 94/94/94
f 93/93/93 94/94/94 96/96/96
f 97/97/97 99/99/99 98/98/98
f 97/97/97 98/98/98 100/100/100
f 101/101/101 103/103/103 102/102/102
f 101/101/101 102/102/102 104/104/104
f 105/105/105 107/107/107 106/106/106
f 105/105/105 106/106/106 108/108/108
f 109/109/109 111/111/111 110/110/110
f 109/109/109 110/110/110 112/112/112
f 113/113/113 115/115/115 114/114/114
f 113/113/113 114/114/114 116/116/116
f 117/117/117 119/119/119 118/118/118
f 117/117/117 118/118/118 120/120/120
f 121/121/121 123/123/123 122/122/122
f 121/121/121 122/122/122 124/124/124
f 125/125/125 127/127/127 126/126/126
f 125/125/125 126/126/126 128/128/128
f 129/129/129 131/131/131 130/130/130
f 129/129/129 130/130/130 132/132/132
f 133/133/133 135/135/135 134/134/134
f 133/133/133 134/134/134 136/136/136
f 137/137/137 139/139/139 138/138/138
f 137/137/137 138/138/138 140/140/140
f 141/141/141 143/143/143 142/142/142
f 141/141/141 142/142/142 144/144/144
f 145/145/145 147/147/147 146/146/146
f 145/145/145 146/146/146 148/148/148
f 149/149/149 151/151/151 150/150/150
f 149/149/149 150/150/150 152/152/152
f 153/153/153 155/155/155 154/154/154
f 153/153/153 154/154/154 156/156/156
f 157/157/157 159/159/159 158/158/158
f 157/157/157 158/158/158 160/160/160
f 161/161/161 163/163/163 162/162/162
f 161/161/161 162/162/162 164/164/164
f 165/165/165 167/167/167 166/166/166
f 165/165/165 166/166/166 168/168/168

