g Exported Mesh Combined Mesh 
v -0.2709398 1.007356 -0.05174626
v -0.3752316 1.005487 0.04417102
v -0.2709398 1.007357 0.04417105
v -0.3752315 1.005487 -0.05174629
v -0.2709398 1.007357 0.04417105
v -0.3784502 1.185058 0.04417028
v -0.2741584 1.186927 0.04417029
v -0.3752316 1.005487 0.04417102
v -0.2741584 1.186927 0.04417029
v -0.3784502 1.185057 -0.05174704
v -0.2741584 1.186926 -0.05174701
v -0.3784502 1.185058 0.04417028
v -0.2741584 1.186926 -0.05174701
v -0.3752315 1.005487 -0.05174629
v -0.2709398 1.007356 -0.05174626
v -0.3784502 1.185057 -0.05174704
v -0.3752315 1.005487 -0.05174629
v -0.3784502 1.185058 0.04417028
v -0.3752316 1.005487 0.04417102
v -0.3784502 1.185057 -0.05174704
v -0.2741584 1.186926 -0.05174701
v -0.2709398 1.007357 0.04417105
v -0.2741584 1.186927 0.04417029
v -0.2709398 1.007356 -0.05174626

vn 0.01792127 -0.9998394 4.17428E-06
vn 0.01792127 -0.9998394 4.17428E-06
vn 0.01792127 -0.9998394 4.17428E-06
vn 0.01792127 -0.9998394 4.17428E-06
vn -2.747287E-07 4.170025E-06 1
vn -2.747287E-07 4.170025E-06 1
vn -2.747287E-07 4.170025E-06 1
vn -2.747287E-07 4.170025E-06 1
vn -0.01792127 0.9998394 -4.17428E-06
vn -0.01792127 0.9998394 -4.17428E-06
vn -0.01792127 0.9998394 -4.17428E-06
vn -0.01792127 0.9998394 -4.17428E-06
vn 2.747287E-07 -4.170025E-06 -1
vn 2.747287E-07 -4.170025E-06 -1
vn 2.747287E-07 -4.170025E-06 -1
vn 2.747287E-07 -4.170025E-06 -1
vn -0.9998394 -0.01792133 -1.999522E-07
vn -0.9998394 -0.01792133 -1.999522E-07
vn -0.9998394 -0.01792133 -1.999522E-07
vn -0.9998394 -0.01792133 -1.999522E-07
vn 0.9998394 0.01792133 1.999522E-07
vn 0.9998394 0.01792133 1.999522E-07
vn 0.9998394 0.01792133 1.999522E-07
vn 0.9998394 0.01792133 1.999522E-07

vt 0.641626 0.407566
vt 0.461662 0.58753
vt 0.641626 0.58753
vt 0.461662 0.407566
vt 0.198491 0.008232
vt 0.012803 0.992381
vt 0.198491 0.992381
vt 0.012803 0.008232
vt 0.641369 0.407566
vt 0.461406 0.58753
vt 0.641369 0.58753
vt 0.461406 0.407566
vt 0.198467 0.00824
vt 0.012778 0.992389
vt 0.198467 0.992389
vt 0.012778 0.00824
vt 0.429973 0.992559
vt 0.244284 0.00841
vt 0.244284 0.992559
vt 0.429973 0.00841
vt 0.244317 0.008423
vt 0.430005 0.992572
vt 0.430005 0.008423
vt 0.244317 0.992572

vt1 0 0
vt1 0 0
vt1 0 0
vt1 0 0
vt1 0 0
vt1 0 0
vt1 0 0
vt1 0 0
vt1 0 0
vt1 0 0
vt1 0 0
vt1 0 0
vt1 0 0
vt1 0 0
vt1 0 0
vt1 0 0
vt1 0 0
vt1 0 0
vt1 0 0
vt1 0 0
vt1 0 0
vt1 0 0
vt1 0 0
vt1 0 0

vt2 0 0
vt2 0 0
vt2 0 0
vt2 0 0
vt2 0 0
vt2 0 0
vt2 0 0
vt2 0 0
vt2 0 0
vt2 0 0
vt2 0 0
vt2 0 0
vt2 0 0
vt2 0 0
vt2 0 0
vt2 0 0
vt2 0 0
vt2 0 0
vt2 0 0
vt2 0 0
vt2 0 0
vt2 0 0
vt2 0 0
vt2 0 0

vc 1 1 1 1
vc 1 1 1 1
vc 1 1 1 1
vc 1 1 1 1
vc 1 1 1 1
vc 1 1 1 1
vc 1 1 1 1
vc 1 1 1 1
vc 1 1 1 1
vc 1 1 1 1
vc 1 1 1 1
vc 1 1 1 1
vc 1 1 1 1
vc 1 1 1 1
vc 1 1 1 1
vc 1 1 1 1
vc 1 1 1 1
vc 1 1 1 1
vc 1 1 1 1
vc 1 1 1 1
vc 1 1 1 1
vc 1 1 1 1
vc 1 1 1 1
vc 1 1 1 1
f 1/1/1 3/3/3 2/2/2
f 1/1/1 2/2/2 4/4/4
f 5/5/5 7/7/7 6/6/6
f 5/5/5 6/6/6 8/8/8
f 9/9/9 11/11/11 10/10/10
f 9/9/9 10/10/10 12/12/12
f 13/13/13 15/15/15 14/14/14
f 13/13/13 14/14/14 16/16/16
f 17/17/17 19/19/19 18/18/18
f 17/17/17 18/18/18 20/20/20
f 21/21/21 23/23/23 22/22/22
f 21/21/21 22/22/22 24/24/24

