g Exported Mesh Combined Mesh 
v 0.007882312 -0.1227718 -0.8847564
v -0.3921177 -0.1227718 -1.084756
v -0.3921177 -0.1227718 -0.8847564
v 0.007882401 -0.1227718 -1.084756
v 0.007882223 0.07722817 -0.8847564
v -0.3921176 0.07722817 -1.084756
v 0.007882312 0.07722817 -1.084756
v -0.3921178 0.07722817 -0.8847566
v 0.007882312 -0.1227718 -0.8847564
v -0.3921178 0.07722817 -0.8847566
v 0.007882223 0.07722817 -0.8847564
v -0.3921177 -0.1227718 -0.8847564
v -0.3921177 -0.1227718 -0.8847564
v -0.3921176 0.07722817 -1.084756
v -0.3921178 0.07722817 -0.8847566
v -0.3921177 -0.1227718 -1.084756
v -0.3921177 -0.1227718 -1.084756
v 0.007882312 0.07722817 -1.084756
v -0.3921176 0.07722817 -1.084756
v 0.007882401 -0.1227718 -1.084756
v 0.007882223 0.07722817 -0.8847564
v 0.007882401 -0.1227718 -1.084756
v 0.007882312 -0.1227718 -0.8847564
v 0.007882312 0.07722817 -1.084756
v 0.3921177 -0.1227718 -0.8847574
v -0.007882312 -0.1227718 -1.084757
v -0.007882312 -0.1227718 -0.8847574
v 0.3921178 -0.1227718 -1.084757
v 0.3921176 0.07722817 -0.8847574
v -0.007882223 0.07722817 -1.084757
v 0.3921177 0.07722817 -1.084757
v -0.007882401 0.07722817 -0.8847575
v 0.3921177 -0.1227718 -0.8847574
v -0.007882401 0.07722817 -0.8847575
v 0.3921176 0.07722817 -0.8847574
v -0.007882312 -0.1227718 -0.8847574
v -0.007882312 -0.1227718 -0.8847574
v -0.007882223 0.07722817 -1.084757
v -0.007882401 0.07722817 -0.8847575
v -0.007882312 -0.1227718 -1.084757
v -0.007882312 -0.1227718 -1.084757
v 0.3921177 0.07722817 -1.084757
v -0.007882223 0.07722817 -1.084757
v 0.3921178 -0.1227718 -1.084757
v 0.3921176 0.07722817 -0.8847574
v 0.3921178 -0.1227718 -1.084757
v 0.3921177 -0.1227718 -0.8847574
v 0.3921177 0.07722817 -1.084757

vn 0 -1 0
vn 0 -1 0
vn 0 -1 0
vn 0 -1 0
vn 0 1 0
vn 0 1 0
vn 0 1 0
vn 0 1 0
vn 0 0 1
vn 0 0 1
vn 0 0 1
vn 0 0 1
vn -1 0 -1E-06
vn -1 0 -1E-06
vn -1 0 -1E-06
vn -1 0 -1E-06
vn 0 0 -1
vn 0 0 -1
vn 0 0 -1
vn 0 0 -1
vn 1 0 0
vn 1 0 0
vn 1 0 0
vn 1 0 0
vn 0 -1 0
vn 0 -1 0
vn 0 -1 0
vn 0 -1 0
vn 0 1 0
vn 0 1 0
vn 0 1 0
vn 0 1 0
vn 0 0 1
vn 0 0 1
vn 0 0 1
vn 0 0 1
vn -1 0 -1E-06
vn -1 0 -1E-06
vn -1 0 -1E-06
vn -1 0 -1E-06
vn 0 0 -1
vn 0 0 -1
vn 0 0 -1
vn 0 0 -1
vn 1 0 0
vn 1 0 0
vn 1 0 0
vn 1 0 0

vt 0.000171 0.5
vt 0.499659 0.749744
vt 0.499659 0.5
vt 0.000171 0.749744
vt 0.000171 0.499659
vt 0.499659 0.249915
vt 0.000171 0.249915
vt 0.499659 0.499659
vt 0.5 0.000171
vt 0.749744 0.499659
vt 0.749744 0.000171
vt 0.5 0.499659
vt 0.5 0.749744
vt 0.749744 0.5
vt 0.5 0.5
vt 0.749744 0.749744
vt 0.499659 0.000171
vt 0.000171 0.249915
vt 0.499659 0.249915
vt 0.000171 0.000171
vt 0.99983 0.249915
vt 0.750085 0.000171
vt 0.750085 0.249915
vt 0.99983 0.000171
vt 0.000171 0.5
vt 0.499659 0.749744
vt 0.499659 0.5
vt 0.000171 0.749744
vt 0.000171 0.499659
vt 0.499659 0.249915
vt 0.000171 0.249915
vt 0.499659 0.499659
vt 0.5 0.000171
vt 0.749744 0.499659
vt 0.749744 0.000171
vt 0.5 0.499659
vt 0.5 0.749744
vt 0.749744 0.5
vt 0.5 0.5
vt 0.749744 0.749744
vt 0.499659 0.000171
vt 0.000171 0.249915
vt 0.499659 0.249915
vt 0.000171 0.000171
vt 0.99983 0.249915
vt 0.750085 0.000171
vt 0.750085 0.249915
vt 0.99983 0.000171

vt1 0 0
vt1 0 0
vt1 0 0
vt1 0 0
vt1 0 0
vt1 0 0
vt1 0 0
vt1 0 0
vt1 0 0
vt1 0 0
vt1 0 0
vt1 0 0
vt1 0 0
vt1 0 0
vt1 0 0
vt1 0 0
vt1 0 0
vt1 0 0
vt1 0 0
vt1 0 0
vt1 0 0
vt1 0 0
vt1 0 0
vt1 0 0
vt1 0 0
vt1 0 0
vt1 0 0
vt1 0 0
vt1 0 0
vt1 0 0
vt1 0 0
vt1 0 0
vt1 0 0
vt1 0 0
vt1 0 0
vt1 0 0
vt1 0 0
vt1 0 0
vt1 0 0
vt1 0 0
vt1 0 0
vt1 0 0
vt1 0 0
vt1 0 0
vt1 0 0
vt1 0 0
vt1 0 0
vt1 0 0

vt2 0 0
vt2 0 0
vt2 0 0
vt2 0 0
vt2 0 0
vt2 0 0
vt2 0 0
vt2 0 0
vt2 0 0
vt2 0 0
vt2 0 0
vt2 0 0
vt2 0 0
vt2 0 0
vt2 0 0
vt2 0 0
vt2 0 0
vt2 0 0
vt2 0 0
vt2 0 0
vt2 0 0
vt2 0 0
vt2 0 0
vt2 0 0
vt2 0 0
vt2 0 0
vt2 0 0
vt2 0 0
vt2 0 0
vt2 0 0
vt2 0 0
vt2 0 0
vt2 0 0
vt2 0 0
vt2 0 0
vt2 0 0
vt2 0 0
vt2 0 0
vt2 0 0
vt2 0 0
vt2 0 0
vt2 0 0
vt2 0 0
vt2 0 0
vt2 0 0
vt2 0 0
vt2 0 0
vt2 0 0

vc 1 1 1 1
vc 1 1 1 1
vc 1 1 1 1
vc 1 1 1 1
vc 1 1 1 1
vc 1 1 1 1
vc 1 1 1 1
vc 1 1 1 1
vc 1 1 1 1
vc 1 1 1 1
vc 1 1 1 1
vc 1 1 1 1
vc 1 1 1 1
vc 1 1 1 1
vc 1 1 1 1
vc 1 1 1 1
vc 1 1 1 1
vc 1 1 1 1
vc 1 1 1 1
vc 1 1 1 1
vc 1 1 1 1
vc 1 1 1 1
vc 1 1 1 1
vc 1 1 1 1
vc 1 1 1 1
vc 1 1 1 1
vc 1 1 1 1
vc 1 1 1 1
vc 1 1 1 1
vc 1 1 1 1
vc 1 1 1 1
vc 1 1 1 1
vc 1 1 1 1
vc 1 1 1 1
vc 1 1 1 1
vc 1 1 1 1
vc 1 1 1 1
vc 1 1 1 1
vc 1 1 1 1
vc 1 1 1 1
vc 1 1 1 1
vc 1 1 1 1
vc 1 1 1 1
vc 1 1 1 1
vc 1 1 1 1
vc 1 1 1 1
vc 1 1 1 1
vc 1 1 1 1
f 1/1/1 3/3/3 2/2/2
f 1/1/1 2/2/2 4/4/4
f 5/5/5 7/7/7 6/6/6
f 5/5/5 6/6/6 8/8/8
f 9/9/9 11/11/11 10/10/10
f 9/9/9 10/10/10 12/12/12
f 13/13/13 15/15/15 14/14/14
f 13/13/13 14/14/14 16/16/16
f 17/17/17 19/19/19 18/18/18
f 17/17/17 18/18/18 20/20/20
f 21/21/21 23/23/23 22/22/22
f 21/21/21 22/22/22 24/24/24
f 25/25/25 27/27/27 26/26/26
f 25/25/25 26/26/26 28/28/28
f 29/29/29 31/31/31 30/30/30
f 29/29/29 30/30/30 32/32/32
f 33/33/33 35/35/35 34/34/34
f 33/33/33 34/34/34 36/36/36
f 37/37/37 39/39/39 38/38/38
f 37/37/37 38/38/38 40/40/40
f 41/41/41 43/43/43 42/42/42
f 41/41/41 42/42/42 44/44/44
f 45/45/45 47/47/47 46/46/46
f 45/45/45 46/46/46 48/48/48

