g Exported Mesh Combined Mesh 
v -0.3412868 0.3658205 0.4999996
v 0.3412851 -0.3658213 0.5000005
v -0.3658209 0.3412865 0.4999996
v 0.3658192 -0.3412873 0.5000005
v -0.3658209 0.3412865 0.4999996
v 0.3412868 -0.3658205 -0.4999996
v -0.3658192 0.3412873 -0.5000005
v 0.3412851 -0.3658213 0.5000005
v -0.3658192 0.3412873 -0.5000005
v 0.3658209 -0.3412865 -0.4999996
v -0.3412851 0.3658213 -0.5000005
v 0.3412868 -0.3658205 -0.4999996
v -0.3412851 0.3658213 -0.5000005
v 0.3658192 -0.3412873 0.5000005
v -0.3412868 0.3658205 0.4999996
v 0.3658209 -0.3412865 -0.4999996
v 0.3658192 -0.3412873 0.5000005
v 0.3412868 -0.3658205 -0.4999996
v 0.3412851 -0.3658213 0.5000005
v 0.3658209 -0.3412865 -0.4999996
v -0.3412851 0.3658213 -0.5000005
v -0.3658209 0.3412865 0.4999996
v -0.3658192 0.3412873 -0.5000005
v -0.3412868 0.3658205 0.4999996
v -0.459798 0.2842072 0.7053041
v -0.3183765 0.4256288 0.5053042
v -0.3183767 0.4256288 0.7053043
v -0.4597978 0.2842072 0.5053041
v -0.3183767 0.4256288 0.7053043
v 0.4311575 -0.323904 0.5053055
v 0.4311573 -0.323904 0.7053056
v -0.3183765 0.4256288 0.5053042
v 0.4311573 -0.323904 0.7053056
v 0.2897362 -0.4653256 0.5053054
v 0.289736 -0.4653255 0.7053055
v 0.4311575 -0.323904 0.5053055
v 0.289736 -0.4653255 0.7053055
v -0.4597978 0.2842072 0.5053041
v -0.459798 0.2842072 0.7053041
v 0.2897362 -0.4653256 0.5053054
v -0.4597978 0.2842072 0.5053041
v 0.4311575 -0.323904 0.5053055
v -0.3183765 0.4256288 0.5053042
v 0.2897362 -0.4653256 0.5053054
v 0.289736 -0.4653255 0.7053055
v -0.3183767 0.4256288 0.7053043
v 0.4311573 -0.323904 0.7053056
v -0.459798 0.2842072 0.7053041
v -0.518377 0.2256289 0.7189155
v -0.3183767 0.425629 0.7189161
v -0.5183769 0.425629 0.7189155
v -0.3183768 0.2256289 0.7189162
v -0.5183769 0.425629 0.7189155
v -0.3183731 0.4256289 -0.5254972
v -0.5183733 0.4256289 -0.5254978
v -0.3183767 0.425629 0.7189161
v -0.5183733 0.4256289 -0.5254978
v -0.3183732 0.2256288 -0.5254971
v -0.5183734 0.2256288 -0.5254978
v -0.3183731 0.4256289 -0.5254972
v -0.5183734 0.2256288 -0.5254978
v -0.3183768 0.2256289 0.7189162
v -0.518377 0.2256289 0.7189155
v -0.3183732 0.2256288 -0.5254971
v -0.3183768 0.2256289 0.7189162
v -0.3183731 0.4256289 -0.5254972
v -0.3183767 0.425629 0.7189161
v -0.3183732 0.2256288 -0.5254971
v -0.5183734 0.2256288 -0.5254978
v -0.5183769 0.425629 0.7189155
v -0.5183733 0.4256289 -0.5254978
v -0.518377 0.2256289 0.7189155
v -0.4597942 0.2842071 -0.3110573
v -0.3183727 0.4256285 -0.5110573
v -0.3183728 0.4256286 -0.3110572
v -0.459794 0.284207 -0.5110574
v -0.3183728 0.4256286 -0.3110572
v 0.4311609 -0.3239047 -0.5110559
v 0.4311607 -0.3239047 -0.3110559
v -0.3183727 0.4256285 -0.5110573
v 0.4311607 -0.3239047 -0.3110559
v 0.2897395 -0.4653262 -0.5110561
v 0.2897394 -0.4653261 -0.311056
v 0.4311609 -0.3239047 -0.5110559
v 0.2897394 -0.4653261 -0.311056
v -0.459794 0.284207 -0.5110574
v -0.4597942 0.2842071 -0.3110573
v 0.2897395 -0.4653262 -0.5110561
v -0.459794 0.284207 -0.5110574
v 0.4311609 -0.3239047 -0.5110559
v -0.3183727 0.4256285 -0.5110573
v 0.2897395 -0.4653262 -0.5110561
v 0.2897394 -0.4653261 -0.311056
v -0.3183728 0.4256286 -0.3110572
v 0.4311607 -0.3239047 -0.3110559
v -0.4597942 0.2842071 -0.3110573

vn -1.949292E-06 -7.059571E-07 1
vn -1.949292E-06 -7.059571E-07 1
vn -1.949292E-06 -7.059571E-07 1
vn -1.949292E-06 -7.059571E-07 1
vn -0.7071077 -0.7071059 -1.780705E-06
vn -0.7071077 -0.7071059 -1.780705E-06
vn -0.7071077 -0.7071059 -1.780705E-06
vn -0.7071077 -0.7071059 -1.780705E-06
vn 1.949292E-06 7.059571E-07 -1
vn 1.949292E-06 7.059571E-07 -1
vn 1.949292E-06 7.059571E-07 -1
vn 1.949292E-06 7.059571E-07 -1
vn 0.7071077 0.7071059 1.780705E-06
vn 0.7071077 0.7071059 1.780705E-06
vn 0.7071077 0.7071059 1.780705E-06
vn 0.7071077 0.7071059 1.780705E-06
vn 0.707106 -0.7071076 6.848842E-07
vn 0.707106 -0.7071076 6.848842E-07
vn 0.707106 -0.7071076 6.848842E-07
vn 0.707106 -0.7071076 6.848842E-07
vn -0.707106 0.7071076 -6.848842E-07
vn -0.707106 0.7071076 -6.848842E-07
vn -0.707106 0.7071076 -6.848842E-07
vn -0.707106 0.7071076 -6.848842E-07
vn -0.7071075 0.7071061 -7.444896E-07
vn -0.7071075 0.7071061 -7.444896E-07
vn -0.7071075 0.7071061 -7.444896E-07
vn -0.7071075 0.7071061 -7.444896E-07
vn 0.7071062 0.7071074 4.750374E-07
vn 0.7071062 0.7071074 4.750374E-07
vn 0.7071062 0.7071074 4.750374E-07
vn 0.7071062 0.7071074 4.750374E-07
vn 0.7071075 -0.7071061 7.444896E-07
vn 0.7071075 -0.7071061 7.444896E-07
vn 0.7071075 -0.7071061 7.444896E-07
vn 0.7071075 -0.7071061 7.444896E-07
vn -0.7071062 -0.7071074 -4.750374E-07
vn -0.7071062 -0.7071074 -4.750374E-07
vn -0.7071062 -0.7071074 -4.750374E-07
vn -0.7071062 -0.7071074 -4.750374E-07
vn 1.278929E-06 -4.7017E-07 -1
vn 1.278929E-06 -4.7017E-07 -1
vn 1.278929E-06 -4.7017E-07 -1
vn 1.278929E-06 -4.7017E-07 -1
vn -1.278929E-06 4.7017E-07 1
vn -1.278929E-06 4.7017E-07 1
vn -1.278929E-06 4.7017E-07 1
vn -1.278929E-06 4.7017E-07 1
vn -3.113404E-06 1.5414E-07 1
vn -3.113404E-06 1.5414E-07 1
vn -3.113404E-06 1.5414E-07 1
vn -3.113404E-06 1.5414E-07 1
vn 2.384186E-07 1 -8.523635E-08
vn 2.384186E-07 1 -8.523635E-08
vn 2.384186E-07 1 -8.523635E-08
vn 2.384186E-07 1 -8.523635E-08
vn 3.113404E-06 -1.5414E-07 -1
vn 3.113404E-06 -1.5414E-07 -1
vn 3.113404E-06 -1.5414E-07 -1
vn 3.113404E-06 -1.5414E-07 -1
vn -2.384186E-07 -1 8.523635E-08
vn -2.384186E-07 -1 8.523635E-08
vn -2.384186E-07 -1 8.523635E-08
vn -2.384186E-07 -1 8.523635E-08
vn 1 -2.980226E-07 2.907548E-06
vn 1 -2.980226E-07 2.907548E-06
vn 1 -2.980226E-07 2.907548E-06
vn 1 -2.980226E-07 2.907548E-06
vn -1 2.980226E-07 -2.907548E-06
vn -1 2.980226E-07 -2.907548E-06
vn -1 2.980226E-07 -2.907548E-06
vn -1 2.980226E-07 -2.907548E-06
vn -0.7071071 0.7071065 -7.444895E-07
vn -0.7071071 0.7071065 -7.444895E-07
vn -0.7071071 0.7071065 -7.444895E-07
vn -0.7071071 0.7071065 -7.444895E-07
vn 0.7071066 0.7071069 4.750377E-07
vn 0.7071066 0.7071069 4.750377E-07
vn 0.7071066 0.7071069 4.750377E-07
vn 0.7071066 0.7071069 4.750377E-07
vn 0.7071071 -0.7071065 7.444895E-07
vn 0.7071071 -0.7071065 7.444895E-07
vn 0.7071071 -0.7071065 7.444895E-07
vn 0.7071071 -0.7071065 7.444895E-07
vn -0.7071066 -0.7071069 -4.750377E-07
vn -0.7071066 -0.7071069 -4.750377E-07
vn -0.7071066 -0.7071069 -4.750377E-07
vn -0.7071066 -0.7071069 -4.750377E-07
vn 1.278928E-06 -4.701694E-07 -1
vn 1.278928E-06 -4.701694E-07 -1
vn 1.278928E-06 -4.701694E-07 -1
vn 1.278928E-06 -4.701694E-07 -1
vn -1.278928E-06 4.701694E-07 1
vn -1.278928E-06 4.701694E-07 1
vn -1.278928E-06 4.701694E-07 1
vn -1.278928E-06 4.701694E-07 1

vt 0.2500815 0.000163
vt 0.2750655 0.499837
vt 0.275065 0.000163
vt 0.2500815 0.499837
vt 0.0052795 0.455216
vt 0.2679205 0.986755
vt 0.003715 0.983626
vt 0.2694845 0.458345
vt 0.3269455 0.000163
vt 0.301962 0.499837
vt 0.301962 0.000163
vt 0.326946 0.499837
vt 0.004495 0.984682
vt 0.268705 0.456262
vt 0.004495 0.456262
vt 0.268705 0.984682
vt 0.4999185 0.500163
vt 0.2500815 0.550131
vt 0.4999185 0.550131
vt 0.2500815 0.500163
vt 0.301212 0.499337
vt 0.2762285 -0.000337
vt 0.2762285 0.499337
vt 0.301212 -0.000337
vt 0.820813 0.407566
vt 0.730831 0.58753
vt 0.820813 0.58753
vt 0.730831 0.407566
vt 0.5992455 0.008232
vt 0.5064015 0.992381
vt 0.5992455 0.992381
vt 0.5064015 0.008232
vt 0.8206845 0.407566
vt 0.730703 0.58753
vt 0.8206845 0.58753
vt 0.730703 0.407566
vt 0.5992335 0.00824
vt 0.506389 0.992389
vt 0.5992335 0.992389
vt 0.506389 0.00824
vt 0.7149865 0.992559
vt 0.622142 0.00841
vt 0.622142 0.992559
vt 0.7149865 0.00841
vt 0.6221585 0.008423
vt 0.7150025 0.992572
vt 0.7150025 0.008423
vt 0.6221585 0.992572
vt 0.820813 0.407566
vt 0.730831 0.58753
vt 0.820813 0.58753
vt 0.730831 0.407566
vt 0.5992455 0.008232
vt 0.5064015 0.992381
vt 0.5992455 0.992381
vt 0.5064015 0.008232
vt 0.8206845 0.407566
vt 0.730703 0.58753
vt 0.8206845 0.58753
vt 0.730703 0.407566
vt 0.5992335 0.00824
vt 0.506389 0.992389
vt 0.5992335 0.992389
vt 0.506389 0.00824
vt 0.7149865 0.992559
vt 0.622142 0.00841
vt 0.622142 0.992559
vt 0.7149865 0.00841
vt 0.6221585 0.008423
vt 0.7150025 0.992572
vt 0.7150025 0.008423
vt 0.6221585 0.992572
vt 0.820813 0.407566
vt 0.730831 0.58753
vt 0.820813 0.58753
vt 0.730831 0.407566
vt 0.5992455 0.008232
vt 0.5064015 0.992381
vt 0.5992455 0.992381
vt 0.5064015 0.008232
vt 0.8206845 0.407566
vt 0.730703 0.58753
vt 0.8206845 0.58753
vt 0.730703 0.407566
vt 0.5992335 0.00824
vt 0.506389 0.992389
vt 0.5992335 0.992389
vt 0.506389 0.00824
vt 0.7149865 0.992559
vt 0.622142 0.00841
vt 0.622142 0.992559
vt 0.7149865 0.00841
vt 0.6221585 0.008423
vt 0.7150025 0.992572
vt 0.7150025 0.008423
vt 0.6221585 0.992572

vt1 0 0
vt1 0 0
vt1 0 0
vt1 0 0
vt1 0 0
vt1 0 0
vt1 0 0
vt1 0 0
vt1 0 0
vt1 0 0
vt1 0 0
vt1 0 0
vt1 0 0
vt1 0 0
vt1 0 0
vt1 0 0
vt1 0 0
vt1 0 0
vt1 0 0
vt1 0 0
vt1 0 0
vt1 0 0
vt1 0 0
vt1 0 0
vt1 0 0
vt1 0 0
vt1 0 0
vt1 0 0
vt1 0 0
vt1 0 0
vt1 0 0
vt1 0 0
vt1 0 0
vt1 0 0
vt1 0 0
vt1 0 0
vt1 0 0
vt1 0 0
vt1 0 0
vt1 0 0
vt1 0 0
vt1 0 0
vt1 0 0
vt1 0 0
vt1 0 0
vt1 0 0
vt1 0 0
vt1 0 0
vt1 0 0
vt1 0 0
vt1 0 0
vt1 0 0
vt1 0 0
vt1 0 0
vt1 0 0
vt1 0 0
vt1 0 0
vt1 0 0
vt1 0 0
vt1 0 0
vt1 0 0
vt1 0 0
vt1 0 0
vt1 0 0
vt1 0 0
vt1 0 0
vt1 0 0
vt1 0 0
vt1 0 0
vt1 0 0
vt1 0 0
vt1 0 0
vt1 0 0
vt1 0 0
vt1 0 0
vt1 0 0
vt1 0 0
vt1 0 0
vt1 0 0
vt1 0 0
vt1 0 0
vt1 0 0
vt1 0 0
vt1 0 0
vt1 0 0
vt1 0 0
vt1 0 0
vt1 0 0
vt1 0 0
vt1 0 0
vt1 0 0
vt1 0 0
vt1 0 0
vt1 0 0
vt1 0 0
vt1 0 0

vt2 0 0
vt2 0 0
vt2 0 0
vt2 0 0
vt2 0 0
vt2 0 0
vt2 0 0
vt2 0 0
vt2 0 0
vt2 0 0
vt2 0 0
vt2 0 0
vt2 0 0
vt2 0 0
vt2 0 0
vt2 0 0
vt2 0 0
vt2 0 0
vt2 0 0
vt2 0 0
vt2 0 0
vt2 0 0
vt2 0 0
vt2 0 0
vt2 0 0
vt2 0 0
vt2 0 0
vt2 0 0
vt2 0 0
vt2 0 0
vt2 0 0
vt2 0 0
vt2 0 0
vt2 0 0
vt2 0 0
vt2 0 0
vt2 0 0
vt2 0 0
vt2 0 0
vt2 0 0
vt2 0 0
vt2 0 0
vt2 0 0
vt2 0 0
vt2 0 0
vt2 0 0
vt2 0 0
vt2 0 0
vt2 0 0
vt2 0 0
vt2 0 0
vt2 0 0
vt2 0 0
vt2 0 0
vt2 0 0
vt2 0 0
vt2 0 0
vt2 0 0
vt2 0 0
vt2 0 0
vt2 0 0
vt2 0 0
vt2 0 0
vt2 0 0
vt2 0 0
vt2 0 0
vt2 0 0
vt2 0 0
vt2 0 0
vt2 0 0
vt2 0 0
vt2 0 0
vt2 0 0
vt2 0 0
vt2 0 0
vt2 0 0
vt2 0 0
vt2 0 0
vt2 0 0
vt2 0 0
vt2 0 0
vt2 0 0
vt2 0 0
vt2 0 0
vt2 0 0
vt2 0 0
vt2 0 0
vt2 0 0
vt2 0 0
vt2 0 0
vt2 0 0
vt2 0 0
vt2 0 0
vt2 0 0
vt2 0 0
vt2 0 0

vc 1 1 1 1
vc 1 1 1 1
vc 1 1 1 1
vc 1 1 1 1
vc 1 1 1 1
vc 1 1 1 1
vc 1 1 1 1
vc 1 1 1 1
vc 1 1 1 1
vc 1 1 1 1
vc 1 1 1 1
vc 1 1 1 1
vc 1 1 1 1
vc 1 1 1 1
vc 1 1 1 1
vc 1 1 1 1
vc 1 1 1 1
vc 1 1 1 1
vc 1 1 1 1
vc 1 1 1 1
vc 1 1 1 1
vc 1 1 1 1
vc 1 1 1 1
vc 1 1 1 1
vc 1 1 1 1
vc 1 1 1 1
vc 1 1 1 1
vc 1 1 1 1
vc 1 1 1 1
vc 1 1 1 1
vc 1 1 1 1
vc 1 1 1 1
vc 1 1 1 1
vc 1 1 1 1
vc 1 1 1 1
vc 1 1 1 1
vc 1 1 1 1
vc 1 1 1 1
vc 1 1 1 1
vc 1 1 1 1
vc 1 1 1 1
vc 1 1 1 1
vc 1 1 1 1
vc 1 1 1 1
vc 1 1 1 1
vc 1 1 1 1
vc 1 1 1 1
vc 1 1 1 1
vc 1 1 1 1
vc 1 1 1 1
vc 1 1 1 1
vc 1 1 1 1
vc 1 1 1 1
vc 1 1 1 1
vc 1 1 1 1
vc 1 1 1 1
vc 1 1 1 1
vc 1 1 1 1
vc 1 1 1 1
vc 1 1 1 1
vc 1 1 1 1
vc 1 1 1 1
vc 1 1 1 1
vc 1 1 1 1
vc 1 1 1 1
vc 1 1 1 1
vc 1 1 1 1
vc 1 1 1 1
vc 1 1 1 1
vc 1 1 1 1
vc 1 1 1 1
vc 1 1 1 1
vc 1 1 1 1
vc 1 1 1 1
vc 1 1 1 1
vc 1 1 1 1
vc 1 1 1 1
vc 1 1 1 1
vc 1 1 1 1
vc 1 1 1 1
vc 1 1 1 1
vc 1 1 1 1
vc 1 1 1 1
vc 1 1 1 1
vc 1 1 1 1
vc 1 1 1 1
vc 1 1 1 1
vc 1 1 1 1
vc 1 1 1 1
vc 1 1 1 1
vc 1 1 1 1
vc 1 1 1 1
vc 1 1 1 1
vc 1 1 1 1
vc 1 1 1 1
vc 1 1 1 1
f 1/1/1 3/3/3 2/2/2
f 1/1/1 2/2/2 4/4/4
f 5/5/5 7/7/7 6/6/6
f 5/5/5 6/6/6 8/8/8
f 9/9/9 11/11/11 10/10/10
f 9/9/9 10/10/10 12/12/12
f 13/13/13 15/15/15 14/14/14
f 13/13/13 14/14/14 16/16/16
f 17/17/17 19/19/19 18/18/18
f 17/17/17 18/18/18 20/20/20
f 21/21/21 23/23/23 22/22/22
f 21/21/21 22/22/22 24/24/24
f 25/25/25 27/27/27 26/26/26
f 25/25/25 26/26/26 28/28/28
f 29/29/29 31/31/31 30/30/30
f 29/29/29 30/30/30 32/32/32
f 33/33/33 35/35/35 34/34/34
f 33/33/33 34/34/34 36/36/36
f 37/37/37 39/39/39 38/38/38
f 37/37/37 38/38/38 40/40/40
f 41/41/41 43/43/43 42/42/42
f 41/41/41 42/42/42 44/44/44
f 45/45/45 47/47/47 46/46/46
f 45/45/45 46/46/46 48/48/48
f 49/49/49 50/50/50 51/51/51
f 49/49/49 52/52/52 50/50/50
f 53/53/53 54/54/54 55/55/55
f 53/53/53 56/56/56 54/54/54
f 57/57/57 58/58/58 59/59/59
f 57/57/57 60/60/60 58/58/58
f 61/61/61 62/62/62 63/63/63
f 61/61/61 64/64/64 62/62/62
f 65/65/65 66/66/66 67/67/67
f 65/65/65 68/68/68 66/66/66
f 69/69/69 70/70/70 71/71/71
f 69/69/69 72/72/72 70/70/70
f 73/73/73 75/75/75 74/74/74
f 73/73/73 74/74/74 76/76/76
f 77/77/77 79/79/79 78/78/78
f 77/77/77 78/78/78 80/80/80
f 81/81/81 83/83/83 82/82/82
f 81/81/81 82/82/82 84/84/84
f 85/85/85 87/87/87 86/86/86
f 85/85/85 86/86/86 88/88/88
f 89/89/89 91/91/91 90/90/90
f 89/89/89 90/90/90 92/92/92
f 93/93/93 95/95/95 94/94/94
f 93/93/93 94/94/94 96/96/96

