g Exported Mesh Combined Mesh 
v -0.4243385 0.265024 0.5000001
v 0.424338 -0.2650252 0.5
v -0.4416867 0.2349761 0.5000001
v 0.4416863 -0.2349772 0.5000001
v -0.4416867 0.2349761 0.5000001
v 0.4243385 -0.265024 -0.5000001
v -0.4416863 0.2349772 -0.5000001
v 0.424338 -0.2650252 0.5
v -0.4416863 0.2349772 -0.5000001
v 0.4416867 -0.2349761 -0.5000001
v -0.424338 0.2650252 -0.5
v 0.4243385 -0.265024 -0.5000001
v -0.424338 0.2650252 -0.5
v 0.4416863 -0.2349772 0.5000001
v -0.4243385 0.265024 0.5000001
v 0.4416867 -0.2349761 -0.5000001
v 0.4416863 -0.2349772 0.5000001
v 0.4243385 -0.265024 -0.5000001
v 0.424338 -0.2650252 0.5
v 0.4416867 -0.2349761 -0.5000001
v -0.424338 0.2650252 -0.5
v -0.4416867 0.2349761 0.5000001
v -0.4416863 0.2349772 -0.5000001
v -0.4243385 0.265024 0.5000001
v -0.4884 0.1330399 0.5412012
v -0.3884001 0.3062451 0.3412012
v -0.3884001 0.3062451 0.5412012
v -0.4884001 0.1330399 0.3412012
v -0.3884001 0.3062451 0.5412012
v 0.5295874 -0.2237544 0.3412015
v 0.5295875 -0.2237544 0.5412015
v -0.3884001 0.3062451 0.3412012
v 0.5295875 -0.2237544 0.5412015
v 0.4295875 -0.3969596 0.3412015
v 0.4295876 -0.3969596 0.5412015
v 0.5295874 -0.2237544 0.3412015
v 0.4295876 -0.3969596 0.5412015
v -0.4884001 0.1330399 0.3412012
v -0.4884 0.1330399 0.5412012
v 0.4295875 -0.3969596 0.3412015
v -0.4884001 0.1330399 0.3412012
v 0.5295874 -0.2237544 0.3412015
v -0.3884001 0.3062451 0.3412012
v 0.4295875 -0.3969596 0.3412015
v 0.4295876 -0.3969596 0.5412015
v -0.3884001 0.3062451 0.5412012
v 0.5295875 -0.2237544 0.5412015
v -0.4884 0.1330399 0.5412012
v -0.3884006 0.1062454 0.5504105
v -0.5884006 0.3062455 0.5504101
v -0.3884006 0.3062455 0.5504105
v -0.5884006 0.1062454 0.5504101
v -0.3884006 0.3062455 0.5504105
v -0.5883986 0.3062455 -0.5280107
v -0.3883985 0.3062455 -0.5280104
v -0.5884006 0.3062455 0.5504101
v -0.3883985 0.3062455 -0.5280104
v -0.5883986 0.1062454 -0.5280107
v -0.3883985 0.1062454 -0.5280103
v -0.5883986 0.3062455 -0.5280107
v -0.3883985 0.1062454 -0.5280103
v -0.5884006 0.1062454 0.5504101
v -0.3884006 0.1062454 0.5504105
v -0.5883986 0.1062454 -0.5280107
v -0.5884006 0.1062454 0.5504101
v -0.5883986 0.3062455 -0.5280107
v -0.5884006 0.3062455 0.5504101
v -0.5883986 0.1062454 -0.5280107
v -0.3883985 0.1062454 -0.5280103
v -0.3884006 0.3062455 0.5504105
v -0.3883985 0.3062455 -0.5280104
v -0.3884006 0.1062454 0.5504105
v -0.4883981 0.1330402 -0.3187996
v -0.3883982 0.3062454 -0.5187997
v -0.3883981 0.3062454 -0.3187996
v -0.4883982 0.1330402 -0.5187997
v -0.3883981 0.3062454 -0.3187996
v 0.5295891 -0.2237546 -0.5187994
v 0.5295892 -0.2237547 -0.3187993
v -0.3883982 0.3062454 -0.5187997
v 0.5295892 -0.2237547 -0.3187993
v 0.4295891 -0.3969598 -0.5187994
v 0.4295892 -0.3969598 -0.3187993
v 0.5295891 -0.2237546 -0.5187994
v 0.4295892 -0.3969598 -0.3187993
v -0.4883982 0.1330402 -0.5187997
v -0.4883981 0.1330402 -0.3187996
v 0.4295891 -0.3969598 -0.5187994
v -0.4883982 0.1330402 -0.5187997
v 0.5295891 -0.2237546 -0.5187994
v -0.3883982 0.3062454 -0.5187997
v 0.4295891 -0.3969598 -0.5187994
v 0.4295892 -0.3969598 -0.3187993
v -0.3883981 0.3062454 -0.3187996
v 0.5295892 -0.2237547 -0.3187993
v -0.4883981 0.1330402 -0.3187996

vn -5.846762E-07 -1.176598E-06 1
vn -5.846762E-07 -1.176598E-06 1
vn -5.846762E-07 -1.176598E-06 1
vn -5.846762E-07 -1.176598E-06 1
vn -0.5000012 -0.8660247 -1.252175E-06
vn -0.5000012 -0.8660247 -1.252175E-06
vn -0.5000012 -0.8660247 -1.252175E-06
vn -0.5000012 -0.8660247 -1.252175E-06
vn 5.846762E-07 1.176598E-06 -1
vn 5.846762E-07 1.176598E-06 -1
vn 5.846762E-07 1.176598E-06 -1
vn 5.846762E-07 1.176598E-06 -1
vn 0.5000012 0.8660247 1.252175E-06
vn 0.5000012 0.8660247 1.252175E-06
vn 0.5000012 0.8660247 1.252175E-06
vn 0.5000012 0.8660247 1.252175E-06
vn 0.8660247 -0.5000012 -2.15357E-07
vn 0.8660247 -0.5000012 -2.15357E-07
vn 0.8660247 -0.5000012 -2.15357E-07
vn 0.8660247 -0.5000012 -2.15357E-07
vn -0.8660247 0.5000012 2.15357E-07
vn -0.8660247 0.5000012 2.15357E-07
vn -0.8660247 0.5000012 2.15357E-07
vn -0.8660247 0.5000012 2.15357E-07
vn -0.8660258 0.4999993 1.557527E-07
vn -0.8660258 0.4999993 1.557527E-07
vn -0.8660258 0.4999993 1.557527E-07
vn -0.8660258 0.4999993 1.557527E-07
vn 0.4999993 0.8660258 -5.349128E-08
vn 0.4999993 0.8660258 -5.349128E-08
vn 0.4999993 0.8660258 -5.349128E-08
vn 0.4999993 0.8660258 -5.349128E-08
vn 0.8660258 -0.4999993 -1.557527E-07
vn 0.8660258 -0.4999993 -1.557527E-07
vn 0.8660258 -0.4999993 -1.557527E-07
vn 0.8660258 -0.4999993 -1.557527E-07
vn -0.4999993 -0.8660258 5.349128E-08
vn -0.4999993 -0.8660258 5.349128E-08
vn -0.4999993 -0.8660258 5.349128E-08
vn -0.4999993 -0.8660258 5.349128E-08
vn 2.415591E-07 -1.329562E-07 -1
vn 2.415591E-07 -1.329562E-07 -1
vn 2.415591E-07 -1.329562E-07 -1
vn 2.415591E-07 -1.329562E-07 -1
vn -2.415591E-07 1.329562E-07 1
vn -2.415591E-07 1.329562E-07 1
vn -2.415591E-07 1.329562E-07 1
vn -2.415591E-07 1.329562E-07 1
vn -2.022427E-06 4.180021E-08 1
vn -2.022427E-06 4.180021E-08 1
vn -2.022427E-06 4.180021E-08 1
vn -2.022427E-06 4.180021E-08 1
vn 5.320205E-14 1 -2.630604E-08
vn 5.320205E-14 1 -2.630604E-08
vn 5.320205E-14 1 -2.630604E-08
vn 5.320205E-14 1 -2.630604E-08
vn 2.022427E-06 -4.180021E-08 -1
vn 2.022427E-06 -4.180021E-08 -1
vn 2.022427E-06 -4.180021E-08 -1
vn 2.022427E-06 -4.180021E-08 -1
vn -5.320205E-14 -1 2.630604E-08
vn -5.320205E-14 -1 2.630604E-08
vn -5.320205E-14 -1 2.630604E-08
vn -5.320205E-14 -1 2.630604E-08
vn -1 2.980224E-08 -1.877335E-06
vn -1 2.980224E-08 -1.877335E-06
vn -1 2.980224E-08 -1.877335E-06
vn -1 2.980224E-08 -1.877335E-06
vn 1 -2.980224E-08 1.877335E-06
vn 1 -2.980224E-08 1.877335E-06
vn 1 -2.980224E-08 1.877335E-06
vn 1 -2.980224E-08 1.877335E-06
vn -0.8660254 0.4999999 1.557525E-07
vn -0.8660254 0.4999999 1.557525E-07
vn -0.8660254 0.4999999 1.557525E-07
vn -0.8660254 0.4999999 1.557525E-07
vn 0.4999999 0.8660255 -5.34915E-08
vn 0.4999999 0.8660255 -5.34915E-08
vn 0.4999999 0.8660255 -5.34915E-08
vn 0.4999999 0.8660255 -5.34915E-08
vn 0.8660254 -0.4999999 -1.557525E-07
vn 0.8660254 -0.4999999 -1.557525E-07
vn 0.8660254 -0.4999999 -1.557525E-07
vn 0.8660254 -0.4999999 -1.557525E-07
vn -0.4999999 -0.8660255 5.34915E-08
vn -0.4999999 -0.8660255 5.34915E-08
vn -0.4999999 -0.8660255 5.34915E-08
vn -0.4999999 -0.8660255 5.34915E-08
vn 2.415583E-07 -1.329558E-07 -1
vn 2.415583E-07 -1.329558E-07 -1
vn 2.415583E-07 -1.329558E-07 -1
vn 2.415583E-07 -1.329558E-07 -1
vn -2.415583E-07 1.329558E-07 1
vn -2.415583E-07 1.329558E-07 1
vn -2.415583E-07 1.329558E-07 1
vn -2.415583E-07 1.329558E-07 1

vt 0.2500815 0.000163
vt 0.2750655 0.499837
vt 0.275065 0.000163
vt 0.2500815 0.499837
vt 0.0052795 0.455216
vt 0.2679205 0.986755
vt 0.003715 0.983626
vt 0.2694845 0.458345
vt 0.3269455 0.000163
vt 0.301962 0.499837
vt 0.301962 0.000163
vt 0.326946 0.499837
vt 0.004495 0.984682
vt 0.268705 0.456262
vt 0.004495 0.456262
vt 0.268705 0.984682
vt 0.4999185 0.500163
vt 0.2500815 0.550131
vt 0.4999185 0.550131
vt 0.2500815 0.500163
vt 0.301212 0.499337
vt 0.2762285 -0.000337
vt 0.2762285 0.499337
vt 0.301212 -0.000337
vt 0.820813 0.407566
vt 0.730831 0.58753
vt 0.820813 0.58753
vt 0.730831 0.407566
vt 0.5992455 0.008232
vt 0.5064015 0.992381
vt 0.5992455 0.992381
vt 0.5064015 0.008232
vt 0.8206845 0.407566
vt 0.730703 0.58753
vt 0.8206845 0.58753
vt 0.730703 0.407566
vt 0.5992335 0.00824
vt 0.506389 0.992389
vt 0.5992335 0.992389
vt 0.506389 0.00824
vt 0.7149865 0.992559
vt 0.622142 0.00841
vt 0.622142 0.992559
vt 0.7149865 0.00841
vt 0.6221585 0.008423
vt 0.7150025 0.992572
vt 0.7150025 0.008423
vt 0.6221585 0.992572
vt 0.820813 0.407566
vt 0.730831 0.58753
vt 0.820813 0.58753
vt 0.730831 0.407566
vt 0.5992455 0.008232
vt 0.5064015 0.992381
vt 0.5992455 0.992381
vt 0.5064015 0.008232
vt 0.8206845 0.407566
vt 0.730703 0.58753
vt 0.8206845 0.58753
vt 0.730703 0.407566
vt 0.5992335 0.00824
vt 0.506389 0.992389
vt 0.5992335 0.992389
vt 0.506389 0.00824
vt 0.7149865 0.992559
vt 0.622142 0.00841
vt 0.622142 0.992559
vt 0.7149865 0.00841
vt 0.6221585 0.008423
vt 0.7150025 0.992572
vt 0.7150025 0.008423
vt 0.6221585 0.992572
vt 0.820813 0.407566
vt 0.730831 0.58753
vt 0.820813 0.58753
vt 0.730831 0.407566
vt 0.5992455 0.008232
vt 0.5064015 0.992381
vt 0.5992455 0.992381
vt 0.5064015 0.008232
vt 0.8206845 0.407566
vt 0.730703 0.58753
vt 0.8206845 0.58753
vt 0.730703 0.407566
vt 0.5992335 0.00824
vt 0.506389 0.992389
vt 0.5992335 0.992389
vt 0.506389 0.00824
vt 0.7149865 0.992559
vt 0.622142 0.00841
vt 0.622142 0.992559
vt 0.7149865 0.00841
vt 0.6221585 0.008423
vt 0.7150025 0.992572
vt 0.7150025 0.008423
vt 0.6221585 0.992572

vt1 0 0
vt1 0 0
vt1 0 0
vt1 0 0
vt1 0 0
vt1 0 0
vt1 0 0
vt1 0 0
vt1 0 0
vt1 0 0
vt1 0 0
vt1 0 0
vt1 0 0
vt1 0 0
vt1 0 0
vt1 0 0
vt1 0 0
vt1 0 0
vt1 0 0
vt1 0 0
vt1 0 0
vt1 0 0
vt1 0 0
vt1 0 0
vt1 0 0
vt1 0 0
vt1 0 0
vt1 0 0
vt1 0 0
vt1 0 0
vt1 0 0
vt1 0 0
vt1 0 0
vt1 0 0
vt1 0 0
vt1 0 0
vt1 0 0
vt1 0 0
vt1 0 0
vt1 0 0
vt1 0 0
vt1 0 0
vt1 0 0
vt1 0 0
vt1 0 0
vt1 0 0
vt1 0 0
vt1 0 0
vt1 0 0
vt1 0 0
vt1 0 0
vt1 0 0
vt1 0 0
vt1 0 0
vt1 0 0
vt1 0 0
vt1 0 0
vt1 0 0
vt1 0 0
vt1 0 0
vt1 0 0
vt1 0 0
vt1 0 0
vt1 0 0
vt1 0 0
vt1 0 0
vt1 0 0
vt1 0 0
vt1 0 0
vt1 0 0
vt1 0 0
vt1 0 0
vt1 0 0
vt1 0 0
vt1 0 0
vt1 0 0
vt1 0 0
vt1 0 0
vt1 0 0
vt1 0 0
vt1 0 0
vt1 0 0
vt1 0 0
vt1 0 0
vt1 0 0
vt1 0 0
vt1 0 0
vt1 0 0
vt1 0 0
vt1 0 0
vt1 0 0
vt1 0 0
vt1 0 0
vt1 0 0
vt1 0 0
vt1 0 0

vt2 0 0
vt2 0 0
vt2 0 0
vt2 0 0
vt2 0 0
vt2 0 0
vt2 0 0
vt2 0 0
vt2 0 0
vt2 0 0
vt2 0 0
vt2 0 0
vt2 0 0
vt2 0 0
vt2 0 0
vt2 0 0
vt2 0 0
vt2 0 0
vt2 0 0
vt2 0 0
vt2 0 0
vt2 0 0
vt2 0 0
vt2 0 0
vt2 0 0
vt2 0 0
vt2 0 0
vt2 0 0
vt2 0 0
vt2 0 0
vt2 0 0
vt2 0 0
vt2 0 0
vt2 0 0
vt2 0 0
vt2 0 0
vt2 0 0
vt2 0 0
vt2 0 0
vt2 0 0
vt2 0 0
vt2 0 0
vt2 0 0
vt2 0 0
vt2 0 0
vt2 0 0
vt2 0 0
vt2 0 0
vt2 0 0
vt2 0 0
vt2 0 0
vt2 0 0
vt2 0 0
vt2 0 0
vt2 0 0
vt2 0 0
vt2 0 0
vt2 0 0
vt2 0 0
vt2 0 0
vt2 0 0
vt2 0 0
vt2 0 0
vt2 0 0
vt2 0 0
vt2 0 0
vt2 0 0
vt2 0 0
vt2 0 0
vt2 0 0
vt2 0 0
vt2 0 0
vt2 0 0
vt2 0 0
vt2 0 0
vt2 0 0
vt2 0 0
vt2 0 0
vt2 0 0
vt2 0 0
vt2 0 0
vt2 0 0
vt2 0 0
vt2 0 0
vt2 0 0
vt2 0 0
vt2 0 0
vt2 0 0
vt2 0 0
vt2 0 0
vt2 0 0
vt2 0 0
vt2 0 0
vt2 0 0
vt2 0 0
vt2 0 0

vc 1 1 1 1
vc 1 1 1 1
vc 1 1 1 1
vc 1 1 1 1
vc 1 1 1 1
vc 1 1 1 1
vc 1 1 1 1
vc 1 1 1 1
vc 1 1 1 1
vc 1 1 1 1
vc 1 1 1 1
vc 1 1 1 1
vc 1 1 1 1
vc 1 1 1 1
vc 1 1 1 1
vc 1 1 1 1
vc 1 1 1 1
vc 1 1 1 1
vc 1 1 1 1
vc 1 1 1 1
vc 1 1 1 1
vc 1 1 1 1
vc 1 1 1 1
vc 1 1 1 1
vc 1 1 1 1
vc 1 1 1 1
vc 1 1 1 1
vc 1 1 1 1
vc 1 1 1 1
vc 1 1 1 1
vc 1 1 1 1
vc 1 1 1 1
vc 1 1 1 1
vc 1 1 1 1
vc 1 1 1 1
vc 1 1 1 1
vc 1 1 1 1
vc 1 1 1 1
vc 1 1 1 1
vc 1 1 1 1
vc 1 1 1 1
vc 1 1 1 1
vc 1 1 1 1
vc 1 1 1 1
vc 1 1 1 1
vc 1 1 1 1
vc 1 1 1 1
vc 1 1 1 1
vc 1 1 1 1
vc 1 1 1 1
vc 1 1 1 1
vc 1 1 1 1
vc 1 1 1 1
vc 1 1 1 1
vc 1 1 1 1
vc 1 1 1 1
vc 1 1 1 1
vc 1 1 1 1
vc 1 1 1 1
vc 1 1 1 1
vc 1 1 1 1
vc 1 1 1 1
vc 1 1 1 1
vc 1 1 1 1
vc 1 1 1 1
vc 1 1 1 1
vc 1 1 1 1
vc 1 1 1 1
vc 1 1 1 1
vc 1 1 1 1
vc 1 1 1 1
vc 1 1 1 1
vc 1 1 1 1
vc 1 1 1 1
vc 1 1 1 1
vc 1 1 1 1
vc 1 1 1 1
vc 1 1 1 1
vc 1 1 1 1
vc 1 1 1 1
vc 1 1 1 1
vc 1 1 1 1
vc 1 1 1 1
vc 1 1 1 1
vc 1 1 1 1
vc 1 1 1 1
vc 1 1 1 1
vc 1 1 1 1
vc 1 1 1 1
vc 1 1 1 1
vc 1 1 1 1
vc 1 1 1 1
vc 1 1 1 1
vc 1 1 1 1
vc 1 1 1 1
vc 1 1 1 1
f 1/1/1 3/3/3 2/2/2
f 1/1/1 2/2/2 4/4/4
f 5/5/5 7/7/7 6/6/6
f 5/5/5 6/6/6 8/8/8
f 9/9/9 11/11/11 10/10/10
f 9/9/9 10/10/10 12/12/12
f 13/13/13 15/15/15 14/14/14
f 13/13/13 14/14/14 16/16/16
f 17/17/17 19/19/19 18/18/18
f 17/17/17 18/18/18 20/20/20
f 21/21/21 23/23/23 22/22/22
f 21/21/21 22/22/22 24/24/24
f 25/25/25 27/27/27 26/26/26
f 25/25/25 26/26/26 28/28/28
f 29/29/29 31/31/31 30/30/30
f 29/29/29 30/30/30 32/32/32
f 33/33/33 35/35/35 34/34/34
f 33/33/33 34/34/34 36/36/36
f 37/37/37 39/39/39 38/38/38
f 37/37/37 38/38/38 40/40/40
f 41/41/41 43/43/43 42/42/42
f 41/41/41 42/42/42 44/44/44
f 45/45/45 47/47/47 46/46/46
f 45/45/45 46/46/46 48/48/48
f 49/49/49 51/51/51 50/50/50
f 49/49/49 50/50/50 52/52/52
f 53/53/53 55/55/55 54/54/54
f 53/53/53 54/54/54 56/56/56
f 57/57/57 59/59/59 58/58/58
f 57/57/57 58/58/58 60/60/60
f 61/61/61 63/63/63 62/62/62
f 61/61/61 62/62/62 64/64/64
f 65/65/65 67/67/67 66/66/66
f 65/65/65 66/66/66 68/68/68
f 69/69/69 71/71/71 70/70/70
f 69/69/69 70/70/70 72/72/72
f 73/73/73 75/75/75 74/74/74
f 73/73/73 74/74/74 76/76/76
f 77/77/77 79/79/79 78/78/78
f 77/77/77 78/78/78 80/80/80
f 81/81/81 83/83/83 82/82/82
f 81/81/81 82/82/82 84/84/84
f 85/85/85 87/87/87 86/86/86
f 85/85/85 86/86/86 88/88/88
f 89/89/89 91/91/91 90/90/90
f 89/89/89 90/90/90 92/92/92
f 93/93/93 95/95/95 94/94/94
f 93/93/93 94/94/94 96/96/96

