g Exported Mesh Combined Mesh 
v -0.1192243 0.1331038 0.1086261
v -0.1192247 0.305095 -0.1086261
v -0.1192247 0.3050947 0.1086263
v -0.1192243 0.133104 -0.1086263
v 1.20348E-07 0.133104 0.1086261
v -2.616225E-07 0.3050953 -0.1086261
v 1.073988E-07 0.1331043 -0.1086263
v -2.486735E-07 0.305095 0.1086262
v -0.1192243 0.1331038 0.1086261
v -2.486735E-07 0.305095 0.1086262
v 1.20348E-07 0.133104 0.1086261
v -0.1192247 0.3050947 0.1086263
v -0.1192247 0.3050947 0.1086263
v -2.616225E-07 0.3050953 -0.1086261
v -2.486735E-07 0.305095 0.1086262
v -0.1192247 0.305095 -0.1086261
v -0.1192247 0.305095 -0.1086261
v 1.073988E-07 0.1331043 -0.1086263
v -2.616225E-07 0.3050953 -0.1086261
v -0.1192243 0.133104 -0.1086263
v 1.20348E-07 0.133104 0.1086261
v -0.1192243 0.133104 -0.1086263
v -0.1192243 0.1331038 0.1086261
v 1.073988E-07 0.1331043 -0.1086263
v 1.215297E-06 0.1331047 0.1086261
v 8.333263E-07 0.305096 -0.1086261
v 8.462755E-07 0.3050957 0.1086263
v 1.202348E-06 0.133105 -0.1086263
v 0.1192256 0.133105 0.1086261
v 0.1192252 0.3050962 -0.1086261
v 0.1192256 0.1331052 -0.1086263
v 0.1192253 0.305096 0.1086262
v 1.215297E-06 0.1331047 0.1086261
v 0.1192253 0.305096 0.1086262
v 0.1192256 0.133105 0.1086261
v 8.462755E-07 0.3050957 0.1086263
v 8.462755E-07 0.3050957 0.1086263
v 0.1192252 0.3050962 -0.1086261
v 0.1192253 0.305096 0.1086262
v 8.333263E-07 0.305096 -0.1086261
v 8.333263E-07 0.305096 -0.1086261
v 0.1192256 0.1331052 -0.1086263
v 0.1192252 0.3050962 -0.1086261
v 1.202348E-06 0.133105 -0.1086263
v 0.1192256 0.133105 0.1086261
v 1.202348E-06 0.133105 -0.1086263
v 1.215297E-06 0.1331047 0.1086261
v 0.1192256 0.1331052 -0.1086263
v 0.001848131 -0.3050962 0.09289628
v 0.001847773 -0.1436087 -0.09289627
v 0.001847784 -0.1436089 0.09289649
v 0.00184812 -0.305096 -0.09289648
v 0.1080155 -0.305096 0.09289627
v 0.1080151 -0.1436085 -0.09289628
v 0.1080155 -0.3050958 -0.09289649
v 0.1080152 -0.1436087 0.09289639
v 0.001848131 -0.3050962 0.09289628
v 0.1080152 -0.1436087 0.09289639
v 0.1080155 -0.305096 0.09289627
v 0.001847784 -0.1436089 0.09289649
v 0.001847784 -0.1436089 0.09289649
v 0.1080151 -0.1436085 -0.09289628
v 0.1080152 -0.1436087 0.09289639
v 0.001847773 -0.1436087 -0.09289627
v 0.001847773 -0.1436087 -0.09289627
v 0.1080155 -0.3050958 -0.09289649
v 0.1080151 -0.1436085 -0.09289628
v 0.00184812 -0.305096 -0.09289648
v 0.1080155 -0.305096 0.09289627
v 0.00184812 -0.305096 -0.09289648
v 0.001848131 -0.3050962 0.09289628
v 0.1080155 -0.3050958 -0.09289649
v -0.1043187 -0.3050962 0.09289628
v -0.1043191 -0.1436087 -0.09289627
v -0.1043191 -0.1436089 0.09289649
v -0.1043187 -0.305096 -0.09289648
v 0.001848669 -0.305096 0.09289627
v 0.001848311 -0.1436085 -0.09289628
v 0.001848657 -0.3050958 -0.09289649
v 0.001848322 -0.1436087 0.09289639
v -0.1043187 -0.3050962 0.09289628
v 0.001848322 -0.1436087 0.09289639
v 0.001848669 -0.305096 0.09289627
v -0.1043191 -0.1436089 0.09289649
v -0.1043191 -0.1436089 0.09289649
v 0.001848311 -0.1436085 -0.09289628
v 0.001848322 -0.1436087 0.09289639
v -0.1043191 -0.1436087 -0.09289627
v -0.1043191 -0.1436087 -0.09289627
v 0.001848657 -0.3050958 -0.09289649
v 0.001848311 -0.1436085 -0.09289628
v -0.1043187 -0.305096 -0.09289648
v 0.001848669 -0.305096 0.09289627
v -0.1043187 -0.305096 -0.09289648
v -0.1043187 -0.3050962 0.09289628
v 0.001848657 -0.3050958 -0.09289649
v -0.01259304 -0.1828609 0.05744787
v -0.01259377 0.1542765 -0.05744787
v -0.01259376 0.1542764 0.05744832
v -0.01259305 -0.1828608 -0.05744833
v -0.07395218 -0.1828609 0.05744787
v -0.07395291 0.1542763 -0.05744787
v -0.07395218 -0.1828608 -0.05744832
v -0.0739529 0.1542763 0.05744826
v -0.01259304 -0.1828609 0.05744787
v -0.0739529 0.1542763 0.05744826
v -0.07395218 -0.1828609 0.05744787
v -0.01259376 0.1542764 0.05744832
v -0.01259376 0.1542764 0.05744832
v -0.07395291 0.1542763 -0.05744787
v -0.0739529 0.1542763 0.05744826
v -0.01259377 0.1542765 -0.05744787
v -0.01259377 0.1542765 -0.05744787
v -0.07395218 -0.1828608 -0.05744832
v -0.07395291 0.1542763 -0.05744787
v -0.01259305 -0.1828608 -0.05744833
v -0.07395218 -0.1828609 0.05744787
v -0.01259305 -0.1828608 -0.05744833
v -0.01259304 -0.1828609 0.05744787
v -0.07395218 -0.1828608 -0.05744832
v 0.07764935 -0.1828609 0.05744787
v 0.07764862 0.1542765 -0.05744787
v 0.07764862 0.1542764 0.05744832
v 0.07764934 -0.1828608 -0.05744833
v 0.01629021 -0.1828609 0.05744787
v 0.01628948 0.1542763 -0.05744787
v 0.01629021 -0.1828608 -0.05744832
v 0.01628949 0.1542763 0.05744826
v 0.07764935 -0.1828609 0.05744787
v 0.01628949 0.1542763 0.05744826
v 0.01629021 -0.1828609 0.05744787
v 0.07764862 0.1542764 0.05744832
v 0.07764862 0.1542764 0.05744832
v 0.01628948 0.1542763 -0.05744787
v 0.01628949 0.1542763 0.05744826
v 0.07764862 0.1542765 -0.05744787
v 0.07764862 0.1542765 -0.05744787
v 0.01629021 -0.1828608 -0.05744832
v 0.01628948 0.1542763 -0.05744787
v 0.07764934 -0.1828608 -0.05744833
v 0.01629021 -0.1828609 0.05744787
v 0.07764934 -0.1828608 -0.05744833
v 0.07764935 -0.1828609 0.05744787
v 0.01629021 -0.1828608 -0.05744832

vn -1 -2.145586E-06 5.960161E-08
vn -1 -2.145586E-06 5.960161E-08
vn -1 -2.145586E-06 5.960161E-08
vn -1 -2.145586E-06 5.960161E-08
vn 1 2.145586E-06 -5.960161E-08
vn 1 2.145586E-06 -5.960161E-08
vn 1 2.145586E-06 -5.960161E-08
vn 1 2.145586E-06 -5.960161E-08
vn 1.192123E-07 -1.342426E-06 1
vn 1.192123E-07 -1.342426E-06 1
vn 1.192123E-07 -1.342426E-06 1
vn 1.192123E-07 -1.342426E-06 1
vn -2.145586E-06 1 9.465942E-07
vn -2.145586E-06 1 9.465942E-07
vn -2.145586E-06 1 9.465942E-07
vn -2.145586E-06 1 9.465942E-07
vn -1.192123E-07 1.342426E-06 -1
vn -1.192123E-07 1.342426E-06 -1
vn -1.192123E-07 1.342426E-06 -1
vn -1.192123E-07 1.342426E-06 -1
vn 2.145586E-06 -1 -1.342426E-06
vn 2.145586E-06 -1 -1.342426E-06
vn 2.145586E-06 -1 -1.342426E-06
vn 2.145586E-06 -1 -1.342426E-06
vn -1 -2.145586E-06 5.960161E-08
vn -1 -2.145586E-06 5.960161E-08
vn -1 -2.145586E-06 5.960161E-08
vn -1 -2.145586E-06 5.960161E-08
vn 1 2.145586E-06 -5.960161E-08
vn 1 2.145586E-06 -5.960161E-08
vn 1 2.145586E-06 -5.960161E-08
vn 1 2.145586E-06 -5.960161E-08
vn 1.192123E-07 -1.342426E-06 1
vn 1.192123E-07 -1.342426E-06 1
vn 1.192123E-07 -1.342426E-06 1
vn 1.192123E-07 -1.342426E-06 1
vn -2.145586E-06 1 9.465942E-07
vn -2.145586E-06 1 9.465942E-07
vn -2.145586E-06 1 9.465942E-07
vn -2.145586E-06 1 9.465942E-07
vn -1.192123E-07 1.342426E-06 -1
vn -1.192123E-07 1.342426E-06 -1
vn -1.192123E-07 1.342426E-06 -1
vn -1.192123E-07 1.342426E-06 -1
vn 2.145586E-06 -1 -1.342426E-06
vn 2.145586E-06 -1 -1.342426E-06
vn 2.145586E-06 -1 -1.342426E-06
vn 2.145586E-06 -1 -1.342426E-06
vn -1 -2.145586E-06 5.96016E-08
vn -1 -2.145586E-06 5.96016E-08
vn -1 -2.145586E-06 5.96016E-08
vn -1 -2.145586E-06 5.96016E-08
vn 1 2.145586E-06 -5.96016E-08
vn 1 2.145586E-06 -5.96016E-08
vn 1 2.145586E-06 -5.96016E-08
vn 1 2.145586E-06 -5.96016E-08
vn 1.192123E-07 -1.342426E-06 1
vn 1.192123E-07 -1.342426E-06 1
vn 1.192123E-07 -1.342426E-06 1
vn 1.192123E-07 -1.342426E-06 1
vn -2.145586E-06 1 9.078365E-07
vn -2.145586E-06 1 9.078365E-07
vn -2.145586E-06 1 9.078365E-07
vn -2.145586E-06 1 9.078365E-07
vn -1.192123E-07 1.342426E-06 -1
vn -1.192123E-07 1.342426E-06 -1
vn -1.192123E-07 1.342426E-06 -1
vn -1.192123E-07 1.342426E-06 -1
vn 2.145586E-06 -1 -1.342426E-06
vn 2.145586E-06 -1 -1.342426E-06
vn 2.145586E-06 -1 -1.342426E-06
vn 2.145586E-06 -1 -1.342426E-06
vn -1 -2.145586E-06 5.96016E-08
vn -1 -2.145586E-06 5.96016E-08
vn -1 -2.145586E-06 5.96016E-08
vn -1 -2.145586E-06 5.96016E-08
vn 1 2.145586E-06 -5.96016E-08
vn 1 2.145586E-06 -5.96016E-08
vn 1 2.145586E-06 -5.96016E-08
vn 1 2.145586E-06 -5.96016E-08
vn 1.192123E-07 -1.342426E-06 1
vn 1.192123E-07 -1.342426E-06 1
vn 1.192123E-07 -1.342426E-06 1
vn 1.192123E-07 -1.342426E-06 1
vn -2.145586E-06 1 9.078365E-07
vn -2.145586E-06 1 9.078365E-07
vn -2.145586E-06 1 9.078365E-07
vn -2.145586E-06 1 9.078365E-07
vn -1.192123E-07 1.342426E-06 -1
vn -1.192123E-07 1.342426E-06 -1
vn -1.192123E-07 1.342426E-06 -1
vn -1.192123E-07 1.342426E-06 -1
vn 2.145586E-06 -1 -1.342426E-06
vn 2.145586E-06 -1 -1.342426E-06
vn 2.145586E-06 -1 -1.342426E-06
vn 2.145586E-06 -1 -1.342426E-06
vn 1 2.145586E-06 -5.96016E-08
vn 1 2.145586E-06 -5.96016E-08
vn 1 2.145586E-06 -5.96016E-08
vn 1 2.145586E-06 -5.96016E-08
vn -1 -2.145586E-06 5.96016E-08
vn -1 -2.145586E-06 5.96016E-08
vn -1 -2.145586E-06 5.96016E-08
vn -1 -2.145586E-06 5.96016E-08
vn 1.192123E-07 -1.342426E-06 1
vn 1.192123E-07 -1.342426E-06 1
vn 1.192123E-07 -1.342426E-06 1
vn 1.192123E-07 -1.342426E-06 1
vn -2.145586E-06 1 -1.24712E-07
vn -2.145586E-06 1 -1.24712E-07
vn -2.145586E-06 1 -1.24712E-07
vn -2.145586E-06 1 -1.24712E-07
vn -1.192123E-07 1.342426E-06 -1
vn -1.192123E-07 1.342426E-06 -1
vn -1.192123E-07 1.342426E-06 -1
vn -1.192123E-07 1.342426E-06 -1
vn 2.145586E-06 -1 -1.342426E-06
vn 2.145586E-06 -1 -1.342426E-06
vn 2.145586E-06 -1 -1.342426E-06
vn 2.145586E-06 -1 -1.342426E-06
vn 1 2.145586E-06 -5.96016E-08
vn 1 2.145586E-06 -5.96016E-08
vn 1 2.145586E-06 -5.96016E-08
vn 1 2.145586E-06 -5.96016E-08
vn -1 -2.145586E-06 5.96016E-08
vn -1 -2.145586E-06 5.96016E-08
vn -1 -2.145586E-06 5.96016E-08
vn -1 -2.145586E-06 5.96016E-08
vn 1.192123E-07 -1.342426E-06 1
vn 1.192123E-07 -1.342426E-06 1
vn 1.192123E-07 -1.342426E-06 1
vn 1.192123E-07 -1.342426E-06 1
vn -2.145586E-06 1 -1.24712E-07
vn -2.145586E-06 1 -1.24712E-07
vn -2.145586E-06 1 -1.24712E-07
vn -2.145586E-06 1 -1.24712E-07
vn -1.192123E-07 1.342426E-06 -1
vn -1.192123E-07 1.342426E-06 -1
vn -1.192123E-07 1.342426E-06 -1
vn -1.192123E-07 1.342426E-06 -1
vn 2.145586E-06 -1 -1.342426E-06
vn 2.145586E-06 -1 -1.342426E-06
vn 2.145586E-06 -1 -1.342426E-06
vn 2.145586E-06 -1 -1.342426E-06

vt 0.000171 0.5
vt 0.499659 0.749744
vt 0.499659 0.5
vt 0.000171 0.749744
vt 0.000171 0.499659
vt 0.499659 0.249915
vt 0.000171 0.249915
vt 0.499659 0.499659
vt 0.5 0.000171
vt 0.749744 0.499659
vt 0.749744 0.000171
vt 0.5 0.499659
vt 0.5 0.749744
vt 0.749744 0.5
vt 0.5 0.5
vt 0.749744 0.749744
vt 0.499659 0.000171
vt 0.000171 0.249915
vt 0.499659 0.249915
vt 0.000171 0.000171
vt 0.99983 0.249915
vt 0.750085 0.000171
vt 0.750085 0.249915
vt 0.99983 0.000171
vt 0.000171 0.5
vt 0.499659 0.749744
vt 0.499659 0.5
vt 0.000171 0.749744
vt 0.000171 0.499659
vt 0.499659 0.249915
vt 0.000171 0.249915
vt 0.499659 0.499659
vt 0.5 0.000171
vt 0.749744 0.499659
vt 0.749744 0.000171
vt 0.5 0.499659
vt 0.5 0.749744
vt 0.749744 0.5
vt 0.5 0.5
vt 0.749744 0.749744
vt 0.499659 0.000171
vt 0.000171 0.249915
vt 0.499659 0.249915
vt 0.000171 0.000171
vt 0.99983 0.249915
vt 0.750085 0.000171
vt 0.750085 0.249915
vt 0.99983 0.000171
vt 0.000171 0.5
vt 0.499659 0.749744
vt 0.499659 0.5
vt 0.000171 0.749744
vt 0.000171 0.499659
vt 0.499659 0.249915
vt 0.000171 0.249915
vt 0.499659 0.499659
vt 0.5 0.000171
vt 0.749744 0.499659
vt 0.749744 0.000171
vt 0.5 0.499659
vt 0.5 0.749744
vt 0.749744 0.5
vt 0.5 0.5
vt 0.749744 0.749744
vt 0.499659 0.000171
vt 0.000171 0.249915
vt 0.499659 0.249915
vt 0.000171 0.000171
vt 0.99983 0.249915
vt 0.750085 0.000171
vt 0.750085 0.249915
vt 0.99983 0.000171
vt 0.000171 0.5
vt 0.499659 0.749744
vt 0.499659 0.5
vt 0.000171 0.749744
vt 0.000171 0.499659
vt 0.499659 0.249915
vt 0.000171 0.249915
vt 0.499659 0.499659
vt 0.5 0.000171
vt 0.749744 0.499659
vt 0.749744 0.000171
vt 0.5 0.499659
vt 0.5 0.749744
vt 0.749744 0.5
vt 0.5 0.5
vt 0.749744 0.749744
vt 0.499659 0.000171
vt 0.000171 0.249915
vt 0.499659 0.249915
vt 0.000171 0.000171
vt 0.99983 0.249915
vt 0.750085 0.000171
vt 0.750085 0.249915
vt 0.99983 0.000171
vt 0.000171 0.5
vt 0.499659 0.749744
vt 0.499659 0.5
vt 0.000171 0.749744
vt 0.000171 0.499659
vt 0.499659 0.249915
vt 0.000171 0.249915
vt 0.499659 0.499659
vt 0.5 0.000171
vt 0.749744 0.499659
vt 0.749744 0.000171
vt 0.5 0.499659
vt 0.5 0.749744
vt 0.749744 0.5
vt 0.5 0.5
vt 0.749744 0.749744
vt 0.499659 0.000171
vt 0.000171 0.249915
vt 0.499659 0.249915
vt 0.000171 0.000171
vt 0.99983 0.249915
vt 0.750085 0.000171
vt 0.750085 0.249915
vt 0.99983 0.000171
vt 0.000171 0.5
vt 0.499659 0.749744
vt 0.499659 0.5
vt 0.000171 0.749744
vt 0.000171 0.499659
vt 0.499659 0.249915
vt 0.000171 0.249915
vt 0.499659 0.499659
vt 0.5 0.000171
vt 0.749744 0.499659
vt 0.749744 0.000171
vt 0.5 0.499659
vt 0.5 0.749744
vt 0.749744 0.5
vt 0.5 0.5
vt 0.749744 0.749744
vt 0.499659 0.000171
vt 0.000171 0.249915
vt 0.499659 0.249915
vt 0.000171 0.000171
vt 0.99983 0.249915
vt 0.750085 0.000171
vt 0.750085 0.249915
vt 0.99983 0.000171

vt1 0 0
vt1 0 0
vt1 0 0
vt1 0 0
vt1 0 0
vt1 0 0
vt1 0 0
vt1 0 0
vt1 0 0
vt1 0 0
vt1 0 0
vt1 0 0
vt1 0 0
vt1 0 0
vt1 0 0
vt1 0 0
vt1 0 0
vt1 0 0
vt1 0 0
vt1 0 0
vt1 0 0
vt1 0 0
vt1 0 0
vt1 0 0
vt1 0 0
vt1 0 0
vt1 0 0
vt1 0 0
vt1 0 0
vt1 0 0
vt1 0 0
vt1 0 0
vt1 0 0
vt1 0 0
vt1 0 0
vt1 0 0
vt1 0 0
vt1 0 0
vt1 0 0
vt1 0 0
vt1 0 0
vt1 0 0
vt1 0 0
vt1 0 0
vt1 0 0
vt1 0 0
vt1 0 0
vt1 0 0
vt1 0 0
vt1 0 0
vt1 0 0
vt1 0 0
vt1 0 0
vt1 0 0
vt1 0 0
vt1 0 0
vt1 0 0
vt1 0 0
vt1 0 0
vt1 0 0
vt1 0 0
vt1 0 0
vt1 0 0
vt1 0 0
vt1 0 0
vt1 0 0
vt1 0 0
vt1 0 0
vt1 0 0
vt1 0 0
vt1 0 0
vt1 0 0
vt1 0 0
vt1 0 0
vt1 0 0
vt1 0 0
vt1 0 0
vt1 0 0
vt1 0 0
vt1 0 0
vt1 0 0
vt1 0 0
vt1 0 0
vt1 0 0
vt1 0 0
vt1 0 0
vt1 0 0
vt1 0 0
vt1 0 0
vt1 0 0
vt1 0 0
vt1 0 0
vt1 0 0
vt1 0 0
vt1 0 0
vt1 0 0
vt1 0 0
vt1 0 0
vt1 0 0
vt1 0 0
vt1 0 0
vt1 0 0
vt1 0 0
vt1 0 0
vt1 0 0
vt1 0 0
vt1 0 0
vt1 0 0
vt1 0 0
vt1 0 0
vt1 0 0
vt1 0 0
vt1 0 0
vt1 0 0
vt1 0 0
vt1 0 0
vt1 0 0
vt1 0 0
vt1 0 0
vt1 0 0
vt1 0 0
vt1 0 0
vt1 0 0
vt1 0 0
vt1 0 0
vt1 0 0
vt1 0 0
vt1 0 0
vt1 0 0
vt1 0 0
vt1 0 0
vt1 0 0
vt1 0 0
vt1 0 0
vt1 0 0
vt1 0 0
vt1 0 0
vt1 0 0
vt1 0 0
vt1 0 0
vt1 0 0
vt1 0 0
vt1 0 0
vt1 0 0

vt2 0 0
vt2 0 0
vt2 0 0
vt2 0 0
vt2 0 0
vt2 0 0
vt2 0 0
vt2 0 0
vt2 0 0
vt2 0 0
vt2 0 0
vt2 0 0
vt2 0 0
vt2 0 0
vt2 0 0
vt2 0 0
vt2 0 0
vt2 0 0
vt2 0 0
vt2 0 0
vt2 0 0
vt2 0 0
vt2 0 0
vt2 0 0
vt2 0 0
vt2 0 0
vt2 0 0
vt2 0 0
vt2 0 0
vt2 0 0
vt2 0 0
vt2 0 0
vt2 0 0
vt2 0 0
vt2 0 0
vt2 0 0
vt2 0 0
vt2 0 0
vt2 0 0
vt2 0 0
vt2 0 0
vt2 0 0
vt2 0 0
vt2 0 0
vt2 0 0
vt2 0 0
vt2 0 0
vt2 0 0
vt2 0 0
vt2 0 0
vt2 0 0
vt2 0 0
vt2 0 0
vt2 0 0
vt2 0 0
vt2 0 0
vt2 0 0
vt2 0 0
vt2 0 0
vt2 0 0
vt2 0 0
vt2 0 0
vt2 0 0
vt2 0 0
vt2 0 0
vt2 0 0
vt2 0 0
vt2 0 0
vt2 0 0
vt2 0 0
vt2 0 0
vt2 0 0
vt2 0 0
vt2 0 0
vt2 0 0
vt2 0 0
vt2 0 0
vt2 0 0
vt2 0 0
vt2 0 0
vt2 0 0
vt2 0 0
vt2 0 0
vt2 0 0
vt2 0 0
vt2 0 0
vt2 0 0
vt2 0 0
vt2 0 0
vt2 0 0
vt2 0 0
vt2 0 0
vt2 0 0
vt2 0 0
vt2 0 0
vt2 0 0
vt2 0 0
vt2 0 0
vt2 0 0
vt2 0 0
vt2 0 0
vt2 0 0
vt2 0 0
vt2 0 0
vt2 0 0
vt2 0 0
vt2 0 0
vt2 0 0
vt2 0 0
vt2 0 0
vt2 0 0
vt2 0 0
vt2 0 0
vt2 0 0
vt2 0 0
vt2 0 0
vt2 0 0
vt2 0 0
vt2 0 0
vt2 0 0
vt2 0 0
vt2 0 0
vt2 0 0
vt2 0 0
vt2 0 0
vt2 0 0
vt2 0 0
vt2 0 0
vt2 0 0
vt2 0 0
vt2 0 0
vt2 0 0
vt2 0 0
vt2 0 0
vt2 0 0
vt2 0 0
vt2 0 0
vt2 0 0
vt2 0 0
vt2 0 0
vt2 0 0
vt2 0 0
vt2 0 0
vt2 0 0

vc 1 1 1 1
vc 1 1 1 1
vc 1 1 1 1
vc 1 1 1 1
vc 1 1 1 1
vc 1 1 1 1
vc 1 1 1 1
vc 1 1 1 1
vc 1 1 1 1
vc 1 1 1 1
vc 1 1 1 1
vc 1 1 1 1
vc 1 1 1 1
vc 1 1 1 1
vc 1 1 1 1
vc 1 1 1 1
vc 1 1 1 1
vc 1 1 1 1
vc 1 1 1 1
vc 1 1 1 1
vc 1 1 1 1
vc 1 1 1 1
vc 1 1 1 1
vc 1 1 1 1
vc 1 1 1 1
vc 1 1 1 1
vc 1 1 1 1
vc 1 1 1 1
vc 1 1 1 1
vc 1 1 1 1
vc 1 1 1 1
vc 1 1 1 1
vc 1 1 1 1
vc 1 1 1 1
vc 1 1 1 1
vc 1 1 1 1
vc 1 1 1 1
vc 1 1 1 1
vc 1 1 1 1
vc 1 1 1 1
vc 1 1 1 1
vc 1 1 1 1
vc 1 1 1 1
vc 1 1 1 1
vc 1 1 1 1
vc 1 1 1 1
vc 1 1 1 1
vc 1 1 1 1
vc 1 1 1 1
vc 1 1 1 1
vc 1 1 1 1
vc 1 1 1 1
vc 1 1 1 1
vc 1 1 1 1
vc 1 1 1 1
vc 1 1 1 1
vc 1 1 1 1
vc 1 1 1 1
vc 1 1 1 1
vc 1 1 1 1
vc 1 1 1 1
vc 1 1 1 1
vc 1 1 1 1
vc 1 1 1 1
vc 1 1 1 1
vc 1 1 1 1
vc 1 1 1 1
vc 1 1 1 1
vc 1 1 1 1
vc 1 1 1 1
vc 1 1 1 1
vc 1 1 1 1
vc 1 1 1 1
vc 1 1 1 1
vc 1 1 1 1
vc 1 1 1 1
vc 1 1 1 1
vc 1 1 1 1
vc 1 1 1 1
vc 1 1 1 1
vc 1 1 1 1
vc 1 1 1 1
vc 1 1 1 1
vc 1 1 1 1
vc 1 1 1 1
vc 1 1 1 1
vc 1 1 1 1
vc 1 1 1 1
vc 1 1 1 1
vc 1 1 1 1
vc 1 1 1 1
vc 1 1 1 1
vc 1 1 1 1
vc 1 1 1 1
vc 1 1 1 1
vc 1 1 1 1
vc 1 1 1 1
vc 1 1 1 1
vc 1 1 1 1
vc 1 1 1 1
vc 1 1 1 1
vc 1 1 1 1
vc 1 1 1 1
vc 1 1 1 1
vc 1 1 1 1
vc 1 1 1 1
vc 1 1 1 1
vc 1 1 1 1
vc 1 1 1 1
vc 1 1 1 1
vc 1 1 1 1
vc 1 1 1 1
vc 1 1 1 1
vc 1 1 1 1
vc 1 1 1 1
vc 1 1 1 1
vc 1 1 1 1
vc 1 1 1 1
vc 1 1 1 1
vc 1 1 1 1
vc 1 1 1 1
vc 1 1 1 1
vc 1 1 1 1
vc 1 1 1 1
vc 1 1 1 1
vc 1 1 1 1
vc 1 1 1 1
vc 1 1 1 1
vc 1 1 1 1
vc 1 1 1 1
vc 1 1 1 1
vc 1 1 1 1
vc 1 1 1 1
vc 1 1 1 1
vc 1 1 1 1
vc 1 1 1 1
vc 1 1 1 1
vc 1 1 1 1
vc 1 1 1 1
vc 1 1 1 1
vc 1 1 1 1
vc 1 1 1 1
vc 1 1 1 1
vc 1 1 1 1
f 1/1/1 3/3/3 2/2/2
f 1/1/1 2/2/2 4/4/4
f 5/5/5 7/7/7 6/6/6
f 5/5/5 6/6/6 8/8/8
f 9/9/9 11/11/11 10/10/10
f 9/9/9 10/10/10 12/12/12
f 13/13/13 15/15/15 14/14/14
f 13/13/13 14/14/14 16/16/16
f 17/17/17 19/19/19 18/18/18
f 17/17/17 18/18/18 20/20/20
f 21/21/21 23/23/23 22/22/22
f 21/21/21 22/22/22 24/24/24
f 25/25/25 27/27/27 26/26/26
f 25/25/25 26/26/26 28/28/28
f 29/29/29 31/31/31 30/30/30
f 29/29/29 30/30/30 32/32/32
f 33/33/33 35/35/35 34/34/34
f 33/33/33 34/34/34 36/36/36
f 37/37/37 39/39/39 38/38/38
f 37/37/37 38/38/38 40/40/40
f 41/41/41 43/43/43 42/42/42
f 41/41/41 42/42/42 44/44/44
f 45/45/45 47/47/47 46/46/46
f 45/45/45 46/46/46 48/48/48
f 49/49/49 51/51/51 50/50/50
f 49/49/49 50/50/50 52/52/52
f 53/53/53 55/55/55 54/54/54
f 53/53/53 54/54/54 56/56/56
f 57/57/57 59/59/59 58/58/58
f 57/57/57 58/58/58 60/60/60
f 61/61/61 63/63/63 62/62/62
f 61/61/61 62/62/62 64/64/64
f 65/65/65 67/67/67 66/66/66
f 65/65/65 66/66/66 68/68/68
f 69/69/69 71/71/71 70/70/70
f 69/69/69 70/70/70 72/72/72
f 73/73/73 75/75/75 74/74/74
f 73/73/73 74/74/74 76/76/76
f 77/77/77 79/79/79 78/78/78
f 77/77/77 78/78/78 80/80/80
f 81/81/81 83/83/83 82/82/82
f 81/81/81 82/82/82 84/84/84
f 85/85/85 87/87/87 86/86/86
f 85/85/85 86/86/86 88/88/88
f 89/89/89 91/91/91 90/90/90
f 89/89/89 90/90/90 92/92/92
f 93/93/93 95/95/95 94/94/94
f 93/93/93 94/94/94 96/96/96
f 97/97/97 98/98/98 99/99/99
f 97/97/97 100/100/100 98/98/98
f 101/101/101 102/102/102 103/103/103
f 101/101/101 104/104/104 102/102/102
f 105/105/105 106/106/106 107/107/107
f 105/105/105 108/108/108 106/106/106
f 109/109/109 110/110/110 111/111/111
f 109/109/109 112/112/112 110/110/110
f 113/113/113 114/114/114 115/115/115
f 113/113/113 116/116/116 114/114/114
f 117/117/117 118/118/118 119/119/119
f 117/117/117 120/120/120 118/118/118
f 121/121/121 122/122/122 123/123/123
f 121/121/121 124/124/124 122/122/122
f 125/125/125 126/126/126 127/127/127
f 125/125/125 128/128/128 126/126/126
f 129/129/129 130/130/130 131/131/131
f 129/129/129 132/132/132 130/130/130
f 133/133/133 134/134/134 135/135/135
f 133/133/133 136/136/136 134/134/134
f 137/137/137 138/138/138 139/139/139
f 137/137/137 140/140/140 138/138/138
f 141/141/141 142/142/142 143/143/143
f 141/141/141 144/144/144 142/142/142

