g Exported Mesh Combined Mesh 
v -0.3300264 0.8155328 0.0611678
v -0.497022 0.8155332 0.002399572
v -0.4970219 0.8155331 0.06116817
v -0.3300265 0.8155329 0.002399201
v -0.4970219 0.8155331 0.06116817
v -0.4970209 1.205213 0.002399658
v -0.4970208 1.205213 0.06116826
v -0.497022 0.8155332 0.002399572
v -0.4970208 1.205213 0.06116826
v -0.3300254 1.205213 0.002399286
v -0.3300253 1.205213 0.06116789
v -0.4970209 1.205213 0.002399658
v -0.3300253 1.205213 0.06116789
v -0.3300265 0.8155329 0.002399201
v -0.3300264 0.8155328 0.0611678
v -0.3300254 1.205213 0.002399286
v -0.3300265 0.8155329 0.002399201
v -0.4970209 1.205213 0.002399658
v -0.497022 0.8155332 0.002399572
v -0.3300254 1.205213 0.002399286
v -0.3300253 1.205213 0.06116789
v -0.4970219 0.8155331 0.06116817
v -0.4970208 1.205213 0.06116826
v -0.3300264 0.8155328 0.0611678
v -0.1593904 1.369934 0.06116707
v -0.3263856 1.369934 0.002398719
v -0.1593902 1.369934 0.002398471
v -0.3263859 1.369934 0.06116732
v -0.1593902 1.369934 0.002398471
v -0.3263845 0.885169 0.002398719
v -0.1593891 0.8851694 0.002398471
v -0.3263856 1.369934 0.002398719
v -0.1593891 0.8851694 0.002398471
v -0.3263848 0.885169 0.06116732
v -0.1593894 0.8851694 0.06116707
v -0.3263845 0.885169 0.002398719
v -0.1593894 0.8851694 0.06116707
v -0.3263859 1.369934 0.06116732
v -0.1593904 1.369934 0.06116707
v -0.3263848 0.885169 0.06116732
v -0.3263859 1.369934 0.06116732
v -0.3263845 0.885169 0.002398719
v -0.3263856 1.369934 0.002398719
v -0.3263848 0.885169 0.06116732
v -0.1593894 0.8851694 0.06116707
v -0.1593902 1.369934 0.002398471
v -0.1593891 0.8851694 0.002398471
v -0.1593904 1.369934 0.06116707
v 0.01720051 1.546372 0.06116709
v -0.1497951 1.546371 0.002398873
v -0.1497949 1.546371 0.06116747
v 0.01720038 1.546372 0.002398495
v -0.1497949 1.546371 0.06116747
v -0.1497937 0.9150047 0.002398873
v -0.1497935 0.9150047 0.06116747
v -0.1497951 1.546371 0.002398873
v -0.1497935 0.9150047 0.06116747
v 0.01720177 0.915005 0.002398495
v 0.01720191 0.915005 0.06116709
v -0.1497937 0.9150047 0.002398873
v 0.01720191 0.915005 0.06116709
v 0.01720038 1.546372 0.002398495
v 0.01720051 1.546372 0.06116709
v 0.01720177 0.915005 0.002398495
v 0.01720038 1.546372 0.002398495
v -0.1497937 0.9150047 0.002398873
v -0.1497951 1.546371 0.002398873
v 0.01720177 0.915005 0.002398495
v 0.01720191 0.915005 0.06116709
v -0.1497949 1.546371 0.06116747
v -0.1497935 0.9150047 0.06116747
v 0.01720051 1.546372 0.06116709
v 0.02381737 1.546372 0.00239855
v 0.1908133 1.546372 0.06116664
v 0.02381787 1.546372 0.06116715
v 0.1908128 1.546372 0.002398043
v 0.02381787 1.546372 0.06116715
v 0.1908147 0.9150055 0.06116664
v 0.02381926 0.9150051 0.06116715
v 0.1908133 1.546372 0.06116664
v 0.02381926 0.9150051 0.06116715
v 0.1908142 0.9150055 0.002398043
v 0.02381876 0.9150051 0.00239855
v 0.1908147 0.9150055 0.06116664
v 0.02381876 0.9150051 0.00239855
v 0.1908128 1.546372 0.002398043
v 0.02381737 1.546372 0.00239855
v 0.1908142 0.9150055 0.002398043
v 0.1908128 1.546372 0.002398043
v 0.1908147 0.9150055 0.06116664
v 0.1908133 1.546372 0.06116664
v 0.1908142 0.9150055 0.002398043
v 0.02381876 0.9150051 0.00239855
v 0.02381787 1.546372 0.06116715
v 0.02381926 0.9150051 0.06116715
v 0.02381737 1.546372 0.00239855
v 0.2004068 1.369935 0.06116667
v 0.3674021 1.369936 0.002397691
v 0.3674023 1.369936 0.06116629
v 0.2004067 1.369935 0.002398068
v 0.3674023 1.369936 0.06116629
v 0.3674032 0.8851709 0.002397691
v 0.3674034 0.8851709 0.06116629
v 0.3674021 1.369936 0.002397691
v 0.3674034 0.8851709 0.06116629
v 0.2004077 0.8851705 0.002398068
v 0.2004078 0.8851705 0.06116667
v 0.3674032 0.8851709 0.002397691
v 0.2004078 0.8851705 0.06116667
v 0.2004067 1.369935 0.002398068
v 0.2004068 1.369935 0.06116667
v 0.2004077 0.8851705 0.002398068
v 0.2004067 1.369935 0.002398068
v 0.3674032 0.8851709 0.002397691
v 0.3674021 1.369936 0.002397691
v 0.2004077 0.8851705 0.002398068
v 0.2004078 0.8851705 0.06116667
v 0.3674023 1.369936 0.06116629
v 0.3674034 0.8851709 0.06116629
v 0.2004068 1.369935 0.06116667
v 0.3740317 0.8155374 0.0611718
v 0.5410264 0.8155368 0.002402616
v 0.3740309 0.8155374 0.002403204
v 0.5410271 0.8155368 0.06117122
v 0.3740309 0.8155374 0.002403204
v 0.5410282 1.205217 0.002402629
v 0.3740328 1.205217 0.002403216
v 0.5410264 0.8155368 0.002402616
v 0.3740328 1.205217 0.002403216
v 0.541029 1.205217 0.06117123
v 0.3740336 1.205217 0.06117182
v 0.5410282 1.205217 0.002402629
v 0.3740336 1.205217 0.06117182
v 0.5410271 0.8155368 0.06117122
v 0.3740317 0.8155374 0.0611718
v 0.541029 1.205217 0.06117123
v 0.5410271 0.8155368 0.06117122
v 0.5410282 1.205217 0.002402629
v 0.5410264 0.8155368 0.002402616
v 0.541029 1.205217 0.06117123
v 0.3740336 1.205217 0.06117182
v 0.3740309 0.8155374 0.002403204
v 0.3740328 1.205217 0.002403216
v 0.3740317 0.8155374 0.0611718

vn -1.880054E-06 -1 -1.461159E-06
vn -1.880054E-06 -1 -1.461159E-06
vn -1.880054E-06 -1 -1.461159E-06
vn -1.880054E-06 -1 -1.461159E-06
vn -1 2.77312E-06 1.963461E-06
vn -1 2.77312E-06 1.963461E-06
vn -1 2.77312E-06 1.963461E-06
vn -1 2.77312E-06 1.963461E-06
vn 1.880054E-06 1 1.461159E-06
vn 1.880054E-06 1 1.461159E-06
vn 1.880054E-06 1 1.461159E-06
vn 1.880054E-06 1 1.461159E-06
vn 1 -2.77312E-06 -1.963461E-06
vn 1 -2.77312E-06 -1.963461E-06
vn 1 -2.77312E-06 -1.963461E-06
vn 1 -2.77312E-06 -1.963461E-06
vn -2.22429E-06 2.205122E-07 -1
vn -2.22429E-06 2.205122E-07 -1
vn -2.22429E-06 2.205122E-07 -1
vn -2.22429E-06 2.205122E-07 -1
vn 2.22429E-06 -2.205122E-07 1
vn 2.22429E-06 -2.205122E-07 1
vn 2.22429E-06 -2.205122E-07 1
vn 2.22429E-06 -2.205122E-07 1
vn -2.20537E-06 1 -1.292109E-13
vn -2.20537E-06 1 -1.292109E-13
vn -2.20537E-06 1 -1.292109E-13
vn -2.20537E-06 1 -1.292109E-13
vn -1.48505E-06 -3.275086E-12 -1
vn -1.48505E-06 -3.275086E-12 -1
vn -1.48505E-06 -3.275086E-12 -1
vn -1.48505E-06 -3.275086E-12 -1
vn 2.20537E-06 -1 1.292109E-13
vn 2.20537E-06 -1 1.292109E-13
vn 2.20537E-06 -1 1.292109E-13
vn 2.20537E-06 -1 1.292109E-13
vn 1.48505E-06 3.275086E-12 1
vn 1.48505E-06 3.275086E-12 1
vn 1.48505E-06 3.275086E-12 1
vn 1.48505E-06 3.275086E-12 1
vn -1 -2.20537E-06 -4.005571E-06
vn -1 -2.20537E-06 -4.005571E-06
vn -1 -2.20537E-06 -4.005571E-06
vn -1 -2.20537E-06 -4.005571E-06
vn 1 2.20537E-06 4.005571E-06
vn 1 2.20537E-06 4.005571E-06
vn 1 2.20537E-06 4.005571E-06
vn 1 2.20537E-06 4.005571E-06
vn -2.20537E-06 1 -1.292136E-13
vn -2.20537E-06 1 -1.292136E-13
vn -2.20537E-06 1 -1.292136E-13
vn -2.20537E-06 1 -1.292136E-13
vn -1 -2.20537E-06 2.261159E-06
vn -1 -2.20537E-06 2.261159E-06
vn -1 -2.20537E-06 2.261159E-06
vn -1 -2.20537E-06 2.261159E-06
vn 2.20537E-06 -1 1.292136E-13
vn 2.20537E-06 -1 1.292136E-13
vn 2.20537E-06 -1 1.292136E-13
vn 2.20537E-06 -1 1.292136E-13
vn 1 2.20537E-06 -2.261159E-06
vn 1 2.20537E-06 -2.261159E-06
vn 1 2.20537E-06 -2.261159E-06
vn 1 2.20537E-06 -2.261159E-06
vn -2.261159E-06 -4.986694E-12 -1
vn -2.261159E-06 -4.986694E-12 -1
vn -2.261159E-06 -4.986694E-12 -1
vn -2.261159E-06 -4.986694E-12 -1
vn 2.261159E-06 4.986694E-12 1
vn 2.261159E-06 4.986694E-12 1
vn 2.261159E-06 4.986694E-12 1
vn 2.261159E-06 4.986694E-12 1
vn -2.20537E-06 1 -1.292152E-13
vn -2.20537E-06 1 -1.292152E-13
vn -2.20537E-06 1 -1.292152E-13
vn -2.20537E-06 1 -1.292152E-13
vn 3.037268E-06 6.698301E-12 1
vn 3.037268E-06 6.698301E-12 1
vn 3.037268E-06 6.698301E-12 1
vn 3.037268E-06 6.698301E-12 1
vn 2.20537E-06 -1 1.292152E-13
vn 2.20537E-06 -1 1.292152E-13
vn 2.20537E-06 -1 1.292152E-13
vn 2.20537E-06 -1 1.292152E-13
vn -3.037268E-06 -6.698301E-12 -1
vn -3.037268E-06 -6.698301E-12 -1
vn -3.037268E-06 -6.698301E-12 -1
vn -3.037268E-06 -6.698301E-12 -1
vn 1 2.20537E-06 -8.52789E-06
vn 1 2.20537E-06 -8.52789E-06
vn 1 2.20537E-06 -8.52789E-06
vn 1 2.20537E-06 -8.52789E-06
vn -1 -2.20537E-06 8.52789E-06
vn -1 -2.20537E-06 8.52789E-06
vn -1 -2.20537E-06 8.52789E-06
vn -1 -2.20537E-06 8.52789E-06
vn -2.20537E-06 1 -1.292136E-13
vn -2.20537E-06 1 -1.292136E-13
vn -2.20537E-06 1 -1.292136E-13
vn -2.20537E-06 1 -1.292136E-13
vn 1 2.20537E-06 -2.26116E-06
vn 1 2.20537E-06 -2.26116E-06
vn 1 2.20537E-06 -2.26116E-06
vn 1 2.20537E-06 -2.26116E-06
vn 2.20537E-06 -1 1.292136E-13
vn 2.20537E-06 -1 1.292136E-13
vn 2.20537E-06 -1 1.292136E-13
vn 2.20537E-06 -1 1.292136E-13
vn -1 -2.20537E-06 2.26116E-06
vn -1 -2.20537E-06 2.26116E-06
vn -1 -2.20537E-06 2.26116E-06
vn -1 -2.20537E-06 2.26116E-06
vn -2.261159E-06 -4.986694E-12 -1
vn -2.261159E-06 -4.986694E-12 -1
vn -2.261159E-06 -4.986694E-12 -1
vn -2.261159E-06 -4.986694E-12 -1
vn 2.261159E-06 4.986694E-12 1
vn 2.261159E-06 4.986694E-12 1
vn 2.261159E-06 4.986694E-12 1
vn 2.261159E-06 4.986694E-12 1
vn -3.500659E-06 -1 -2.16811E-07
vn -3.500659E-06 -1 -2.16811E-07
vn -3.500659E-06 -1 -2.16811E-07
vn -3.500659E-06 -1 -2.16811E-07
vn -3.519711E-06 3.272395E-08 -1
vn -3.519711E-06 3.272395E-08 -1
vn -3.519711E-06 3.272395E-08 -1
vn -3.519711E-06 3.272395E-08 -1
vn 3.500659E-06 1 2.16811E-07
vn 3.500659E-06 1 2.16811E-07
vn 3.500659E-06 1 2.16811E-07
vn 3.500659E-06 1 2.16811E-07
vn 3.519711E-06 -3.272395E-08 1
vn 3.519711E-06 -3.272395E-08 1
vn 3.519711E-06 -3.272395E-08 1
vn 3.519711E-06 -3.272395E-08 1
vn 1 -4.74799E-06 -1.27622E-05
vn 1 -4.74799E-06 -1.27622E-05
vn 1 -4.74799E-06 -1.27622E-05
vn 1 -4.74799E-06 -1.27622E-05
vn -1 4.74799E-06 1.27622E-05
vn -1 4.74799E-06 1.27622E-05
vn -1 4.74799E-06 1.27622E-05
vn -1 4.74799E-06 1.27622E-05

vt 0.641626 0.407566
vt 0.461662 0.58753
vt 0.641626 0.58753
vt 0.461662 0.407566
vt 0.198491 0.008232
vt 0.012803 0.992381
vt 0.198491 0.992381
vt 0.012803 0.008232
vt 0.641369 0.407566
vt 0.461406 0.58753
vt 0.641369 0.58753
vt 0.461406 0.407566
vt 0.198467 0.00824
vt 0.012778 0.992389
vt 0.198467 0.992389
vt 0.012778 0.00824
vt 0.429973 0.992559
vt 0.244284 0.00841
vt 0.244284 0.992559
vt 0.429973 0.00841
vt 0.244317 0.008423
vt 0.430005 0.992572
vt 0.430005 0.008423
vt 0.244317 0.992572
vt 0.641626 0.407566
vt 0.461662 0.58753
vt 0.641626 0.58753
vt 0.461662 0.407566
vt 0.198491 0.008232
vt 0.012803 0.992381
vt 0.198491 0.992381
vt 0.012803 0.008232
vt 0.641369 0.407566
vt 0.461406 0.58753
vt 0.641369 0.58753
vt 0.461406 0.407566
vt 0.198467 0.00824
vt 0.012778 0.992389
vt 0.198467 0.992389
vt 0.012778 0.00824
vt 0.429973 0.992559
vt 0.244284 0.00841
vt 0.244284 0.992559
vt 0.429973 0.00841
vt 0.244317 0.008423
vt 0.430005 0.992572
vt 0.430005 0.008423
vt 0.244317 0.992572
vt 0.641626 0.407566
vt 0.461662 0.58753
vt 0.641626 0.58753
vt 0.461662 0.407566
vt 0.198491 0.008232
vt 0.012803 0.992381
vt 0.198491 0.992381
vt 0.012803 0.008232
vt 0.641369 0.407566
vt 0.461406 0.58753
vt 0.641369 0.58753
vt 0.461406 0.407566
vt 0.198467 0.00824
vt 0.012778 0.992389
vt 0.198467 0.992389
vt 0.012778 0.00824
vt 0.429973 0.992559
vt 0.244284 0.00841
vt 0.244284 0.992559
vt 0.429973 0.00841
vt 0.244317 0.008423
vt 0.430005 0.992572
vt 0.430005 0.008423
vt 0.244317 0.992572
vt 0.641626 0.407566
vt 0.461662 0.58753
vt 0.641626 0.58753
vt 0.461662 0.407566
vt 0.198491 0.008232
vt 0.012803 0.992381
vt 0.198491 0.992381
vt 0.012803 0.008232
vt 0.641369 0.407566
vt 0.461406 0.58753
vt 0.641369 0.58753
vt 0.461406 0.407566
vt 0.198467 0.00824
vt 0.012778 0.992389
vt 0.198467 0.992389
vt 0.012778 0.00824
vt 0.429973 0.992559
vt 0.244284 0.00841
vt 0.244284 0.992559
vt 0.429973 0.00841
vt 0.244317 0.008423
vt 0.430005 0.992572
vt 0.430005 0.008423
vt 0.244317 0.992572
vt 0.641626 0.407566
vt 0.461662 0.58753
vt 0.641626 0.58753
vt 0.461662 0.407566
vt 0.198491 0.008232
vt 0.012803 0.992381
vt 0.198491 0.992381
vt 0.012803 0.008232
vt 0.641369 0.407566
vt 0.461406 0.58753
vt 0.641369 0.58753
vt 0.461406 0.407566
vt 0.198467 0.00824
vt 0.012778 0.992389
vt 0.198467 0.992389
vt 0.012778 0.00824
vt 0.429973 0.992559
vt 0.244284 0.00841
vt 0.244284 0.992559
vt 0.429973 0.00841
vt 0.244317 0.008423
vt 0.430005 0.992572
vt 0.430005 0.008423
vt 0.244317 0.992572
vt 0.641626 0.407566
vt 0.461662 0.58753
vt 0.641626 0.58753
vt 0.461662 0.407566
vt 0.198491 0.008232
vt 0.012803 0.992381
vt 0.198491 0.992381
vt 0.012803 0.008232
vt 0.641369 0.407566
vt 0.461406 0.58753
vt 0.641369 0.58753
vt 0.461406 0.407566
vt 0.198467 0.00824
vt 0.012778 0.992389
vt 0.198467 0.992389
vt 0.012778 0.00824
vt 0.429973 0.992559
vt 0.244284 0.00841
vt 0.244284 0.992559
vt 0.429973 0.00841
vt 0.244317 0.008423
vt 0.430005 0.992572
vt 0.430005 0.008423
vt 0.244317 0.992572

vt1 0 0
vt1 0 0
vt1 0 0
vt1 0 0
vt1 0 0
vt1 0 0
vt1 0 0
vt1 0 0
vt1 0 0
vt1 0 0
vt1 0 0
vt1 0 0
vt1 0 0
vt1 0 0
vt1 0 0
vt1 0 0
vt1 0 0
vt1 0 0
vt1 0 0
vt1 0 0
vt1 0 0
vt1 0 0
vt1 0 0
vt1 0 0
vt1 0 0
vt1 0 0
vt1 0 0
vt1 0 0
vt1 0 0
vt1 0 0
vt1 0 0
vt1 0 0
vt1 0 0
vt1 0 0
vt1 0 0
vt1 0 0
vt1 0 0
vt1 0 0
vt1 0 0
vt1 0 0
vt1 0 0
vt1 0 0
vt1 0 0
vt1 0 0
vt1 0 0
vt1 0 0
vt1 0 0
vt1 0 0
vt1 0 0
vt1 0 0
vt1 0 0
vt1 0 0
vt1 0 0
vt1 0 0
vt1 0 0
vt1 0 0
vt1 0 0
vt1 0 0
vt1 0 0
vt1 0 0
vt1 0 0
vt1 0 0
vt1 0 0
vt1 0 0
vt1 0 0
vt1 0 0
vt1 0 0
vt1 0 0
vt1 0 0
vt1 0 0
vt1 0 0
vt1 0 0
vt1 0 0
vt1 0 0
vt1 0 0
vt1 0 0
vt1 0 0
vt1 0 0
vt1 0 0
vt1 0 0
vt1 0 0
vt1 0 0
vt1 0 0
vt1 0 0
vt1 0 0
vt1 0 0
vt1 0 0
vt1 0 0
vt1 0 0
vt1 0 0
vt1 0 0
vt1 0 0
vt1 0 0
vt1 0 0
vt1 0 0
vt1 0 0
vt1 0 0
vt1 0 0
vt1 0 0
vt1 0 0
vt1 0 0
vt1 0 0
vt1 0 0
vt1 0 0
vt1 0 0
vt1 0 0
vt1 0 0
vt1 0 0
vt1 0 0
vt1 0 0
vt1 0 0
vt1 0 0
vt1 0 0
vt1 0 0
vt1 0 0
vt1 0 0
vt1 0 0
vt1 0 0
vt1 0 0
vt1 0 0
vt1 0 0
vt1 0 0
vt1 0 0
vt1 0 0
vt1 0 0
vt1 0 0
vt1 0 0
vt1 0 0
vt1 0 0
vt1 0 0
vt1 0 0
vt1 0 0
vt1 0 0
vt1 0 0
vt1 0 0
vt1 0 0
vt1 0 0
vt1 0 0
vt1 0 0
vt1 0 0
vt1 0 0
vt1 0 0
vt1 0 0
vt1 0 0

vt2 0 0
vt2 0 0
vt2 0 0
vt2 0 0
vt2 0 0
vt2 0 0
vt2 0 0
vt2 0 0
vt2 0 0
vt2 0 0
vt2 0 0
vt2 0 0
vt2 0 0
vt2 0 0
vt2 0 0
vt2 0 0
vt2 0 0
vt2 0 0
vt2 0 0
vt2 0 0
vt2 0 0
vt2 0 0
vt2 0 0
vt2 0 0
vt2 0 0
vt2 0 0
vt2 0 0
vt2 0 0
vt2 0 0
vt2 0 0
vt2 0 0
vt2 0 0
vt2 0 0
vt2 0 0
vt2 0 0
vt2 0 0
vt2 0 0
vt2 0 0
vt2 0 0
vt2 0 0
vt2 0 0
vt2 0 0
vt2 0 0
vt2 0 0
vt2 0 0
vt2 0 0
vt2 0 0
vt2 0 0
vt2 0 0
vt2 0 0
vt2 0 0
vt2 0 0
vt2 0 0
vt2 0 0
vt2 0 0
vt2 0 0
vt2 0 0
vt2 0 0
vt2 0 0
vt2 0 0
vt2 0 0
vt2 0 0
vt2 0 0
vt2 0 0
vt2 0 0
vt2 0 0
vt2 0 0
vt2 0 0
vt2 0 0
vt2 0 0
vt2 0 0
vt2 0 0
vt2 0 0
vt2 0 0
vt2 0 0
vt2 0 0
vt2 0 0
vt2 0 0
vt2 0 0
vt2 0 0
vt2 0 0
vt2 0 0
vt2 0 0
vt2 0 0
vt2 0 0
vt2 0 0
vt2 0 0
vt2 0 0
vt2 0 0
vt2 0 0
vt2 0 0
vt2 0 0
vt2 0 0
vt2 0 0
vt2 0 0
vt2 0 0
vt2 0 0
vt2 0 0
vt2 0 0
vt2 0 0
vt2 0 0
vt2 0 0
vt2 0 0
vt2 0 0
vt2 0 0
vt2 0 0
vt2 0 0
vt2 0 0
vt2 0 0
vt2 0 0
vt2 0 0
vt2 0 0
vt2 0 0
vt2 0 0
vt2 0 0
vt2 0 0
vt2 0 0
vt2 0 0
vt2 0 0
vt2 0 0
vt2 0 0
vt2 0 0
vt2 0 0
vt2 0 0
vt2 0 0
vt2 0 0
vt2 0 0
vt2 0 0
vt2 0 0
vt2 0 0
vt2 0 0
vt2 0 0
vt2 0 0
vt2 0 0
vt2 0 0
vt2 0 0
vt2 0 0
vt2 0 0
vt2 0 0
vt2 0 0
vt2 0 0
vt2 0 0
vt2 0 0
vt2 0 0

vc 1 1 1 1
vc 1 1 1 1
vc 1 1 1 1
vc 1 1 1 1
vc 1 1 1 1
vc 1 1 1 1
vc 1 1 1 1
vc 1 1 1 1
vc 1 1 1 1
vc 1 1 1 1
vc 1 1 1 1
vc 1 1 1 1
vc 1 1 1 1
vc 1 1 1 1
vc 1 1 1 1
vc 1 1 1 1
vc 1 1 1 1
vc 1 1 1 1
vc 1 1 1 1
vc 1 1 1 1
vc 1 1 1 1
vc 1 1 1 1
vc 1 1 1 1
vc 1 1 1 1
vc 1 1 1 1
vc 1 1 1 1
vc 1 1 1 1
vc 1 1 1 1
vc 1 1 1 1
vc 1 1 1 1
vc 1 1 1 1
vc 1 1 1 1
vc 1 1 1 1
vc 1 1 1 1
vc 1 1 1 1
vc 1 1 1 1
vc 1 1 1 1
vc 1 1 1 1
vc 1 1 1 1
vc 1 1 1 1
vc 1 1 1 1
vc 1 1 1 1
vc 1 1 1 1
vc 1 1 1 1
vc 1 1 1 1
vc 1 1 1 1
vc 1 1 1 1
vc 1 1 1 1
vc 1 1 1 1
vc 1 1 1 1
vc 1 1 1 1
vc 1 1 1 1
vc 1 1 1 1
vc 1 1 1 1
vc 1 1 1 1
vc 1 1 1 1
vc 1 1 1 1
vc 1 1 1 1
vc 1 1 1 1
vc 1 1 1 1
vc 1 1 1 1
vc 1 1 1 1
vc 1 1 1 1
vc 1 1 1 1
vc 1 1 1 1
vc 1 1 1 1
vc 1 1 1 1
vc 1 1 1 1
vc 1 1 1 1
vc 1 1 1 1
vc 1 1 1 1
vc 1 1 1 1
vc 1 1 1 1
vc 1 1 1 1
vc 1 1 1 1
vc 1 1 1 1
vc 1 1 1 1
vc 1 1 1 1
vc 1 1 1 1
vc 1 1 1 1
vc 1 1 1 1
vc 1 1 1 1
vc 1 1 1 1
vc 1 1 1 1
vc 1 1 1 1
vc 1 1 1 1
vc 1 1 1 1
vc 1 1 1 1
vc 1 1 1 1
vc 1 1 1 1
vc 1 1 1 1
vc 1 1 1 1
vc 1 1 1 1
vc 1 1 1 1
vc 1 1 1 1
vc 1 1 1 1
vc 1 1 1 1
vc 1 1 1 1
vc 1 1 1 1
vc 1 1 1 1
vc 1 1 1 1
vc 1 1 1 1
vc 1 1 1 1
vc 1 1 1 1
vc 1 1 1 1
vc 1 1 1 1
vc 1 1 1 1
vc 1 1 1 1
vc 1 1 1 1
vc 1 1 1 1
vc 1 1 1 1
vc 1 1 1 1
vc 1 1 1 1
vc 1 1 1 1
vc 1 1 1 1
vc 1 1 1 1
vc 1 1 1 1
vc 1 1 1 1
vc 1 1 1 1
vc 1 1 1 1
vc 1 1 1 1
vc 1 1 1 1
vc 1 1 1 1
vc 1 1 1 1
vc 1 1 1 1
vc 1 1 1 1
vc 1 1 1 1
vc 1 1 1 1
vc 1 1 1 1
vc 1 1 1 1
vc 1 1 1 1
vc 1 1 1 1
vc 1 1 1 1
vc 1 1 1 1
vc 1 1 1 1
vc 1 1 1 1
vc 1 1 1 1
vc 1 1 1 1
vc 1 1 1 1
vc 1 1 1 1
vc 1 1 1 1
vc 1 1 1 1
vc 1 1 1 1
vc 1 1 1 1
f 1/1/1 3/3/3 2/2/2
f 1/1/1 2/2/2 4/4/4
f 5/5/5 7/7/7 6/6/6
f 5/5/5 6/6/6 8/8/8
f 9/9/9 11/11/11 10/10/10
f 9/9/9 10/10/10 12/12/12
f 13/13/13 15/15/15 14/14/14
f 13/13/13 14/14/14 16/16/16
f 17/17/17 19/19/19 18/18/18
f 17/17/17 18/18/18 20/20/20
f 21/21/21 23/23/23 22/22/22
f 21/21/21 22/22/22 24/24/24
f 25/25/25 27/27/27 26/26/26
f 25/25/25 26/26/26 28/28/28
f 29/29/29 31/31/31 30/30/30
f 29/29/29 30/30/30 32/32/32
f 33/33/33 35/35/35 34/34/34
f 33/33/33 34/34/34 36/36/36
f 37/37/37 39/39/39 38/38/38
f 37/37/37 38/38/38 40/40/40
f 41/41/41 43/43/43 42/42/42
f 41/41/41 42/42/42 44/44/44
f 45/45/45 47/47/47 46/46/46
f 45/45/45 46/46/46 48/48/48
f 49/49/49 50/50/50 51/51/51
f 49/49/49 52/52/52 50/50/50
f 53/53/53 54/54/54 55/55/55
f 53/53/53 56/56/56 54/54/54
f 57/57/57 58/58/58 59/59/59
f 57/57/57 60/60/60 58/58/58
f 61/61/61 62/62/62 63/63/63
f 61/61/61 64/64/64 62/62/62
f 65/65/65 66/66/66 67/67/67
f 65/65/65 68/68/68 66/66/66
f 69/69/69 70/70/70 71/71/71
f 69/69/69 72/72/72 70/70/70
f 73/73/73 75/75/75 74/74/74
f 73/73/73 74/74/74 76/76/76
f 77/77/77 79/79/79 78/78/78
f 77/77/77 78/78/78 80/80/80
f 81/81/81 83/83/83 82/82/82
f 81/81/81 82/82/82 84/84/84
f 85/85/85 87/87/87 86/86/86
f 85/85/85 86/86/86 88/88/88
f 89/89/89 91/91/91 90/90/90
f 89/89/89 90/90/90 92/92/92
f 93/93/93 95/95/95 94/94/94
f 93/93/93 94/94/94 96/96/96
f 97/97/97 99/99/99 98/98/98
f 97/97/97 98/98/98 100/100/100
f 101/101/101 103/103/103 102/102/102
f 101/101/101 102/102/102 104/104/104
f 105/105/105 107/107/107 106/106/106
f 105/105/105 106/106/106 108/108/108
f 109/109/109 111/111/111 110/110/110
f 109/109/109 110/110/110 112/112/112
f 113/113/113 115/115/115 114/114/114
f 113/113/113 114/114/114 116/116/116
f 117/117/117 119/119/119 118/118/118
f 117/117/117 118/118/118 120/120/120
f 121/121/121 123/123/123 122/122/122
f 121/121/121 122/122/122 124/124/124
f 125/125/125 127/127/127 126/126/126
f 125/125/125 126/126/126 128/128/128
f 129/129/129 131/131/131 130/130/130
f 129/129/129 130/130/130 132/132/132
f 133/133/133 135/135/135 134/134/134
f 133/133/133 134/134/134 136/136/136
f 137/137/137 139/139/139 138/138/138
f 137/137/137 138/138/138 140/140/140
f 141/141/141 143/143/143 142/142/142
f 141/141/141 142/142/142 144/144/144

