g Exported Mesh Combined Mesh 
v 0.154163 0.04991741 -0.2474313
v 0.2517777 0.01341796 -0.2474296
v 0.2517777 0.04991742 -0.2474297
v 0.154163 0.01341795 -0.2474312
v 0.2517777 0.04991742 -0.2474297
v 0.2517695 0.01341806 0.2474344
v 0.2517696 0.04991753 0.2474344
v 0.2517777 0.01341796 -0.2474296
v 0.2517696 0.04991753 0.2474344
v 0.1541549 0.01341806 0.2474328
v 0.1541549 0.04991752 0.2474328
v 0.2517695 0.01341806 0.2474344
v 0.1541549 0.04991752 0.2474328
v 0.154163 0.01341795 -0.2474312
v 0.154163 0.04991741 -0.2474313
v 0.1541549 0.01341806 0.2474328
v 0.154163 0.01341795 -0.2474312
v 0.2517695 0.01341806 0.2474344
v 0.2517777 0.01341796 -0.2474296
v 0.1541549 0.01341806 0.2474328
v 0.1541549 0.04991752 0.2474328
v 0.2517777 0.04991742 -0.2474297
v 0.2517696 0.04991753 0.2474344
v 0.154163 0.04991741 -0.2474313
v -0.2870363 0.0182497 0.1543586
v -0.2870377 -0.01824977 0.2519733
v -0.2870377 0.0182497 0.2519733
v -0.2870363 -0.01824976 0.1543586
v -0.2870377 0.0182497 0.2519733
v 0.2870363 -0.01824975 0.2519814
v 0.2870364 0.01824971 0.2519814
v -0.2870377 -0.01824977 0.2519733
v 0.2870364 0.01824971 0.2519814
v 0.2870377 -0.01824975 0.1543667
v 0.2870377 0.01824972 0.1543667
v 0.2870363 -0.01824975 0.2519814
v 0.2870377 0.01824972 0.1543667
v -0.2870363 -0.01824976 0.1543586
v -0.2870363 0.0182497 0.1543586
v 0.2870377 -0.01824975 0.1543667
v -0.2870363 -0.01824976 0.1543586
v 0.2870363 -0.01824975 0.2519814
v -0.2870377 -0.01824977 0.2519733
v 0.2870377 -0.01824975 0.1543667
v 0.2870377 0.01824972 0.1543667
v -0.2870377 0.0182497 0.2519733
v 0.2870364 0.01824971 0.2519814
v -0.2870363 0.0182497 0.1543586
v 0.2761243 -0.01824963 -0.261766
v 0.2761229 0.01824976 -0.1641511
v 0.2761243 0.01824984 -0.2617658
v 0.2761229 -0.01824971 -0.1641514
v 0.2761243 0.01824984 -0.2617658
v -0.2979511 0.01824968 -0.1641594
v -0.2979497 0.01824975 -0.2617741
v 0.2761229 0.01824976 -0.1641511
v -0.2979497 0.01824975 -0.2617741
v -0.2979511 -0.01824979 -0.1641596
v -0.2979497 -0.01824971 -0.2617743
v -0.2979511 0.01824968 -0.1641594
v -0.2979497 -0.01824971 -0.2617743
v 0.2761229 -0.01824971 -0.1641514
v 0.2761243 -0.01824963 -0.261766
v -0.2979511 -0.01824979 -0.1641596
v 0.2761229 -0.01824971 -0.1641514
v -0.2979511 0.01824968 -0.1641594
v 0.2761229 0.01824976 -0.1641511
v -0.2979511 -0.01824979 -0.1641596
v -0.2979497 -0.01824971 -0.2617743
v 0.2761243 0.01824984 -0.2617658
v -0.2979497 0.01824975 -0.2617741
v 0.2761243 -0.01824963 -0.261766
v -0.1559004 0.04991743 0.2474301
v -0.2535151 0.01341795 0.2474289
v -0.2535151 0.04991741 0.2474289
v -0.1559004 0.01341797 0.2474301
v -0.2535151 0.04991741 0.2474289
v -0.2535092 0.01341795 -0.2474351
v -0.2535092 0.04991741 -0.2474351
v -0.2535151 0.01341795 0.2474289
v -0.2535092 0.04991741 -0.2474351
v -0.1558945 0.01341797 -0.247434
v -0.1558945 0.04991743 -0.247434
v -0.2535092 0.01341795 -0.2474351
v -0.1558945 0.04991743 -0.247434
v -0.1559004 0.01341797 0.2474301
v -0.1559004 0.04991743 0.2474301
v -0.1558945 0.01341797 -0.247434
v -0.1559004 0.01341797 0.2474301
v -0.2535092 0.01341795 -0.2474351
v -0.2535151 0.01341795 0.2474289
v -0.1558945 0.01341797 -0.247434
v -0.1558945 0.04991743 -0.247434
v -0.2535151 0.04991741 0.2474289
v -0.2535092 0.04991741 -0.2474351
v -0.1559004 0.04991743 0.2474301
v 0.1783292 0.005198012 -0.2226123
v -0.2023674 -0.03130201 -0.2226193
v 0.1783296 -0.03130145 -0.2226123
v -0.2023678 0.005197458 -0.2226193
v 0.1783296 -0.03130145 -0.2226123
v -0.2023752 -0.03130199 0.2042012
v 0.1783218 -0.03130144 0.2042082
v -0.2023674 -0.03130201 -0.2226193
v 0.1783218 -0.03130144 0.2042082
v -0.2023756 0.005197471 0.2042012
v 0.1783215 0.005198026 0.2042082
v -0.2023752 -0.03130199 0.2042012
v 0.1783215 0.005198026 0.2042082
v -0.2023678 0.005197458 -0.2226193
v 0.1783292 0.005198012 -0.2226123
v -0.2023756 0.005197471 0.2042012
v -0.2023678 0.005197458 -0.2226193
v -0.2023752 -0.03130199 0.2042012
v -0.2023674 -0.03130201 -0.2226193
v -0.2023756 0.005197471 0.2042012
v 0.1783215 0.005198026 0.2042082
v 0.1783296 -0.03130145 -0.2226123
v 0.1783218 -0.03130144 0.2042082
v 0.1783292 0.005198012 -0.2226123

vn 1.655004E-05 -1.637309E-06 -1
vn 1.655004E-05 -1.637309E-06 -1
vn 1.655004E-05 -1.637309E-06 -1
vn 1.655004E-05 -1.637309E-06 -1
vn 1 -2.801842E-07 1.643083E-05
vn 1 -2.801842E-07 1.643083E-05
vn 1 -2.801842E-07 1.643083E-05
vn 1 -2.801842E-07 1.643083E-05
vn -1.655004E-05 1.637309E-06 1
vn -1.655004E-05 1.637309E-06 1
vn -1.655004E-05 1.637309E-06 1
vn -1.655004E-05 1.637309E-06 1
vn -1 2.801842E-07 -1.643083E-05
vn -1 2.801842E-07 -1.643083E-05
vn -1 2.801842E-07 -1.643083E-05
vn -1 2.801842E-07 -1.643083E-05
vn 8.003255E-08 -1 2.122484E-07
vn 8.003255E-08 -1 2.122484E-07
vn 8.003255E-08 -1 2.122484E-07
vn 8.003255E-08 -1 2.122484E-07
vn -8.003255E-08 1 -2.122484E-07
vn -8.003255E-08 1 -2.122484E-07
vn -8.003255E-08 1 -2.122484E-07
vn -8.003255E-08 1 -2.122484E-07
vn -1 6.398129E-07 -1.41263E-05
vn -1 6.398129E-07 -1.41263E-05
vn -1 6.398129E-07 -1.41263E-05
vn -1 6.398129E-07 -1.41263E-05
vn -1.424551E-05 -3.696154E-08 1
vn -1.424551E-05 -3.696154E-08 1
vn -1.424551E-05 -3.696154E-08 1
vn -1.424551E-05 -3.696154E-08 1
vn 1 -6.398129E-07 1.41263E-05
vn 1 -6.398129E-07 1.41263E-05
vn 1 -6.398129E-07 1.41263E-05
vn 1 -6.398129E-07 1.41263E-05
vn 1.424551E-05 3.696154E-08 -1
vn 1.424551E-05 3.696154E-08 -1
vn 1.424551E-05 3.696154E-08 -1
vn 1.424551E-05 3.696154E-08 -1
vn 2.975623E-08 -1 -2.183429E-08
vn 2.975623E-08 -1 -2.183429E-08
vn 2.975623E-08 -1 -2.183429E-08
vn 2.975623E-08 -1 -2.183429E-08
vn -2.975623E-08 1 2.183429E-08
vn -2.975623E-08 1 2.183429E-08
vn -2.975623E-08 1 2.183429E-08
vn -2.975623E-08 1 2.183429E-08
vn 1 -1.594197E-07 1.430511E-05
vn 1 -1.594197E-07 1.430511E-05
vn 1 -1.594197E-07 1.430511E-05
vn 1 -1.594197E-07 1.430511E-05
vn -1.415074E-07 1 7.800427E-07
vn -1.415074E-07 1 7.800427E-07
vn -1.415074E-07 1 7.800427E-07
vn -1.415074E-07 1 7.800427E-07
vn -1 1.594197E-07 -1.430511E-05
vn -1 1.594197E-07 -1.430511E-05
vn -1 1.594197E-07 -1.430511E-05
vn -1 1.594197E-07 -1.430511E-05
vn 1.415074E-07 -1 -7.800427E-07
vn 1.415074E-07 -1 -7.800427E-07
vn 1.415074E-07 -1 -7.800427E-07
vn 1.415074E-07 -1 -7.800427E-07
vn -1.430511E-05 -5.699165E-06 1
vn -1.430511E-05 -5.699165E-06 1
vn -1.430511E-05 -5.699165E-06 1
vn -1.430511E-05 -5.699165E-06 1
vn 1.430511E-05 5.699165E-06 -1
vn 1.430511E-05 5.699165E-06 -1
vn 1.430511E-05 5.699165E-06 -1
vn 1.430511E-05 5.699165E-06 -1
vn -1.204014E-05 1.192093E-07 1
vn -1.204014E-05 1.192093E-07 1
vn -1.204014E-05 1.192093E-07 1
vn -1.204014E-05 1.192093E-07 1
vn -1 -1.421085E-12 -1.192093E-05
vn -1 -1.421085E-12 -1.192093E-05
vn -1 -1.421085E-12 -1.192093E-05
vn -1 -1.421085E-12 -1.192093E-05
vn 1.204014E-05 -1.192093E-07 -1
vn 1.204014E-05 -1.192093E-07 -1
vn 1.204014E-05 -1.192093E-07 -1
vn 1.204014E-05 -1.192093E-07 -1
vn 1 1.421085E-12 1.192093E-05
vn 1 1.421085E-12 1.192093E-05
vn 1 1.421085E-12 1.192093E-05
vn 1 1.421085E-12 1.192093E-05
vn 1.192093E-07 -1 1.421085E-12
vn 1.192093E-07 -1 1.421085E-12
vn 1.192093E-07 -1 1.421085E-12
vn 1.192093E-07 -1 1.421085E-12
vn -1.192093E-07 1 -1.421085E-12
vn -1.192093E-07 1 -1.421085E-12
vn -1.192093E-07 1 -1.421085E-12
vn -1.192093E-07 1 -1.421085E-12
vn 1.833903E-05 -3.444814E-07 -1
vn 1.833903E-05 -3.444814E-07 -1
vn 1.833903E-05 -3.444814E-07 -1
vn 1.833903E-05 -3.444814E-07 -1
vn 1.456424E-06 -1 3.152159E-08
vn 1.456424E-06 -1 3.152159E-08
vn 1.456424E-06 -1 3.152159E-08
vn 1.456424E-06 -1 3.152159E-08
vn -1.833903E-05 3.444814E-07 1
vn -1.833903E-05 3.444814E-07 1
vn -1.833903E-05 3.444814E-07 1
vn -1.833903E-05 3.444814E-07 1
vn -1.456424E-06 1 -3.152159E-08
vn -1.456424E-06 1 -3.152159E-08
vn -1.456424E-06 1 -3.152159E-08
vn -1.456424E-06 1 -3.152159E-08
vn -1 -9.883296E-06 -1.821982E-05
vn -1 -9.883296E-06 -1.821982E-05
vn -1 -9.883296E-06 -1.821982E-05
vn -1 -9.883296E-06 -1.821982E-05
vn 1 9.883296E-06 1.821982E-05
vn 1 9.883296E-06 1.821982E-05
vn 1 9.883296E-06 1.821982E-05
vn 1 9.883296E-06 1.821982E-05

vt 0.320813 0.407566
vt 0.230831 0.58753
vt 0.320813 0.58753
vt 0.230831 0.407566
vt 0.0992455 0.008232
vt 0.0064015 0.992381
vt 0.0992455 0.992381
vt 0.0064015 0.008232
vt 0.3206845 0.407566
vt 0.230703 0.58753
vt 0.3206845 0.58753
vt 0.230703 0.407566
vt 0.0992335 0.00824
vt 0.006389 0.992389
vt 0.0992335 0.992389
vt 0.006389 0.00824
vt 0.2149865 0.992559
vt 0.122142 0.00841
vt 0.122142 0.992559
vt 0.2149865 0.00841
vt 0.1221585 0.008423
vt 0.2150025 0.992572
vt 0.2150025 0.008423
vt 0.1221585 0.992572
vt 0.320813 0.407566
vt 0.230831 0.58753
vt 0.320813 0.58753
vt 0.230831 0.407566
vt 0.0992455 0.008232
vt 0.0064015 0.992381
vt 0.0992455 0.992381
vt 0.0064015 0.008232
vt 0.3206845 0.407566
vt 0.230703 0.58753
vt 0.3206845 0.58753
vt 0.230703 0.407566
vt 0.0992335 0.00824
vt 0.006389 0.992389
vt 0.0992335 0.992389
vt 0.006389 0.00824
vt 0.2149865 0.992559
vt 0.122142 0.00841
vt 0.122142 0.992559
vt 0.2149865 0.00841
vt 0.1221585 0.008423
vt 0.2150025 0.992572
vt 0.2150025 0.008423
vt 0.1221585 0.992572
vt 0.320813 0.407566
vt 0.230831 0.58753
vt 0.320813 0.58753
vt 0.230831 0.407566
vt 0.0992455 0.008232
vt 0.0064015 0.992381
vt 0.0992455 0.992381
vt 0.0064015 0.008232
vt 0.3206845 0.407566
vt 0.230703 0.58753
vt 0.3206845 0.58753
vt 0.230703 0.407566
vt 0.0992335 0.00824
vt 0.006389 0.992389
vt 0.0992335 0.992389
vt 0.006389 0.00824
vt 0.2149865 0.992559
vt 0.122142 0.00841
vt 0.122142 0.992559
vt 0.2149865 0.00841
vt 0.1221585 0.008423
vt 0.2150025 0.992572
vt 0.2150025 0.008423
vt 0.1221585 0.992572
vt 0.320813 0.407566
vt 0.230831 0.58753
vt 0.320813 0.58753
vt 0.230831 0.407566
vt 0.0992455 0.008232
vt 0.0064015 0.992381
vt 0.0992455 0.992381
vt 0.0064015 0.008232
vt 0.3206845 0.407566
vt 0.230703 0.58753
vt 0.3206845 0.58753
vt 0.230703 0.407566
vt 0.0992335 0.00824
vt 0.006389 0.992389
vt 0.0992335 0.992389
vt 0.006389 0.00824
vt 0.2149865 0.992559
vt 0.122142 0.00841
vt 0.122142 0.992559
vt 0.2149865 0.00841
vt 0.1221585 0.008423
vt 0.2150025 0.992572
vt 0.2150025 0.008423
vt 0.1221585 0.992572
vt 0.820813 0.407566
vt 0.730831 0.58753
vt 0.820813 0.58753
vt 0.730831 0.407566
vt 0.5992455 0.008232
vt 0.5064015 0.992381
vt 0.5992455 0.992381
vt 0.5064015 0.008232
vt 0.8206845 0.407566
vt 0.730703 0.58753
vt 0.8206845 0.58753
vt 0.730703 0.407566
vt 0.5992335 0.00824
vt 0.506389 0.992389
vt 0.5992335 0.992389
vt 0.506389 0.00824
vt 0.7149865 0.992559
vt 0.622142 0.00841
vt 0.622142 0.992559
vt 0.7149865 0.00841
vt 0.6221585 0.008423
vt 0.7150025 0.992572
vt 0.7150025 0.008423
vt 0.6221585 0.992572

vt1 0 0
vt1 0 0
vt1 0 0
vt1 0 0
vt1 0 0
vt1 0 0
vt1 0 0
vt1 0 0
vt1 0 0
vt1 0 0
vt1 0 0
vt1 0 0
vt1 0 0
vt1 0 0
vt1 0 0
vt1 0 0
vt1 0 0
vt1 0 0
vt1 0 0
vt1 0 0
vt1 0 0
vt1 0 0
vt1 0 0
vt1 0 0
vt1 0 0
vt1 0 0
vt1 0 0
vt1 0 0
vt1 0 0
vt1 0 0
vt1 0 0
vt1 0 0
vt1 0 0
vt1 0 0
vt1 0 0
vt1 0 0
vt1 0 0
vt1 0 0
vt1 0 0
vt1 0 0
vt1 0 0
vt1 0 0
vt1 0 0
vt1 0 0
vt1 0 0
vt1 0 0
vt1 0 0
vt1 0 0
vt1 0 0
vt1 0 0
vt1 0 0
vt1 0 0
vt1 0 0
vt1 0 0
vt1 0 0
vt1 0 0
vt1 0 0
vt1 0 0
vt1 0 0
vt1 0 0
vt1 0 0
vt1 0 0
vt1 0 0
vt1 0 0
vt1 0 0
vt1 0 0
vt1 0 0
vt1 0 0
vt1 0 0
vt1 0 0
vt1 0 0
vt1 0 0
vt1 0 0
vt1 0 0
vt1 0 0
vt1 0 0
vt1 0 0
vt1 0 0
vt1 0 0
vt1 0 0
vt1 0 0
vt1 0 0
vt1 0 0
vt1 0 0
vt1 0 0
vt1 0 0
vt1 0 0
vt1 0 0
vt1 0 0
vt1 0 0
vt1 0 0
vt1 0 0
vt1 0 0
vt1 0 0
vt1 0 0
vt1 0 0
vt1 0 0
vt1 0 0
vt1 0 0
vt1 0 0
vt1 0 0
vt1 0 0
vt1 0 0
vt1 0 0
vt1 0 0
vt1 0 0
vt1 0 0
vt1 0 0
vt1 0 0
vt1 0 0
vt1 0 0
vt1 0 0
vt1 0 0
vt1 0 0
vt1 0 0
vt1 0 0
vt1 0 0
vt1 0 0
vt1 0 0
vt1 0 0

vt2 0 0
vt2 0 0
vt2 0 0
vt2 0 0
vt2 0 0
vt2 0 0
vt2 0 0
vt2 0 0
vt2 0 0
vt2 0 0
vt2 0 0
vt2 0 0
vt2 0 0
vt2 0 0
vt2 0 0
vt2 0 0
vt2 0 0
vt2 0 0
vt2 0 0
vt2 0 0
vt2 0 0
vt2 0 0
vt2 0 0
vt2 0 0
vt2 0 0
vt2 0 0
vt2 0 0
vt2 0 0
vt2 0 0
vt2 0 0
vt2 0 0
vt2 0 0
vt2 0 0
vt2 0 0
vt2 0 0
vt2 0 0
vt2 0 0
vt2 0 0
vt2 0 0
vt2 0 0
vt2 0 0
vt2 0 0
vt2 0 0
vt2 0 0
vt2 0 0
vt2 0 0
vt2 0 0
vt2 0 0
vt2 0 0
vt2 0 0
vt2 0 0
vt2 0 0
vt2 0 0
vt2 0 0
vt2 0 0
vt2 0 0
vt2 0 0
vt2 0 0
vt2 0 0
vt2 0 0
vt2 0 0
vt2 0 0
vt2 0 0
vt2 0 0
vt2 0 0
vt2 0 0
vt2 0 0
vt2 0 0
vt2 0 0
vt2 0 0
vt2 0 0
vt2 0 0
vt2 0 0
vt2 0 0
vt2 0 0
vt2 0 0
vt2 0 0
vt2 0 0
vt2 0 0
vt2 0 0
vt2 0 0
vt2 0 0
vt2 0 0
vt2 0 0
vt2 0 0
vt2 0 0
vt2 0 0
vt2 0 0
vt2 0 0
vt2 0 0
vt2 0 0
vt2 0 0
vt2 0 0
vt2 0 0
vt2 0 0
vt2 0 0
vt2 0 0
vt2 0 0
vt2 0 0
vt2 0 0
vt2 0 0
vt2 0 0
vt2 0 0
vt2 0 0
vt2 0 0
vt2 0 0
vt2 0 0
vt2 0 0
vt2 0 0
vt2 0 0
vt2 0 0
vt2 0 0
vt2 0 0
vt2 0 0
vt2 0 0
vt2 0 0
vt2 0 0
vt2 0 0
vt2 0 0
vt2 0 0

vc 1 1 1 1
vc 1 1 1 1
vc 1 1 1 1
vc 1 1 1 1
vc 1 1 1 1
vc 1 1 1 1
vc 1 1 1 1
vc 1 1 1 1
vc 1 1 1 1
vc 1 1 1 1
vc 1 1 1 1
vc 1 1 1 1
vc 1 1 1 1
vc 1 1 1 1
vc 1 1 1 1
vc 1 1 1 1
vc 1 1 1 1
vc 1 1 1 1
vc 1 1 1 1
vc 1 1 1 1
vc 1 1 1 1
vc 1 1 1 1
vc 1 1 1 1
vc 1 1 1 1
vc 1 1 1 1
vc 1 1 1 1
vc 1 1 1 1
vc 1 1 1 1
vc 1 1 1 1
vc 1 1 1 1
vc 1 1 1 1
vc 1 1 1 1
vc 1 1 1 1
vc 1 1 1 1
vc 1 1 1 1
vc 1 1 1 1
vc 1 1 1 1
vc 1 1 1 1
vc 1 1 1 1
vc 1 1 1 1
vc 1 1 1 1
vc 1 1 1 1
vc 1 1 1 1
vc 1 1 1 1
vc 1 1 1 1
vc 1 1 1 1
vc 1 1 1 1
vc 1 1 1 1
vc 1 1 1 1
vc 1 1 1 1
vc 1 1 1 1
vc 1 1 1 1
vc 1 1 1 1
vc 1 1 1 1
vc 1 1 1 1
vc 1 1 1 1
vc 1 1 1 1
vc 1 1 1 1
vc 1 1 1 1
vc 1 1 1 1
vc 1 1 1 1
vc 1 1 1 1
vc 1 1 1 1
vc 1 1 1 1
vc 1 1 1 1
vc 1 1 1 1
vc 1 1 1 1
vc 1 1 1 1
vc 1 1 1 1
vc 1 1 1 1
vc 1 1 1 1
vc 1 1 1 1
vc 1 1 1 1
vc 1 1 1 1
vc 1 1 1 1
vc 1 1 1 1
vc 1 1 1 1
vc 1 1 1 1
vc 1 1 1 1
vc 1 1 1 1
vc 1 1 1 1
vc 1 1 1 1
vc 1 1 1 1
vc 1 1 1 1
vc 1 1 1 1
vc 1 1 1 1
vc 1 1 1 1
vc 1 1 1 1
vc 1 1 1 1
vc 1 1 1 1
vc 1 1 1 1
vc 1 1 1 1
vc 1 1 1 1
vc 1 1 1 1
vc 1 1 1 1
vc 1 1 1 1
vc 1 1 1 1
vc 1 1 1 1
vc 1 1 1 1
vc 1 1 1 1
vc 1 1 1 1
vc 1 1 1 1
vc 1 1 1 1
vc 1 1 1 1
vc 1 1 1 1
vc 1 1 1 1
vc 1 1 1 1
vc 1 1 1 1
vc 1 1 1 1
vc 1 1 1 1
vc 1 1 1 1
vc 1 1 1 1
vc 1 1 1 1
vc 1 1 1 1
vc 1 1 1 1
vc 1 1 1 1
vc 1 1 1 1
vc 1 1 1 1
vc 1 1 1 1
vc 1 1 1 1
f 1/1/1 3/3/3 2/2/2
f 1/1/1 2/2/2 4/4/4
f 5/5/5 7/7/7 6/6/6
f 5/5/5 6/6/6 8/8/8
f 9/9/9 11/11/11 10/10/10
f 9/9/9 10/10/10 12/12/12
f 13/13/13 15/15/15 14/14/14
f 13/13/13 14/14/14 16/16/16
f 17/17/17 19/19/19 18/18/18
f 17/17/17 18/18/18 20/20/20
f 21/21/21 23/23/23 22/22/22
f 21/21/21 22/22/22 24/24/24
f 25/25/25 26/26/26 27/27/27
f 25/25/25 28/28/28 26/26/26
f 29/29/29 30/30/30 31/31/31
f 29/29/29 32/32/32 30/30/30
f 33/33/33 34/34/34 35/35/35
f 33/33/33 36/36/36 34/34/34
f 37/37/37 38/38/38 39/39/39
f 37/37/37 40/40/40 38/38/38
f 41/41/41 42/42/42 43/43/43
f 41/41/41 44/44/44 42/42/42
f 45/45/45 46/46/46 47/47/47
f 45/45/45 48/48/48 46/46/46
f 49/49/49 51/51/51 50/50/50
f 49/49/49 50/50/50 52/52/52
f 53/53/53 55/55/55 54/54/54
f 53/53/53 54/54/54 56/56/56
f 57/57/57 59/59/59 58/58/58
f 57/57/57 58/58/58 60/60/60
f 61/61/61 63/63/63 62/62/62
f 61/61/61 62/62/62 64/64/64
f 65/65/65 67/67/67 66/66/66
f 65/65/65 66/66/66 68/68/68
f 69/69/69 71/71/71 70/70/70
f 69/69/69 70/70/70 72/72/72
f 73/73/73 75/75/75 74/74/74
f 73/73/73 74/74/74 76/76/76
f 77/77/77 79/79/79 78/78/78
f 77/77/77 78/78/78 80/80/80
f 81/81/81 83/83/83 82/82/82
f 81/81/81 82/82/82 84/84/84
f 85/85/85 87/87/87 86/86/86
f 85/85/85 86/86/86 88/88/88
f 89/89/89 91/91/91 90/90/90
f 89/89/89 90/90/90 92/92/92
f 93/93/93 95/95/95 94/94/94
f 93/93/93 94/94/94 96/96/96
f 97/97/97 99/99/99 98/98/98
f 97/97/97 98/98/98 100/100/100
f 101/101/101 103/103/103 102/102/102
f 101/101/101 102/102/102 104/104/104
f 105/105/105 107/107/107 106/106/106
f 105/105/105 106/106/106 108/108/108
f 109/109/109 111/111/111 110/110/110
f 109/109/109 110/110/110 112/112/112
f 113/113/113 115/115/115 114/114/114
f 113/113/113 114/114/114 116/116/116
f 117/117/117 119/119/119 118/118/118
f 117/117/117 118/118/118 120/120/120

