g Exported Mesh Combined Mesh 
v -0.0489542 0.01244279 0.04692964
v 0.008403398 -0.06947245 -0.04887515
v 0.008403398 -0.06947242 0.04692966
v -0.0489542 0.01244276 -0.04887518
v -0.1186518 0.06745841 0.04692961
v -0.1186518 0.06745838 -0.0488752
v -0.1871622 0.06947161 0.04692961
v -0.1871622 0.06947158 -0.0488752
v -0.273894 0.019891 0.04692963
v -0.273894 0.01989096 -0.04887518
v -0.04650631 0.0124428 -0.03726317
v 0.06087922 -0.06947246 -0.006656055
v -0.03166113 -0.0694724 0.01814004
v 0.04603403 0.01244274 -0.06205926
v -0.06454533 0.06745841 -0.1045859
v 0.02799502 0.06745835 -0.129382
v -0.0822771 0.06947161 -0.1707619
v 0.01026324 0.06947155 -0.195558
v -0.104725 0.019891 -0.2545384
v -0.01218462 0.01989094 -0.2793345
v 0.03566256 0.01244277 -0.07183445
v 0.04569263 -0.06947243 0.0393764
v -0.0107041 -0.06947243 -0.03807016
v 0.09205929 0.01244277 0.005612109
v 0.09200461 0.06745838 -0.1128628
v 0.1484013 0.06745838 -0.03541628
v 0.147387 0.06947158 -0.1531924
v 0.2037837 0.06947158 -0.07574581
v 0.2174991 0.01989097 -0.2042482
v 0.2738958 0.01989097 -0.1268016
v 0.09598526 0.01244277 0.006009832
v -0.01179437 -0.06947243 0.0351991
v 0.05468242 -0.06947244 -0.03378929
v 0.02950847 0.01244278 0.07499822
v 0.146174 0.06745839 0.05437141
v 0.07969725 0.06745839 0.1233598
v 0.1955079 0.0694716 0.1019092
v 0.1290311 0.06947161 0.1708976
v 0.2579629 0.01989098 0.1620905
v 0.1914861 0.01989099 0.2310789
v 0.03539335 0.01244278 0.07404697
v -0.02858896 -0.06947243 -0.01746651
v 0.05884324 -0.06947242 0.02170199
v -0.05203884 0.01244276 0.03487847
v 0.006898428 0.06745838 0.1376535
v -0.08053377 0.06745837 0.09848504
v -0.02111112 0.06947158 0.2001767
v -0.1085433 0.06947158 0.1610081
v -0.05657024 0.01989097 0.2793288
v -0.1440024 0.01989096 0.2401603

vn 0.7270877 0.6865447 -2.455275E-07
vn 0.8191523 0.5735762 -2.051268E-07
vn 0.8191523 0.5735762 -2.051268E-07
vn 0.7270877 0.6865447 -2.455275E-07
vn 0.341764 0.9397858 -3.360936E-07
vn 0.341764 0.9397858 -3.360936E-07
vn -0.242526 0.9701449 -3.469509E-07
vn -0.242526 0.9701449 -3.469509E-07
vn -0.4962849 0.8681598 -3.104781E-07
vn -0.4962849 0.8681598 -3.104781E-07
vn 0.1881844 0.6865447 0.7023126
vn 0.2120124 0.5735762 0.7912402
vn 0.2120124 0.5735762 0.7912402
vn 0.1881844 0.6865447 0.7023126
vn 0.08845556 0.9397858 0.3301184
vn 0.08845556 0.9397858 0.3301184
vn -0.0627697 0.9701449 -0.2342623
vn -0.0627697 0.9701449 -0.2342623
vn -0.1284474 0.8681598 -0.4793745
vn -0.1284474 0.8681598 -0.4793745
vn -0.5877621 0.6865447 0.4280095
vn -0.6621852 0.5735762 0.4822045
vn -0.6621852 0.5735762 0.4822045
vn -0.5877621 0.6865447 0.4280095
vn -0.2762747 0.9397858 0.2011837
vn -0.2762747 0.9397858 0.2011837
vn 0.1960528 0.9701449 -0.142766
vn 0.1960528 0.9701449 -0.142766
vn 0.4011861 0.8681598 -0.2921444
vn 0.4011861 0.8681598 -0.2921444
vn -0.5235709 0.6865447 -0.5045097
vn -0.589866 0.5735762 -0.5683913
vn -0.589866 0.5735762 -0.5683913
vn -0.5235709 0.6865447 -0.5045097
vn -0.2461019 0.9397858 -0.2371423
vn -0.2461019 0.9397858 -0.2371423
vn 0.1746413 0.9701449 0.1682832
vn 0.1746413 0.9701449 0.1682832
vn 0.3573713 0.8681598 0.3443607
vn 0.3573713 0.8681598 0.3443607
vn 0.2972598 0.6865447 -0.6635458
vn 0.3348992 0.5735762 -0.7475646
vn 0.3348992 0.5735762 -0.7475646
vn 0.2972598 0.6865447 -0.6635458
vn 0.1397254 0.9397859 -0.3118964
vn 0.1397254 0.9397859 -0.3118964
vn -0.09915357 0.9701449 0.221331
vn -0.09915357 0.9701449 0.221331
vn -0.2028994 0.8681598 0.4529133
vn -0.2028994 0.8681598 0.4529133

vt 0.365343 0.24601
vt 0.604855 -0.00399
vt 0.365343 -0.00399
vt 0.604855 0.24601
vt 0.365343 0.49601
vt 0.604855 0.49601
vt 0.365343 0.74601
vt 0.604855 0.74601
vt 0.365343 0.99601
vt 0.604855 0.99601
vt 0.365343 0.24601
vt 0.604855 -0.00399
vt 0.365343 -0.00399
vt 0.604855 0.24601
vt 0.365343 0.49601
vt 0.604855 0.49601
vt 0.365343 0.74601
vt 0.604855 0.74601
vt 0.365343 0.99601
vt 0.604855 0.99601
vt 0.365343 0.24601
vt 0.604855 -0.00399
vt 0.365343 -0.00399
vt 0.604855 0.24601
vt 0.365343 0.49601
vt 0.604855 0.49601
vt 0.365343 0.74601
vt 0.604855 0.74601
vt 0.365343 0.99601
vt 0.604855 0.99601
vt 0.365343 0.24601
vt 0.604855 -0.00399
vt 0.365343 -0.00399
vt 0.604855 0.24601
vt 0.365343 0.49601
vt 0.604855 0.49601
vt 0.365343 0.74601
vt 0.604855 0.74601
vt 0.365343 0.99601
vt 0.604855 0.99601
vt 0.365343 0.24601
vt 0.604855 -0.00399
vt 0.365343 -0.00399
vt 0.604855 0.24601
vt 0.365343 0.49601
vt 0.604855 0.49601
vt 0.365343 0.74601
vt 0.604855 0.74601
vt 0.365343 0.99601
vt 0.604855 0.99601

vt1 0 0
vt1 0 0
vt1 0 0
vt1 0 0
vt1 0 0
vt1 0 0
vt1 0 0
vt1 0 0
vt1 0 0
vt1 0 0
vt1 0 0
vt1 0 0
vt1 0 0
vt1 0 0
vt1 0 0
vt1 0 0
vt1 0 0
vt1 0 0
vt1 0 0
vt1 0 0
vt1 0 0
vt1 0 0
vt1 0 0
vt1 0 0
vt1 0 0
vt1 0 0
vt1 0 0
vt1 0 0
vt1 0 0
vt1 0 0
vt1 0 0
vt1 0 0
vt1 0 0
vt1 0 0
vt1 0 0
vt1 0 0
vt1 0 0
vt1 0 0
vt1 0 0
vt1 0 0
vt1 0 0
vt1 0 0
vt1 0 0
vt1 0 0
vt1 0 0
vt1 0 0
vt1 0 0
vt1 0 0
vt1 0 0
vt1 0 0

vt2 0 0
vt2 0 0
vt2 0 0
vt2 0 0
vt2 0 0
vt2 0 0
vt2 0 0
vt2 0 0
vt2 0 0
vt2 0 0
vt2 0 0
vt2 0 0
vt2 0 0
vt2 0 0
vt2 0 0
vt2 0 0
vt2 0 0
vt2 0 0
vt2 0 0
vt2 0 0
vt2 0 0
vt2 0 0
vt2 0 0
vt2 0 0
vt2 0 0
vt2 0 0
vt2 0 0
vt2 0 0
vt2 0 0
vt2 0 0
vt2 0 0
vt2 0 0
vt2 0 0
vt2 0 0
vt2 0 0
vt2 0 0
vt2 0 0
vt2 0 0
vt2 0 0
vt2 0 0
vt2 0 0
vt2 0 0
vt2 0 0
vt2 0 0
vt2 0 0
vt2 0 0
vt2 0 0
vt2 0 0
vt2 0 0
vt2 0 0

vc 1 1 1 1
vc 1 1 1 1
vc 1 1 1 1
vc 1 1 1 1
vc 1 1 1 1
vc 1 1 1 1
vc 1 1 1 1
vc 1 1 1 1
vc 1 1 1 1
vc 1 1 1 1
vc 1 1 1 1
vc 1 1 1 1
vc 1 1 1 1
vc 1 1 1 1
vc 1 1 1 1
vc 1 1 1 1
vc 1 1 1 1
vc 1 1 1 1
vc 1 1 1 1
vc 1 1 1 1
vc 1 1 1 1
vc 1 1 1 1
vc 1 1 1 1
vc 1 1 1 1
vc 1 1 1 1
vc 1 1 1 1
vc 1 1 1 1
vc 1 1 1 1
vc 1 1 1 1
vc 1 1 1 1
vc 1 1 1 1
vc 1 1 1 1
vc 1 1 1 1
vc 1 1 1 1
vc 1 1 1 1
vc 1 1 1 1
vc 1 1 1 1
vc 1 1 1 1
vc 1 1 1 1
vc 1 1 1 1
vc 1 1 1 1
vc 1 1 1 1
vc 1 1 1 1
vc 1 1 1 1
vc 1 1 1 1
vc 1 1 1 1
vc 1 1 1 1
vc 1 1 1 1
vc 1 1 1 1
vc 1 1 1 1
f 1/1/1 3/3/3 2/2/2
f 1/1/1 2/2/2 4/4/4
f 5/5/5 1/1/1 4/4/4
f 5/5/5 4/4/4 6/6/6
f 7/7/7 5/5/5 6/6/6
f 7/7/7 6/6/6 8/8/8
f 9/9/9 7/7/7 8/8/8
f 9/9/9 8/8/8 10/10/10
f 11/11/11 13/13/13 12/12/12
f 11/11/11 12/12/12 14/14/14
f 15/15/15 11/11/11 14/14/14
f 15/15/15 14/14/14 16/16/16
f 17/17/17 15/15/15 16/16/16
f 17/17/17 16/16/16 18/18/18
f 19/19/19 17/17/17 18/18/18
f 19/19/19 18/18/18 20/20/20
f 21/21/21 23/23/23 22/22/22
f 21/21/21 22/22/22 24/24/24
f 25/25/25 21/21/21 24/24/24
f 25/25/25 24/24/24 26/26/26
f 27/27/27 25/25/25 26/26/26
f 27/27/27 26/26/26 28/28/28
f 29/29/29 27/27/27 28/28/28
f 29/29/29 28/28/28 30/30/30
f 31/31/31 33/33/33 32/32/32
f 31/31/31 32/32/32 34/34/34
f 35/35/35 31/31/31 34/34/34
f 35/35/35 34/34/34 36/36/36
f 37/37/37 35/35/35 36/36/36
f 37/37/37 36/36/36 38/38/38
f 39/39/39 37/37/37 38/38/38
f 39/39/39 38/38/38 40/40/40
f 41/41/41 43/43/43 42/42/42
f 41/41/41 42/42/42 44/44/44
f 45/45/45 41/41/41 44/44/44
f 45/45/45 44/44/44 46/46/46
f 47/47/47 45/45/45 46/46/46
f 47/47/47 46/46/46 48/48/48
f 49/49/49 47/47/47 48/48/48
f 49/49/49 48/48/48 50/50/50

