g Exported Mesh Combined Mesh 
v 10.55119 4.67742 8.117389
v 11.39987 4.147371 8.117389
v 10.53384 4.647372 8.117389
v 11.41722 4.177419 8.117389
v 10.53384 4.647372 8.117389
v 11.39987 4.147372 7.117389
v 10.53384 4.647373 7.117389
v 11.39987 4.147371 8.117389
v 10.53384 4.647373 7.117389
v 11.41722 4.17742 7.117389
v 10.55119 4.677421 7.117389
v 11.39987 4.147372 7.117389
v 10.55119 4.677421 7.117389
v 11.41722 4.177419 8.117389
v 10.55119 4.67742 8.117389
v 11.41722 4.17742 7.117389
v 11.41722 4.177419 8.117389
v 11.39987 4.147372 7.117389
v 11.39987 4.147371 8.117389
v 11.41722 4.17742 7.117389
v 10.55119 4.677421 7.117389
v 10.53384 4.647372 8.117389
v 10.53384 4.647373 7.117389
v 10.55119 4.67742 8.117389
v 10.48713 4.545436 7.298589
v 10.58713 4.718641 7.098589
v 10.58713 4.718641 7.298589
v 10.48713 4.545436 7.098589
v 10.58713 4.718641 7.298589
v 11.50512 4.188642 7.098589
v 11.50512 4.188642 7.29859
v 10.58713 4.718641 7.098589
v 11.50512 4.188642 7.29859
v 11.40512 4.015436 7.098589
v 11.40512 4.015436 7.29859
v 11.50512 4.188642 7.098589
v 11.40512 4.015436 7.29859
v 10.48713 4.545436 7.098589
v 10.48713 4.545436 7.298589
v 11.40512 4.015436 7.098589
v 10.48713 4.545436 7.098589
v 11.50512 4.188642 7.098589
v 10.58713 4.718641 7.098589
v 11.40512 4.015436 7.098589
v 11.40512 4.015436 7.29859
v 10.58713 4.718641 7.298589
v 11.50512 4.188642 7.29859
v 10.48713 4.545436 7.298589
v 10.58713 4.518641 8.153804
v 10.38713 4.718641 8.153804
v 10.58713 4.718641 8.153804
v 10.38713 4.518641 8.153804
v 10.58713 4.718641 8.153804
v 10.38713 4.718641 7.093803
v 10.58713 4.718641 7.093804
v 10.38713 4.718641 8.153804
v 10.58713 4.718641 7.093804
v 10.38713 4.518641 7.093803
v 10.58713 4.518641 7.093804
v 10.38713 4.718641 7.093803
v 10.58713 4.518641 7.093804
v 10.38713 4.518641 8.153804
v 10.58713 4.518641 8.153804
v 10.38713 4.518641 7.093803
v 10.38713 4.518641 8.153804
v 10.38713 4.718641 7.093803
v 10.38713 4.718641 8.153804
v 10.38713 4.518641 7.093803
v 10.58713 4.518641 7.093804
v 10.58713 4.718641 8.153804
v 10.58713 4.718641 7.093804
v 10.58713 4.518641 8.153804

vn -5.846762E-07 -1.176598E-06 1
vn -5.846762E-07 -1.176598E-06 1
vn -5.846762E-07 -1.176598E-06 1
vn -5.846762E-07 -1.176598E-06 1
vn -0.5000012 -0.8660247 -1.252175E-06
vn -0.5000012 -0.8660247 -1.252175E-06
vn -0.5000012 -0.8660247 -1.252175E-06
vn -0.5000012 -0.8660247 -1.252175E-06
vn 5.846762E-07 1.176598E-06 -1
vn 5.846762E-07 1.176598E-06 -1
vn 5.846762E-07 1.176598E-06 -1
vn 5.846762E-07 1.176598E-06 -1
vn 0.5000012 0.8660247 1.252175E-06
vn 0.5000012 0.8660247 1.252175E-06
vn 0.5000012 0.8660247 1.252175E-06
vn 0.5000012 0.8660247 1.252175E-06
vn 0.8660247 -0.5000012 -2.15357E-07
vn 0.8660247 -0.5000012 -2.15357E-07
vn 0.8660247 -0.5000012 -2.15357E-07
vn 0.8660247 -0.5000012 -2.15357E-07
vn -0.8660247 0.5000012 2.15357E-07
vn -0.8660247 0.5000012 2.15357E-07
vn -0.8660247 0.5000012 2.15357E-07
vn -0.8660247 0.5000012 2.15357E-07
vn -0.8660258 0.4999993 1.557527E-07
vn -0.8660258 0.4999993 1.557527E-07
vn -0.8660258 0.4999993 1.557527E-07
vn -0.8660258 0.4999993 1.557527E-07
vn 0.4999993 0.8660258 -5.349128E-08
vn 0.4999993 0.8660258 -5.349128E-08
vn 0.4999993 0.8660258 -5.349128E-08
vn 0.4999993 0.8660258 -5.349128E-08
vn 0.8660258 -0.4999993 -1.557527E-07
vn 0.8660258 -0.4999993 -1.557527E-07
vn 0.8660258 -0.4999993 -1.557527E-07
vn 0.8660258 -0.4999993 -1.557527E-07
vn -0.4999993 -0.8660258 5.349128E-08
vn -0.4999993 -0.8660258 5.349128E-08
vn -0.4999993 -0.8660258 5.349128E-08
vn -0.4999993 -0.8660258 5.349128E-08
vn 2.415591E-07 -1.329562E-07 -1
vn 2.415591E-07 -1.329562E-07 -1
vn 2.415591E-07 -1.329562E-07 -1
vn 2.415591E-07 -1.329562E-07 -1
vn -2.415591E-07 1.329562E-07 1
vn -2.415591E-07 1.329562E-07 1
vn -2.415591E-07 1.329562E-07 1
vn -2.415591E-07 1.329562E-07 1
vn -2.022427E-06 4.180021E-08 1
vn -2.022427E-06 4.180021E-08 1
vn -2.022427E-06 4.180021E-08 1
vn -2.022427E-06 4.180021E-08 1
vn 5.320184E-14 1 -2.630594E-08
vn 5.320184E-14 1 -2.630594E-08
vn 5.320184E-14 1 -2.630594E-08
vn 5.320184E-14 1 -2.630594E-08
vn 2.022427E-06 -4.180021E-08 -1
vn 2.022427E-06 -4.180021E-08 -1
vn 2.022427E-06 -4.180021E-08 -1
vn 2.022427E-06 -4.180021E-08 -1
vn -5.320184E-14 -1 2.630594E-08
vn -5.320184E-14 -1 2.630594E-08
vn -5.320184E-14 -1 2.630594E-08
vn -5.320184E-14 -1 2.630594E-08
vn -1 2.980224E-08 -1.877335E-06
vn -1 2.980224E-08 -1.877335E-06
vn -1 2.980224E-08 -1.877335E-06
vn -1 2.980224E-08 -1.877335E-06
vn 1 -2.980224E-08 1.877335E-06
vn 1 -2.980224E-08 1.877335E-06
vn 1 -2.980224E-08 1.877335E-06
vn 1 -2.980224E-08 1.877335E-06

vt 0.2500815 0.000163
vt 0.2750655 0.499837
vt 0.275065 0.000163
vt 0.2500815 0.499837
vt 0.0052795 0.455216
vt 0.2679205 0.986755
vt 0.003715 0.983626
vt 0.2694845 0.458345
vt 0.3269455 0.000163
vt 0.301962 0.499837
vt 0.301962 0.000163
vt 0.326946 0.499837
vt 0.004495 0.984682
vt 0.268705 0.456262
vt 0.004495 0.456262
vt 0.268705 0.984682
vt 0.4999185 0.500163
vt 0.2500815 0.550131
vt 0.4999185 0.550131
vt 0.2500815 0.500163
vt 0.301212 0.499337
vt 0.2762285 -0.000337
vt 0.2762285 0.499337
vt 0.301212 -0.000337
vt 0.820813 0.407566
vt 0.730831 0.58753
vt 0.820813 0.58753
vt 0.730831 0.407566
vt 0.5992455 0.008232
vt 0.5064015 0.992381
vt 0.5992455 0.992381
vt 0.5064015 0.008232
vt 0.8206845 0.407566
vt 0.730703 0.58753
vt 0.8206845 0.58753
vt 0.730703 0.407566
vt 0.5992335 0.00824
vt 0.506389 0.992389
vt 0.5992335 0.992389
vt 0.506389 0.00824
vt 0.7149865 0.992559
vt 0.622142 0.00841
vt 0.622142 0.992559
vt 0.7149865 0.00841
vt 0.6221585 0.008423
vt 0.7150025 0.992572
vt 0.7150025 0.008423
vt 0.6221585 0.992572
vt 0.820813 0.407566
vt 0.730831 0.58753
vt 0.820813 0.58753
vt 0.730831 0.407566
vt 0.5992455 0.008232
vt 0.5064015 0.992381
vt 0.5992455 0.992381
vt 0.5064015 0.008232
vt 0.8206845 0.407566
vt 0.730703 0.58753
vt 0.8206845 0.58753
vt 0.730703 0.407566
vt 0.5992335 0.00824
vt 0.506389 0.992389
vt 0.5992335 0.992389
vt 0.506389 0.00824
vt 0.7149865 0.992559
vt 0.622142 0.00841
vt 0.622142 0.992559
vt 0.7149865 0.00841
vt 0.6221585 0.008423
vt 0.7150025 0.992572
vt 0.7150025 0.008423
vt 0.6221585 0.992572

vt1 0 0
vt1 0 0
vt1 0 0
vt1 0 0
vt1 0 0
vt1 0 0
vt1 0 0
vt1 0 0
vt1 0 0
vt1 0 0
vt1 0 0
vt1 0 0
vt1 0 0
vt1 0 0
vt1 0 0
vt1 0 0
vt1 0 0
vt1 0 0
vt1 0 0
vt1 0 0
vt1 0 0
vt1 0 0
vt1 0 0
vt1 0 0
vt1 0 0
vt1 0 0
vt1 0 0
vt1 0 0
vt1 0 0
vt1 0 0
vt1 0 0
vt1 0 0
vt1 0 0
vt1 0 0
vt1 0 0
vt1 0 0
vt1 0 0
vt1 0 0
vt1 0 0
vt1 0 0
vt1 0 0
vt1 0 0
vt1 0 0
vt1 0 0
vt1 0 0
vt1 0 0
vt1 0 0
vt1 0 0
vt1 0 0
vt1 0 0
vt1 0 0
vt1 0 0
vt1 0 0
vt1 0 0
vt1 0 0
vt1 0 0
vt1 0 0
vt1 0 0
vt1 0 0
vt1 0 0
vt1 0 0
vt1 0 0
vt1 0 0
vt1 0 0
vt1 0 0
vt1 0 0
vt1 0 0
vt1 0 0
vt1 0 0
vt1 0 0
vt1 0 0
vt1 0 0

vt2 0 0
vt2 0 0
vt2 0 0
vt2 0 0
vt2 0 0
vt2 0 0
vt2 0 0
vt2 0 0
vt2 0 0
vt2 0 0
vt2 0 0
vt2 0 0
vt2 0 0
vt2 0 0
vt2 0 0
vt2 0 0
vt2 0 0
vt2 0 0
vt2 0 0
vt2 0 0
vt2 0 0
vt2 0 0
vt2 0 0
vt2 0 0
vt2 0 0
vt2 0 0
vt2 0 0
vt2 0 0
vt2 0 0
vt2 0 0
vt2 0 0
vt2 0 0
vt2 0 0
vt2 0 0
vt2 0 0
vt2 0 0
vt2 0 0
vt2 0 0
vt2 0 0
vt2 0 0
vt2 0 0
vt2 0 0
vt2 0 0
vt2 0 0
vt2 0 0
vt2 0 0
vt2 0 0
vt2 0 0
vt2 0 0
vt2 0 0
vt2 0 0
vt2 0 0
vt2 0 0
vt2 0 0
vt2 0 0
vt2 0 0
vt2 0 0
vt2 0 0
vt2 0 0
vt2 0 0
vt2 0 0
vt2 0 0
vt2 0 0
vt2 0 0
vt2 0 0
vt2 0 0
vt2 0 0
vt2 0 0
vt2 0 0
vt2 0 0
vt2 0 0
vt2 0 0

vc 1 1 1 1
vc 1 1 1 1
vc 1 1 1 1
vc 1 1 1 1
vc 1 1 1 1
vc 1 1 1 1
vc 1 1 1 1
vc 1 1 1 1
vc 1 1 1 1
vc 1 1 1 1
vc 1 1 1 1
vc 1 1 1 1
vc 1 1 1 1
vc 1 1 1 1
vc 1 1 1 1
vc 1 1 1 1
vc 1 1 1 1
vc 1 1 1 1
vc 1 1 1 1
vc 1 1 1 1
vc 1 1 1 1
vc 1 1 1 1
vc 1 1 1 1
vc 1 1 1 1
vc 1 1 1 1
vc 1 1 1 1
vc 1 1 1 1
vc 1 1 1 1
vc 1 1 1 1
vc 1 1 1 1
vc 1 1 1 1
vc 1 1 1 1
vc 1 1 1 1
vc 1 1 1 1
vc 1 1 1 1
vc 1 1 1 1
vc 1 1 1 1
vc 1 1 1 1
vc 1 1 1 1
vc 1 1 1 1
vc 1 1 1 1
vc 1 1 1 1
vc 1 1 1 1
vc 1 1 1 1
vc 1 1 1 1
vc 1 1 1 1
vc 1 1 1 1
vc 1 1 1 1
vc 1 1 1 1
vc 1 1 1 1
vc 1 1 1 1
vc 1 1 1 1
vc 1 1 1 1
vc 1 1 1 1
vc 1 1 1 1
vc 1 1 1 1
vc 1 1 1 1
vc 1 1 1 1
vc 1 1 1 1
vc 1 1 1 1
vc 1 1 1 1
vc 1 1 1 1
vc 1 1 1 1
vc 1 1 1 1
vc 1 1 1 1
vc 1 1 1 1
vc 1 1 1 1
vc 1 1 1 1
vc 1 1 1 1
vc 1 1 1 1
vc 1 1 1 1
vc 1 1 1 1
f 1/1/1 3/3/3 2/2/2
f 1/1/1 2/2/2 4/4/4
f 5/5/5 7/7/7 6/6/6
f 5/5/5 6/6/6 8/8/8
f 9/9/9 11/11/11 10/10/10
f 9/9/9 10/10/10 12/12/12
f 13/13/13 15/15/15 14/14/14
f 13/13/13 14/14/14 16/16/16
f 17/17/17 19/19/19 18/18/18
f 17/17/17 18/18/18 20/20/20
f 21/21/21 23/23/23 22/22/22
f 21/21/21 22/22/22 24/24/24
f 25/25/25 27/27/27 26/26/26
f 25/25/25 26/26/26 28/28/28
f 29/29/29 31/31/31 30/30/30
f 29/29/29 30/30/30 32/32/32
f 33/33/33 35/35/35 34/34/34
f 33/33/33 34/34/34 36/36/36
f 37/37/37 39/39/39 38/38/38
f 37/37/37 38/38/38 40/40/40
f 41/41/41 43/43/43 42/42/42
f 41/41/41 42/42/42 44/44/44
f 45/45/45 47/47/47 46/46/46
f 45/45/45 46/46/46 48/48/48
f 49/49/49 51/51/51 50/50/50
f 49/49/49 50/50/50 52/52/52
f 53/53/53 55/55/55 54/54/54
f 53/53/53 54/54/54 56/56/56
f 57/57/57 59/59/59 58/58/58
f 57/57/57 58/58/58 60/60/60
f 61/61/61 63/63/63 62/62/62
f 61/61/61 62/62/62 64/64/64
f 65/65/65 67/67/67 66/66/66
f 65/65/65 66/66/66 68/68/68
f 69/69/69 71/71/71 70/70/70
f 69/69/69 70/70/70 72/72/72

