g Exported Mesh Combined Mesh 
v -0.3412868 0.3658205 0.4999996
v 0.3412851 -0.3658213 0.5000005
v -0.3658209 0.3412865 0.4999996
v 0.3658192 -0.3412873 0.5000005
v -0.3658209 0.3412865 0.4999996
v 0.3412868 -0.3658205 -0.4999996
v -0.3658192 0.3412873 -0.5000005
v 0.3412851 -0.3658213 0.5000005
v -0.3658192 0.3412873 -0.5000005
v 0.3658209 -0.3412865 -0.4999996
v -0.3412851 0.3658213 -0.5000005
v 0.3412868 -0.3658205 -0.4999996
v -0.3412851 0.3658213 -0.5000005
v 0.3658192 -0.3412873 0.5000005
v -0.3412868 0.3658205 0.4999996
v 0.3658209 -0.3412865 -0.4999996
v 0.3658192 -0.3412873 0.5000005
v 0.3412868 -0.3658205 -0.4999996
v 0.3412851 -0.3658213 0.5000005
v 0.3658209 -0.3412865 -0.4999996
v -0.3412851 0.3658213 -0.5000005
v -0.3658209 0.3412865 0.4999996
v -0.3658192 0.3412873 -0.5000005
v -0.3412868 0.3658205 0.4999996
v -0.3412849 0.3658213 -0.6011977
v 0.341287 -0.3658205 -0.6011969
v -0.365819 0.3412873 -0.6011978
v 0.3658211 -0.3412865 -0.6011968
v -0.365819 0.3412873 -0.6011978
v 0.3412887 -0.3658197 -1.601197
v -0.3658172 0.3412881 -1.601198
v 0.341287 -0.3658205 -0.6011969
v -0.3658172 0.3412881 -1.601198
v 0.3658228 -0.3412857 -1.601197
v -0.3412832 0.3658221 -1.601198
v 0.3412887 -0.3658197 -1.601197
v -0.3412832 0.3658221 -1.601198
v 0.3658211 -0.3412865 -0.6011968
v -0.3412849 0.3658213 -0.6011977
v 0.3658228 -0.3412857 -1.601197
v 0.3658211 -0.3412865 -0.6011968
v 0.3412887 -0.3658197 -1.601197
v 0.341287 -0.3658205 -0.6011969
v 0.3658228 -0.3412857 -1.601197
v -0.3412832 0.3658221 -1.601198
v -0.365819 0.3412873 -0.6011978
v -0.3658172 0.3412881 -1.601198
v -0.3412849 0.3658213 -0.6011977
v -0.459798 0.2842072 0.7053041
v -0.3183765 0.4256288 0.5053042
v -0.3183767 0.4256288 0.7053043
v -0.4597978 0.2842072 0.5053041
v -0.3183767 0.4256288 0.7053043
v 0.4311575 -0.323904 0.5053055
v 0.4311573 -0.323904 0.7053056
v -0.3183765 0.4256288 0.5053042
v 0.4311573 -0.323904 0.7053056
v 0.2897362 -0.4653256 0.5053054
v 0.289736 -0.4653255 0.7053055
v 0.4311575 -0.323904 0.5053055
v 0.289736 -0.4653255 0.7053055
v -0.4597978 0.2842072 0.5053041
v -0.459798 0.2842072 0.7053041
v 0.2897362 -0.4653256 0.5053054
v -0.4597978 0.2842072 0.5053041
v 0.4311575 -0.323904 0.5053055
v -0.3183765 0.4256288 0.5053042
v 0.2897362 -0.4653256 0.5053054
v 0.289736 -0.4653255 0.7053055
v -0.3183767 0.4256288 0.7053043
v 0.4311573 -0.323904 0.7053056
v -0.459798 0.2842072 0.7053041
v -0.518377 0.2256289 0.7544938
v -0.3183767 0.425629 0.7544944
v -0.5183769 0.425629 0.7544938
v -0.3183768 0.2256289 0.7544944
v -0.5183769 0.425629 0.7544938
v -0.3183732 0.4256288 -0.4707072
v -0.5183734 0.4256289 -0.4707078
v -0.3183767 0.425629 0.7544944
v -0.5183734 0.4256289 -0.4707078
v -0.3183732 0.2256287 -0.4707072
v -0.5183734 0.2256288 -0.4707078
v -0.3183732 0.4256288 -0.4707072
v -0.5183734 0.2256288 -0.4707078
v -0.3183768 0.2256289 0.7544944
v -0.518377 0.2256289 0.7544938
v -0.3183732 0.2256287 -0.4707072
v -0.3183768 0.2256289 0.7544944
v -0.3183732 0.4256288 -0.4707072
v -0.3183767 0.425629 0.7544944
v -0.3183732 0.2256287 -0.4707072
v -0.5183734 0.2256288 -0.4707078
v -0.5183769 0.425629 0.7544938
v -0.5183734 0.4256289 -0.4707078
v -0.518377 0.2256289 0.7544938
v -0.4598003 0.2842032 -0.4652721
v -0.3183788 0.4256246 -0.6652721
v -0.318379 0.4256246 -0.465272
v -0.4598002 0.2842031 -0.6652722
v -0.318379 0.4256246 -0.465272
v 0.4311548 -0.3239086 -0.6652707
v 0.4311546 -0.3239086 -0.4652707
v -0.3183788 0.4256246 -0.6652721
v 0.4311546 -0.3239086 -0.4652707
v 0.2897334 -0.4653301 -0.6652709
v 0.2897333 -0.46533 -0.4652708
v 0.4311548 -0.3239086 -0.6652707
v 0.2897333 -0.46533 -0.4652708
v -0.4598002 0.2842031 -0.6652722
v -0.4598003 0.2842032 -0.4652721
v 0.2897334 -0.4653301 -0.6652709
v -0.4598002 0.2842031 -0.6652722
v 0.4311548 -0.3239086 -0.6652707
v -0.3183788 0.4256246 -0.6652721
v 0.2897334 -0.4653301 -0.6652709
v 0.2897333 -0.46533 -0.4652708
v -0.318379 0.4256246 -0.465272
v 0.4311546 -0.3239086 -0.4652707
v -0.4598003 0.2842032 -0.4652721
v -0.3183734 0.4256297 -0.4707231
v -0.518374 0.2256301 -0.4707237
v -0.5183735 0.4256302 -0.4707232
v -0.3183739 0.2256296 -0.4707235
v -0.5183735 0.4256302 -0.4707232
v -0.5183734 0.2256331 -1.832059
v -0.5183728 0.4256331 -1.832058
v -0.518374 0.2256301 -0.4707237
v -0.5183728 0.4256331 -1.832058
v -0.3183734 0.2256326 -1.832059
v -0.3183728 0.4256326 -1.832058
v -0.5183734 0.2256331 -1.832059
v -0.3183728 0.4256326 -1.832058
v -0.3183739 0.2256296 -0.4707235
v -0.3183734 0.4256297 -0.4707231
v -0.3183734 0.2256326 -1.832059
v -0.3183739 0.2256296 -0.4707235
v -0.5183734 0.2256331 -1.832059
v -0.518374 0.2256301 -0.4707237
v -0.3183734 0.2256326 -1.832059
v -0.3183728 0.4256326 -1.832058
v -0.5183735 0.4256302 -0.4707232
v -0.5183728 0.4256331 -1.832058
v -0.3183734 0.4256297 -0.4707231

vn -1.949292E-06 -7.059571E-07 1
vn -1.949292E-06 -7.059571E-07 1
vn -1.949292E-06 -7.059571E-07 1
vn -1.949292E-06 -7.059571E-07 1
vn -0.7071077 -0.7071059 -1.780705E-06
vn -0.7071077 -0.7071059 -1.780705E-06
vn -0.7071077 -0.7071059 -1.780705E-06
vn -0.7071077 -0.7071059 -1.780705E-06
vn 1.949292E-06 7.059571E-07 -1
vn 1.949292E-06 7.059571E-07 -1
vn 1.949292E-06 7.059571E-07 -1
vn 1.949292E-06 7.059571E-07 -1
vn 0.7071077 0.7071059 1.780705E-06
vn 0.7071077 0.7071059 1.780705E-06
vn 0.7071077 0.7071059 1.780705E-06
vn 0.7071077 0.7071059 1.780705E-06
vn 0.707106 -0.7071076 6.848842E-07
vn 0.707106 -0.7071076 6.848842E-07
vn 0.707106 -0.7071076 6.848842E-07
vn 0.707106 -0.7071076 6.848842E-07
vn -0.707106 0.7071076 -6.848842E-07
vn -0.707106 0.7071076 -6.848842E-07
vn -0.707106 0.7071076 -6.848842E-07
vn -0.707106 0.7071076 -6.848842E-07
vn -1.949292E-06 -7.059571E-07 1
vn -1.949292E-06 -7.059571E-07 1
vn -1.949292E-06 -7.059571E-07 1
vn -1.949292E-06 -7.059571E-07 1
vn -0.7071077 -0.7071059 -1.780705E-06
vn -0.7071077 -0.7071059 -1.780705E-06
vn -0.7071077 -0.7071059 -1.780705E-06
vn -0.7071077 -0.7071059 -1.780705E-06
vn 1.949292E-06 7.059571E-07 -1
vn 1.949292E-06 7.059571E-07 -1
vn 1.949292E-06 7.059571E-07 -1
vn 1.949292E-06 7.059571E-07 -1
vn 0.7071077 0.7071059 1.780705E-06
vn 0.7071077 0.7071059 1.780705E-06
vn 0.7071077 0.7071059 1.780705E-06
vn 0.7071077 0.7071059 1.780705E-06
vn 0.707106 -0.7071076 6.848842E-07
vn 0.707106 -0.7071076 6.848842E-07
vn 0.707106 -0.7071076 6.848842E-07
vn 0.707106 -0.7071076 6.848842E-07
vn -0.707106 0.7071076 -6.848842E-07
vn -0.707106 0.7071076 -6.848842E-07
vn -0.707106 0.7071076 -6.848842E-07
vn -0.707106 0.7071076 -6.848842E-07
vn -0.7071075 0.7071061 -7.444896E-07
vn -0.7071075 0.7071061 -7.444896E-07
vn -0.7071075 0.7071061 -7.444896E-07
vn -0.7071075 0.7071061 -7.444896E-07
vn 0.7071062 0.7071074 4.750374E-07
vn 0.7071062 0.7071074 4.750374E-07
vn 0.7071062 0.7071074 4.750374E-07
vn 0.7071062 0.7071074 4.750374E-07
vn 0.7071075 -0.7071061 7.444896E-07
vn 0.7071075 -0.7071061 7.444896E-07
vn 0.7071075 -0.7071061 7.444896E-07
vn 0.7071075 -0.7071061 7.444896E-07
vn -0.7071062 -0.7071074 -4.750374E-07
vn -0.7071062 -0.7071074 -4.750374E-07
vn -0.7071062 -0.7071074 -4.750374E-07
vn -0.7071062 -0.7071074 -4.750374E-07
vn 1.278929E-06 -4.7017E-07 -1
vn 1.278929E-06 -4.7017E-07 -1
vn 1.278929E-06 -4.7017E-07 -1
vn 1.278929E-06 -4.7017E-07 -1
vn -1.278929E-06 4.7017E-07 1
vn -1.278929E-06 4.7017E-07 1
vn -1.278929E-06 4.7017E-07 1
vn -1.278929E-06 4.7017E-07 1
vn -3.113404E-06 1.5414E-07 1
vn -3.113404E-06 1.5414E-07 1
vn -3.113404E-06 1.5414E-07 1
vn -3.113404E-06 1.5414E-07 1
vn 2.384186E-07 1 -8.523642E-08
vn 2.384186E-07 1 -8.523642E-08
vn 2.384186E-07 1 -8.523642E-08
vn 2.384186E-07 1 -8.523642E-08
vn 3.113404E-06 -1.5414E-07 -1
vn 3.113404E-06 -1.5414E-07 -1
vn 3.113404E-06 -1.5414E-07 -1
vn 3.113404E-06 -1.5414E-07 -1
vn -2.384186E-07 -1 8.523642E-08
vn -2.384186E-07 -1 8.523642E-08
vn -2.384186E-07 -1 8.523642E-08
vn -2.384186E-07 -1 8.523642E-08
vn 1 -2.980226E-07 2.907548E-06
vn 1 -2.980226E-07 2.907548E-06
vn 1 -2.980226E-07 2.907548E-06
vn 1 -2.980226E-07 2.907548E-06
vn -1 2.980226E-07 -2.907548E-06
vn -1 2.980226E-07 -2.907548E-06
vn -1 2.980226E-07 -2.907548E-06
vn -1 2.980226E-07 -2.907548E-06
vn -0.7071071 0.7071065 -7.444895E-07
vn -0.7071071 0.7071065 -7.444895E-07
vn -0.7071071 0.7071065 -7.444895E-07
vn -0.7071071 0.7071065 -7.444895E-07
vn 0.7071066 0.7071069 4.750377E-07
vn 0.7071066 0.7071069 4.750377E-07
vn 0.7071066 0.7071069 4.750377E-07
vn 0.7071066 0.7071069 4.750377E-07
vn 0.7071071 -0.7071065 7.444895E-07
vn 0.7071071 -0.7071065 7.444895E-07
vn 0.7071071 -0.7071065 7.444895E-07
vn 0.7071071 -0.7071065 7.444895E-07
vn -0.7071066 -0.7071069 -4.750377E-07
vn -0.7071066 -0.7071069 -4.750377E-07
vn -0.7071066 -0.7071069 -4.750377E-07
vn -0.7071066 -0.7071069 -4.750377E-07
vn 1.278928E-06 -4.701694E-07 -1
vn 1.278928E-06 -4.701694E-07 -1
vn 1.278928E-06 -4.701694E-07 -1
vn 1.278928E-06 -4.701694E-07 -1
vn -1.278928E-06 4.701694E-07 1
vn -1.278928E-06 4.701694E-07 1
vn -1.278928E-06 4.701694E-07 1
vn -1.278928E-06 4.701694E-07 1
vn -6.532879E-07 -2.099811E-06 1
vn -6.532879E-07 -2.099811E-06 1
vn -6.532879E-07 -2.099811E-06 1
vn -6.532879E-07 -2.099811E-06 1
vn -1 2.622605E-06 -4.474255E-07
vn -1 2.622605E-06 -4.474255E-07
vn -1 2.622605E-06 -4.474255E-07
vn -1 2.622605E-06 -4.474255E-07
vn 6.532879E-07 2.099811E-06 -1
vn 6.532879E-07 2.099811E-06 -1
vn 6.532879E-07 2.099811E-06 -1
vn 6.532879E-07 2.099811E-06 -1
vn 1 -2.622605E-06 4.474255E-07
vn 1 -2.622605E-06 4.474255E-07
vn 1 -2.622605E-06 4.474255E-07
vn 1 -2.622605E-06 4.474255E-07
vn -2.5928E-06 -1 -2.168715E-06
vn -2.5928E-06 -1 -2.168715E-06
vn -2.5928E-06 -1 -2.168715E-06
vn -2.5928E-06 -1 -2.168715E-06
vn 2.5928E-06 1 2.168715E-06
vn 2.5928E-06 1 2.168715E-06
vn 2.5928E-06 1 2.168715E-06
vn 2.5928E-06 1 2.168715E-06

vt 0.2500815 0.000163
vt 0.2750655 0.499837
vt 0.275065 0.000163
vt 0.2500815 0.499837
vt 0.0052795 0.455216
vt 0.2679205 0.986755
vt 0.003715 0.983626
vt 0.2694845 0.458345
vt 0.3269455 0.000163
vt 0.301962 0.499837
vt 0.301962 0.000163
vt 0.326946 0.499837
vt 0.004495 0.984682
vt 0.268705 0.456262
vt 0.004495 0.456262
vt 0.268705 0.984682
vt 0.4999185 0.500163
vt 0.2500815 0.550131
vt 0.4999185 0.550131
vt 0.2500815 0.500163
vt 0.301212 0.499337
vt 0.2762285 -0.000337
vt 0.2762285 0.499337
vt 0.301212 -0.000337
vt 0.2500815 0.000163
vt 0.2750655 0.499837
vt 0.275065 0.000163
vt 0.2500815 0.499837
vt 0.0052795 0.455216
vt 0.2679205 0.986755
vt 0.003715 0.983626
vt 0.2694845 0.458345
vt 0.3269455 0.000163
vt 0.301962 0.499837
vt 0.301962 0.000163
vt 0.326946 0.499837
vt 0.004495 0.984682
vt 0.268705 0.456262
vt 0.004495 0.456262
vt 0.268705 0.984682
vt 0.4999185 0.500163
vt 0.2500815 0.550131
vt 0.4999185 0.550131
vt 0.2500815 0.500163
vt 0.301212 0.499337
vt 0.2762285 -0.000337
vt 0.2762285 0.499337
vt 0.301212 -0.000337
vt 0.820813 0.407566
vt 0.730831 0.58753
vt 0.820813 0.58753
vt 0.730831 0.407566
vt 0.5992455 0.008232
vt 0.5064015 0.992381
vt 0.5992455 0.992381
vt 0.5064015 0.008232
vt 0.8206845 0.407566
vt 0.730703 0.58753
vt 0.8206845 0.58753
vt 0.730703 0.407566
vt 0.5992335 0.00824
vt 0.506389 0.992389
vt 0.5992335 0.992389
vt 0.506389 0.00824
vt 0.7149865 0.992559
vt 0.622142 0.00841
vt 0.622142 0.992559
vt 0.7149865 0.00841
vt 0.6221585 0.008423
vt 0.7150025 0.992572
vt 0.7150025 0.008423
vt 0.6221585 0.992572
vt 0.820813 0.407566
vt 0.730831 0.58753
vt 0.820813 0.58753
vt 0.730831 0.407566
vt 0.5992455 0.008232
vt 0.5064015 0.992381
vt 0.5992455 0.992381
vt 0.5064015 0.008232
vt 0.8206845 0.407566
vt 0.730703 0.58753
vt 0.8206845 0.58753
vt 0.730703 0.407566
vt 0.5992335 0.00824
vt 0.506389 0.992389
vt 0.5992335 0.992389
vt 0.506389 0.00824
vt 0.7149865 0.992559
vt 0.622142 0.00841
vt 0.622142 0.992559
vt 0.7149865 0.00841
vt 0.6221585 0.008423
vt 0.7150025 0.992572
vt 0.7150025 0.008423
vt 0.6221585 0.992572
vt 0.820813 0.407566
vt 0.730831 0.58753
vt 0.820813 0.58753
vt 0.730831 0.407566
vt 0.5992455 0.008232
vt 0.5064015 0.992381
vt 0.5992455 0.992381
vt 0.5064015 0.008232
vt 0.8206845 0.407566
vt 0.730703 0.58753
vt 0.8206845 0.58753
vt 0.730703 0.407566
vt 0.5992335 0.00824
vt 0.506389 0.992389
vt 0.5992335 0.992389
vt 0.506389 0.00824
vt 0.7149865 0.992559
vt 0.622142 0.00841
vt 0.622142 0.992559
vt 0.7149865 0.00841
vt 0.6221585 0.008423
vt 0.7150025 0.992572
vt 0.7150025 0.008423
vt 0.6221585 0.992572
vt 0.820813 0.407566
vt 0.730831 0.58753
vt 0.820813 0.58753
vt 0.730831 0.407566
vt 0.5992455 0.008232
vt 0.5064015 0.992381
vt 0.5992455 0.992381
vt 0.5064015 0.008232
vt 0.8206845 0.407566
vt 0.730703 0.58753
vt 0.8206845 0.58753
vt 0.730703 0.407566
vt 0.5992335 0.00824
vt 0.506389 0.992389
vt 0.5992335 0.992389
vt 0.506389 0.00824
vt 0.7149865 0.992559
vt 0.622142 0.00841
vt 0.622142 0.992559
vt 0.7149865 0.00841
vt 0.6221585 0.008423
vt 0.7150025 0.992572
vt 0.7150025 0.008423
vt 0.6221585 0.992572

vt1 0 0
vt1 0 0
vt1 0 0
vt1 0 0
vt1 0 0
vt1 0 0
vt1 0 0
vt1 0 0
vt1 0 0
vt1 0 0
vt1 0 0
vt1 0 0
vt1 0 0
vt1 0 0
vt1 0 0
vt1 0 0
vt1 0 0
vt1 0 0
vt1 0 0
vt1 0 0
vt1 0 0
vt1 0 0
vt1 0 0
vt1 0 0
vt1 0 0
vt1 0 0
vt1 0 0
vt1 0 0
vt1 0 0
vt1 0 0
vt1 0 0
vt1 0 0
vt1 0 0
vt1 0 0
vt1 0 0
vt1 0 0
vt1 0 0
vt1 0 0
vt1 0 0
vt1 0 0
vt1 0 0
vt1 0 0
vt1 0 0
vt1 0 0
vt1 0 0
vt1 0 0
vt1 0 0
vt1 0 0
vt1 0 0
vt1 0 0
vt1 0 0
vt1 0 0
vt1 0 0
vt1 0 0
vt1 0 0
vt1 0 0
vt1 0 0
vt1 0 0
vt1 0 0
vt1 0 0
vt1 0 0
vt1 0 0
vt1 0 0
vt1 0 0
vt1 0 0
vt1 0 0
vt1 0 0
vt1 0 0
vt1 0 0
vt1 0 0
vt1 0 0
vt1 0 0
vt1 0 0
vt1 0 0
vt1 0 0
vt1 0 0
vt1 0 0
vt1 0 0
vt1 0 0
vt1 0 0
vt1 0 0
vt1 0 0
vt1 0 0
vt1 0 0
vt1 0 0
vt1 0 0
vt1 0 0
vt1 0 0
vt1 0 0
vt1 0 0
vt1 0 0
vt1 0 0
vt1 0 0
vt1 0 0
vt1 0 0
vt1 0 0
vt1 0 0
vt1 0 0
vt1 0 0
vt1 0 0
vt1 0 0
vt1 0 0
vt1 0 0
vt1 0 0
vt1 0 0
vt1 0 0
vt1 0 0
vt1 0 0
vt1 0 0
vt1 0 0
vt1 0 0
vt1 0 0
vt1 0 0
vt1 0 0
vt1 0 0
vt1 0 0
vt1 0 0
vt1 0 0
vt1 0 0
vt1 0 0
vt1 0 0
vt1 0 0
vt1 0 0
vt1 0 0
vt1 0 0
vt1 0 0
vt1 0 0
vt1 0 0
vt1 0 0
vt1 0 0
vt1 0 0
vt1 0 0
vt1 0 0
vt1 0 0
vt1 0 0
vt1 0 0
vt1 0 0
vt1 0 0
vt1 0 0
vt1 0 0
vt1 0 0
vt1 0 0
vt1 0 0
vt1 0 0

vt2 0 0
vt2 0 0
vt2 0 0
vt2 0 0
vt2 0 0
vt2 0 0
vt2 0 0
vt2 0 0
vt2 0 0
vt2 0 0
vt2 0 0
vt2 0 0
vt2 0 0
vt2 0 0
vt2 0 0
vt2 0 0
vt2 0 0
vt2 0 0
vt2 0 0
vt2 0 0
vt2 0 0
vt2 0 0
vt2 0 0
vt2 0 0
vt2 0 0
vt2 0 0
vt2 0 0
vt2 0 0
vt2 0 0
vt2 0 0
vt2 0 0
vt2 0 0
vt2 0 0
vt2 0 0
vt2 0 0
vt2 0 0
vt2 0 0
vt2 0 0
vt2 0 0
vt2 0 0
vt2 0 0
vt2 0 0
vt2 0 0
vt2 0 0
vt2 0 0
vt2 0 0
vt2 0 0
vt2 0 0
vt2 0 0
vt2 0 0
vt2 0 0
vt2 0 0
vt2 0 0
vt2 0 0
vt2 0 0
vt2 0 0
vt2 0 0
vt2 0 0
vt2 0 0
vt2 0 0
vt2 0 0
vt2 0 0
vt2 0 0
vt2 0 0
vt2 0 0
vt2 0 0
vt2 0 0
vt2 0 0
vt2 0 0
vt2 0 0
vt2 0 0
vt2 0 0
vt2 0 0
vt2 0 0
vt2 0 0
vt2 0 0
vt2 0 0
vt2 0 0
vt2 0 0
vt2 0 0
vt2 0 0
vt2 0 0
vt2 0 0
vt2 0 0
vt2 0 0
vt2 0 0
vt2 0 0
vt2 0 0
vt2 0 0
vt2 0 0
vt2 0 0
vt2 0 0
vt2 0 0
vt2 0 0
vt2 0 0
vt2 0 0
vt2 0 0
vt2 0 0
vt2 0 0
vt2 0 0
vt2 0 0
vt2 0 0
vt2 0 0
vt2 0 0
vt2 0 0
vt2 0 0
vt2 0 0
vt2 0 0
vt2 0 0
vt2 0 0
vt2 0 0
vt2 0 0
vt2 0 0
vt2 0 0
vt2 0 0
vt2 0 0
vt2 0 0
vt2 0 0
vt2 0 0
vt2 0 0
vt2 0 0
vt2 0 0
vt2 0 0
vt2 0 0
vt2 0 0
vt2 0 0
vt2 0 0
vt2 0 0
vt2 0 0
vt2 0 0
vt2 0 0
vt2 0 0
vt2 0 0
vt2 0 0
vt2 0 0
vt2 0 0
vt2 0 0
vt2 0 0
vt2 0 0
vt2 0 0
vt2 0 0
vt2 0 0
vt2 0 0
vt2 0 0

vc 1 1 1 1
vc 1 1 1 1
vc 1 1 1 1
vc 1 1 1 1
vc 1 1 1 1
vc 1 1 1 1
vc 1 1 1 1
vc 1 1 1 1
vc 1 1 1 1
vc 1 1 1 1
vc 1 1 1 1
vc 1 1 1 1
vc 1 1 1 1
vc 1 1 1 1
vc 1 1 1 1
vc 1 1 1 1
vc 1 1 1 1
vc 1 1 1 1
vc 1 1 1 1
vc 1 1 1 1
vc 1 1 1 1
vc 1 1 1 1
vc 1 1 1 1
vc 1 1 1 1
vc 1 1 1 1
vc 1 1 1 1
vc 1 1 1 1
vc 1 1 1 1
vc 1 1 1 1
vc 1 1 1 1
vc 1 1 1 1
vc 1 1 1 1
vc 1 1 1 1
vc 1 1 1 1
vc 1 1 1 1
vc 1 1 1 1
vc 1 1 1 1
vc 1 1 1 1
vc 1 1 1 1
vc 1 1 1 1
vc 1 1 1 1
vc 1 1 1 1
vc 1 1 1 1
vc 1 1 1 1
vc 1 1 1 1
vc 1 1 1 1
vc 1 1 1 1
vc 1 1 1 1
vc 1 1 1 1
vc 1 1 1 1
vc 1 1 1 1
vc 1 1 1 1
vc 1 1 1 1
vc 1 1 1 1
vc 1 1 1 1
vc 1 1 1 1
vc 1 1 1 1
vc 1 1 1 1
vc 1 1 1 1
vc 1 1 1 1
vc 1 1 1 1
vc 1 1 1 1
vc 1 1 1 1
vc 1 1 1 1
vc 1 1 1 1
vc 1 1 1 1
vc 1 1 1 1
vc 1 1 1 1
vc 1 1 1 1
vc 1 1 1 1
vc 1 1 1 1
vc 1 1 1 1
vc 1 1 1 1
vc 1 1 1 1
vc 1 1 1 1
vc 1 1 1 1
vc 1 1 1 1
vc 1 1 1 1
vc 1 1 1 1
vc 1 1 1 1
vc 1 1 1 1
vc 1 1 1 1
vc 1 1 1 1
vc 1 1 1 1
vc 1 1 1 1
vc 1 1 1 1
vc 1 1 1 1
vc 1 1 1 1
vc 1 1 1 1
vc 1 1 1 1
vc 1 1 1 1
vc 1 1 1 1
vc 1 1 1 1
vc 1 1 1 1
vc 1 1 1 1
vc 1 1 1 1
vc 1 1 1 1
vc 1 1 1 1
vc 1 1 1 1
vc 1 1 1 1
vc 1 1 1 1
vc 1 1 1 1
vc 1 1 1 1
vc 1 1 1 1
vc 1 1 1 1
vc 1 1 1 1
vc 1 1 1 1
vc 1 1 1 1
vc 1 1 1 1
vc 1 1 1 1
vc 1 1 1 1
vc 1 1 1 1
vc 1 1 1 1
vc 1 1 1 1
vc 1 1 1 1
vc 1 1 1 1
vc 1 1 1 1
vc 1 1 1 1
vc 1 1 1 1
vc 1 1 1 1
vc 1 1 1 1
vc 1 1 1 1
vc 1 1 1 1
vc 1 1 1 1
vc 1 1 1 1
vc 1 1 1 1
vc 1 1 1 1
vc 1 1 1 1
vc 1 1 1 1
vc 1 1 1 1
vc 1 1 1 1
vc 1 1 1 1
vc 1 1 1 1
vc 1 1 1 1
vc 1 1 1 1
vc 1 1 1 1
vc 1 1 1 1
vc 1 1 1 1
vc 1 1 1 1
vc 1 1 1 1
vc 1 1 1 1
vc 1 1 1 1
vc 1 1 1 1
vc 1 1 1 1
f 1/1/1 3/3/3 2/2/2
f 1/1/1 2/2/2 4/4/4
f 5/5/5 7/7/7 6/6/6
f 5/5/5 6/6/6 8/8/8
f 9/9/9 11/11/11 10/10/10
f 9/9/9 10/10/10 12/12/12
f 13/13/13 15/15/15 14/14/14
f 13/13/13 14/14/14 16/16/16
f 17/17/17 19/19/19 18/18/18
f 17/17/17 18/18/18 20/20/20
f 21/21/21 23/23/23 22/22/22
f 21/21/21 22/22/22 24/24/24
f 25/25/25 27/27/27 26/26/26
f 25/25/25 26/26/26 28/28/28
f 29/29/29 31/31/31 30/30/30
f 29/29/29 30/30/30 32/32/32
f 33/33/33 35/35/35 34/34/34
f 33/33/33 34/34/34 36/36/36
f 37/37/37 39/39/39 38/38/38
f 37/37/37 38/38/38 40/40/40
f 41/41/41 43/43/43 42/42/42
f 41/41/41 42/42/42 44/44/44
f 45/45/45 47/47/47 46/46/46
f 45/45/45 46/46/46 48/48/48
f 49/49/49 51/51/51 50/50/50
f 49/49/49 50/50/50 52/52/52
f 53/53/53 55/55/55 54/54/54
f 53/53/53 54/54/54 56/56/56
f 57/57/57 59/59/59 58/58/58
f 57/57/57 58/58/58 60/60/60
f 61/61/61 63/63/63 62/62/62
f 61/61/61 62/62/62 64/64/64
f 65/65/65 67/67/67 66/66/66
f 65/65/65 66/66/66 68/68/68
f 69/69/69 71/71/71 70/70/70
f 69/69/69 70/70/70 72/72/72
f 73/73/73 74/74/74 75/75/75
f 73/73/73 76/76/76 74/74/74
f 77/77/77 78/78/78 79/79/79
f 77/77/77 80/80/80 78/78/78
f 81/81/81 82/82/82 83/83/83
f 81/81/81 84/84/84 82/82/82
f 85/85/85 86/86/86 87/87/87
f 85/85/85 88/88/88 86/86/86
f 89/89/89 90/90/90 91/91/91
f 89/89/89 92/92/92 90/90/90
f 93/93/93 94/94/94 95/95/95
f 93/93/93 96/96/96 94/94/94
f 97/97/97 99/99/99 98/98/98
f 97/97/97 98/98/98 100/100/100
f 101/101/101 103/103/103 102/102/102
f 101/101/101 102/102/102 104/104/104
f 105/105/105 107/107/107 106/106/106
f 105/105/105 106/106/106 108/108/108
f 109/109/109 111/111/111 110/110/110
f 109/109/109 110/110/110 112/112/112
f 113/113/113 115/115/115 114/114/114
f 113/113/113 114/114/114 116/116/116
f 117/117/117 119/119/119 118/118/118
f 117/117/117 118/118/118 120/120/120
f 121/121/121 123/123/123 122/122/122
f 121/121/121 122/122/122 124/124/124
f 125/125/125 127/127/127 126/126/126
f 125/125/125 126/126/126 128/128/128
f 129/129/129 131/131/131 130/130/130
f 129/129/129 130/130/130 132/132/132
f 133/133/133 135/135/135 134/134/134
f 133/133/133 134/134/134 136/136/136
f 137/137/137 139/139/139 138/138/138
f 137/137/137 138/138/138 140/140/140
f 141/141/141 143/143/143 142/142/142
f 141/141/141 142/142/142 144/144/144

