g Exported Mesh Combined Mesh 
v 0.3412873 0.3658204 -0.4999996
v -0.3412846 -0.3658213 -0.5000006
v 0.3658214 0.3412864 -0.4999995
v -0.3658186 -0.3412873 -0.5000007
v 0.3658214 0.3412864 -0.4999995
v -0.3412873 -0.3658204 0.4999996
v 0.3658186 0.3412873 0.5000007
v -0.3412846 -0.3658213 -0.5000006
v 0.3658186 0.3412873 0.5000007
v -0.3658214 -0.3412864 0.4999995
v 0.3412846 0.3658213 0.5000006
v -0.3412873 -0.3658204 0.4999996
v 0.3412846 0.3658213 0.5000006
v -0.3658186 -0.3412873 -0.5000007
v 0.3412873 0.3658204 -0.4999996
v -0.3658214 -0.3412864 0.4999995
v -0.3658186 -0.3412873 -0.5000007
v -0.3412873 -0.3658204 0.4999996
v -0.3412846 -0.3658213 -0.5000006
v -0.3658214 -0.3412864 0.4999995
v 0.3412846 0.3658213 0.5000006
v 0.3658214 0.3412864 -0.4999995
v 0.3658186 0.3412873 0.5000007
v 0.3412873 0.3658204 -0.4999996
v 0.3412843 0.3658213 0.6011978
v -0.3412876 -0.3658204 0.6011968
v 0.3658184 0.3412873 0.6011979
v -0.3658217 -0.3412863 0.6011967
v 0.3658184 0.3412873 0.6011979
v -0.3412904 -0.3658195 1.601197
v 0.3658156 0.3412881 1.601198
v -0.3412876 -0.3658204 0.6011968
v 0.3658156 0.3412881 1.601198
v -0.3658245 -0.3412855 1.601197
v 0.3412815 0.3658222 1.601198
v -0.3412904 -0.3658195 1.601197
v 0.3412815 0.3658222 1.601198
v -0.3658217 -0.3412863 0.6011967
v 0.3412843 0.3658213 0.6011978
v -0.3658245 -0.3412855 1.601197
v -0.3658217 -0.3412863 0.6011967
v -0.3412904 -0.3658195 1.601197
v -0.3412876 -0.3658204 0.6011968
v -0.3658245 -0.3412855 1.601197
v 0.3412815 0.3658222 1.601198
v 0.3658184 0.3412873 0.6011979
v 0.3658156 0.3412881 1.601198
v 0.3412843 0.3658213 0.6011978
v 0.4597969 0.2842071 1.603851
v 0.3183753 0.4256287 1.803851
v 0.3183756 0.4256287 1.603851
v 0.4597965 0.2842071 1.803851
v 0.3183756 0.4256287 1.603851
v -0.4311588 -0.3239039 1.803849
v -0.4311584 -0.3239039 1.603849
v 0.3183753 0.4256287 1.803851
v -0.4311584 -0.3239039 1.603849
v -0.2897375 -0.4653255 1.803849
v -0.2897371 -0.4653255 1.603849
v -0.4311588 -0.3239039 1.803849
v -0.2897371 -0.4653255 1.603849
v 0.4597965 0.2842071 1.803851
v 0.4597969 0.2842071 1.603851
v -0.2897375 -0.4653255 1.803849
v 0.4597965 0.2842071 1.803851
v -0.4311588 -0.3239039 1.803849
v 0.3183753 0.4256287 1.803851
v -0.2897375 -0.4653255 1.803849
v -0.2897371 -0.4653255 1.603849
v 0.3183756 0.4256287 1.603851
v -0.4311584 -0.3239039 1.603849
v 0.4597969 0.2842071 1.603851
v 0.5183833 0.2256169 -0.7301479
v 0.3183831 0.4256169 -0.7301486
v 0.5183833 0.4256169 -0.7301479
v 0.3183831 0.2256168 -0.7301486
v 0.5183833 0.4256169 -0.7301479
v 0.3183783 0.4256169 0.495053
v 0.5183784 0.4256169 0.4950537
v 0.3183831 0.4256169 -0.7301486
v 0.5183784 0.4256169 0.4950537
v 0.3183783 0.2256168 0.495053
v 0.5183785 0.2256169 0.4950538
v 0.3183783 0.4256169 0.495053
v 0.5183785 0.2256169 0.4950538
v 0.3183831 0.2256168 -0.7301486
v 0.5183833 0.2256169 -0.7301479
v 0.3183783 0.2256168 0.495053
v 0.3183831 0.2256168 -0.7301486
v 0.3183783 0.4256169 0.495053
v 0.3183831 0.4256169 -0.7301486
v 0.3183783 0.2256168 0.495053
v 0.5183785 0.2256169 0.4950538
v 0.5183833 0.4256169 -0.7301479
v 0.5183784 0.4256169 0.4950537
v 0.5183833 0.2256169 -0.7301479
v 0.4597998 0.2842031 0.4652723
v 0.3183781 0.4256246 0.6652721
v 0.3183785 0.4256246 0.4652721
v 0.4597995 0.2842031 0.6652724
v 0.3183785 0.4256246 0.4652721
v -0.4311555 -0.3239085 0.6652706
v -0.4311551 -0.3239084 0.4652705
v 0.3183781 0.4256246 0.6652721
v -0.4311551 -0.3239084 0.4652705
v -0.2897341 -0.46533 0.6652708
v -0.2897338 -0.4653299 0.4652708
v -0.4311555 -0.3239085 0.6652706
v -0.2897338 -0.4653299 0.4652708
v 0.4597995 0.2842031 0.6652724
v 0.4597998 0.2842031 0.4652723
v -0.2897341 -0.46533 0.6652708
v 0.4597995 0.2842031 0.6652724
v -0.4311555 -0.3239085 0.6652706
v 0.3183781 0.4256246 0.6652721
v -0.2897341 -0.46533 0.6652708
v -0.2897338 -0.4653299 0.4652708
v 0.3183785 0.4256246 0.4652721
v -0.4311551 -0.3239084 0.4652705
v 0.4597998 0.2842031 0.4652723
v 0.3183784 0.4256174 0.495101
v 0.5183789 0.2256179 0.4951017
v 0.5183784 0.4256179 0.4951012
v 0.3183789 0.2256174 0.4951015
v 0.5183784 0.4256179 0.4951012
v 0.5183769 0.2256209 1.856437
v 0.5183764 0.425621 1.856436
v 0.5183789 0.2256179 0.4951017
v 0.5183764 0.425621 1.856436
v 0.3183769 0.2256205 1.856436
v 0.3183764 0.4256205 1.856436
v 0.5183769 0.2256209 1.856437
v 0.3183764 0.4256205 1.856436
v 0.3183789 0.2256174 0.4951015
v 0.3183784 0.4256174 0.495101
v 0.3183769 0.2256205 1.856436
v 0.3183789 0.2256174 0.4951015
v 0.5183769 0.2256209 1.856437
v 0.5183789 0.2256179 0.4951017
v 0.3183769 0.2256205 1.856436
v 0.3183764 0.4256205 1.856436
v 0.5183784 0.4256179 0.4951012
v 0.5183764 0.425621 1.856436
v 0.3183784 0.4256174 0.495101

vn 2.528812E-06 -9.693742E-07 -1
vn 2.528812E-06 -9.693742E-07 -1
vn 2.528812E-06 -9.693742E-07 -1
vn 2.528812E-06 -9.693742E-07 -1
vn 0.7071077 -0.7071059 2.570959E-06
vn 0.7071077 -0.7071059 2.570959E-06
vn 0.7071077 -0.7071059 2.570959E-06
vn 0.7071077 -0.7071059 2.570959E-06
vn -2.528812E-06 9.693742E-07 1
vn -2.528812E-06 9.693742E-07 1
vn -2.528812E-06 9.693742E-07 1
vn -2.528812E-06 9.693742E-07 1
vn -0.7071077 0.7071059 -2.570959E-06
vn -0.7071077 0.7071059 -2.570959E-06
vn -0.7071077 0.7071059 -2.570959E-06
vn -0.7071077 0.7071059 -2.570959E-06
vn -0.7071061 -0.7071075 -1.348696E-06
vn -0.7071061 -0.7071075 -1.348696E-06
vn -0.7071061 -0.7071075 -1.348696E-06
vn -0.7071061 -0.7071075 -1.348696E-06
vn 0.7071061 0.7071075 1.348696E-06
vn 0.7071061 0.7071075 1.348696E-06
vn 0.7071061 0.7071075 1.348696E-06
vn 0.7071061 0.7071075 1.348696E-06
vn 2.528812E-06 -9.693742E-07 -1
vn 2.528812E-06 -9.693742E-07 -1
vn 2.528812E-06 -9.693742E-07 -1
vn 2.528812E-06 -9.693742E-07 -1
vn 0.7071077 -0.7071059 2.570959E-06
vn 0.7071077 -0.7071059 2.570959E-06
vn 0.7071077 -0.7071059 2.570959E-06
vn 0.7071077 -0.7071059 2.570959E-06
vn -2.528812E-06 9.693742E-07 1
vn -2.528812E-06 9.693742E-07 1
vn -2.528812E-06 9.693742E-07 1
vn -2.528812E-06 9.693742E-07 1
vn -0.7071077 0.7071059 -2.570959E-06
vn -0.7071077 0.7071059 -2.570959E-06
vn -0.7071077 0.7071059 -2.570959E-06
vn -0.7071077 0.7071059 -2.570959E-06
vn -0.7071061 -0.7071075 -1.348696E-06
vn -0.7071061 -0.7071075 -1.348696E-06
vn -0.7071061 -0.7071075 -1.348696E-06
vn -0.7071061 -0.7071075 -1.348696E-06
vn 0.7071061 0.7071075 1.348696E-06
vn 0.7071061 0.7071075 1.348696E-06
vn 0.7071061 0.7071075 1.348696E-06
vn 0.7071061 0.7071075 1.348696E-06
vn 0.7071075 0.707106 1.408303E-06
vn 0.7071075 0.707106 1.408303E-06
vn 0.7071075 0.707106 1.408303E-06
vn 0.7071075 0.707106 1.408303E-06
vn -0.7071061 0.7071074 -1.26529E-06
vn -0.7071061 0.7071074 -1.26529E-06
vn -0.7071061 0.7071074 -1.26529E-06
vn -0.7071061 0.7071074 -1.26529E-06
vn -0.7071075 -0.707106 -1.408303E-06
vn -0.7071075 -0.707106 -1.408303E-06
vn -0.7071075 -0.707106 -1.408303E-06
vn -0.7071075 -0.707106 -1.408303E-06
vn 0.7071061 -0.7071074 1.26529E-06
vn 0.7071061 -0.7071074 1.26529E-06
vn 0.7071061 -0.7071074 1.26529E-06
vn 0.7071061 -0.7071074 1.26529E-06
vn -1.858449E-06 -2.06753E-07 1
vn -1.858449E-06 -2.06753E-07 1
vn -1.858449E-06 -2.06753E-07 1
vn -1.858449E-06 -2.06753E-07 1
vn 1.858449E-06 2.06753E-07 -1
vn 1.858449E-06 2.06753E-07 -1
vn 1.858449E-06 2.06753E-07 -1
vn 1.858449E-06 2.06753E-07 -1
vn 3.692924E-06 -1.092772E-07 -1
vn 3.692924E-06 -1.092772E-07 -1
vn 3.692924E-06 -1.092772E-07 -1
vn 3.692924E-06 -1.092772E-07 -1
vn -1.192092E-07 1 -4.170542E-09
vn -1.192092E-07 1 -4.170542E-09
vn -1.192092E-07 1 -4.170542E-09
vn -1.192092E-07 1 -4.170542E-09
vn -3.692924E-06 1.092772E-07 1
vn -3.692924E-06 1.092772E-07 1
vn -3.692924E-06 1.092772E-07 1
vn -3.692924E-06 1.092772E-07 1
vn 1.192092E-07 -1 4.170542E-09
vn 1.192092E-07 -1 4.170542E-09
vn 1.192092E-07 -1 4.170542E-09
vn 1.192092E-07 -1 4.170542E-09
vn -1 -2.384189E-07 -3.935728E-06
vn -1 -2.384189E-07 -3.935728E-06
vn -1 -2.384189E-07 -3.935728E-06
vn -1 -2.384189E-07 -3.935728E-06
vn 1 2.384189E-07 3.935728E-06
vn 1 2.384189E-07 3.935728E-06
vn 1 2.384189E-07 3.935728E-06
vn 1 2.384189E-07 3.935728E-06
vn 0.7071071 0.7071064 1.408303E-06
vn 0.7071071 0.7071064 1.408303E-06
vn 0.7071071 0.7071064 1.408303E-06
vn 0.7071071 0.7071064 1.408303E-06
vn -0.7071065 0.707107 -1.265291E-06
vn -0.7071065 0.707107 -1.265291E-06
vn -0.7071065 0.707107 -1.265291E-06
vn -0.7071065 0.707107 -1.265291E-06
vn -0.7071071 -0.7071064 -1.408303E-06
vn -0.7071071 -0.7071064 -1.408303E-06
vn -0.7071071 -0.7071064 -1.408303E-06
vn -0.7071071 -0.7071064 -1.408303E-06
vn 0.7071065 -0.707107 1.265291E-06
vn 0.7071065 -0.707107 1.265291E-06
vn 0.7071065 -0.707107 1.265291E-06
vn 0.7071065 -0.707107 1.265291E-06
vn -1.858448E-06 -2.067523E-07 1
vn -1.858448E-06 -2.067523E-07 1
vn -1.858448E-06 -2.067523E-07 1
vn -1.858448E-06 -2.067523E-07 1
vn 1.858448E-06 2.067523E-07 -1
vn 1.858448E-06 2.067523E-07 -1
vn 1.858448E-06 2.067523E-07 -1
vn 1.858448E-06 2.067523E-07 -1
vn 1.232807E-06 -2.363228E-06 -1
vn 1.232807E-06 -2.363228E-06 -1
vn 1.232807E-06 -2.363228E-06 -1
vn 1.232807E-06 -2.363228E-06 -1
vn 1 2.563002E-06 1.475605E-06
vn 1 2.563002E-06 1.475605E-06
vn 1 2.563002E-06 1.475605E-06
vn 1 2.563002E-06 1.475605E-06
vn -1.232807E-06 2.363228E-06 1
vn -1.232807E-06 2.363228E-06 1
vn -1.232807E-06 2.363228E-06 1
vn -1.232807E-06 2.363228E-06 1
vn -1 -2.563002E-06 -1.475605E-06
vn -1 -2.563002E-06 -1.475605E-06
vn -1 -2.563002E-06 -1.475605E-06
vn -1 -2.563002E-06 -1.475605E-06
vn 2.413985E-06 -1 2.258125E-06
vn 2.413985E-06 -1 2.258125E-06
vn 2.413985E-06 -1 2.258125E-06
vn 2.413985E-06 -1 2.258125E-06
vn -2.413985E-06 1 -2.258125E-06
vn -2.413985E-06 1 -2.258125E-06
vn -2.413985E-06 1 -2.258125E-06
vn -2.413985E-06 1 -2.258125E-06

vt 0.2500815 0.000163
vt 0.2750655 0.499837
vt 0.275065 0.000163
vt 0.2500815 0.499837
vt 0.0052795 0.455216
vt 0.2679205 0.986755
vt 0.003715 0.983626
vt 0.2694845 0.458345
vt 0.3269455 0.000163
vt 0.301962 0.499837
vt 0.301962 0.000163
vt 0.326946 0.499837
vt 0.004495 0.984682
vt 0.268705 0.456262
vt 0.004495 0.456262
vt 0.268705 0.984682
vt 0.4999185 0.500163
vt 0.2500815 0.550131
vt 0.4999185 0.550131
vt 0.2500815 0.500163
vt 0.301212 0.499337
vt 0.2762285 -0.000337
vt 0.2762285 0.499337
vt 0.301212 -0.000337
vt 0.2500815 0.000163
vt 0.2750655 0.499837
vt 0.275065 0.000163
vt 0.2500815 0.499837
vt 0.0052795 0.455216
vt 0.2679205 0.986755
vt 0.003715 0.983626
vt 0.2694845 0.458345
vt 0.3269455 0.000163
vt 0.301962 0.499837
vt 0.301962 0.000163
vt 0.326946 0.499837
vt 0.004495 0.984682
vt 0.268705 0.456262
vt 0.004495 0.456262
vt 0.268705 0.984682
vt 0.4999185 0.500163
vt 0.2500815 0.550131
vt 0.4999185 0.550131
vt 0.2500815 0.500163
vt 0.301212 0.499337
vt 0.2762285 -0.000337
vt 0.2762285 0.499337
vt 0.301212 -0.000337
vt 0.820813 0.407566
vt 0.730831 0.58753
vt 0.820813 0.58753
vt 0.730831 0.407566
vt 0.5992455 0.008232
vt 0.5064015 0.992381
vt 0.5992455 0.992381
vt 0.5064015 0.008232
vt 0.8206845 0.407566
vt 0.730703 0.58753
vt 0.8206845 0.58753
vt 0.730703 0.407566
vt 0.5992335 0.00824
vt 0.506389 0.992389
vt 0.5992335 0.992389
vt 0.506389 0.00824
vt 0.7149865 0.992559
vt 0.622142 0.00841
vt 0.622142 0.992559
vt 0.7149865 0.00841
vt 0.6221585 0.008423
vt 0.7150025 0.992572
vt 0.7150025 0.008423
vt 0.6221585 0.992572
vt 0.820813 0.407566
vt 0.730831 0.58753
vt 0.820813 0.58753
vt 0.730831 0.407566
vt 0.5992455 0.008232
vt 0.5064015 0.992381
vt 0.5992455 0.992381
vt 0.5064015 0.008232
vt 0.8206845 0.407566
vt 0.730703 0.58753
vt 0.8206845 0.58753
vt 0.730703 0.407566
vt 0.5992335 0.00824
vt 0.506389 0.992389
vt 0.5992335 0.992389
vt 0.506389 0.00824
vt 0.7149865 0.992559
vt 0.622142 0.00841
vt 0.622142 0.992559
vt 0.7149865 0.00841
vt 0.6221585 0.008423
vt 0.7150025 0.992572
vt 0.7150025 0.008423
vt 0.6221585 0.992572
vt 0.820813 0.407566
vt 0.730831 0.58753
vt 0.820813 0.58753
vt 0.730831 0.407566
vt 0.5992455 0.008232
vt 0.5064015 0.992381
vt 0.5992455 0.992381
vt 0.5064015 0.008232
vt 0.8206845 0.407566
vt 0.730703 0.58753
vt 0.8206845 0.58753
vt 0.730703 0.407566
vt 0.5992335 0.00824
vt 0.506389 0.992389
vt 0.5992335 0.992389
vt 0.506389 0.00824
vt 0.7149865 0.992559
vt 0.622142 0.00841
vt 0.622142 0.992559
vt 0.7149865 0.00841
vt 0.6221585 0.008423
vt 0.7150025 0.992572
vt 0.7150025 0.008423
vt 0.6221585 0.992572
vt 0.820813 0.407566
vt 0.730831 0.58753
vt 0.820813 0.58753
vt 0.730831 0.407566
vt 0.5992455 0.008232
vt 0.5064015 0.992381
vt 0.5992455 0.992381
vt 0.5064015 0.008232
vt 0.8206845 0.407566
vt 0.730703 0.58753
vt 0.8206845 0.58753
vt 0.730703 0.407566
vt 0.5992335 0.00824
vt 0.506389 0.992389
vt 0.5992335 0.992389
vt 0.506389 0.00824
vt 0.7149865 0.992559
vt 0.622142 0.00841
vt 0.622142 0.992559
vt 0.7149865 0.00841
vt 0.6221585 0.008423
vt 0.7150025 0.992572
vt 0.7150025 0.008423
vt 0.6221585 0.992572

vt1 0 0
vt1 0 0
vt1 0 0
vt1 0 0
vt1 0 0
vt1 0 0
vt1 0 0
vt1 0 0
vt1 0 0
vt1 0 0
vt1 0 0
vt1 0 0
vt1 0 0
vt1 0 0
vt1 0 0
vt1 0 0
vt1 0 0
vt1 0 0
vt1 0 0
vt1 0 0
vt1 0 0
vt1 0 0
vt1 0 0
vt1 0 0
vt1 0 0
vt1 0 0
vt1 0 0
vt1 0 0
vt1 0 0
vt1 0 0
vt1 0 0
vt1 0 0
vt1 0 0
vt1 0 0
vt1 0 0
vt1 0 0
vt1 0 0
vt1 0 0
vt1 0 0
vt1 0 0
vt1 0 0
vt1 0 0
vt1 0 0
vt1 0 0
vt1 0 0
vt1 0 0
vt1 0 0
vt1 0 0
vt1 0 0
vt1 0 0
vt1 0 0
vt1 0 0
vt1 0 0
vt1 0 0
vt1 0 0
vt1 0 0
vt1 0 0
vt1 0 0
vt1 0 0
vt1 0 0
vt1 0 0
vt1 0 0
vt1 0 0
vt1 0 0
vt1 0 0
vt1 0 0
vt1 0 0
vt1 0 0
vt1 0 0
vt1 0 0
vt1 0 0
vt1 0 0
vt1 0 0
vt1 0 0
vt1 0 0
vt1 0 0
vt1 0 0
vt1 0 0
vt1 0 0
vt1 0 0
vt1 0 0
vt1 0 0
vt1 0 0
vt1 0 0
vt1 0 0
vt1 0 0
vt1 0 0
vt1 0 0
vt1 0 0
vt1 0 0
vt1 0 0
vt1 0 0
vt1 0 0
vt1 0 0
vt1 0 0
vt1 0 0
vt1 0 0
vt1 0 0
vt1 0 0
vt1 0 0
vt1 0 0
vt1 0 0
vt1 0 0
vt1 0 0
vt1 0 0
vt1 0 0
vt1 0 0
vt1 0 0
vt1 0 0
vt1 0 0
vt1 0 0
vt1 0 0
vt1 0 0
vt1 0 0
vt1 0 0
vt1 0 0
vt1 0 0
vt1 0 0
vt1 0 0
vt1 0 0
vt1 0 0
vt1 0 0
vt1 0 0
vt1 0 0
vt1 0 0
vt1 0 0
vt1 0 0
vt1 0 0
vt1 0 0
vt1 0 0
vt1 0 0
vt1 0 0
vt1 0 0
vt1 0 0
vt1 0 0
vt1 0 0
vt1 0 0
vt1 0 0
vt1 0 0
vt1 0 0
vt1 0 0
vt1 0 0
vt1 0 0
vt1 0 0

vt2 0 0
vt2 0 0
vt2 0 0
vt2 0 0
vt2 0 0
vt2 0 0
vt2 0 0
vt2 0 0
vt2 0 0
vt2 0 0
vt2 0 0
vt2 0 0
vt2 0 0
vt2 0 0
vt2 0 0
vt2 0 0
vt2 0 0
vt2 0 0
vt2 0 0
vt2 0 0
vt2 0 0
vt2 0 0
vt2 0 0
vt2 0 0
vt2 0 0
vt2 0 0
vt2 0 0
vt2 0 0
vt2 0 0
vt2 0 0
vt2 0 0
vt2 0 0
vt2 0 0
vt2 0 0
vt2 0 0
vt2 0 0
vt2 0 0
vt2 0 0
vt2 0 0
vt2 0 0
vt2 0 0
vt2 0 0
vt2 0 0
vt2 0 0
vt2 0 0
vt2 0 0
vt2 0 0
vt2 0 0
vt2 0 0
vt2 0 0
vt2 0 0
vt2 0 0
vt2 0 0
vt2 0 0
vt2 0 0
vt2 0 0
vt2 0 0
vt2 0 0
vt2 0 0
vt2 0 0
vt2 0 0
vt2 0 0
vt2 0 0
vt2 0 0
vt2 0 0
vt2 0 0
vt2 0 0
vt2 0 0
vt2 0 0
vt2 0 0
vt2 0 0
vt2 0 0
vt2 0 0
vt2 0 0
vt2 0 0
vt2 0 0
vt2 0 0
vt2 0 0
vt2 0 0
vt2 0 0
vt2 0 0
vt2 0 0
vt2 0 0
vt2 0 0
vt2 0 0
vt2 0 0
vt2 0 0
vt2 0 0
vt2 0 0
vt2 0 0
vt2 0 0
vt2 0 0
vt2 0 0
vt2 0 0
vt2 0 0
vt2 0 0
vt2 0 0
vt2 0 0
vt2 0 0
vt2 0 0
vt2 0 0
vt2 0 0
vt2 0 0
vt2 0 0
vt2 0 0
vt2 0 0
vt2 0 0
vt2 0 0
vt2 0 0
vt2 0 0
vt2 0 0
vt2 0 0
vt2 0 0
vt2 0 0
vt2 0 0
vt2 0 0
vt2 0 0
vt2 0 0
vt2 0 0
vt2 0 0
vt2 0 0
vt2 0 0
vt2 0 0
vt2 0 0
vt2 0 0
vt2 0 0
vt2 0 0
vt2 0 0
vt2 0 0
vt2 0 0
vt2 0 0
vt2 0 0
vt2 0 0
vt2 0 0
vt2 0 0
vt2 0 0
vt2 0 0
vt2 0 0
vt2 0 0
vt2 0 0
vt2 0 0
vt2 0 0
vt2 0 0
vt2 0 0

vc 1 1 1 1
vc 1 1 1 1
vc 1 1 1 1
vc 1 1 1 1
vc 1 1 1 1
vc 1 1 1 1
vc 1 1 1 1
vc 1 1 1 1
vc 1 1 1 1
vc 1 1 1 1
vc 1 1 1 1
vc 1 1 1 1
vc 1 1 1 1
vc 1 1 1 1
vc 1 1 1 1
vc 1 1 1 1
vc 1 1 1 1
vc 1 1 1 1
vc 1 1 1 1
vc 1 1 1 1
vc 1 1 1 1
vc 1 1 1 1
vc 1 1 1 1
vc 1 1 1 1
vc 1 1 1 1
vc 1 1 1 1
vc 1 1 1 1
vc 1 1 1 1
vc 1 1 1 1
vc 1 1 1 1
vc 1 1 1 1
vc 1 1 1 1
vc 1 1 1 1
vc 1 1 1 1
vc 1 1 1 1
vc 1 1 1 1
vc 1 1 1 1
vc 1 1 1 1
vc 1 1 1 1
vc 1 1 1 1
vc 1 1 1 1
vc 1 1 1 1
vc 1 1 1 1
vc 1 1 1 1
vc 1 1 1 1
vc 1 1 1 1
vc 1 1 1 1
vc 1 1 1 1
vc 1 1 1 1
vc 1 1 1 1
vc 1 1 1 1
vc 1 1 1 1
vc 1 1 1 1
vc 1 1 1 1
vc 1 1 1 1
vc 1 1 1 1
vc 1 1 1 1
vc 1 1 1 1
vc 1 1 1 1
vc 1 1 1 1
vc 1 1 1 1
vc 1 1 1 1
vc 1 1 1 1
vc 1 1 1 1
vc 1 1 1 1
vc 1 1 1 1
vc 1 1 1 1
vc 1 1 1 1
vc 1 1 1 1
vc 1 1 1 1
vc 1 1 1 1
vc 1 1 1 1
vc 1 1 1 1
vc 1 1 1 1
vc 1 1 1 1
vc 1 1 1 1
vc 1 1 1 1
vc 1 1 1 1
vc 1 1 1 1
vc 1 1 1 1
vc 1 1 1 1
vc 1 1 1 1
vc 1 1 1 1
vc 1 1 1 1
vc 1 1 1 1
vc 1 1 1 1
vc 1 1 1 1
vc 1 1 1 1
vc 1 1 1 1
vc 1 1 1 1
vc 1 1 1 1
vc 1 1 1 1
vc 1 1 1 1
vc 1 1 1 1
vc 1 1 1 1
vc 1 1 1 1
vc 1 1 1 1
vc 1 1 1 1
vc 1 1 1 1
vc 1 1 1 1
vc 1 1 1 1
vc 1 1 1 1
vc 1 1 1 1
vc 1 1 1 1
vc 1 1 1 1
vc 1 1 1 1
vc 1 1 1 1
vc 1 1 1 1
vc 1 1 1 1
vc 1 1 1 1
vc 1 1 1 1
vc 1 1 1 1
vc 1 1 1 1
vc 1 1 1 1
vc 1 1 1 1
vc 1 1 1 1
vc 1 1 1 1
vc 1 1 1 1
vc 1 1 1 1
vc 1 1 1 1
vc 1 1 1 1
vc 1 1 1 1
vc 1 1 1 1
vc 1 1 1 1
vc 1 1 1 1
vc 1 1 1 1
vc 1 1 1 1
vc 1 1 1 1
vc 1 1 1 1
vc 1 1 1 1
vc 1 1 1 1
vc 1 1 1 1
vc 1 1 1 1
vc 1 1 1 1
vc 1 1 1 1
vc 1 1 1 1
vc 1 1 1 1
vc 1 1 1 1
vc 1 1 1 1
vc 1 1 1 1
vc 1 1 1 1
vc 1 1 1 1
vc 1 1 1 1
vc 1 1 1 1
f 1/1/1 3/3/3 2/2/2
f 1/1/1 2/2/2 4/4/4
f 5/5/5 7/7/7 6/6/6
f 5/5/5 6/6/6 8/8/8
f 9/9/9 11/11/11 10/10/10
f 9/9/9 10/10/10 12/12/12
f 13/13/13 15/15/15 14/14/14
f 13/13/13 14/14/14 16/16/16
f 17/17/17 19/19/19 18/18/18
f 17/17/17 18/18/18 20/20/20
f 21/21/21 23/23/23 22/22/22
f 21/21/21 22/22/22 24/24/24
f 25/25/25 27/27/27 26/26/26
f 25/25/25 26/26/26 28/28/28
f 29/29/29 31/31/31 30/30/30
f 29/29/29 30/30/30 32/32/32
f 33/33/33 35/35/35 34/34/34
f 33/33/33 34/34/34 36/36/36
f 37/37/37 39/39/39 38/38/38
f 37/37/37 38/38/38 40/40/40
f 41/41/41 43/43/43 42/42/42
f 41/41/41 42/42/42 44/44/44
f 45/45/45 47/47/47 46/46/46
f 45/45/45 46/46/46 48/48/48
f 49/49/49 51/51/51 50/50/50
f 49/49/49 50/50/50 52/52/52
f 53/53/53 55/55/55 54/54/54
f 53/53/53 54/54/54 56/56/56
f 57/57/57 59/59/59 58/58/58
f 57/57/57 58/58/58 60/60/60
f 61/61/61 63/63/63 62/62/62
f 61/61/61 62/62/62 64/64/64
f 65/65/65 67/67/67 66/66/66
f 65/65/65 66/66/66 68/68/68
f 69/69/69 71/71/71 70/70/70
f 69/69/69 70/70/70 72/72/72
f 73/73/73 74/74/74 75/75/75
f 73/73/73 76/76/76 74/74/74
f 77/77/77 78/78/78 79/79/79
f 77/77/77 80/80/80 78/78/78
f 81/81/81 82/82/82 83/83/83
f 81/81/81 84/84/84 82/82/82
f 85/85/85 86/86/86 87/87/87
f 85/85/85 88/88/88 86/86/86
f 89/89/89 90/90/90 91/91/91
f 89/89/89 92/92/92 90/90/90
f 93/93/93 94/94/94 95/95/95
f 93/93/93 96/96/96 94/94/94
f 97/97/97 99/99/99 98/98/98
f 97/97/97 98/98/98 100/100/100
f 101/101/101 103/103/103 102/102/102
f 101/101/101 102/102/102 104/104/104
f 105/105/105 107/107/107 106/106/106
f 105/105/105 106/106/106 108/108/108
f 109/109/109 111/111/111 110/110/110
f 109/109/109 110/110/110 112/112/112
f 113/113/113 115/115/115 114/114/114
f 113/113/113 114/114/114 116/116/116
f 117/117/117 119/119/119 118/118/118
f 117/117/117 118/118/118 120/120/120
f 121/121/121 123/123/123 122/122/122
f 121/121/121 122/122/122 124/124/124
f 125/125/125 127/127/127 126/126/126
f 125/125/125 126/126/126 128/128/128
f 129/129/129 131/131/131 130/130/130
f 129/129/129 130/130/130 132/132/132
f 133/133/133 135/135/135 134/134/134
f 133/133/133 134/134/134 136/136/136
f 137/137/137 139/139/139 138/138/138
f 137/137/137 138/138/138 140/140/140
f 141/141/141 143/143/143 142/142/142
f 141/141/141 142/142/142 144/144/144

