g Exported Mesh Combined Mesh 
v -0.2948808 0.05085289 -0.05369997
v -0.2948808 -0.05085289 0.05369993
v -0.2948808 -0.05085287 -0.05369999
v -0.2948808 0.05085287 0.05369995
v -0.2948808 -0.05085287 -0.05369999
v 0.2948808 -0.05085289 0.05369997
v 0.2948808 -0.05085287 -0.05369995
v -0.2948808 -0.05085289 0.05369993
v 0.2948808 -0.05085287 -0.05369995
v 0.2948808 0.05085287 0.05369999
v 0.2948808 0.05085289 -0.05369993
v 0.2948808 -0.05085289 0.05369997
v 0.2948808 0.05085289 -0.05369993
v -0.2948808 0.05085287 0.05369995
v -0.2948808 0.05085289 -0.05369997
v 0.2948808 0.05085287 0.05369999
v -0.2948808 0.05085287 0.05369995
v 0.2948808 -0.05085289 0.05369997
v -0.2948808 -0.05085289 0.05369993
v 0.2948808 0.05085287 0.05369999
v 0.2948808 0.05085289 -0.05369993
v -0.2948808 -0.05085287 -0.05369999
v 0.2948808 -0.05085287 -0.05369995
v -0.2948808 0.05085289 -0.05369997
v -0.1908 0.1398641 -0.07385293
v -0.1908 -0.03933589 -0.2338529
v -0.1908 0.1398641 -0.233853
v -0.1908 -0.03933589 -0.07385293
v -0.1908 0.1398641 -0.233853
v 0.1908 -0.03933591 -0.2338529
v 0.1908 0.1398641 -0.233853
v -0.1908 -0.03933589 -0.2338529
v 0.1908 0.1398641 -0.233853
v 0.1908 -0.03933591 -0.07385293
v 0.1908 0.1398641 -0.07385293
v 0.1908 -0.03933591 -0.2338529
v 0.1908 0.1398641 -0.07385293
v -0.1908 -0.03933589 -0.07385293
v -0.1908 0.1398641 -0.07385293
v 0.1908 -0.03933591 -0.07385293
v -0.1908 -0.03933589 -0.07385293
v 0.1908 -0.03933591 -0.2338529
v -0.1908 -0.03933589 -0.2338529
v 0.1908 -0.03933591 -0.07385293
v 0.1908 0.1398641 -0.07385293
v -0.1908 0.1398641 -0.233853
v 0.1908 0.1398641 -0.233853
v -0.1908 0.1398641 -0.07385293
v -0.24804 -0.04634577 -0.1675364
v -0.24804 0.09615356 -0.007536432
v -0.24804 -0.04634574 -0.0075364
v -0.2480401 0.09615353 -0.1675364
v -0.24804 -0.04634574 -0.0075364
v 0.2480401 0.09615365 -0.007536503
v 0.2480401 -0.04634564 -0.007536471
v -0.24804 0.09615356 -0.007536432
v 0.2480401 -0.04634564 -0.007536471
v 0.24804 0.09615362 -0.1675365
v 0.2480401 -0.04634567 -0.1675365
v 0.2480401 0.09615365 -0.007536503
v 0.2480401 -0.04634567 -0.1675365
v -0.2480401 0.09615353 -0.1675364
v -0.24804 -0.04634577 -0.1675364
v 0.24804 0.09615362 -0.1675365
v -0.2480401 0.09615353 -0.1675364
v 0.2480401 0.09615365 -0.007536503
v -0.24804 0.09615356 -0.007536432
v 0.24804 0.09615362 -0.1675365
v 0.2480401 -0.04634567 -0.1675365
v -0.24804 -0.04634574 -0.0075364
v 0.2480401 -0.04634564 -0.007536471
v -0.24804 -0.04634577 -0.1675364

vn -1 4.485496E-15 -5.937783E-08
vn -1 4.485496E-15 -5.937783E-08
vn -1 4.485496E-15 -5.937783E-08
vn -1 4.485496E-15 -5.937783E-08
vn 4.480576E-15 -1 -1.510003E-07
vn 4.480576E-15 -1 -1.510003E-07
vn 4.480576E-15 -1 -1.510003E-07
vn 4.480576E-15 -1 -1.510003E-07
vn 1 -4.485496E-15 5.937783E-08
vn 1 -4.485496E-15 5.937783E-08
vn 1 -4.485496E-15 5.937783E-08
vn 1 -4.485496E-15 5.937783E-08
vn -4.480576E-15 1 1.510003E-07
vn -4.480576E-15 1 1.510003E-07
vn -4.480576E-15 1 1.510003E-07
vn -4.480576E-15 1 1.510003E-07
vn -5.937784E-08 -1.510003E-07 1
vn -5.937784E-08 -1.510003E-07 1
vn -5.937784E-08 -1.510003E-07 1
vn -5.937784E-08 -1.510003E-07 1
vn 5.937784E-08 1.510003E-07 -1
vn 5.937784E-08 1.510003E-07 -1
vn 5.937784E-08 1.510003E-07 -1
vn 5.937784E-08 1.510003E-07 -1
vn -1 6.4965E-08 2.142831E-09
vn -1 6.4965E-08 2.142831E-09
vn -1 6.4965E-08 2.142831E-09
vn -1 6.4965E-08 2.142831E-09
vn 2.068186E-09 -3.782479E-08 -1
vn 2.068186E-09 -3.782479E-08 -1
vn 2.068186E-09 -3.782479E-08 -1
vn 2.068186E-09 -3.782479E-08 -1
vn 1 -6.4965E-08 -2.142831E-09
vn 1 -6.4965E-08 -2.142831E-09
vn 1 -6.4965E-08 -2.142831E-09
vn 1 -6.4965E-08 -2.142831E-09
vn -2.068186E-09 3.782479E-08 1
vn -2.068186E-09 3.782479E-08 1
vn -2.068186E-09 3.782479E-08 1
vn -2.068186E-09 3.782479E-08 1
vn -5.427118E-08 -1 1.833321E-08
vn -5.427118E-08 -1 1.833321E-08
vn -5.427118E-08 -1 1.833321E-08
vn -5.427118E-08 -1 1.833321E-08
vn 5.427118E-08 1 -1.833321E-08
vn 5.427118E-08 1 -1.833321E-08
vn 5.427118E-08 1 -1.833321E-08
vn 5.427118E-08 1 -1.833321E-08
vn -1 -2.301688E-07 1.585879E-07
vn -1 -2.301688E-07 1.585879E-07
vn -1 -2.301688E-07 1.585879E-07
vn -1 -2.301688E-07 1.585879E-07
vn 1.436683E-07 2.2665E-07 1
vn 1.436683E-07 2.2665E-07 1
vn 1.436683E-07 2.2665E-07 1
vn 1.436683E-07 2.2665E-07 1
vn 1 2.301688E-07 -1.585879E-07
vn 1 2.301688E-07 -1.585879E-07
vn 1 2.301688E-07 -1.585879E-07
vn 1 2.301688E-07 -1.585879E-07
vn -1.436683E-07 -2.2665E-07 -1
vn -1.436683E-07 -2.2665E-07 -1
vn -1.436683E-07 -2.2665E-07 -1
vn -1.436683E-07 -2.2665E-07 -1
vn -1.92281E-07 1 -1.876667E-07
vn -1.92281E-07 1 -1.876667E-07
vn -1.92281E-07 1 -1.876667E-07
vn -1.92281E-07 1 -1.876667E-07
vn 1.92281E-07 -1 1.876667E-07
vn 1.92281E-07 -1 1.876667E-07
vn 1.92281E-07 -1 1.876667E-07
vn 1.92281E-07 -1 1.876667E-07

vt 0.641626 0.407566
vt 0.461662 0.58753
vt 0.641626 0.58753
vt 0.461662 0.407566
vt 0.198491 0.008232
vt 0.012803 0.992381
vt 0.198491 0.992381
vt 0.012803 0.008232
vt 0.641369 0.407566
vt 0.461406 0.58753
vt 0.641369 0.58753
vt 0.461406 0.407566
vt 0.198467 0.00824
vt 0.012778 0.992389
vt 0.198467 0.992389
vt 0.012778 0.00824
vt 0.429973 0.992559
vt 0.244284 0.00841
vt 0.244284 0.992559
vt 0.429973 0.00841
vt 0.244317 0.008423
vt 0.430005 0.992572
vt 0.430005 0.008423
vt 0.244317 0.992572
vt 0.641626 0.407566
vt 0.461662 0.58753
vt 0.641626 0.58753
vt 0.461662 0.407566
vt 0.198491 0.008232
vt 0.012803 0.992381
vt 0.198491 0.992381
vt 0.012803 0.008232
vt 0.641369 0.407566
vt 0.461406 0.58753
vt 0.641369 0.58753
vt 0.461406 0.407566
vt 0.198467 0.00824
vt 0.012778 0.992389
vt 0.198467 0.992389
vt 0.012778 0.00824
vt 0.429973 0.992559
vt 0.244284 0.00841
vt 0.244284 0.992559
vt 0.429973 0.00841
vt 0.244317 0.008423
vt 0.430005 0.992572
vt 0.430005 0.008423
vt 0.244317 0.992572
vt 0.641626 0.407566
vt 0.461662 0.58753
vt 0.641626 0.58753
vt 0.461662 0.407566
vt 0.198491 0.008232
vt 0.012803 0.992381
vt 0.198491 0.992381
vt 0.012803 0.008232
vt 0.641369 0.407566
vt 0.461406 0.58753
vt 0.641369 0.58753
vt 0.461406 0.407566
vt 0.198467 0.00824
vt 0.012778 0.992389
vt 0.198467 0.992389
vt 0.012778 0.00824
vt 0.429973 0.992559
vt 0.244284 0.00841
vt 0.244284 0.992559
vt 0.429973 0.00841
vt 0.244317 0.008423
vt 0.430005 0.992572
vt 0.430005 0.008423
vt 0.244317 0.992572

vt1 0 0
vt1 0 0
vt1 0 0
vt1 0 0
vt1 0 0
vt1 0 0
vt1 0 0
vt1 0 0
vt1 0 0
vt1 0 0
vt1 0 0
vt1 0 0
vt1 0 0
vt1 0 0
vt1 0 0
vt1 0 0
vt1 0 0
vt1 0 0
vt1 0 0
vt1 0 0
vt1 0 0
vt1 0 0
vt1 0 0
vt1 0 0
vt1 0 0
vt1 0 0
vt1 0 0
vt1 0 0
vt1 0 0
vt1 0 0
vt1 0 0
vt1 0 0
vt1 0 0
vt1 0 0
vt1 0 0
vt1 0 0
vt1 0 0
vt1 0 0
vt1 0 0
vt1 0 0
vt1 0 0
vt1 0 0
vt1 0 0
vt1 0 0
vt1 0 0
vt1 0 0
vt1 0 0
vt1 0 0
vt1 0 0
vt1 0 0
vt1 0 0
vt1 0 0
vt1 0 0
vt1 0 0
vt1 0 0
vt1 0 0
vt1 0 0
vt1 0 0
vt1 0 0
vt1 0 0
vt1 0 0
vt1 0 0
vt1 0 0
vt1 0 0
vt1 0 0
vt1 0 0
vt1 0 0
vt1 0 0
vt1 0 0
vt1 0 0
vt1 0 0
vt1 0 0

vt2 0 0
vt2 0 0
vt2 0 0
vt2 0 0
vt2 0 0
vt2 0 0
vt2 0 0
vt2 0 0
vt2 0 0
vt2 0 0
vt2 0 0
vt2 0 0
vt2 0 0
vt2 0 0
vt2 0 0
vt2 0 0
vt2 0 0
vt2 0 0
vt2 0 0
vt2 0 0
vt2 0 0
vt2 0 0
vt2 0 0
vt2 0 0
vt2 0 0
vt2 0 0
vt2 0 0
vt2 0 0
vt2 0 0
vt2 0 0
vt2 0 0
vt2 0 0
vt2 0 0
vt2 0 0
vt2 0 0
vt2 0 0
vt2 0 0
vt2 0 0
vt2 0 0
vt2 0 0
vt2 0 0
vt2 0 0
vt2 0 0
vt2 0 0
vt2 0 0
vt2 0 0
vt2 0 0
vt2 0 0
vt2 0 0
vt2 0 0
vt2 0 0
vt2 0 0
vt2 0 0
vt2 0 0
vt2 0 0
vt2 0 0
vt2 0 0
vt2 0 0
vt2 0 0
vt2 0 0
vt2 0 0
vt2 0 0
vt2 0 0
vt2 0 0
vt2 0 0
vt2 0 0
vt2 0 0
vt2 0 0
vt2 0 0
vt2 0 0
vt2 0 0
vt2 0 0

vc 1 1 1 1
vc 1 1 1 1
vc 1 1 1 1
vc 1 1 1 1
vc 1 1 1 1
vc 1 1 1 1
vc 1 1 1 1
vc 1 1 1 1
vc 1 1 1 1
vc 1 1 1 1
vc 1 1 1 1
vc 1 1 1 1
vc 1 1 1 1
vc 1 1 1 1
vc 1 1 1 1
vc 1 1 1 1
vc 1 1 1 1
vc 1 1 1 1
vc 1 1 1 1
vc 1 1 1 1
vc 1 1 1 1
vc 1 1 1 1
vc 1 1 1 1
vc 1 1 1 1
vc 1 1 1 1
vc 1 1 1 1
vc 1 1 1 1
vc 1 1 1 1
vc 1 1 1 1
vc 1 1 1 1
vc 1 1 1 1
vc 1 1 1 1
vc 1 1 1 1
vc 1 1 1 1
vc 1 1 1 1
vc 1 1 1 1
vc 1 1 1 1
vc 1 1 1 1
vc 1 1 1 1
vc 1 1 1 1
vc 1 1 1 1
vc 1 1 1 1
vc 1 1 1 1
vc 1 1 1 1
vc 1 1 1 1
vc 1 1 1 1
vc 1 1 1 1
vc 1 1 1 1
vc 1 1 1 1
vc 1 1 1 1
vc 1 1 1 1
vc 1 1 1 1
vc 1 1 1 1
vc 1 1 1 1
vc 1 1 1 1
vc 1 1 1 1
vc 1 1 1 1
vc 1 1 1 1
vc 1 1 1 1
vc 1 1 1 1
vc 1 1 1 1
vc 1 1 1 1
vc 1 1 1 1
vc 1 1 1 1
vc 1 1 1 1
vc 1 1 1 1
vc 1 1 1 1
vc 1 1 1 1
vc 1 1 1 1
vc 1 1 1 1
vc 1 1 1 1
vc 1 1 1 1
f 1/1/1 3/3/3 2/2/2
f 1/1/1 2/2/2 4/4/4
f 5/5/5 7/7/7 6/6/6
f 5/5/5 6/6/6 8/8/8
f 9/9/9 11/11/11 10/10/10
f 9/9/9 10/10/10 12/12/12
f 13/13/13 15/15/15 14/14/14
f 13/13/13 14/14/14 16/16/16
f 17/17/17 19/19/19 18/18/18
f 17/17/17 18/18/18 20/20/20
f 21/21/21 23/23/23 22/22/22
f 21/21/21 22/22/22 24/24/24
f 25/25/25 27/27/27 26/26/26
f 25/25/25 26/26/26 28/28/28
f 29/29/29 31/31/31 30/30/30
f 29/29/29 30/30/30 32/32/32
f 33/33/33 35/35/35 34/34/34
f 33/33/33 34/34/34 36/36/36
f 37/37/37 39/39/39 38/38/38
f 37/37/37 38/38/38 40/40/40
f 41/41/41 43/43/43 42/42/42
f 41/41/41 42/42/42 44/44/44
f 45/45/45 47/47/47 46/46/46
f 45/45/45 46/46/46 48/48/48
f 49/49/49 51/51/51 50/50/50
f 49/49/49 50/50/50 52/52/52
f 53/53/53 55/55/55 54/54/54
f 53/53/53 54/54/54 56/56/56
f 57/57/57 59/59/59 58/58/58
f 57/57/57 58/58/58 60/60/60
f 61/61/61 63/63/63 62/62/62
f 61/61/61 62/62/62 64/64/64
f 65/65/65 67/67/67 66/66/66
f 65/65/65 66/66/66 68/68/68
f 69/69/69 71/71/71 70/70/70
f 69/69/69 70/70/70 72/72/72

