g Exported Mesh Combined Mesh 
v 0.07365943 -0.4685684 0.07697425
v -0.07365954 -0.4685683 -0.07697425
v -0.07365934 -0.4685683 0.07697444
v 0.07365926 -0.4685684 -0.07697444
v 0.07365951 0.4096456 0.07697425
v -0.0736594 0.4096456 -0.07697425
v 0.07365934 0.4096456 -0.07697444
v -0.07365926 0.4096456 0.07697436
v 0.07365943 -0.4685684 0.07697425
v -0.07365926 0.4096456 0.07697436
v 0.07365951 0.4096456 0.07697425
v -0.07365934 -0.4685683 0.07697444
v -0.07365934 -0.4685683 0.07697444
v -0.0736594 0.4096456 -0.07697425
v -0.07365926 0.4096456 0.07697436
v -0.07365954 -0.4685683 -0.07697425
v -0.07365954 -0.4685683 -0.07697425
v 0.07365934 0.4096456 -0.07697444
v -0.0736594 0.4096456 -0.07697425
v 0.07365926 -0.4685684 -0.07697444
v 0.07365951 0.4096456 0.07697425
v 0.07365926 -0.4685684 -0.07697444
v 0.07365943 -0.4685684 0.07697425
v 0.07365934 0.4096456 -0.07697444
v 0.1378623 -0.6921999 0.1440663
v -0.1378624 -0.6921998 -0.1440663
v -0.137862 -0.6921998 0.1440667
v 0.137862 -0.6921999 -0.1440667
v 0.1378623 -0.375553 0.1440663
v -0.1378623 -0.375553 -0.1440663
v 0.137862 -0.375553 -0.1440667
v -0.137862 -0.375553 0.1440665
v 0.1378623 -0.6921999 0.1440663
v -0.137862 -0.375553 0.1440665
v 0.1378623 -0.375553 0.1440663
v -0.137862 -0.6921998 0.1440667
v -0.137862 -0.6921998 0.1440667
v -0.1378623 -0.375553 -0.1440663
v -0.137862 -0.375553 0.1440665
v -0.1378624 -0.6921998 -0.1440663
v -0.1378624 -0.6921998 -0.1440663
v 0.137862 -0.375553 -0.1440667
v -0.1378623 -0.375553 -0.1440663
v 0.137862 -0.6921999 -0.1440667
v 0.1378623 -0.375553 0.1440663
v 0.137862 -0.6921999 -0.1440667
v 0.1378623 -0.6921999 0.1440663
v 0.137862 -0.375553 -0.1440667
v 0.1378623 0.375553 0.1440663
v -0.1378624 0.375553 -0.1440663
v -0.137862 0.375553 0.1440667
v 0.137862 0.375553 -0.1440667
v 0.1378623 0.6921998 0.1440663
v -0.1378623 0.6921999 -0.1440663
v 0.137862 0.6921998 -0.1440667
v -0.137862 0.6921999 0.1440665
v 0.1378623 0.375553 0.1440663
v -0.137862 0.6921999 0.1440665
v 0.1378623 0.6921998 0.1440663
v -0.137862 0.375553 0.1440667
v -0.137862 0.375553 0.1440667
v -0.1378623 0.6921999 -0.1440663
v -0.137862 0.6921999 0.1440665
v -0.1378624 0.375553 -0.1440663
v -0.1378624 0.375553 -0.1440663
v 0.137862 0.6921998 -0.1440667
v -0.1378623 0.6921999 -0.1440663
v 0.137862 0.375553 -0.1440667
v 0.1378623 0.6921998 0.1440663
v 0.137862 0.375553 -0.1440667
v 0.1378623 0.375553 0.1440663
v 0.137862 0.6921998 -0.1440667

vn -1.192093E-07 -1 1.563194E-13
vn -1.192093E-07 -1 1.563194E-13
vn -1.192093E-07 -1 1.563194E-13
vn -1.192093E-07 -1 1.563194E-13
vn 1.192093E-07 1 -1.563194E-13
vn 1.192093E-07 1 -1.563194E-13
vn 1.192093E-07 1 -1.563194E-13
vn 1.192093E-07 1 -1.563194E-13
vn 1.311302E-06 -1.563194E-13 1
vn 1.311302E-06 -1.563194E-13 1
vn 1.311302E-06 -1.563194E-13 1
vn 1.311302E-06 -1.563194E-13 1
vn -1 1.192093E-07 8.328352E-07
vn -1 1.192093E-07 8.328352E-07
vn -1 1.192093E-07 8.328352E-07
vn -1 1.192093E-07 8.328352E-07
vn -1.311302E-06 1.563194E-13 -1
vn -1.311302E-06 1.563194E-13 -1
vn -1.311302E-06 1.563194E-13 -1
vn -1.311302E-06 1.563194E-13 -1
vn 1 -1.192093E-07 -1.311302E-06
vn 1 -1.192093E-07 -1.311302E-06
vn 1 -1.192093E-07 -1.311302E-06
vn 1 -1.192093E-07 -1.311302E-06
vn -1.192093E-07 -1 1.563194E-13
vn -1.192093E-07 -1 1.563194E-13
vn -1.192093E-07 -1 1.563194E-13
vn -1.192093E-07 -1 1.563194E-13
vn 1.192093E-07 1 -1.563194E-13
vn 1.192093E-07 1 -1.563194E-13
vn 1.192093E-07 1 -1.563194E-13
vn 1.192093E-07 1 -1.563194E-13
vn 1.311302E-06 -1.563194E-13 1
vn 1.311302E-06 -1.563194E-13 1
vn 1.311302E-06 -1.563194E-13 1
vn 1.311302E-06 -1.563194E-13 1
vn -1 1.192093E-07 8.328351E-07
vn -1 1.192093E-07 8.328351E-07
vn -1 1.192093E-07 8.328351E-07
vn -1 1.192093E-07 8.328351E-07
vn -1.311302E-06 1.563194E-13 -1
vn -1.311302E-06 1.563194E-13 -1
vn -1.311302E-06 1.563194E-13 -1
vn -1.311302E-06 1.563194E-13 -1
vn 1 -1.192093E-07 -1.311302E-06
vn 1 -1.192093E-07 -1.311302E-06
vn 1 -1.192093E-07 -1.311302E-06
vn 1 -1.192093E-07 -1.311302E-06
vn -1.192093E-07 -1 1.563194E-13
vn -1.192093E-07 -1 1.563194E-13
vn -1.192093E-07 -1 1.563194E-13
vn -1.192093E-07 -1 1.563194E-13
vn 1.192093E-07 1 -1.563194E-13
vn 1.192093E-07 1 -1.563194E-13
vn 1.192093E-07 1 -1.563194E-13
vn 1.192093E-07 1 -1.563194E-13
vn 1.311302E-06 -1.563194E-13 1
vn 1.311302E-06 -1.563194E-13 1
vn 1.311302E-06 -1.563194E-13 1
vn 1.311302E-06 -1.563194E-13 1
vn -1 1.192093E-07 8.328351E-07
vn -1 1.192093E-07 8.328351E-07
vn -1 1.192093E-07 8.328351E-07
vn -1 1.192093E-07 8.328351E-07
vn -1.311302E-06 1.563194E-13 -1
vn -1.311302E-06 1.563194E-13 -1
vn -1.311302E-06 1.563194E-13 -1
vn -1.311302E-06 1.563194E-13 -1
vn 1 -1.192093E-07 -1.311302E-06
vn 1 -1.192093E-07 -1.311302E-06
vn 1 -1.192093E-07 -1.311302E-06
vn 1 -1.192093E-07 -1.311302E-06

vt 0.000171 0.5
vt 0.499659 0.749744
vt 0.499659 0.5
vt 0.000171 0.749744
vt 0.000171 0.499659
vt 0.499659 0.249915
vt 0.000171 0.249915
vt 0.499659 0.499659
vt 0.5 0.000171
vt 0.749744 0.499659
vt 0.749744 0.000171
vt 0.5 0.499659
vt 0.5 0.749744
vt 0.749744 0.5
vt 0.5 0.5
vt 0.749744 0.749744
vt 0.499659 0.000171
vt 0.000171 0.249915
vt 0.499659 0.249915
vt 0.000171 0.000171
vt 0.99983 0.249915
vt 0.750085 0.000171
vt 0.750085 0.249915
vt 0.99983 0.000171
vt 0.000171 0.5
vt 0.499659 0.749744
vt 0.499659 0.5
vt 0.000171 0.749744
vt 0.000171 0.499659
vt 0.499659 0.249915
vt 0.000171 0.249915
vt 0.499659 0.499659
vt 0.5 0.000171
vt 0.749744 0.499659
vt 0.749744 0.000171
vt 0.5 0.499659
vt 0.5 0.749744
vt 0.749744 0.5
vt 0.5 0.5
vt 0.749744 0.749744
vt 0.499659 0.000171
vt 0.000171 0.249915
vt 0.499659 0.249915
vt 0.000171 0.000171
vt 0.99983 0.249915
vt 0.750085 0.000171
vt 0.750085 0.249915
vt 0.99983 0.000171
vt 0.000171 0.5
vt 0.499659 0.749744
vt 0.499659 0.5
vt 0.000171 0.749744
vt 0.000171 0.499659
vt 0.499659 0.249915
vt 0.000171 0.249915
vt 0.499659 0.499659
vt 0.5 0.000171
vt 0.749744 0.499659
vt 0.749744 0.000171
vt 0.5 0.499659
vt 0.5 0.749744
vt 0.749744 0.5
vt 0.5 0.5
vt 0.749744 0.749744
vt 0.499659 0.000171
vt 0.000171 0.249915
vt 0.499659 0.249915
vt 0.000171 0.000171
vt 0.99983 0.249915
vt 0.750085 0.000171
vt 0.750085 0.249915
vt 0.99983 0.000171

vt1 0 0
vt1 0 0
vt1 0 0
vt1 0 0
vt1 0 0
vt1 0 0
vt1 0 0
vt1 0 0
vt1 0 0
vt1 0 0
vt1 0 0
vt1 0 0
vt1 0 0
vt1 0 0
vt1 0 0
vt1 0 0
vt1 0 0
vt1 0 0
vt1 0 0
vt1 0 0
vt1 0 0
vt1 0 0
vt1 0 0
vt1 0 0
vt1 0 0
vt1 0 0
vt1 0 0
vt1 0 0
vt1 0 0
vt1 0 0
vt1 0 0
vt1 0 0
vt1 0 0
vt1 0 0
vt1 0 0
vt1 0 0
vt1 0 0
vt1 0 0
vt1 0 0
vt1 0 0
vt1 0 0
vt1 0 0
vt1 0 0
vt1 0 0
vt1 0 0
vt1 0 0
vt1 0 0
vt1 0 0
vt1 0 0
vt1 0 0
vt1 0 0
vt1 0 0
vt1 0 0
vt1 0 0
vt1 0 0
vt1 0 0
vt1 0 0
vt1 0 0
vt1 0 0
vt1 0 0
vt1 0 0
vt1 0 0
vt1 0 0
vt1 0 0
vt1 0 0
vt1 0 0
vt1 0 0
vt1 0 0
vt1 0 0
vt1 0 0
vt1 0 0
vt1 0 0

vt2 0 0
vt2 0 0
vt2 0 0
vt2 0 0
vt2 0 0
vt2 0 0
vt2 0 0
vt2 0 0
vt2 0 0
vt2 0 0
vt2 0 0
vt2 0 0
vt2 0 0
vt2 0 0
vt2 0 0
vt2 0 0
vt2 0 0
vt2 0 0
vt2 0 0
vt2 0 0
vt2 0 0
vt2 0 0
vt2 0 0
vt2 0 0
vt2 0 0
vt2 0 0
vt2 0 0
vt2 0 0
vt2 0 0
vt2 0 0
vt2 0 0
vt2 0 0
vt2 0 0
vt2 0 0
vt2 0 0
vt2 0 0
vt2 0 0
vt2 0 0
vt2 0 0
vt2 0 0
vt2 0 0
vt2 0 0
vt2 0 0
vt2 0 0
vt2 0 0
vt2 0 0
vt2 0 0
vt2 0 0
vt2 0 0
vt2 0 0
vt2 0 0
vt2 0 0
vt2 0 0
vt2 0 0
vt2 0 0
vt2 0 0
vt2 0 0
vt2 0 0
vt2 0 0
vt2 0 0
vt2 0 0
vt2 0 0
vt2 0 0
vt2 0 0
vt2 0 0
vt2 0 0
vt2 0 0
vt2 0 0
vt2 0 0
vt2 0 0
vt2 0 0
vt2 0 0

vc 1 1 1 1
vc 1 1 1 1
vc 1 1 1 1
vc 1 1 1 1
vc 1 1 1 1
vc 1 1 1 1
vc 1 1 1 1
vc 1 1 1 1
vc 1 1 1 1
vc 1 1 1 1
vc 1 1 1 1
vc 1 1 1 1
vc 1 1 1 1
vc 1 1 1 1
vc 1 1 1 1
vc 1 1 1 1
vc 1 1 1 1
vc 1 1 1 1
vc 1 1 1 1
vc 1 1 1 1
vc 1 1 1 1
vc 1 1 1 1
vc 1 1 1 1
vc 1 1 1 1
vc 1 1 1 1
vc 1 1 1 1
vc 1 1 1 1
vc 1 1 1 1
vc 1 1 1 1
vc 1 1 1 1
vc 1 1 1 1
vc 1 1 1 1
vc 1 1 1 1
vc 1 1 1 1
vc 1 1 1 1
vc 1 1 1 1
vc 1 1 1 1
vc 1 1 1 1
vc 1 1 1 1
vc 1 1 1 1
vc 1 1 1 1
vc 1 1 1 1
vc 1 1 1 1
vc 1 1 1 1
vc 1 1 1 1
vc 1 1 1 1
vc 1 1 1 1
vc 1 1 1 1
vc 1 1 1 1
vc 1 1 1 1
vc 1 1 1 1
vc 1 1 1 1
vc 1 1 1 1
vc 1 1 1 1
vc 1 1 1 1
vc 1 1 1 1
vc 1 1 1 1
vc 1 1 1 1
vc 1 1 1 1
vc 1 1 1 1
vc 1 1 1 1
vc 1 1 1 1
vc 1 1 1 1
vc 1 1 1 1
vc 1 1 1 1
vc 1 1 1 1
vc 1 1 1 1
vc 1 1 1 1
vc 1 1 1 1
vc 1 1 1 1
vc 1 1 1 1
vc 1 1 1 1
f 1/1/1 3/3/3 2/2/2
f 1/1/1 2/2/2 4/4/4
f 5/5/5 7/7/7 6/6/6
f 5/5/5 6/6/6 8/8/8
f 9/9/9 11/11/11 10/10/10
f 9/9/9 10/10/10 12/12/12
f 13/13/13 15/15/15 14/14/14
f 13/13/13 14/14/14 16/16/16
f 17/17/17 19/19/19 18/18/18
f 17/17/17 18/18/18 20/20/20
f 21/21/21 23/23/23 22/22/22
f 21/21/21 22/22/22 24/24/24
f 25/25/25 27/27/27 26/26/26
f 25/25/25 26/26/26 28/28/28
f 29/29/29 31/31/31 30/30/30
f 29/29/29 30/30/30 32/32/32
f 33/33/33 35/35/35 34/34/34
f 33/33/33 34/34/34 36/36/36
f 37/37/37 39/39/39 38/38/38
f 37/37/37 38/38/38 40/40/40
f 41/41/41 43/43/43 42/42/42
f 41/41/41 42/42/42 44/44/44
f 45/45/45 47/47/47 46/46/46
f 45/45/45 46/46/46 48/48/48
f 49/49/49 51/51/51 50/50/50
f 49/49/49 50/50/50 52/52/52
f 53/53/53 55/55/55 54/54/54
f 53/53/53 54/54/54 56/56/56
f 57/57/57 59/59/59 58/58/58
f 57/57/57 58/58/58 60/60/60
f 61/61/61 63/63/63 62/62/62
f 61/61/61 62/62/62 64/64/64
f 65/65/65 67/67/67 66/66/66
f 65/65/65 66/66/66 68/68/68
f 69/69/69 71/71/71 70/70/70
f 69/69/69 70/70/70 72/72/72

