g Exported Mesh Combined Mesh 
v -0.5 0.9987999 0.04999983
v -0.5 -0.001200277 -0.04999983
v -0.5 0.9987999 -0.05000019
v -0.5 -0.001200241 0.05000019
v -0.5 0.9987999 -0.05000019
v 0.5 -0.001200277 -0.04999983
v 0.5 0.9987999 -0.05000019
v -0.5 -0.001200277 -0.04999983
v 0.5 0.9987999 -0.05000019
v 0.5 -0.001200241 0.05000019
v 0.5 0.9987999 0.04999983
v 0.5 -0.001200277 -0.04999983
v 0.5 0.9987999 0.04999983
v -0.5 -0.001200241 0.05000019
v -0.5 0.9987999 0.04999983
v 0.5 -0.001200241 0.05000019
v -0.5 -0.001200241 0.05000019
v 0.5 -0.001200277 -0.04999983
v -0.5 -0.001200277 -0.04999983
v 0.5 -0.001200241 0.05000019
v 0.5 0.9987999 0.04999983
v -0.5 0.9987999 -0.05000019
v 0.5 0.9987999 -0.05000019
v -0.5 0.9987999 0.04999983
v -0.5000052 0.9987996 -0.0499995
v -0.600005 -0.00120042 -0.05000088
v -0.6000052 0.9987996 -0.05000052
v -0.5000051 -0.001200396 -0.04999986
v -0.6000052 0.9987996 -0.05000052
v -0.5999949 -0.001200002 -1.050001
v -0.5999951 0.9988 -1.050001
v -0.600005 -0.00120042 -0.05000088
v -0.5999951 0.9988 -1.050001
v -0.4999949 -0.001199979 -1.05
v -0.4999951 0.9988 -1.049999
v -0.5999949 -0.001200002 -1.050001
v -0.4999951 0.9988 -1.049999
v -0.5000051 -0.001200396 -0.04999986
v -0.5000052 0.9987996 -0.0499995
v -0.4999949 -0.001199979 -1.05
v -0.5000051 -0.001200396 -0.04999986
v -0.5999949 -0.001200002 -1.050001
v -0.600005 -0.00120042 -0.05000088
v -0.4999949 -0.001199979 -1.05
v -0.4999951 0.9988 -1.049999
v -0.6000052 0.9987996 -0.05000052
v -0.5999951 0.9988 -1.050001
v -0.5000052 0.9987996 -0.0499995
v 0.5999943 0.9987996 -0.0499994
v 0.4999946 -0.001200548 -0.05000098
v 0.4999943 0.9987996 -0.05000051
v 0.5999946 -0.001200506 -0.04999987
v 0.4999943 0.9987996 -0.05000051
v 0.5000056 -0.001200011 -1.050001
v 0.5000053 0.9988001 -1.050001
v 0.4999946 -0.001200548 -0.05000098
v 0.5000053 0.9988001 -1.050001
v 0.6000056 -0.00119997 -1.05
v 0.6000053 0.9988002 -1.049999
v 0.5000056 -0.001200011 -1.050001
v 0.6000053 0.9988002 -1.049999
v 0.5999946 -0.001200506 -0.04999987
v 0.5999943 0.9987996 -0.0499994
v 0.6000056 -0.00119997 -1.05
v 0.5999946 -0.001200506 -0.04999987
v 0.5000056 -0.001200011 -1.050001
v 0.4999946 -0.001200548 -0.05000098
v 0.6000056 -0.00119997 -1.05
v 0.6000053 0.9988002 -1.049999
v 0.4999943 0.9987996 -0.05000051
v 0.5000053 0.9988001 -1.050001
v 0.5999943 0.9987996 -0.0499994
v -0.5999817 0.9987999 -2.050001
v -0.4999817 -0.001200086 -2.049999
v -0.4999817 0.9987999 -2.049999
v -0.5999817 -0.001200074 -2.050001
v -0.4999817 0.9987999 -2.049999
v -0.4999983 -0.001199907 -1.049999
v -0.4999982 0.9988001 -1.049999
v -0.4999817 -0.001200086 -2.049999
v -0.4999982 0.9988001 -1.049999
v -0.5999983 -0.001199895 -1.050001
v -0.5999982 0.9988001 -1.050001
v -0.4999983 -0.001199907 -1.049999
v -0.5999982 0.9988001 -1.050001
v -0.5999817 -0.001200074 -2.050001
v -0.5999817 0.9987999 -2.050001
v -0.5999983 -0.001199895 -1.050001
v -0.5999817 -0.001200074 -2.050001
v -0.4999983 -0.001199907 -1.049999
v -0.4999817 -0.001200086 -2.049999
v -0.5999983 -0.001199895 -1.050001
v -0.5999982 0.9988001 -1.050001
v -0.4999817 0.9987999 -2.049999
v -0.4999982 0.9988001 -1.049999
v -0.5999817 0.9987999 -2.050001
v 0.5000183 0.9987996 -2.050001
v 0.6000172 -0.001200551 -2.049999
v 0.6000183 0.9987994 -2.05
v 0.5000173 -0.001200443 -2.05
v 0.6000183 0.9987994 -2.05
v 0.6000018 -0.001199538 -1.049999
v 0.6000028 0.9988005 -1.05
v 0.6000172 -0.001200551 -2.049999
v 0.6000028 0.9988005 -1.05
v 0.5000018 -0.00119943 -1.05
v 0.5000028 0.9988006 -1.050001
v 0.6000018 -0.001199538 -1.049999
v 0.5000028 0.9988006 -1.050001
v 0.5000173 -0.001200443 -2.05
v 0.5000183 0.9987996 -2.050001
v 0.5000018 -0.00119943 -1.05
v 0.5000173 -0.001200443 -2.05
v 0.6000018 -0.001199538 -1.049999
v 0.6000172 -0.001200551 -2.049999
v 0.5000018 -0.00119943 -1.05
v 0.5000028 0.9988006 -1.050001
v 0.6000183 0.9987994 -2.05
v 0.6000028 0.9988005 -1.05
v 0.5000183 0.9987996 -2.050001
v 0.5000147 0.9987999 -2.149998
v 0.5000139 -0.001200118 -2.049998
v 0.5000142 0.9987999 -2.049998
v 0.5000144 -0.001200106 -2.149998
v 0.5000142 0.9987999 -2.049998
v -0.4999861 -0.001199875 -2.050002
v -0.4999858 0.9988001 -2.050002
v 0.5000139 -0.001200118 -2.049998
v -0.4999858 0.9988001 -2.050002
v -0.4999856 -0.001199863 -2.150002
v -0.4999853 0.9988002 -2.150002
v -0.4999861 -0.001199875 -2.050002
v -0.4999853 0.9988002 -2.150002
v 0.5000144 -0.001200106 -2.149998
v 0.5000147 0.9987999 -2.149998
v -0.4999856 -0.001199863 -2.150002
v 0.5000144 -0.001200106 -2.149998
v -0.4999861 -0.001199875 -2.050002
v 0.5000139 -0.001200118 -2.049998
v -0.4999856 -0.001199863 -2.150002
v -0.4999853 0.9988002 -2.150002
v 0.5000142 0.9987999 -2.049998
v -0.4999858 0.9988001 -2.050002
v 0.5000147 0.9987999 -2.149998

vn -1 0 0
vn -1 0 0
vn -1 0 0
vn -1 0 0
vn 0 -3.576278E-07 -1
vn 0 -3.576278E-07 -1
vn 0 -3.576278E-07 -1
vn 0 -3.576278E-07 -1
vn 1 0 0
vn 1 0 0
vn 1 0 0
vn 1 0 0
vn 0 3.576278E-07 1
vn 0 3.576278E-07 1
vn 0 3.576278E-07 1
vn 0 3.576278E-07 1
vn 0 -1 3.576278E-07
vn 0 -1 3.576278E-07
vn 0 -1 3.576278E-07
vn 0 -1 3.576278E-07
vn 0 1 -3.576278E-07
vn 0 1 -3.576278E-07
vn 0 1 -3.576278E-07
vn 0 1 -3.576278E-07
vn -1.019239E-05 -3.576297E-07 1
vn -1.019239E-05 -3.576297E-07 1
vn -1.019239E-05 -3.576297E-07 1
vn -1.019239E-05 -3.576297E-07 1
vn -1 -1.788103E-07 -1.013279E-05
vn -1 -1.788103E-07 -1.013279E-05
vn -1 -1.788103E-07 -1.013279E-05
vn -1 -1.788103E-07 -1.013279E-05
vn 1.019239E-05 3.576297E-07 -1
vn 1.019239E-05 3.576297E-07 -1
vn 1.019239E-05 3.576297E-07 -1
vn 1.019239E-05 3.576297E-07 -1
vn 1 1.788103E-07 1.013279E-05
vn 1 1.788103E-07 1.013279E-05
vn 1 1.788103E-07 1.013279E-05
vn 1 1.788103E-07 1.013279E-05
vn 2.384228E-07 -1 -4.172301E-07
vn 2.384228E-07 -1 -4.172301E-07
vn 2.384228E-07 -1 -4.172301E-07
vn 2.384228E-07 -1 -4.172301E-07
vn -2.384228E-07 1 4.172301E-07
vn -2.384228E-07 1 4.172301E-07
vn -2.384228E-07 1 4.172301E-07
vn -2.384228E-07 1 4.172301E-07
vn -1.111627E-05 -4.768404E-07 1
vn -1.111627E-05 -4.768404E-07 1
vn -1.111627E-05 -4.768404E-07 1
vn -1.111627E-05 -4.768404E-07 1
vn -1 -2.980179E-07 -1.102686E-05
vn -1 -2.980179E-07 -1.102686E-05
vn -1 -2.980179E-07 -1.102686E-05
vn -1 -2.980179E-07 -1.102686E-05
vn 1.111627E-05 4.768404E-07 -1
vn 1.111627E-05 4.768404E-07 -1
vn 1.111627E-05 4.768404E-07 -1
vn 1.111627E-05 4.768404E-07 -1
vn 1 2.980179E-07 1.102686E-05
vn 1 2.980179E-07 1.102686E-05
vn 1 2.980179E-07 1.102686E-05
vn 1 2.980179E-07 1.102686E-05
vn 4.172385E-07 -1 -5.364372E-07
vn 4.172385E-07 -1 -5.364372E-07
vn 4.172385E-07 -1 -5.364372E-07
vn 4.172385E-07 -1 -5.364372E-07
vn -4.172385E-07 1 5.364372E-07
vn -4.172385E-07 1 5.364372E-07
vn -4.172385E-07 1 5.364372E-07
vn -4.172385E-07 1 5.364372E-07
vn 1.651049E-05 -2.384196E-07 -1
vn 1.651049E-05 -2.384196E-07 -1
vn 1.651049E-05 -2.384196E-07 -1
vn 1.651049E-05 -2.384196E-07 -1
vn 1 -5.960069E-08 1.657009E-05
vn 1 -5.960069E-08 1.657009E-05
vn 1 -5.960069E-08 1.657009E-05
vn 1 -5.960069E-08 1.657009E-05
vn -1.651049E-05 2.384196E-07 1
vn -1.651049E-05 2.384196E-07 1
vn -1.651049E-05 2.384196E-07 1
vn -1.651049E-05 2.384196E-07 1
vn -1 5.960069E-08 -1.657009E-05
vn -1 5.960069E-08 -1.657009E-05
vn -1 5.960069E-08 -1.657009E-05
vn -1 5.960069E-08 -1.657009E-05
vn -1.192122E-07 -1 1.78812E-07
vn -1.192122E-07 -1 1.78812E-07
vn -1.192122E-07 -1 1.78812E-07
vn -1.192122E-07 -1 1.78812E-07
vn 1.192122E-07 1 -1.78812E-07
vn 1.192122E-07 1 -1.78812E-07
vn 1.192122E-07 1 -1.78812E-07
vn 1.192122E-07 1 -1.78812E-07
vn 1.54376E-05 -1.072899E-06 -1
vn 1.54376E-05 -1.072899E-06 -1
vn 1.54376E-05 -1.072899E-06 -1
vn 1.54376E-05 -1.072899E-06 -1
vn 1 -1.013262E-06 1.549721E-05
vn 1 -1.013262E-06 1.549721E-05
vn 1 -1.013262E-06 1.549721E-05
vn 1 -1.013262E-06 1.549721E-05
vn -1.54376E-05 1.072899E-06 1
vn -1.54376E-05 1.072899E-06 1
vn -1.54376E-05 1.072899E-06 1
vn -1.54376E-05 1.072899E-06 1
vn -1 1.013262E-06 -1.549721E-05
vn -1 1.013262E-06 -1.549721E-05
vn -1 1.013262E-06 -1.549721E-05
vn -1 1.013262E-06 -1.549721E-05
vn -1.072899E-06 -1 1.013262E-06
vn -1.072899E-06 -1 1.013262E-06
vn -1.072899E-06 -1 1.013262E-06
vn -1.072899E-06 -1 1.013262E-06
vn 1.072899E-06 1 -1.013262E-06
vn 1.072899E-06 1 -1.013262E-06
vn 1.072899E-06 1 -1.013262E-06
vn 1.072899E-06 1 -1.013262E-06
vn 1 -2.426662E-07 4.498288E-06
vn 1 -2.426662E-07 4.498288E-06
vn 1 -2.426662E-07 4.498288E-06
vn 1 -2.426662E-07 4.498288E-06
vn -4.498288E-06 -5.959903E-08 1
vn -4.498288E-06 -5.959903E-08 1
vn -4.498288E-06 -5.959903E-08 1
vn -4.498288E-06 -5.959903E-08 1
vn -1 2.426662E-07 -4.498288E-06
vn -1 2.426662E-07 -4.498288E-06
vn -1 2.426662E-07 -4.498288E-06
vn -1 2.426662E-07 -4.498288E-06
vn 4.498288E-06 5.959903E-08 -1
vn 4.498288E-06 5.959903E-08 -1
vn 4.498288E-06 5.959903E-08 -1
vn 4.498288E-06 5.959903E-08 -1
vn -2.426656E-07 -1 -1.192149E-07
vn -2.426656E-07 -1 -1.192149E-07
vn -2.426656E-07 -1 -1.192149E-07
vn -2.426656E-07 -1 -1.192149E-07
vn 2.426656E-07 1 1.192149E-07
vn 2.426656E-07 1 1.192149E-07
vn 2.426656E-07 1 1.192149E-07
vn 2.426656E-07 1 1.192149E-07

vt 0.500163 0.000163
vt 0.550131 0.499837
vt 0.55013 0.000163
vt 0.500163 0.499837
vt 0.001647 0.499174
vt 0.498353 1.001798
vt -0.001312 0.998839
vt 0.501312 0.502133
vt 0.653891 0.000163
vt 0.603924 0.499837
vt 0.603924 0.000163
vt 0.653892 0.499837
vt 0.000163 0.999837
vt 0.499837 0.500163
vt 0.000163 0.500163
vt 0.499837 0.999837
vt 0.999837 0.500163
vt 0.500163 0.550131
vt 0.999837 0.550131
vt 0.500163 0.500163
vt 0.602424 0.499337
vt 0.552457 -0.000337
vt 0.552457 0.499337
vt 0.602424 -0.000337
vt 0.500163 0.000163
vt 0.550131 0.499837
vt 0.55013 0.000163
vt 0.500163 0.499837
vt 0.001647 0.499174
vt 0.498353 1.001798
vt -0.001312 0.998839
vt 0.501312 0.502133
vt 0.653891 0.000163
vt 0.603924 0.499837
vt 0.603924 0.000163
vt 0.653892 0.499837
vt 0.000163 0.999837
vt 0.499837 0.500163
vt 0.000163 0.500163
vt 0.499837 0.999837
vt 0.999837 0.500163
vt 0.500163 0.550131
vt 0.999837 0.550131
vt 0.500163 0.500163
vt 0.602424 0.499337
vt 0.552457 -0.000337
vt 0.552457 0.499337
vt 0.602424 -0.000337
vt 0.500163 0.000163
vt 0.550131 0.499837
vt 0.55013 0.000163
vt 0.500163 0.499837
vt 0.001647 0.499174
vt 0.498353 1.001798
vt -0.001312 0.998839
vt 0.501312 0.502133
vt 0.653891 0.000163
vt 0.603924 0.499837
vt 0.603924 0.000163
vt 0.653892 0.499837
vt 0.000163 0.999837
vt 0.499837 0.500163
vt 0.000163 0.500163
vt 0.499837 0.999837
vt 0.999837 0.500163
vt 0.500163 0.550131
vt 0.999837 0.550131
vt 0.500163 0.500163
vt 0.602424 0.499337
vt 0.552457 -0.000337
vt 0.552457 0.499337
vt 0.602424 -0.000337
vt 0.500163 0.000163
vt 0.550131 0.499837
vt 0.55013 0.000163
vt 0.500163 0.499837
vt 0.001647 0.499174
vt 0.498353 1.001798
vt -0.001312 0.998839
vt 0.501312 0.502133
vt 0.653891 0.000163
vt 0.603924 0.499837
vt 0.603924 0.000163
vt 0.653892 0.499837
vt 0.000163 0.999837
vt 0.499837 0.500163
vt 0.000163 0.500163
vt 0.499837 0.999837
vt 0.999837 0.500163
vt 0.500163 0.550131
vt 0.999837 0.550131
vt 0.500163 0.500163
vt 0.602424 0.499337
vt 0.552457 -0.000337
vt 0.552457 0.499337
vt 0.602424 -0.000337
vt 0.500163 0.000163
vt 0.550131 0.499837
vt 0.55013 0.000163
vt 0.500163 0.499837
vt 0.001647 0.499174
vt 0.498353 1.001798
vt -0.001312 0.998839
vt 0.501312 0.502133
vt 0.653891 0.000163
vt 0.603924 0.499837
vt 0.603924 0.000163
vt 0.653892 0.499837
vt 0.000163 0.999837
vt 0.499837 0.500163
vt 0.000163 0.500163
vt 0.499837 0.999837
vt 0.999837 0.500163
vt 0.500163 0.550131
vt 0.999837 0.550131
vt 0.500163 0.500163
vt 0.602424 0.499337
vt 0.552457 -0.000337
vt 0.552457 0.499337
vt 0.602424 -0.000337
vt 0.500163 0.000163
vt 0.550131 0.499837
vt 0.55013 0.000163
vt 0.500163 0.499837
vt 0.001647 0.499174
vt 0.498353 1.001798
vt -0.001312 0.998839
vt 0.501312 0.502133
vt 0.653891 0.000163
vt 0.603924 0.499837
vt 0.603924 0.000163
vt 0.653892 0.499837
vt 0.000163 0.999837
vt 0.499837 0.500163
vt 0.000163 0.500163
vt 0.499837 0.999837
vt 0.999837 0.500163
vt 0.500163 0.550131
vt 0.999837 0.550131
vt 0.500163 0.500163
vt 0.602424 0.499337
vt 0.552457 -0.000337
vt 0.552457 0.499337
vt 0.602424 -0.000337

vt1 0 0
vt1 0 0
vt1 0 0
vt1 0 0
vt1 0 0
vt1 0 0
vt1 0 0
vt1 0 0
vt1 0 0
vt1 0 0
vt1 0 0
vt1 0 0
vt1 0 0
vt1 0 0
vt1 0 0
vt1 0 0
vt1 0 0
vt1 0 0
vt1 0 0
vt1 0 0
vt1 0 0
vt1 0 0
vt1 0 0
vt1 0 0
vt1 0 0
vt1 0 0
vt1 0 0
vt1 0 0
vt1 0 0
vt1 0 0
vt1 0 0
vt1 0 0
vt1 0 0
vt1 0 0
vt1 0 0
vt1 0 0
vt1 0 0
vt1 0 0
vt1 0 0
vt1 0 0
vt1 0 0
vt1 0 0
vt1 0 0
vt1 0 0
vt1 0 0
vt1 0 0
vt1 0 0
vt1 0 0
vt1 0 0
vt1 0 0
vt1 0 0
vt1 0 0
vt1 0 0
vt1 0 0
vt1 0 0
vt1 0 0
vt1 0 0
vt1 0 0
vt1 0 0
vt1 0 0
vt1 0 0
vt1 0 0
vt1 0 0
vt1 0 0
vt1 0 0
vt1 0 0
vt1 0 0
vt1 0 0
vt1 0 0
vt1 0 0
vt1 0 0
vt1 0 0
vt1 0 0
vt1 0 0
vt1 0 0
vt1 0 0
vt1 0 0
vt1 0 0
vt1 0 0
vt1 0 0
vt1 0 0
vt1 0 0
vt1 0 0
vt1 0 0
vt1 0 0
vt1 0 0
vt1 0 0
vt1 0 0
vt1 0 0
vt1 0 0
vt1 0 0
vt1 0 0
vt1 0 0
vt1 0 0
vt1 0 0
vt1 0 0
vt1 0 0
vt1 0 0
vt1 0 0
vt1 0 0
vt1 0 0
vt1 0 0
vt1 0 0
vt1 0 0
vt1 0 0
vt1 0 0
vt1 0 0
vt1 0 0
vt1 0 0
vt1 0 0
vt1 0 0
vt1 0 0
vt1 0 0
vt1 0 0
vt1 0 0
vt1 0 0
vt1 0 0
vt1 0 0
vt1 0 0
vt1 0 0
vt1 0 0
vt1 0 0
vt1 0 0
vt1 0 0
vt1 0 0
vt1 0 0
vt1 0 0
vt1 0 0
vt1 0 0
vt1 0 0
vt1 0 0
vt1 0 0
vt1 0 0
vt1 0 0
vt1 0 0
vt1 0 0
vt1 0 0
vt1 0 0
vt1 0 0
vt1 0 0
vt1 0 0
vt1 0 0
vt1 0 0
vt1 0 0

vt2 0 0
vt2 0 0
vt2 0 0
vt2 0 0
vt2 0 0
vt2 0 0
vt2 0 0
vt2 0 0
vt2 0 0
vt2 0 0
vt2 0 0
vt2 0 0
vt2 0 0
vt2 0 0
vt2 0 0
vt2 0 0
vt2 0 0
vt2 0 0
vt2 0 0
vt2 0 0
vt2 0 0
vt2 0 0
vt2 0 0
vt2 0 0
vt2 0 0
vt2 0 0
vt2 0 0
vt2 0 0
vt2 0 0
vt2 0 0
vt2 0 0
vt2 0 0
vt2 0 0
vt2 0 0
vt2 0 0
vt2 0 0
vt2 0 0
vt2 0 0
vt2 0 0
vt2 0 0
vt2 0 0
vt2 0 0
vt2 0 0
vt2 0 0
vt2 0 0
vt2 0 0
vt2 0 0
vt2 0 0
vt2 0 0
vt2 0 0
vt2 0 0
vt2 0 0
vt2 0 0
vt2 0 0
vt2 0 0
vt2 0 0
vt2 0 0
vt2 0 0
vt2 0 0
vt2 0 0
vt2 0 0
vt2 0 0
vt2 0 0
vt2 0 0
vt2 0 0
vt2 0 0
vt2 0 0
vt2 0 0
vt2 0 0
vt2 0 0
vt2 0 0
vt2 0 0
vt2 0 0
vt2 0 0
vt2 0 0
vt2 0 0
vt2 0 0
vt2 0 0
vt2 0 0
vt2 0 0
vt2 0 0
vt2 0 0
vt2 0 0
vt2 0 0
vt2 0 0
vt2 0 0
vt2 0 0
vt2 0 0
vt2 0 0
vt2 0 0
vt2 0 0
vt2 0 0
vt2 0 0
vt2 0 0
vt2 0 0
vt2 0 0
vt2 0 0
vt2 0 0
vt2 0 0
vt2 0 0
vt2 0 0
vt2 0 0
vt2 0 0
vt2 0 0
vt2 0 0
vt2 0 0
vt2 0 0
vt2 0 0
vt2 0 0
vt2 0 0
vt2 0 0
vt2 0 0
vt2 0 0
vt2 0 0
vt2 0 0
vt2 0 0
vt2 0 0
vt2 0 0
vt2 0 0
vt2 0 0
vt2 0 0
vt2 0 0
vt2 0 0
vt2 0 0
vt2 0 0
vt2 0 0
vt2 0 0
vt2 0 0
vt2 0 0
vt2 0 0
vt2 0 0
vt2 0 0
vt2 0 0
vt2 0 0
vt2 0 0
vt2 0 0
vt2 0 0
vt2 0 0
vt2 0 0
vt2 0 0
vt2 0 0
vt2 0 0
vt2 0 0
vt2 0 0

vc 1 1 1 1
vc 1 1 1 1
vc 1 1 1 1
vc 1 1 1 1
vc 1 1 1 1
vc 1 1 1 1
vc 1 1 1 1
vc 1 1 1 1
vc 1 1 1 1
vc 1 1 1 1
vc 1 1 1 1
vc 1 1 1 1
vc 1 1 1 1
vc 1 1 1 1
vc 1 1 1 1
vc 1 1 1 1
vc 1 1 1 1
vc 1 1 1 1
vc 1 1 1 1
vc 1 1 1 1
vc 1 1 1 1
vc 1 1 1 1
vc 1 1 1 1
vc 1 1 1 1
vc 1 1 1 1
vc 1 1 1 1
vc 1 1 1 1
vc 1 1 1 1
vc 1 1 1 1
vc 1 1 1 1
vc 1 1 1 1
vc 1 1 1 1
vc 1 1 1 1
vc 1 1 1 1
vc 1 1 1 1
vc 1 1 1 1
vc 1 1 1 1
vc 1 1 1 1
vc 1 1 1 1
vc 1 1 1 1
vc 1 1 1 1
vc 1 1 1 1
vc 1 1 1 1
vc 1 1 1 1
vc 1 1 1 1
vc 1 1 1 1
vc 1 1 1 1
vc 1 1 1 1
vc 1 1 1 1
vc 1 1 1 1
vc 1 1 1 1
vc 1 1 1 1
vc 1 1 1 1
vc 1 1 1 1
vc 1 1 1 1
vc 1 1 1 1
vc 1 1 1 1
vc 1 1 1 1
vc 1 1 1 1
vc 1 1 1 1
vc 1 1 1 1
vc 1 1 1 1
vc 1 1 1 1
vc 1 1 1 1
vc 1 1 1 1
vc 1 1 1 1
vc 1 1 1 1
vc 1 1 1 1
vc 1 1 1 1
vc 1 1 1 1
vc 1 1 1 1
vc 1 1 1 1
vc 1 1 1 1
vc 1 1 1 1
vc 1 1 1 1
vc 1 1 1 1
vc 1 1 1 1
vc 1 1 1 1
vc 1 1 1 1
vc 1 1 1 1
vc 1 1 1 1
vc 1 1 1 1
vc 1 1 1 1
vc 1 1 1 1
vc 1 1 1 1
vc 1 1 1 1
vc 1 1 1 1
vc 1 1 1 1
vc 1 1 1 1
vc 1 1 1 1
vc 1 1 1 1
vc 1 1 1 1
vc 1 1 1 1
vc 1 1 1 1
vc 1 1 1 1
vc 1 1 1 1
vc 1 1 1 1
vc 1 1 1 1
vc 1 1 1 1
vc 1 1 1 1
vc 1 1 1 1
vc 1 1 1 1
vc 1 1 1 1
vc 1 1 1 1
vc 1 1 1 1
vc 1 1 1 1
vc 1 1 1 1
vc 1 1 1 1
vc 1 1 1 1
vc 1 1 1 1
vc 1 1 1 1
vc 1 1 1 1
vc 1 1 1 1
vc 1 1 1 1
vc 1 1 1 1
vc 1 1 1 1
vc 1 1 1 1
vc 1 1 1 1
vc 1 1 1 1
vc 1 1 1 1
vc 1 1 1 1
vc 1 1 1 1
vc 1 1 1 1
vc 1 1 1 1
vc 1 1 1 1
vc 1 1 1 1
vc 1 1 1 1
vc 1 1 1 1
vc 1 1 1 1
vc 1 1 1 1
vc 1 1 1 1
vc 1 1 1 1
vc 1 1 1 1
vc 1 1 1 1
vc 1 1 1 1
vc 1 1 1 1
vc 1 1 1 1
vc 1 1 1 1
vc 1 1 1 1
vc 1 1 1 1
vc 1 1 1 1
vc 1 1 1 1
vc 1 1 1 1
vc 1 1 1 1
f 1/1/1 3/3/3 2/2/2
f 1/1/1 2/2/2 4/4/4
f 5/5/5 7/7/7 6/6/6
f 5/5/5 6/6/6 8/8/8
f 9/9/9 11/11/11 10/10/10
f 9/9/9 10/10/10 12/12/12
f 13/13/13 15/15/15 14/14/14
f 13/13/13 14/14/14 16/16/16
f 17/17/17 19/19/19 18/18/18
f 17/17/17 18/18/18 20/20/20
f 21/21/21 23/23/23 22/22/22
f 21/21/21 22/22/22 24/24/24
f 25/25/25 27/27/27 26/26/26
f 25/25/25 26/26/26 28/28/28
f 29/29/29 31/31/31 30/30/30
f 29/29/29 30/30/30 32/32/32
f 33/33/33 35/35/35 34/34/34
f 33/33/33 34/34/34 36/36/36
f 37/37/37 39/39/39 38/38/38
f 37/37/37 38/38/38 40/40/40
f 41/41/41 43/43/43 42/42/42
f 41/41/41 42/42/42 44/44/44
f 45/45/45 47/47/47 46/46/46
f 45/45/45 46/46/46 48/48/48
f 49/49/49 51/51/51 50/50/50
f 49/49/49 50/50/50 52/52/52
f 53/53/53 55/55/55 54/54/54
f 53/53/53 54/54/54 56/56/56
f 57/57/57 59/59/59 58/58/58
f 57/57/57 58/58/58 60/60/60
f 61/61/61 63/63/63 62/62/62
f 61/61/61 62/62/62 64/64/64
f 65/65/65 67/67/67 66/66/66
f 65/65/65 66/66/66 68/68/68
f 69/69/69 71/71/71 70/70/70
f 69/69/69 70/70/70 72/72/72
f 73/73/73 75/75/75 74/74/74
f 73/73/73 74/74/74 76/76/76
f 77/77/77 79/79/79 78/78/78
f 77/77/77 78/78/78 80/80/80
f 81/81/81 83/83/83 82/82/82
f 81/81/81 82/82/82 84/84/84
f 85/85/85 87/87/87 86/86/86
f 85/85/85 86/86/86 88/88/88
f 89/89/89 91/91/91 90/90/90
f 89/89/89 90/90/90 92/92/92
f 93/93/93 95/95/95 94/94/94
f 93/93/93 94/94/94 96/96/96
f 97/97/97 99/99/99 98/98/98
f 97/97/97 98/98/98 100/100/100
f 101/101/101 103/103/103 102/102/102
f 101/101/101 102/102/102 104/104/104
f 105/105/105 107/107/107 106/106/106
f 105/105/105 106/106/106 108/108/108
f 109/109/109 111/111/111 110/110/110
f 109/109/109 110/110/110 112/112/112
f 113/113/113 115/115/115 114/114/114
f 113/113/113 114/114/114 116/116/116
f 117/117/117 119/119/119 118/118/118
f 117/117/117 118/118/118 120/120/120
f 121/121/121 123/123/123 122/122/122
f 121/121/121 122/122/122 124/124/124
f 125/125/125 127/127/127 126/126/126
f 125/125/125 126/126/126 128/128/128
f 129/129/129 131/131/131 130/130/130
f 129/129/129 130/130/130 132/132/132
f 133/133/133 135/135/135 134/134/134
f 133/133/133 134/134/134 136/136/136
f 137/137/137 139/139/139 138/138/138
f 137/137/137 138/138/138 140/140/140
f 141/141/141 143/143/143 142/142/142
f 141/141/141 142/142/142 144/144/144

