g Exported Mesh Combined Mesh 
v -0.2857592 1.665305 -1.042821
v -0.5157545 2.024682 -1.042822
v -0.5157545 1.665305 -1.042822
v -0.2857592 2.024682 -1.042821
v -0.2857592 1.063754 -1.042821
v -0.5157545 1.42313 -1.042822
v -0.5157545 1.063754 -1.042822
v -0.2857592 1.42313 -1.042821
v -0.2857592 0.3317657 -1.042821
v -0.5157545 0.6911424 -1.042822
v -0.5157545 0.3317657 -1.042822
v -0.2857592 0.6911424 -1.042821
v 0.8584059 0.4588187 -1.056055
v 0.6145555 0.6853238 -1.056056
v 0.6145555 0.4588187 -1.056056
v 0.8584059 0.6853238 -1.056055
v 0.5553304 0.5187019 0.1779009
v 0.7991809 0.7452069 0.1779009
v 0.7991809 0.5187019 0.1779009
v 0.5553304 0.7452069 0.1779009
v -1.032452 0.3834577 -0.7132533
v -1.032451 0.6551384 -0.1491517
v -1.032451 0.3834577 -0.1491517
v -1.032452 0.6551384 -0.7132533
v -1.032452 0.3834577 0.395845
v -1.032451 0.6551384 0.9599466
v -1.032451 0.3834577 0.9599466
v -1.032452 0.6551384 0.395845
v -1.018899 1.622256 -0.6203725
v -1.018898 1.45538 -0.2717153
v -1.018898 1.455379 -0.6203722
v -1.018899 1.622257 -0.2717157
v -1.018899 1.8076 -0.620373
v -1.018899 1.640724 -0.2717157
v -1.018899 1.640723 -0.6203726
v -1.018899 1.8076 -0.2717161
v -1.018898 1.429917 -0.6203721
v -1.018898 1.263041 -0.2717149
v -1.018898 1.26304 -0.6203718
v -1.018898 1.429918 -0.2717153
v -1.018898 1.241076 -0.6203717
v -1.018898 1.074201 -0.2717144
v -1.018898 1.0742 -0.6203713
v -1.018898 1.241077 -0.2717148
v 1.286213 0.5180608 -0.2652061
v 1.286213 0.8033255 -0.4017414
v 1.286213 0.5180608 -0.4017414
v 1.286213 0.8033255 -0.2652061
v 1.286212 0.5180608 -0.1135612
v 1.286213 0.8033255 -0.2500966
v 1.286213 0.5180608 -0.2500966
v 1.286212 0.8033255 -0.1135612
v 1.286213 0.5180608 -0.4225742
v 1.286213 0.8033255 -0.5591096
v 1.286213 0.5180608 -0.5591096
v 1.286213 0.8033255 -0.4225742
v 1.286213 0.5180608 -0.5770801
v 1.286214 0.8033255 -0.7136155
v 1.286214 0.5180608 -0.7136155
v 1.286213 0.8033255 -0.5770801
v -0.6545572 1.790532 0.1805996
v -0.2129621 1.902521 0.1805996
v -0.2129621 1.790532 0.1805996
v -0.6545572 1.902521 0.1805996

vn 4.509904E-06 7.549792E-08 -1
vn 4.509904E-06 7.549792E-08 -1
vn 4.509904E-06 7.549792E-08 -1
vn 4.509904E-06 7.549792E-08 -1
vn 4.509904E-06 7.549792E-08 -1
vn 4.509904E-06 7.549792E-08 -1
vn 4.509904E-06 7.549792E-08 -1
vn 4.509904E-06 7.549792E-08 -1
vn 4.509904E-06 7.549792E-08 -1
vn 4.509904E-06 7.549792E-08 -1
vn 4.509904E-06 7.549792E-08 -1
vn 4.509904E-06 7.549792E-08 -1
vn 3.667018E-06 7.549792E-08 -1
vn 3.667018E-06 7.549792E-08 -1
vn 3.667018E-06 7.549792E-08 -1
vn 3.667018E-06 7.549792E-08 -1
vn 0 7.54979E-08 1
vn 0 7.54979E-08 1
vn 0 7.54979E-08 1
vn 0 7.54979E-08 1
vn -1 0 2.205372E-06
vn -1 0 2.205372E-06
vn -1 0 2.205372E-06
vn -1 0 2.205372E-06
vn -1 0 2.205372E-06
vn -1 0 2.205372E-06
vn -1 0 2.205372E-06
vn -1 0 2.205372E-06
vn -1 -2.205372E-06 4.863665E-12
vn -1 -2.205372E-06 4.863665E-12
vn -1 -2.205372E-06 4.863665E-12
vn -1 -2.205372E-06 4.863665E-12
vn -1 -2.205372E-06 4.863665E-12
vn -1 -2.205372E-06 4.863665E-12
vn -1 -2.205372E-06 4.863665E-12
vn -1 -2.205372E-06 4.863665E-12
vn -1 -2.205372E-06 4.863665E-12
vn -1 -2.205372E-06 4.863665E-12
vn -1 -2.205372E-06 4.863665E-12
vn -1 -2.205372E-06 4.863665E-12
vn -1 -2.205372E-06 4.863665E-12
vn -1 -2.205372E-06 4.863665E-12
vn -1 -2.205372E-06 4.863665E-12
vn -1 -2.205372E-06 4.863665E-12
vn 1 0 2.205372E-06
vn 1 0 2.205372E-06
vn 1 0 2.205372E-06
vn 1 0 2.205372E-06
vn 1 0 2.205372E-06
vn 1 0 2.205372E-06
vn 1 0 2.205372E-06
vn 1 0 2.205372E-06
vn 1 0 2.205372E-06
vn 1 0 2.205372E-06
vn 1 0 2.205372E-06
vn 1 0 2.205372E-06
vn 1 0 2.205372E-06
vn 1 0 2.205372E-06
vn 1 0 2.205372E-06
vn 1 0 2.205372E-06
vn 0 0 1
vn 0 0 1
vn 0 0 1
vn 0 0 1

vt 0 1
vt 1 0
vt 0 0
vt 1 1
vt 0 1
vt 1 0
vt 0 0
vt 1 1
vt 0 1
vt 1 0
vt 0 0
vt 1 1
vt 0 1
vt 1 0
vt 0 0
vt 1 1
vt 0 1
vt 1 0
vt 0 0
vt 1 1
vt 0 1
vt 1 0
vt 0 0
vt 1 1
vt 0 1
vt 1 0
vt 0 0
vt 1 1
vt 0 1
vt 1 0
vt 0 0
vt 1 1
vt 0 1
vt 1 0
vt 0 0
vt 1 1
vt 0 1
vt 1 0
vt 0 0
vt 1 1
vt 0 1
vt 1 0
vt 0 0
vt 1 1
vt 0 1
vt 1 0
vt 0 0
vt 1 1
vt 0 1
vt 1 0
vt 0 0
vt 1 1
vt 0 1
vt 1 0
vt 0 0
vt 1 1
vt 0 1
vt 1 0
vt 0 0
vt 1 1
vt 0 1
vt 1 0
vt 0 0
vt 1 1

vt1 0 0
vt1 0 0
vt1 0 0
vt1 0 0
vt1 0 0
vt1 0 0
vt1 0 0
vt1 0 0
vt1 0 0
vt1 0 0
vt1 0 0
vt1 0 0
vt1 0 0
vt1 0 0
vt1 0 0
vt1 0 0
vt1 0 0
vt1 0 0
vt1 0 0
vt1 0 0
vt1 0 0
vt1 0 0
vt1 0 0
vt1 0 0
vt1 0 0
vt1 0 0
vt1 0 0
vt1 0 0
vt1 0 0
vt1 0 0
vt1 0 0
vt1 0 0
vt1 0 0
vt1 0 0
vt1 0 0
vt1 0 0
vt1 0 0
vt1 0 0
vt1 0 0
vt1 0 0
vt1 0 0
vt1 0 0
vt1 0 0
vt1 0 0
vt1 0 0
vt1 0 0
vt1 0 0
vt1 0 0
vt1 0 0
vt1 0 0
vt1 0 0
vt1 0 0
vt1 0 0
vt1 0 0
vt1 0 0
vt1 0 0
vt1 0 0
vt1 0 0
vt1 0 0
vt1 0 0
vt1 0 0
vt1 0 0
vt1 0 0
vt1 0 0

vt2 0 0
vt2 0 0
vt2 0 0
vt2 0 0
vt2 0 0
vt2 0 0
vt2 0 0
vt2 0 0
vt2 0 0
vt2 0 0
vt2 0 0
vt2 0 0
vt2 0 0
vt2 0 0
vt2 0 0
vt2 0 0
vt2 0 0
vt2 0 0
vt2 0 0
vt2 0 0
vt2 0 0
vt2 0 0
vt2 0 0
vt2 0 0
vt2 0 0
vt2 0 0
vt2 0 0
vt2 0 0
vt2 0 0
vt2 0 0
vt2 0 0
vt2 0 0
vt2 0 0
vt2 0 0
vt2 0 0
vt2 0 0
vt2 0 0
vt2 0 0
vt2 0 0
vt2 0 0
vt2 0 0
vt2 0 0
vt2 0 0
vt2 0 0
vt2 0 0
vt2 0 0
vt2 0 0
vt2 0 0
vt2 0 0
vt2 0 0
vt2 0 0
vt2 0 0
vt2 0 0
vt2 0 0
vt2 0 0
vt2 0 0
vt2 0 0
vt2 0 0
vt2 0 0
vt2 0 0
vt2 0 0
vt2 0 0
vt2 0 0
vt2 0 0

vc 1 1 1 1
vc 1 1 1 1
vc 1 1 1 1
vc 1 1 1 1
vc 1 1 1 1
vc 1 1 1 1
vc 1 1 1 1
vc 1 1 1 1
vc 1 1 1 1
vc 1 1 1 1
vc 1 1 1 1
vc 1 1 1 1
vc 1 1 1 1
vc 1 1 1 1
vc 1 1 1 1
vc 1 1 1 1
vc 1 1 1 1
vc 1 1 1 1
vc 1 1 1 1
vc 1 1 1 1
vc 1 1 1 1
vc 1 1 1 1
vc 1 1 1 1
vc 1 1 1 1
vc 1 1 1 1
vc 1 1 1 1
vc 1 1 1 1
vc 1 1 1 1
vc 1 1 1 1
vc 1 1 1 1
vc 1 1 1 1
vc 1 1 1 1
vc 1 1 1 1
vc 1 1 1 1
vc 1 1 1 1
vc 1 1 1 1
vc 1 1 1 1
vc 1 1 1 1
vc 1 1 1 1
vc 1 1 1 1
vc 1 1 1 1
vc 1 1 1 1
vc 1 1 1 1
vc 1 1 1 1
vc 1 1 1 1
vc 1 1 1 1
vc 1 1 1 1
vc 1 1 1 1
vc 1 1 1 1
vc 1 1 1 1
vc 1 1 1 1
vc 1 1 1 1
vc 1 1 1 1
vc 1 1 1 1
vc 1 1 1 1
vc 1 1 1 1
vc 1 1 1 1
vc 1 1 1 1
vc 1 1 1 1
vc 1 1 1 1
vc 1 1 1 1
vc 1 1 1 1
vc 1 1 1 1
vc 1 1 1 1
f 1/1/1 3/3/3 2/2/2
f 1/1/1 2/2/2 4/4/4
f 5/5/5 7/7/7 6/6/6
f 5/5/5 6/6/6 8/8/8
f 9/9/9 11/11/11 10/10/10
f 9/9/9 10/10/10 12/12/12
f 13/13/13 15/15/15 14/14/14
f 13/13/13 14/14/14 16/16/16
f 17/17/17 19/19/19 18/18/18
f 17/17/17 18/18/18 20/20/20
f 21/21/21 23/23/23 22/22/22
f 21/21/21 22/22/22 24/24/24
f 25/25/25 27/27/27 26/26/26
f 25/25/25 26/26/26 28/28/28
f 29/29/29 31/31/31 30/30/30
f 29/29/29 30/30/30 32/32/32
f 33/33/33 35/35/35 34/34/34
f 33/33/33 34/34/34 36/36/36
f 37/37/37 39/39/39 38/38/38
f 37/37/37 38/38/38 40/40/40
f 41/41/41 43/43/43 42/42/42
f 41/41/41 42/42/42 44/44/44
f 45/45/45 47/47/47 46/46/46
f 45/45/45 46/46/46 48/48/48
f 49/49/49 51/51/51 50/50/50
f 49/49/49 50/50/50 52/52/52
f 53/53/53 55/55/55 54/54/54
f 53/53/53 54/54/54 56/56/56
f 57/57/57 59/59/59 58/58/58
f 57/57/57 58/58/58 60/60/60
f 61/61/61 63/63/63 62/62/62
f 61/61/61 62/62/62 64/64/64

