g Exported Mesh Combined Mesh 
v -1.496657 0.5010025 1.62768
v -1.219554 0.9339865 1.62768
v -1.219554 0.5010025 1.62768
v -1.496657 0.9339865 1.62768
v 0.703343 0.5010026 1.604572
v 0.9804458 0.9339865 1.604572
v 0.9804458 0.5010026 1.604572
v 0.703343 0.9339865 1.604572
v 1.494658 0.5010006 1.106162
v 1.494659 0.9339846 0.8290595
v 1.494659 0.5010006 0.8290595
v 1.494658 0.9339846 1.106162
v 1.494658 0.5010006 -0.07133752
v 1.494659 0.9339846 -0.3484403
v 1.494659 0.5010006 -0.3484403
v 1.494658 0.9339846 -0.07133752
v -1.99804 0.5010006 0.8231595
v -1.998042 0.9339846 1.100262
v -1.998042 0.5010006 1.100262
v -1.99804 0.9339846 0.8231595
v -1.99804 0.5010006 -0.3543405
v -1.998042 0.9339846 -0.07723767
v -1.998042 0.5010006 -0.07723767
v -1.99804 0.9339846 -0.3543405
v -0.4801386 0.9208681 2.508622
v -0.03854344 1.032857 2.508622
v -0.03854344 0.9208681 2.508622
v -0.4801386 1.032857 2.508622
v 1.06131 0.5010006 -0.8455882
v 0.7842074 0.9339846 -0.8455896
v 0.7842074 0.5010006 -0.8455896
v 1.06131 0.9339846 -0.8455882
v -1.31169 0.5010006 -0.8455881
v -1.588793 0.9339846 -0.8455898
v -1.588793 0.5010006 -0.8455898
v -1.31169 0.9339846 -0.8455881
v 0.07688592 0.5010006 -0.845587
v -0.5725682 0.9339846 -0.8455909
v -0.5725682 0.5010006 -0.8455909
v 0.07688592 0.9339846 -0.845587

vn 0 7.54979E-08 1
vn 0 7.54979E-08 1
vn 0 7.54979E-08 1
vn 0 7.54979E-08 1
vn 0 7.54979E-08 1
vn 0 7.54979E-08 1
vn 0 7.54979E-08 1
vn 0 7.54979E-08 1
vn 1 0 2.205372E-06
vn 1 0 2.205372E-06
vn 1 0 2.205372E-06
vn 1 0 2.205372E-06
vn 1 0 2.741813E-06
vn 1 0 2.741813E-06
vn 1 0 2.741813E-06
vn 1 0 2.741813E-06
vn -1 0 -7.510185E-06
vn -1 0 -7.510185E-06
vn -1 0 -7.510185E-06
vn -1 0 -7.510185E-06
vn -1 0 -7.510185E-06
vn -1 0 -7.510185E-06
vn -1 0 -7.510185E-06
vn -1 0 -7.510185E-06
vn 0 0 1
vn 0 0 1
vn 0 0 1
vn 0 0 1
vn 5.175506E-06 0 -1
vn 5.175506E-06 0 -1
vn 5.175506E-06 0 -1
vn 5.175506E-06 0 -1
vn 6E-06 0 -1
vn 6E-06 0 -1
vn 6E-06 0 -1
vn 6E-06 0 -1
vn 6E-06 0 -1
vn 6E-06 0 -1
vn 6E-06 0 -1
vn 6E-06 0 -1

vt 0 1
vt 1 0
vt 0 0
vt 1 1
vt 0 1
vt 1 0
vt 0 0
vt 1 1
vt 0 1
vt 1 0
vt 0 0
vt 1 1
vt 0 1
vt 1 0
vt 0 0
vt 1 1
vt 0 1
vt 1 0
vt 0 0
vt 1 1
vt 0 1
vt 1 0
vt 0 0
vt 1 1
vt 0 1
vt 1 0
vt 0 0
vt 1 1
vt 0 1
vt 1 0
vt 0 0
vt 1 1
vt 0 1
vt 1 0
vt 0 0
vt 1 1
vt 0 1
vt 1 0
vt 0 0
vt 1 1

vt1 0 0
vt1 0 0
vt1 0 0
vt1 0 0
vt1 0 0
vt1 0 0
vt1 0 0
vt1 0 0
vt1 0 0
vt1 0 0
vt1 0 0
vt1 0 0
vt1 0 0
vt1 0 0
vt1 0 0
vt1 0 0
vt1 0 0
vt1 0 0
vt1 0 0
vt1 0 0
vt1 0 0
vt1 0 0
vt1 0 0
vt1 0 0
vt1 0 0
vt1 0 0
vt1 0 0
vt1 0 0
vt1 0 0
vt1 0 0
vt1 0 0
vt1 0 0
vt1 0 0
vt1 0 0
vt1 0 0
vt1 0 0
vt1 0 0
vt1 0 0
vt1 0 0
vt1 0 0

vt2 0 0
vt2 0 0
vt2 0 0
vt2 0 0
vt2 0 0
vt2 0 0
vt2 0 0
vt2 0 0
vt2 0 0
vt2 0 0
vt2 0 0
vt2 0 0
vt2 0 0
vt2 0 0
vt2 0 0
vt2 0 0
vt2 0 0
vt2 0 0
vt2 0 0
vt2 0 0
vt2 0 0
vt2 0 0
vt2 0 0
vt2 0 0
vt2 0 0
vt2 0 0
vt2 0 0
vt2 0 0
vt2 0 0
vt2 0 0
vt2 0 0
vt2 0 0
vt2 0 0
vt2 0 0
vt2 0 0
vt2 0 0
vt2 0 0
vt2 0 0
vt2 0 0
vt2 0 0

vc 1 1 1 1
vc 1 1 1 1
vc 1 1 1 1
vc 1 1 1 1
vc 1 1 1 1
vc 1 1 1 1
vc 1 1 1 1
vc 1 1 1 1
vc 1 1 1 1
vc 1 1 1 1
vc 1 1 1 1
vc 1 1 1 1
vc 1 1 1 1
vc 1 1 1 1
vc 1 1 1 1
vc 1 1 1 1
vc 1 1 1 1
vc 1 1 1 1
vc 1 1 1 1
vc 1 1 1 1
vc 1 1 1 1
vc 1 1 1 1
vc 1 1 1 1
vc 1 1 1 1
vc 1 1 1 1
vc 1 1 1 1
vc 1 1 1 1
vc 1 1 1 1
vc 1 1 1 1
vc 1 1 1 1
vc 1 1 1 1
vc 1 1 1 1
vc 1 1 1 1
vc 1 1 1 1
vc 1 1 1 1
vc 1 1 1 1
vc 1 1 1 1
vc 1 1 1 1
vc 1 1 1 1
vc 1 1 1 1
f 1/1/1 3/3/3 2/2/2
f 1/1/1 2/2/2 4/4/4
f 5/5/5 7/7/7 6/6/6
f 5/5/5 6/6/6 8/8/8
f 9/9/9 11/11/11 10/10/10
f 9/9/9 10/10/10 12/12/12
f 13/13/13 15/15/15 14/14/14
f 13/13/13 14/14/14 16/16/16
f 17/17/17 19/19/19 18/18/18
f 17/17/17 18/18/18 20/20/20
f 21/21/21 23/23/23 22/22/22
f 21/21/21 22/22/22 24/24/24
f 25/25/25 27/27/27 26/26/26
f 25/25/25 26/26/26 28/28/28
f 29/29/29 31/31/31 30/30/30
f 29/29/29 30/30/30 32/32/32
f 33/33/33 35/35/35 34/34/34
f 33/33/33 34/34/34 36/36/36
f 37/37/37 39/39/39 38/38/38
f 37/37/37 38/38/38 40/40/40

